<svg width="360" height="361" viewBox="0 0 360 361" fill="none" xmlns="http://www.w3.org/2000/svg">
<g opacity="0.6">
<rect opacity="0.2" x="0.183105" y="180.933" width="180.039" height="180.041" transform="rotate(-90 0.183105 180.933)" fill="white"/>
<path opacity="0.2" d="M1.0271 180.933L96.4936 88.0788L180.224 1.73539L180.224 180.933L1.0271 180.933Z" fill="white"/>
<path opacity="0.14" d="M180.224 91.194C180.224 79.4461 182.538 67.8133 187.034 56.9596C191.53 46.106 198.119 36.2442 206.426 27.9372C214.733 19.6302 224.595 13.0407 235.449 8.54498C246.302 4.04926 257.935 1.73535 269.683 1.73535C281.431 1.73535 293.064 4.04927 303.917 8.54499C314.771 13.0407 324.633 19.6302 332.94 27.9372C341.247 36.2442 347.836 46.106 352.332 56.9597C356.828 67.8133 359.142 79.4461 359.142 91.194L269.683 91.194L180.224 91.194Z" fill="white"/>
<path opacity="0.07" d="M180.224 180.933L84.3083 274.224L0.183299 360.974L0.183307 180.933L180.224 180.933Z" fill="white"/>
<path opacity="0.28" d="M359.142 180.265C359.142 168.517 356.828 156.884 352.332 146.031C347.836 135.177 341.247 125.315 332.94 117.008C324.633 108.701 314.771 102.112 303.917 97.616C293.064 93.1203 281.431 90.8063 269.683 90.8063C257.935 90.8063 246.302 93.1203 235.449 97.616C224.595 102.112 214.733 108.701 206.426 117.008C198.119 125.315 191.53 135.177 187.034 146.031C182.538 156.884 180.224 168.517 180.224 180.265L269.683 180.265L359.142 180.265Z" fill="white"/>
</g>
</svg>
