<svg width="187" height="37" viewBox="0 0 187 37" fill="none" xmlns="http://www.w3.org/2000/svg">
<g clip-path="url(#clip0_4882_62984)">
<path d="M60.2431 17.3188C61.6054 16.0694 62.4639 14.288 62.4639 12.301C62.4639 8.5367 59.3927 5.47363 55.6161 5.47363H43.6094V30.6512H55.8096C59.9126 30.6512 63.2377 27.3383 63.2377 23.2475C63.2377 20.8172 62.0568 18.665 60.2431 17.3148V17.3188ZM46.9023 8.75836H55.6121C57.5709 8.75836 59.167 10.3463 59.167 12.301C59.167 14.2558 57.5749 15.8437 55.6121 15.8437H46.9023V8.75836ZM55.8056 27.3665H46.9023V19.1284H55.8056C58.0868 19.1284 59.9408 20.9743 59.9408 23.2475C59.9408 25.5206 58.0908 27.3665 55.8056 27.3665Z" fill="white"/>
<path d="M79.1018 5.47363H67.5182L66.5146 8.76642H79.1018C81.6893 8.76642 83.7932 10.8703 83.7932 13.4577C83.7932 16.0452 81.6893 18.1491 79.1018 18.1491H66.5146V30.7278H69.8116V21.4419H79.1018C83.5071 21.4419 87.0902 17.8589 87.0902 13.4577C87.0902 9.05661 83.5071 5.47363 79.1018 5.47363Z" fill="white"/>
<path d="M80.5645 23.4453L83.5309 30.6596H87.0898L84.1314 23.4574L80.5645 23.4453Z" fill="white"/>
<path d="M94.0992 19.209H106.634V15.8518H94.0992V8.83091H107.795V5.47363H90.8022V30.7278H108.226V27.3705H94.0992V19.209Z" fill="white"/>
<path d="M122.018 26.7498L113.945 5.47363H110.41L119.991 30.7278H124.061L133.585 5.47363H129.93L122.018 26.7498Z" fill="white"/>
<path d="M139.446 5.47363H136.149V30.7278H139.446V5.47363Z" fill="white"/>
<path d="M158.679 17.3914L149.365 14.9812C147.861 14.4815 146.926 12.9419 147.249 11.3176C147.551 9.79819 148.986 8.77046 150.533 8.77046H154.955C157.575 8.77046 159.707 10.9025 159.707 13.5263H163.004C163.004 9.08482 159.392 5.47363 154.955 5.47363H150.594C147.232 5.47363 144.266 7.93617 143.923 11.2814C143.609 14.3485 145.459 17.1536 148.321 18.1088L157.833 20.5834C159.646 21.0026 159.787 22.9371 159.699 24.4404C159.602 26.1412 158.107 27.431 156.406 27.431H152.263C149.461 27.431 147.184 25.1498 147.184 22.3487H143.887C143.887 26.9675 147.644 30.7278 152.263 30.7278H156.523C160.158 30.7278 163.104 27.7131 163 24.0052C162.919 21.2363 162.355 18.8423 158.679 17.3914Z" fill="white"/>
<path d="M18.1814 5.04199C14.155 5.04199 10.5518 6.84759 8.1496 9.68898L9.45547 10.7852L11.0394 12.1112C12.7524 10.088 15.3158 8.8023 18.1814 8.8023C22.6835 8.8023 26.4398 11.9742 27.3225 16.194C27.4515 16.8106 27.52 17.4474 27.52 18.1003C27.52 20.055 26.9114 21.8727 25.8756 23.368C24.1949 25.8023 21.3736 27.3983 18.1814 27.3983C17.7542 27.3983 17.331 27.3701 16.9199 27.3137C12.7685 26.7575 9.48369 23.4808 8.92748 19.3497L6.87598 19.6278C7.55712 24.6778 11.5715 28.6759 16.6418 29.3571L16.4121 31.0458C16.9924 31.1264 17.5849 31.1627 18.1855 31.1627C22.6714 31.1627 26.6293 28.9218 28.9992 25.5041L27.5885 24.5408C28.8541 22.711 29.5957 20.4943 29.5957 18.1043C29.5957 17.3063 29.5111 16.5244 29.3579 15.7748L31.0346 15.4242C29.7932 9.49552 24.5133 5.04199 18.1895 5.04199H18.1814Z" fill="white"/>
<path d="M35.464 12.4657L32.6991 14.0456C33.0619 15.3353 33.2554 16.6936 33.2554 18.1002C33.2554 26.3906 26.5043 33.1092 18.1774 33.1092C9.85045 33.1092 3.10346 26.3906 3.10346 18.1002C3.10346 16.6734 3.30498 15.291 3.67981 13.9811L0.918946 12.4053C0.322437 14.1947 0 16.1092 0 18.1002C0 28.0954 8.14154 36.2004 18.1814 36.2004C28.2213 36.2004 36.3628 28.0954 36.3628 18.1002C36.3628 16.1333 36.0485 14.2391 35.464 12.4657Z" fill="white"/>
<path d="M18.1813 3.09127C24.8235 3.09127 30.4621 7.36747 32.4693 13.3042L35.206 11.7404C32.6265 4.88075 25.9762 0 18.1813 0C10.3864 0 3.77641 4.85253 1.17676 11.684L3.90941 13.2437C5.94077 7.33926 11.5633 3.09127 18.1813 3.09127Z" fill="white"/>
<path d="M23.7997 16.927C23.8803 17.3058 23.9207 17.6968 23.9207 18.0998C23.9207 19.3008 23.5499 20.4172 22.913 21.3362C21.8772 22.8314 20.1481 23.8108 18.1813 23.8108C17.9193 23.8108 17.6573 23.7947 17.4034 23.7584C14.8521 23.4158 12.8328 21.4047 12.4943 18.8656C12.458 18.6157 12.4419 18.3577 12.4419 18.0998C12.4419 16.6972 12.9497 15.4156 13.7921 14.4201C14.8441 13.1747 16.42 12.3848 18.1813 12.3848C20.9462 12.3848 23.2597 14.3355 23.7997 16.927Z" fill="white"/>
</g>
<defs>
<clipPath id="clip0_4882_62984">
<rect width="163" height="36.2006" fill="white"/>
</clipPath>
</defs>
</svg>
