<svg width="48" height="48" viewBox="0 0 48 48" fill="none" xmlns="http://www.w3.org/2000/svg">
  <!-- Succinct Icon - centered for circular display -->
  <defs>
    <linearGradient id="succinctGradient" x1="0%" y1="0%" x2="100%" y2="100%">
      <stop offset="0%" style="stop-color:#22D3EE"/>
      <stop offset="100%" style="stop-color:#06B6D4"/>
    </linearGradient>
  </defs>
  <g transform="translate(9, 2.25)">
    <path d="M30 4.3V13L22.5 17.3V8.65L15 13V22L7.5 17.3V8.65L22.5 0L30 4.3Z" fill="url(#succinctGradient)"/>
    <path opacity="0.6" d="M15 22L7.5 26L0 22L7.5 17.3L15 22Z" fill="url(#succinctGradient)"/>
    <path d="M22.5 26V35L7.5 43.5L0 39V30.3L7.5 26V35L15 30.3V22L22.5 26Z" fill="url(#succinctGradient)"/>
    <path opacity="0.6" d="M30 22L22.5 26L15 22L22.5 17.3L30 22Z" fill="url(#succinctGradient)"/>
  </g>
</svg>
