<svg width="32" height="32" viewBox="0 0 32 32" fill="none" xmlns="http://www.w3.org/2000/svg">
  <circle cx="16" cy="16" r="15" fill="#4DA2FF"/>
  <path fill-rule="evenodd" clip-rule="evenodd" d="M20.1 13.35C20.75 14.17 21.14 15.21 21.14 16.34C21.14 17.47 20.74 18.54 20.07 19.37L20.01 19.29C19.98 19.21 19.94 19.13 19.91 19.05C19.57 17.58 18.48 16.31 16.68 15.29C15.47 14.6 14.77 13.77 14.59 12.83C14.47 12.22 14.56 11.6 14.73 11.08C14.9 10.55 15.15 10.11 15.37 9.85L16.07 8.99C16.19 8.84 16.42 8.84 16.54 8.99L20.1 13.35ZM21.21 12.49L16.53 6.77C16.44 6.66 16.27 6.66 16.18 6.77L11.5 12.49L11.49 12.51C10.63 13.58 10.11 14.94 10.11 16.43C10.11 19.88 12.91 22.68 16.36 22.68C19.81 22.68 22.61 19.88 22.61 16.43C22.61 14.94 22.09 13.58 21.23 12.51L21.21 12.49ZM12.74 13.33L13.16 12.82L13.17 12.91C13.18 12.99 13.19 13.07 13.21 13.14C13.48 14.57 14.45 15.76 16.07 16.68C17.48 17.48 18.3 18.4 18.54 19.41C18.64 19.83 18.65 20.25 18.61 20.61L18.61 20.64L18.59 20.65C17.95 20.96 17.24 21.13 16.48 21.13C13.83 21.13 11.68 18.98 11.68 16.33C11.68 15.19 12.08 14.15 12.74 13.33Z" fill="white"/>
</svg>
