<svg width="32" height="32" viewBox="0 0 32 32" fill="none" xmlns="http://www.w3.org/2000/svg">
<path d="M31 14.7334V17.7344C29.8405 17.7344 28.8967 18.6797 28.8967 19.844V24.2792C28.8967 26.884 26.7815 28.9997 24.1839 28.9997H17.6344L19.432 25.9987H24.1839C25.1306 25.9987 25.9006 25.2275 25.9006 24.2792V19.844C25.9006 18.4336 26.4729 17.1612 27.3927 16.2339C26.4729 15.3096 25.9006 14.0342 25.9006 12.6267V7.71752C25.9006 6.77222 25.1306 6.00097 24.1839 6.00097H19.2133C18.2666 6.00097 17.4966 6.77222 17.4966 7.71752V14.7334H21.9068V17.7344H17.4966L17.4966 24.2792C17.4966 26.884 15.3843 28.9997 12.7867 28.9997H7.81614C5.21852 28.9997 3.10327 26.884 3.10327 24.2792L3.10327 19.844C3.10327 18.6797 2.15949 17.7344 1 17.7344V14.7334C2.15949 14.7334 3.10327 13.7881 3.10327 12.6267L3.10326 7.71752C3.10326 5.11568 5.21852 3 7.81614 3H14.3656L12.568 6.00097H7.81614C6.86937 6.00097 6.09937 6.77222 6.09937 7.71752L6.09937 12.6267C6.09937 14.0342 5.52711 15.3096 4.60731 16.2339C5.52711 17.1612 6.09937 18.4336 6.09937 19.844L6.09937 24.2792C6.09937 25.2275 6.86937 25.9987 7.81614 25.9987H12.7867C13.7305 25.9987 14.5005 25.2275 14.5005 24.2792L14.5004 7.71752C14.5004 5.11568 16.6157 3 19.2133 3H24.1839C26.7815 3 28.8967 5.11568 28.8967 7.71752L28.8967 12.6267C28.8967 13.7881 29.8405 14.7334 31 14.7334Z" fill="black"/>
</svg>
