<svg width="511" height="510" viewBox="0 0 511 510" fill="none" xmlns="http://www.w3.org/2000/svg">
<g filter="url(#filter0_bii_228_2053)">
<path d="M510.86 -250.379C495.192 -191.904 468.16 -137.089 431.307 -89.0617C394.455 -41.0345 348.503 -0.736258 296.077 29.5322C243.65 59.8007 185.775 79.4466 125.756 87.3482C65.7372 95.2499 4.7496 91.2525 -53.7246 75.5844C-112.199 59.9163 -167.014 32.8842 -215.041 -3.96834C-263.069 -40.8209 -303.367 -86.7722 -333.635 -139.199C-363.904 -191.625 -383.55 -249.5 -391.451 -309.519C-399.353 -369.538 -395.356 -430.526 -379.687 -489L-279.525 -462.162C-291.669 -416.841 -294.767 -369.572 -288.643 -323.054C-282.519 -276.536 -267.292 -231.68 -243.832 -191.046C-220.373 -150.413 -189.139 -114.798 -151.916 -86.2354C-114.692 -57.6727 -72.2069 -36.7214 -26.8863 -24.5777C18.4344 -12.4341 65.7032 -9.33594 112.221 -15.4601C158.739 -21.5843 203.596 -36.811 244.229 -60.2707C284.862 -83.7304 320.477 -114.964 349.04 -152.187C377.603 -189.411 398.554 -231.896 410.698 -277.217L510.86 -250.379Z" fill="white"/>
</g>
<g style="mix-blend-mode:multiply" filter="url(#filter1_bii_228_2053)">
<path d="M-18.0742 -468C24.7319 -425.194 58.6876 -374.376 81.8541 -318.447C105.021 -262.518 116.944 -202.574 116.944 -142.037C116.944 -81.5001 105.021 -21.556 81.8541 34.3728C58.6876 90.3016 24.7319 141.12 -18.0741 183.926C-60.8802 226.732 -111.698 260.687 -167.627 283.854C-223.556 307.02 -283.5 318.944 -344.037 318.944C-404.574 318.944 -464.518 307.02 -520.447 283.854C-576.376 260.687 -627.194 226.732 -670 183.926L-596.676 110.602C-563.499 143.779 -524.112 170.097 -480.764 188.052C-437.417 206.007 -390.957 215.249 -344.037 215.249C-297.118 215.249 -250.658 206.007 -207.31 188.052C-163.962 170.097 -124.575 143.779 -91.3979 110.602C-58.2208 77.425 -31.9034 38.0381 -13.948 -5.30978C4.00725 -48.6577 13.2487 -95.1177 13.2487 -142.037C13.2487 -188.957 4.00722 -235.417 -13.948 -278.764C-31.9034 -322.112 -58.2208 -361.499 -91.3979 -394.676L-18.0742 -468Z" fill="white" fill-opacity="0.07"/>
</g>
<defs>
<filter id="filter0_bii_228_2053" x="-400.378" y="-493.983" width="915.238" height="589.275" filterUnits="userSpaceOnUse" color-interpolation-filters="sRGB">
<feFlood flood-opacity="0" result="BackgroundImageFix"/>
<feGaussianBlur in="BackgroundImageFix" stdDeviation="2"/>
<feComposite in2="SourceAlpha" operator="in" result="effect1_backgroundBlur_228_2053"/>
<feBlend mode="normal" in="SourceGraphic" in2="effect1_backgroundBlur_228_2053" result="shape"/>
<feColorMatrix in="SourceAlpha" type="matrix" values="0 0 0 0 0 0 0 0 0 0 0 0 0 0 0 0 0 0 127 0" result="hardAlpha"/>
<feOffset dx="-4.98287" dy="-4.98287"/>
<feGaussianBlur stdDeviation="13.2877"/>
<feComposite in2="hardAlpha" operator="arithmetic" k2="-1" k3="1"/>
<feColorMatrix type="matrix" values="0 0 0 0 0.690196 0 0 0 0 0.654902 0 0 0 0 0.933333 0 0 0 1 0"/>
<feBlend mode="normal" in2="shape" result="effect2_innerShadow_228_2053"/>
<feColorMatrix in="SourceAlpha" type="matrix" values="0 0 0 0 0 0 0 0 0 0 0 0 0 0 0 0 0 0 127 0" result="hardAlpha"/>
<feOffset dx="-0.830479" dy="-0.830479"/>
<feComposite in2="hardAlpha" operator="arithmetic" k2="-1" k3="1"/>
<feColorMatrix type="matrix" values="0 0 0 0 0.75101 0 0 0 0 0.716667 0 0 0 0 1 0 0 0 1 0"/>
<feBlend mode="normal" in2="effect2_innerShadow_228_2053" result="effect3_innerShadow_228_2053"/>
</filter>
<filter id="filter1_bii_228_2053" x="-677" y="-475" width="800.944" height="800.944" filterUnits="userSpaceOnUse" color-interpolation-filters="sRGB">
<feFlood flood-opacity="0" result="BackgroundImageFix"/>
<feGaussianBlur in="BackgroundImageFix" stdDeviation="3.5"/>
<feComposite in2="SourceAlpha" operator="in" result="effect1_backgroundBlur_228_2053"/>
<feBlend mode="normal" in="SourceGraphic" in2="effect1_backgroundBlur_228_2053" result="shape"/>
<feColorMatrix in="SourceAlpha" type="matrix" values="0 0 0 0 0 0 0 0 0 0 0 0 0 0 0 0 0 0 127 0" result="hardAlpha"/>
<feOffset dx="-4.98287" dy="-4.98287"/>
<feGaussianBlur stdDeviation="13.2877"/>
<feComposite in2="hardAlpha" operator="arithmetic" k2="-1" k3="1"/>
<feColorMatrix type="matrix" values="0 0 0 0 0.690196 0 0 0 0 0.654902 0 0 0 0 0.933333 0 0 0 1 0"/>
<feBlend mode="normal" in2="shape" result="effect2_innerShadow_228_2053"/>
<feColorMatrix in="SourceAlpha" type="matrix" values="0 0 0 0 0 0 0 0 0 0 0 0 0 0 0 0 0 0 127 0" result="hardAlpha"/>
<feOffset dx="-0.830479" dy="-0.830479"/>
<feComposite in2="hardAlpha" operator="arithmetic" k2="-1" k3="1"/>
<feColorMatrix type="matrix" values="0 0 0 0 0.75101 0 0 0 0 0.716667 0 0 0 0 1 0 0 0 1 0"/>
<feBlend mode="normal" in2="effect2_innerShadow_228_2053" result="effect3_innerShadow_228_2053"/>
</filter>
</defs>
</svg>
