<svg width="1371" height="1840" viewBox="0 0 1371 1840" fill="none" xmlns="http://www.w3.org/2000/svg">
<g filter="url(#filter0_bii_207_1743)">
<path d="M426.288 1839.53C370.426 1742.78 334.168 1635.97 319.585 1525.2C305.002 1414.43 312.379 1301.87 341.296 1193.95C370.212 1086.04 420.102 984.87 488.115 896.233C556.129 807.595 640.935 733.222 737.692 677.36C834.449 621.497 941.261 585.24 1052.03 570.657C1162.8 556.074 1275.36 563.451 1383.27 592.367C1491.19 621.284 1592.36 671.173 1680.99 739.187C1769.63 807.201 1844 892.007 1899.87 988.764L1734.13 1084.45C1690.83 1009.46 1633.19 943.731 1564.49 891.017C1495.79 838.302 1417.38 799.635 1333.74 777.223C1250.1 754.811 1162.86 749.093 1077.01 760.396C991.157 771.699 908.372 799.8 833.38 843.097C758.389 886.393 692.659 944.037 639.945 1012.74C587.23 1081.43 548.563 1159.84 526.151 1243.49C503.74 1327.13 498.022 1414.37 509.324 1500.22C520.627 1586.07 548.729 1668.85 592.025 1743.85L426.288 1839.53Z" fill="white" fill-opacity="0.07"/>
</g>
<g style="mix-blend-mode:multiply" filter="url(#filter1_bii_207_1743)">
<path d="M955.382 1312.56C899.519 1215.8 863.262 1108.99 848.679 998.223C834.095 887.454 841.473 774.897 870.389 666.979C899.306 559.061 949.195 457.896 1017.21 369.258C1085.22 280.621 1170.03 206.248 1266.79 150.386C1363.54 94.5232 1470.35 58.2655 1581.12 43.6825C1691.89 29.0994 1804.45 36.4767 1912.37 65.3933C2020.29 94.3098 2121.45 144.199 2210.09 212.213C2298.73 280.227 2373.1 365.033 2428.96 461.79L2263.22 557.478C2219.93 482.486 2162.28 416.757 2093.59 364.042C2024.89 311.328 1946.48 272.661 1862.84 250.249C1779.19 227.837 1691.96 222.119 1606.1 233.422C1520.25 244.725 1437.47 272.826 1362.47 316.123C1287.48 359.419 1221.75 417.063 1169.04 485.761C1116.32 554.46 1077.66 632.869 1055.25 716.511C1032.83 800.154 1027.12 887.391 1038.42 973.243C1049.72 1059.1 1077.82 1141.88 1121.12 1216.87L955.382 1312.56Z" fill="white" fill-opacity="0.07"/>
</g>
<g style="mix-blend-mode:multiply" filter="url(#filter2_bii_207_1743)">
<path d="M1185.9 -327C1282.66 -271.138 1367.47 -196.765 1435.48 -108.127C1503.49 -19.49 1553.38 81.6758 1582.3 189.594C1611.22 297.512 1618.59 410.068 1604.01 520.837C1589.43 631.607 1553.17 738.419 1497.31 835.175C1441.45 931.932 1367.07 1016.74 1278.44 1084.75C1189.8 1152.77 1088.63 1202.65 980.714 1231.57C872.796 1260.49 760.24 1267.87 649.47 1253.28C538.701 1238.7 431.889 1202.44 335.133 1146.58L430.821 980.842C505.813 1024.14 588.598 1052.24 674.45 1063.54C760.302 1074.85 847.54 1069.13 931.182 1046.72C1014.82 1024.3 1093.23 985.637 1161.93 932.922C1230.63 880.208 1288.27 814.478 1331.57 739.487C1374.87 664.495 1402.97 581.71 1414.27 495.858C1425.57 410.006 1419.86 322.768 1397.44 239.126C1375.03 155.483 1336.37 77.0744 1283.65 8.37565C1230.94 -60.3231 1165.21 -117.966 1090.22 -161.263L1185.9 -327Z" fill="white" fill-opacity="0.07"/>
</g>
<defs>
<filter id="filter0_bii_207_1743" x="299.388" y="550.459" width="1613.4" height="1301.99" filterUnits="userSpaceOnUse" color-interpolation-filters="sRGB">
<feFlood flood-opacity="0" result="BackgroundImageFix"/>
<feGaussianBlur in="BackgroundImageFix" stdDeviation="6.45948"/>
<feComposite in2="SourceAlpha" operator="in" result="effect1_backgroundBlur_207_1743"/>
<feBlend mode="normal" in="SourceGraphic" in2="effect1_backgroundBlur_207_1743" result="shape"/>
<feColorMatrix in="SourceAlpha" type="matrix" values="0 0 0 0 0 0 0 0 0 0 0 0 0 0 0 0 0 0 127 0" result="hardAlpha"/>
<feOffset dx="-9.19622" dy="-9.19622"/>
<feGaussianBlur stdDeviation="24.5233"/>
<feComposite in2="hardAlpha" operator="arithmetic" k2="-1" k3="1"/>
<feColorMatrix type="matrix" values="0 0 0 0 0.690196 0 0 0 0 0.654902 0 0 0 0 0.933333 0 0 0 1 0"/>
<feBlend mode="normal" in2="shape" result="effect2_innerShadow_207_1743"/>
<feColorMatrix in="SourceAlpha" type="matrix" values="0 0 0 0 0 0 0 0 0 0 0 0 0 0 0 0 0 0 127 0" result="hardAlpha"/>
<feOffset dx="-1.5327" dy="-1.5327"/>
<feComposite in2="hardAlpha" operator="arithmetic" k2="-1" k3="1"/>
<feColorMatrix type="matrix" values="0 0 0 0 0.75101 0 0 0 0 0.716667 0 0 0 0 1 0 0 0 1 0"/>
<feBlend mode="normal" in2="effect2_innerShadow_207_1743" result="effect3_innerShadow_207_1743"/>
</filter>
<filter id="filter1_bii_207_1743" x="828.481" y="23.4848" width="1613.4" height="1301.99" filterUnits="userSpaceOnUse" color-interpolation-filters="sRGB">
<feFlood flood-opacity="0" result="BackgroundImageFix"/>
<feGaussianBlur in="BackgroundImageFix" stdDeviation="6.45948"/>
<feComposite in2="SourceAlpha" operator="in" result="effect1_backgroundBlur_207_1743"/>
<feBlend mode="normal" in="SourceGraphic" in2="effect1_backgroundBlur_207_1743" result="shape"/>
<feColorMatrix in="SourceAlpha" type="matrix" values="0 0 0 0 0 0 0 0 0 0 0 0 0 0 0 0 0 0 127 0" result="hardAlpha"/>
<feOffset dx="-9.19622" dy="-9.19622"/>
<feGaussianBlur stdDeviation="24.5233"/>
<feComposite in2="hardAlpha" operator="arithmetic" k2="-1" k3="1"/>
<feColorMatrix type="matrix" values="0 0 0 0 0.690196 0 0 0 0 0.654902 0 0 0 0 0.933333 0 0 0 1 0"/>
<feBlend mode="normal" in2="shape" result="effect2_innerShadow_207_1743"/>
<feColorMatrix in="SourceAlpha" type="matrix" values="0 0 0 0 0 0 0 0 0 0 0 0 0 0 0 0 0 0 127 0" result="hardAlpha"/>
<feOffset dx="-1.5327" dy="-1.5327"/>
<feComposite in2="hardAlpha" operator="arithmetic" k2="-1" k3="1"/>
<feColorMatrix type="matrix" values="0 0 0 0 0.75101 0 0 0 0 0.716667 0 0 0 0 1 0 0 0 1 0"/>
<feBlend mode="normal" in2="effect2_innerShadow_207_1743" result="effect3_innerShadow_207_1743"/>
</filter>
<filter id="filter2_bii_207_1743" x="322.214" y="-339.919" width="1301.99" height="1613.4" filterUnits="userSpaceOnUse" color-interpolation-filters="sRGB">
<feFlood flood-opacity="0" result="BackgroundImageFix"/>
<feGaussianBlur in="BackgroundImageFix" stdDeviation="6.45948"/>
<feComposite in2="SourceAlpha" operator="in" result="effect1_backgroundBlur_207_1743"/>
<feBlend mode="normal" in="SourceGraphic" in2="effect1_backgroundBlur_207_1743" result="shape"/>
<feColorMatrix in="SourceAlpha" type="matrix" values="0 0 0 0 0 0 0 0 0 0 0 0 0 0 0 0 0 0 127 0" result="hardAlpha"/>
<feOffset dx="-9.19622" dy="-9.19622"/>
<feGaussianBlur stdDeviation="24.5233"/>
<feComposite in2="hardAlpha" operator="arithmetic" k2="-1" k3="1"/>
<feColorMatrix type="matrix" values="0 0 0 0 0.690196 0 0 0 0 0.654902 0 0 0 0 0.933333 0 0 0 1 0"/>
<feBlend mode="normal" in2="shape" result="effect2_innerShadow_207_1743"/>
<feColorMatrix in="SourceAlpha" type="matrix" values="0 0 0 0 0 0 0 0 0 0 0 0 0 0 0 0 0 0 127 0" result="hardAlpha"/>
<feOffset dx="-1.5327" dy="-1.5327"/>
<feComposite in2="hardAlpha" operator="arithmetic" k2="-1" k3="1"/>
<feColorMatrix type="matrix" values="0 0 0 0 0.75101 0 0 0 0 0.716667 0 0 0 0 1 0 0 0 1 0"/>
<feBlend mode="normal" in2="effect2_innerShadow_207_1743" result="effect3_innerShadow_207_1743"/>
</filter>
</defs>
</svg>
