<svg width="1440" height="1006" viewBox="0 0 1440 1006" fill="none" xmlns="http://www.w3.org/2000/svg">
<g filter="url(#filter0_bii_207_2701)">
<path d="M767.386 1918.56C711.523 1821.8 675.265 1714.99 660.682 1604.22C646.099 1493.45 653.477 1380.9 682.393 1272.98C711.31 1165.06 761.199 1063.9 829.213 975.258C897.227 886.621 982.033 812.248 1078.79 756.385C1175.55 700.523 1282.36 664.265 1393.13 649.682C1503.9 635.099 1616.45 642.476 1724.37 671.393C1832.29 700.309 1933.45 750.199 2022.09 818.212C2110.73 886.226 2185.1 971.032 2240.96 1067.79L2075.23 1163.48C2031.93 1088.49 1974.29 1022.76 1905.59 970.042C1836.89 917.327 1758.48 878.66 1674.84 856.249C1591.2 833.837 1503.96 828.119 1418.11 839.421C1332.25 850.724 1249.47 878.826 1174.48 922.122C1099.49 965.419 1033.76 1023.06 981.042 1091.76C928.328 1160.46 889.661 1238.87 867.249 1322.51C844.837 1406.15 839.119 1493.39 850.422 1579.24C861.725 1665.1 889.826 1747.88 933.123 1822.87L767.386 1918.56Z" fill="white" fill-opacity="0.07"/>
</g>
<g style="mix-blend-mode:multiply" filter="url(#filter1_bii_207_2701)">
<path d="M-340 1420.77C-340 1309.05 -317.994 1198.42 -275.238 1095.2C-232.483 991.977 -169.816 898.188 -90.8143 819.187C-11.8129 740.186 81.9754 677.518 185.196 634.763C288.416 592.008 399.047 570.002 510.772 570.002C622.497 570.002 733.128 592.008 836.348 634.763C939.568 677.519 1033.36 740.186 1112.36 819.187C1191.36 898.189 1254.03 991.977 1296.78 1095.2C1339.54 1198.42 1361.54 1309.05 1361.54 1420.77L1170.17 1420.77C1170.17 1334.18 1153.11 1248.44 1119.97 1168.43C1086.84 1088.43 1038.26 1015.74 977.034 954.511C915.804 893.281 843.113 844.71 763.111 811.572C683.11 778.435 597.365 761.379 510.772 761.379C424.179 761.379 338.434 778.435 258.432 811.572C178.431 844.71 105.74 893.281 44.5094 954.511C-16.721 1015.74 -65.2916 1088.43 -98.4293 1168.43C-131.567 1248.44 -148.623 1334.18 -148.623 1420.77L-340 1420.77Z" fill="white" fill-opacity="0.07"/>
</g>
<g style="mix-blend-mode:multiply" filter="url(#filter2_bii_207_2701)">
<path d="M1544 -327.001C1640.76 -271.138 1725.56 -196.766 1793.58 -108.128C1861.59 -19.491 1911.48 81.6749 1940.4 189.593C1969.31 297.511 1976.69 410.067 1962.11 520.837C1947.53 631.606 1911.27 738.418 1855.41 835.174C1799.54 931.931 1725.17 1016.74 1636.53 1084.75C1547.9 1152.76 1446.73 1202.65 1338.81 1231.57C1230.89 1260.49 1118.34 1267.86 1007.57 1253.28C896.799 1238.7 789.987 1202.44 693.23 1146.58L788.919 980.841C863.911 1024.14 946.696 1052.24 1032.55 1063.54C1118.4 1074.84 1205.64 1069.13 1289.28 1046.71C1372.92 1024.3 1451.33 985.636 1520.03 932.921C1588.73 880.207 1646.37 814.477 1689.67 739.486C1732.96 664.494 1761.07 581.709 1772.37 495.857C1783.67 410.005 1777.95 322.767 1755.54 239.125C1733.13 155.482 1694.46 77.0735 1641.75 8.37467C1589.03 -60.3241 1523.31 -117.967 1448.31 -161.264L1544 -327.001Z" fill="white" fill-opacity="0.07"/>
</g>
<defs>
<filter id="filter0_bii_207_2701" x="640.485" y="629.485" width="1613.4" height="1301.99" filterUnits="userSpaceOnUse" color-interpolation-filters="sRGB">
<feFlood flood-opacity="0" result="BackgroundImageFix"/>
<feGaussianBlur in="BackgroundImageFix" stdDeviation="6.45948"/>
<feComposite in2="SourceAlpha" operator="in" result="effect1_backgroundBlur_207_2701"/>
<feBlend mode="normal" in="SourceGraphic" in2="effect1_backgroundBlur_207_2701" result="shape"/>
<feColorMatrix in="SourceAlpha" type="matrix" values="0 0 0 0 0 0 0 0 0 0 0 0 0 0 0 0 0 0 127 0" result="hardAlpha"/>
<feOffset dx="-9.19622" dy="-9.19622"/>
<feGaussianBlur stdDeviation="24.5233"/>
<feComposite in2="hardAlpha" operator="arithmetic" k2="-1" k3="1"/>
<feColorMatrix type="matrix" values="0 0 0 0 0.690196 0 0 0 0 0.654902 0 0 0 0 0.933333 0 0 0 1 0"/>
<feBlend mode="normal" in2="shape" result="effect2_innerShadow_207_2701"/>
<feColorMatrix in="SourceAlpha" type="matrix" values="0 0 0 0 0 0 0 0 0 0 0 0 0 0 0 0 0 0 127 0" result="hardAlpha"/>
<feOffset dx="-1.5327" dy="-1.5327"/>
<feComposite in2="hardAlpha" operator="arithmetic" k2="-1" k3="1"/>
<feColorMatrix type="matrix" values="0 0 0 0 0.75101 0 0 0 0 0.716667 0 0 0 0 1 0 0 0 1 0"/>
<feBlend mode="normal" in2="effect2_innerShadow_207_2701" result="effect3_innerShadow_207_2701"/>
</filter>
<filter id="filter1_bii_207_2701" x="-352.919" y="557.083" width="1727.38" height="876.609" filterUnits="userSpaceOnUse" color-interpolation-filters="sRGB">
<feFlood flood-opacity="0" result="BackgroundImageFix"/>
<feGaussianBlur in="BackgroundImageFix" stdDeviation="6.45948"/>
<feComposite in2="SourceAlpha" operator="in" result="effect1_backgroundBlur_207_2701"/>
<feBlend mode="normal" in="SourceGraphic" in2="effect1_backgroundBlur_207_2701" result="shape"/>
<feColorMatrix in="SourceAlpha" type="matrix" values="0 0 0 0 0 0 0 0 0 0 0 0 0 0 0 0 0 0 127 0" result="hardAlpha"/>
<feOffset dx="-9.19622" dy="-9.19622"/>
<feGaussianBlur stdDeviation="24.5233"/>
<feComposite in2="hardAlpha" operator="arithmetic" k2="-1" k3="1"/>
<feColorMatrix type="matrix" values="0 0 0 0 0.690196 0 0 0 0 0.654902 0 0 0 0 0.933333 0 0 0 1 0"/>
<feBlend mode="normal" in2="shape" result="effect2_innerShadow_207_2701"/>
<feColorMatrix in="SourceAlpha" type="matrix" values="0 0 0 0 0 0 0 0 0 0 0 0 0 0 0 0 0 0 127 0" result="hardAlpha"/>
<feOffset dx="-1.5327" dy="-1.5327"/>
<feComposite in2="hardAlpha" operator="arithmetic" k2="-1" k3="1"/>
<feColorMatrix type="matrix" values="0 0 0 0 0.75101 0 0 0 0 0.716667 0 0 0 0 1 0 0 0 1 0"/>
<feBlend mode="normal" in2="effect2_innerShadow_207_2701" result="effect3_innerShadow_207_2701"/>
</filter>
<filter id="filter2_bii_207_2701" x="680.312" y="-339.92" width="1301.99" height="1613.4" filterUnits="userSpaceOnUse" color-interpolation-filters="sRGB">
<feFlood flood-opacity="0" result="BackgroundImageFix"/>
<feGaussianBlur in="BackgroundImageFix" stdDeviation="6.45948"/>
<feComposite in2="SourceAlpha" operator="in" result="effect1_backgroundBlur_207_2701"/>
<feBlend mode="normal" in="SourceGraphic" in2="effect1_backgroundBlur_207_2701" result="shape"/>
<feColorMatrix in="SourceAlpha" type="matrix" values="0 0 0 0 0 0 0 0 0 0 0 0 0 0 0 0 0 0 127 0" result="hardAlpha"/>
<feOffset dx="-9.19622" dy="-9.19622"/>
<feGaussianBlur stdDeviation="24.5233"/>
<feComposite in2="hardAlpha" operator="arithmetic" k2="-1" k3="1"/>
<feColorMatrix type="matrix" values="0 0 0 0 0.690196 0 0 0 0 0.654902 0 0 0 0 0.933333 0 0 0 1 0"/>
<feBlend mode="normal" in2="shape" result="effect2_innerShadow_207_2701"/>
<feColorMatrix in="SourceAlpha" type="matrix" values="0 0 0 0 0 0 0 0 0 0 0 0 0 0 0 0 0 0 127 0" result="hardAlpha"/>
<feOffset dx="-1.5327" dy="-1.5327"/>
<feComposite in2="hardAlpha" operator="arithmetic" k2="-1" k3="1"/>
<feColorMatrix type="matrix" values="0 0 0 0 0.75101 0 0 0 0 0.716667 0 0 0 0 1 0 0 0 1 0"/>
<feBlend mode="normal" in2="effect2_innerShadow_207_2701" result="effect3_innerShadow_207_2701"/>
</filter>
</defs>
</svg>
