<svg width="720" height="514" viewBox="0 0 720 514" fill="none" xmlns="http://www.w3.org/2000/svg">
<g filter="url(#filter0_bii_293_709)">
<path d="M0.00125882 700.694C19.5889 643.414 50.267 590.552 90.2839 545.128C130.301 499.704 178.873 462.606 233.227 435.953C287.581 409.301 346.652 393.615 407.068 389.791C467.484 385.967 528.062 394.081 585.342 413.669C642.622 433.257 695.484 463.935 740.908 503.952C786.332 543.969 823.43 592.541 850.083 646.894C876.735 701.248 892.421 760.32 896.245 820.736C900.069 881.152 891.955 941.729 872.367 999.01L774.25 965.457C789.432 921.062 795.72 874.111 792.757 827.285C789.793 780.46 777.636 734.676 756.978 692.549C736.321 650.421 707.568 612.775 672.362 581.76C637.156 550.745 596.185 526.968 551.79 511.786C507.394 496.605 460.443 490.316 413.618 493.279C366.792 496.243 321.008 508.4 278.881 529.058C236.754 549.715 199.108 578.468 168.092 613.674C137.077 648.88 113.3 689.851 98.1185 734.246L0.00125882 700.694Z" fill="white"/>
</g>
<g style="mix-blend-mode:multiply" filter="url(#filter1_bii_293_709)">
<path d="M513.003 953.599C473.191 907.995 442.751 854.997 423.42 797.629C404.09 740.261 396.249 679.647 400.344 619.249C404.439 558.851 420.39 499.851 447.287 445.617C474.183 391.384 511.499 342.979 557.103 303.166C602.706 263.354 655.705 232.914 713.073 213.583C770.441 194.253 831.054 186.412 891.452 190.507C951.85 194.602 1010.85 210.553 1065.08 237.45C1119.32 264.347 1167.72 301.662 1207.54 347.266L1129.42 415.461C1098.56 380.116 1061.05 351.195 1019.01 330.348C976.978 309.502 931.25 297.139 884.438 293.965C837.626 290.791 790.647 296.869 746.184 311.85C701.721 326.832 660.644 350.425 625.298 381.282C589.953 412.139 561.032 449.655 540.185 491.689C519.339 533.723 506.976 579.452 503.802 626.264C500.628 673.076 506.705 720.054 521.687 764.518C536.669 808.981 560.262 850.058 591.119 885.403L513.003 953.599Z" fill="white" fill-opacity="0.07"/>
</g>
<defs>
<filter id="filter0_bii_293_709" x="-4.9819" y="383.888" width="906.147" height="619.122" filterUnits="userSpaceOnUse" color-interpolation-filters="sRGB">
<feFlood flood-opacity="0" result="BackgroundImageFix"/>
<feGaussianBlur in="BackgroundImageFix" stdDeviation="2"/>
<feComposite in2="SourceAlpha" operator="in" result="effect1_backgroundBlur_293_709"/>
<feBlend mode="normal" in="SourceGraphic" in2="effect1_backgroundBlur_293_709" result="shape"/>
<feColorMatrix in="SourceAlpha" type="matrix" values="0 0 0 0 0 0 0 0 0 0 0 0 0 0 0 0 0 0 127 0" result="hardAlpha"/>
<feOffset dx="-4.98287" dy="-4.98287"/>
<feGaussianBlur stdDeviation="13.2877"/>
<feComposite in2="hardAlpha" operator="arithmetic" k2="-1" k3="1"/>
<feColorMatrix type="matrix" values="0 0 0 0 0.690196 0 0 0 0 0.654902 0 0 0 0 0.933333 0 0 0 1 0"/>
<feBlend mode="normal" in2="shape" result="effect2_innerShadow_293_709"/>
<feColorMatrix in="SourceAlpha" type="matrix" values="0 0 0 0 0 0 0 0 0 0 0 0 0 0 0 0 0 0 127 0" result="hardAlpha"/>
<feOffset dx="-0.830479" dy="-0.830479"/>
<feComposite in2="hardAlpha" operator="arithmetic" k2="-1" k3="1"/>
<feColorMatrix type="matrix" values="0 0 0 0 0.75101 0 0 0 0 0.716667 0 0 0 0 1 0 0 0 1 0"/>
<feBlend mode="normal" in2="effect2_innerShadow_293_709" result="effect3_innerShadow_293_709"/>
</filter>
<filter id="filter1_bii_293_709" x="392.288" y="182.451" width="822.247" height="778.148" filterUnits="userSpaceOnUse" color-interpolation-filters="sRGB">
<feFlood flood-opacity="0" result="BackgroundImageFix"/>
<feGaussianBlur in="BackgroundImageFix" stdDeviation="3.5"/>
<feComposite in2="SourceAlpha" operator="in" result="effect1_backgroundBlur_293_709"/>
<feBlend mode="normal" in="SourceGraphic" in2="effect1_backgroundBlur_293_709" result="shape"/>
<feColorMatrix in="SourceAlpha" type="matrix" values="0 0 0 0 0 0 0 0 0 0 0 0 0 0 0 0 0 0 127 0" result="hardAlpha"/>
<feOffset dx="-4.98287" dy="-4.98287"/>
<feGaussianBlur stdDeviation="13.2877"/>
<feComposite in2="hardAlpha" operator="arithmetic" k2="-1" k3="1"/>
<feColorMatrix type="matrix" values="0 0 0 0 0.690196 0 0 0 0 0.654902 0 0 0 0 0.933333 0 0 0 1 0"/>
<feBlend mode="normal" in2="shape" result="effect2_innerShadow_293_709"/>
<feColorMatrix in="SourceAlpha" type="matrix" values="0 0 0 0 0 0 0 0 0 0 0 0 0 0 0 0 0 0 127 0" result="hardAlpha"/>
<feOffset dx="-0.830479" dy="-0.830479"/>
<feComposite in2="hardAlpha" operator="arithmetic" k2="-1" k3="1"/>
<feColorMatrix type="matrix" values="0 0 0 0 0.75101 0 0 0 0 0.716667 0 0 0 0 1 0 0 0 1 0"/>
<feBlend mode="normal" in2="effect2_innerShadow_293_709" result="effect3_innerShadow_293_709"/>
</filter>
</defs>
</svg>
