<svg width="633" height="532" viewBox="0 0 633 532" fill="none" xmlns="http://www.w3.org/2000/svg">
<path d="M9 434.28L7.22 434.93L7.22 438.03L9 438.69L9 439.8L1.82 437.05L1.82 435.84L9 433.11L9 434.28ZM3.02 436.47L6.33 437.7L6.33 435.26L3.02 436.47ZM9.15 429.32C9.15 431.39 7.58 432.99 5.4 432.99C3.28 432.99 1.67 431.47 1.67 429.38C1.67 427.53 2.8 426.28 4.29 425.84L4.29 427.12C3.37 427.39 2.66 428.18 2.66 429.41C2.66 430.83 3.73 431.85 5.42 431.85C7.01 431.85 8.21 430.88 8.21 429.28C8.21 427.95 7.39 427.11 6.16 426.91L6.16 429.39L5.28 429.39L5.28 425.75C7.58 425.71 9.15 427.12 9.15 429.32ZM9.15 421.351C9.15 423.421 7.58 425.021 5.4 425.021C3.28 425.021 1.67 423.501 1.67 421.411C1.67 419.561 2.8 418.311 4.29 417.871L4.29 419.151C3.37 419.421 2.66 420.211 2.66 421.441C2.66 422.861 3.73 423.881 5.42 423.881C7.01 423.881 8.21 422.911 8.21 421.311C8.21 419.981 7.39 419.141 6.16 418.941L6.16 421.421L5.28 421.421L5.28 417.781C7.58 417.741 9.15 419.151 9.15 421.351ZM9 415.532L9 416.632L1.82 416.632L1.82 413.952C1.82 412.302 2.63 411.312 4.06 411.312C5.09 411.312 5.88 411.962 6.14 413.052L9 411.102L9 412.422L6.3 414.212L6.3 415.532L9 415.532ZM2.74 415.532L5.38 415.532L5.38 414.022C5.38 413.002 4.93 412.422 4.06 412.422C3.2 412.422 2.74 413.002 2.74 414.022L2.74 415.532ZM8.04 405.49L9 405.49L9 410.04L1.82 410.04L1.82 405.56L2.78 405.56L2.78 408.94L4.82 408.94L4.82 405.86L5.78 405.86L5.78 408.94L8.04 408.94L8.04 405.49ZM9.15 400.95C9.15 403.02 7.58 404.62 5.4 404.62C3.28 404.62 1.67 403.1 1.67 401.01C1.67 399.16 2.8 397.91 4.29 397.47L4.29 398.75C3.37 399.02 2.66 399.81 2.66 401.04C2.66 402.46 3.73 403.48 5.42 403.48C7.01 403.48 8.21 402.51 8.21 400.91C8.21 399.58 7.39 398.74 6.16 398.54L6.16 401.02L5.28 401.02L5.28 397.38C7.58 397.34 9.15 398.75 9.15 400.95ZM9 391.643L7.22 392.293L7.22 395.393L9 396.053L9 397.163L1.82 394.413L1.82 393.203L9 390.473L9 391.643ZM3.02 393.833L6.33 395.063L6.33 392.623L3.02 393.833ZM9 387.288L9 388.388L2.81 388.388L2.81 390.728L1.82 390.728L1.82 384.948L2.81 384.948L2.81 387.288L9 387.288ZM9 382.876L9 383.976L1.82 383.976L1.82 382.876L9 382.876ZM9.15 378.09C9.15 380.17 7.52 381.74 5.4 381.74C3.28 381.74 1.67 380.17 1.67 378.09C1.67 376.01 3.28 374.44 5.4 374.44C7.52 374.44 9.15 376.01 9.15 378.09ZM8.16 378.09C8.16 376.57 6.94 375.58 5.4 375.58C3.86 375.58 2.66 376.57 2.66 378.09C2.66 379.61 3.86 380.6 5.4 380.6C6.94 380.6 8.16 379.61 8.16 378.09ZM9 368.502L3.39 372.282L9 372.282L9 373.302L1.82 373.302L1.82 372.102L7.28 368.412L1.82 368.412L1.82 367.392L9 367.392L9 368.502ZM9 359.401L9 363.751L1.82 363.751L1.82 362.651L8.01 362.651L8.01 359.401L9 359.401ZM9 353.382L7.22 354.032L7.22 357.132L9 357.792L9 358.902L1.82 356.152L1.82 354.942L9 352.212L9 353.382ZM3.02 355.572L6.33 356.802L6.33 354.362L3.02 355.572ZM6.31 349.179L9 349.179L9 350.289L6.31 350.289L1.82 352.869L1.82 351.669L5.28 349.699L1.82 347.709L1.82 346.589L6.31 349.179ZM8.04 341.184L9 341.184L9 345.734L1.82 345.734L1.82 341.254L2.78 341.254L2.78 344.634L4.82 344.634L4.82 341.554L5.78 341.554L5.78 344.634L8.04 344.634L8.04 341.184ZM9 338.794L9 339.894L1.82 339.894L1.81999 337.214C1.81999 335.564 2.63 334.574 4.06 334.574C5.09 334.574 5.88 335.224 6.14 336.314L9 334.364L9 335.684L6.3 337.474L6.3 338.794L9 338.794ZM2.74 338.794L5.38 338.794L5.38 337.284C5.38 336.264 4.93 335.684 4.06 335.684C3.2 335.684 2.73999 336.264 2.74 337.284L2.74 338.794Z" fill="white"/>
<path d="M54 242H34V386.25M54 530.5H34V386.25M34 386.25H22" stroke="white" stroke-opacity="0.16"/>
<rect x="72" y="1" width="80" height="80" fill="white" fill-opacity="0.08"/>
<rect x="72" y="1" width="80" height="80" stroke="#383838"/>
<path d="M111.997 9.73145L111.8 10.3994V29.782L111.997 29.9781L120.994 24.6599L111.997 9.73145Z" fill="white"/>
<path d="M111.997 9.73145L103 24.6599L111.997 29.9782V20.5705V9.73145Z" fill="white"/>
<path d="M111.997 32.9054L111.887 33.0404V39.9449L111.997 40.2683L121 27.5898L111.997 32.9054Z" fill="white"/>
<path d="M111.997 40.2684V32.9054L103 27.5898L111.997 40.2684Z" fill="white"/>
<path d="M111.997 29.9779L120.994 24.6598L111.997 20.5703V29.9779Z" fill="white"/>
<path d="M103 24.6598L111.997 29.978V20.5703L103 24.6598Z" fill="white"/>
<path d="M101.993 56.2686H97.6433V49.0886H98.7433V55.2786H101.993V56.2686ZM104.803 56.2686H103.783V50.3886H102.473V49.5086H104.803V56.2686ZM111.454 55.3586H110.514V53.3186H108.484V52.4486H110.514V50.4286H111.454V52.4486H113.484V53.3186H111.454V55.3586ZM121.505 56.2686H117.155V49.0886H118.255V55.2786H121.505V56.2686ZM126.695 55.3686V56.2686H122.325V55.6886L124.435 53.4086C125.235 52.5386 125.545 52.0686 125.545 51.4586C125.545 50.7886 125.075 50.3186 124.385 50.3186C123.635 50.3186 123.135 50.8086 123.135 51.5586H122.145C122.145 50.3086 123.085 49.4086 124.425 49.4086C125.685 49.4086 126.605 50.2286 126.605 51.3386C126.605 52.1086 126.315 52.6486 125.205 53.8286L123.845 55.3686H126.695ZM96.4471 69.4186C94.4471 69.4186 92.8971 67.7886 92.8971 65.6686C92.8971 63.5586 94.4471 61.9386 96.4471 61.9386C98.2471 61.9386 99.6871 63.1386 99.9571 64.9086H98.7871C98.5871 63.7486 97.6471 62.9286 96.4571 62.9286C95.0371 62.9286 94.0371 64.0786 94.0371 65.6686C94.0371 67.2786 95.0371 68.4286 96.4571 68.4286C97.6471 68.4286 98.5871 67.5986 98.7871 66.4386H99.9571C99.6871 68.2186 98.2471 69.4186 96.4471 69.4186ZM102.2 69.2686H101.1V62.0886H102.2V65.0886H105.84V62.0886H106.94V69.2686H105.84V66.0486H102.2V69.2686ZM113.443 69.2686L112.793 67.4886H109.693L109.033 69.2686H107.923L110.673 62.0886H111.883L114.613 69.2686H113.443ZM111.253 63.2886L110.023 66.5986H112.463L111.253 63.2886ZM116.702 69.2686H115.602V62.0886H116.702V69.2686ZM123.059 69.2686L119.279 63.6586V69.2686H118.259V62.0886H119.459L123.149 67.5486V62.0886H124.169V69.2686H123.059ZM130.969 67.1686C130.969 68.4186 129.969 69.3686 128.229 69.3686C126.499 69.3686 125.449 68.4186 125.359 66.9886H126.479C126.529 67.8986 127.109 68.4886 128.209 68.4886C129.119 68.4886 129.799 68.0586 129.799 67.3186C129.799 66.7186 129.409 66.4186 128.579 66.2386L127.539 66.0386C126.529 65.8386 125.609 65.3286 125.609 64.1086C125.609 62.8986 126.669 61.9886 128.159 61.9886C129.649 61.9886 130.779 62.8986 130.869 64.3286H129.749C129.689 63.4686 129.069 62.8686 128.169 62.8686C127.239 62.8686 126.729 63.4186 126.729 64.0386C126.729 64.7186 127.319 64.9586 127.989 65.0986L129.049 65.3086C130.279 65.5586 130.969 66.0986 130.969 67.1686Z" fill="white" fill-opacity="0.5"/>
<rect x="232" y="1" width="80" height="80" fill="white" fill-opacity="0.08"/>
<rect x="232" y="1" width="80" height="80" stroke="#383838"/>
<path d="M279.803 25L269.702 30.7399V48.6545L264.129 51.8512L258.522 48.6519V42.2561L264.129 39.088L267.734 41.1568V35.9821L264.098 33.9392L254 39.7439V51.2264L264.132 57L274.23 51.2264V33.3143L279.837 30.1151L285.441 33.3143V39.6817L279.837 42.9094L276.2 40.8224V45.9712L279.803 48.0271L290 42.2872V30.7399L279.803 25Z" fill="white"/>
<rect x="392" y="1" width="80" height="80" fill="white" fill-opacity="0.08"/>
<rect x="392" y="1" width="80" height="80" stroke="#262626"/>
<mask id="mask0_2619_268" style="mask-type:alpha" maskUnits="userSpaceOnUse" x="447" y="24" width="7" height="12">
<path d="M447.196 24.2451H453.549V35.4744H447.196V24.2451Z" fill="black"/>
</mask>
<g mask="url(#mask0_2619_268)">
<path d="M452.801 24.2451H443.07C442.656 24.2451 442.321 24.5803 442.321 24.9937V34.7257C442.321 35.1392 442.656 35.4743 443.07 35.4743H452.801C453.215 35.4743 453.55 35.1392 453.55 34.7257V24.9937C453.55 24.5803 453.215 24.2451 452.801 24.2451Z" fill="white" fill-opacity="0.5"/>
</g>
<mask id="mask1_2619_268" style="mask-type:alpha" maskUnits="userSpaceOnUse" x="447" y="46" width="7" height="12">
<path d="M447.196 46.7012H453.549V57.9305H447.196V46.7012Z" fill="black"/>
</mask>
<g mask="url(#mask1_2619_268)">
<path d="M452.801 46.7012H443.07C442.656 46.7012 442.321 47.0363 442.321 47.4498V57.1818C442.321 57.5952 442.656 57.9304 443.07 57.9304H452.801C453.215 57.9304 453.55 57.5952 453.55 57.1818V47.4498C453.55 47.0363 453.215 46.7012 452.801 46.7012Z" fill="white" fill-opacity="0.5"/>
</g>
<path d="M431.989 35.5015H422.304C421.892 35.5015 421.559 35.8326 421.559 36.2411V45.8579C421.559 46.2664 421.892 46.5976 422.304 46.5976H431.989C432.401 46.5976 432.734 46.2664 432.734 45.8579V36.2411C432.734 35.8326 432.401 35.5015 431.989 35.5015Z" fill="white"/>
<path d="M420.778 24.2437H411.047C410.633 24.2437 410.298 24.5788 410.298 24.9923V34.7243C410.298 35.1377 410.633 35.4728 411.047 35.4728H420.778C421.192 35.4728 421.527 35.1377 421.527 34.7243V24.9923C421.527 24.5788 421.192 24.2437 420.778 24.2437Z" fill="white"/>
<path d="M443.232 24.2437H433.501C433.087 24.2437 432.752 24.5788 432.752 24.9923V34.7243C432.752 35.1377 433.087 35.4728 433.501 35.4728H443.232C443.646 35.4728 443.981 35.1377 443.981 34.7243V24.9923C443.981 24.5788 443.646 24.2437 443.232 24.2437Z" fill="white"/>
<path d="M420.778 46.7012H411.047C410.633 46.7012 410.298 47.0363 410.298 47.4498V57.1818C410.298 57.5952 410.633 57.9304 411.047 57.9304H420.778C421.192 57.9304 421.527 57.5952 421.527 57.1818V47.4498C421.527 47.0363 421.192 46.7012 420.778 46.7012Z" fill="white"/>
<path d="M443.232 46.7012H433.501C433.087 46.7012 432.752 47.0363 432.752 47.4498V57.1818C432.752 57.5952 433.087 57.9304 433.501 57.9304H443.232C443.646 57.9304 443.981 57.5952 443.981 57.1818V47.4498C443.981 47.0363 443.646 46.7012 443.232 46.7012Z" fill="white"/>
<rect x="552" y="1" width="80" height="80" fill="white" fill-opacity="0.08"/>
<rect x="552" y="1" width="80" height="80" stroke="#262626"/>
<path d="M612.151 45.6603L612.095 45.7187C612.069 45.7455 612.043 45.7722 612.016 45.7987L596.778 61.0123C594.124 63.6626 589.82 63.6626 587.165 61.0123L582.957 56.8113C582.659 56.5146 582.658 56.0321 582.955 55.7341C583.043 55.6465 583.15 55.5814 583.268 55.5445C587.779 54.1522 591.443 52.545 594.263 50.723C600.977 46.3838 606.939 44.6962 612.151 45.6603ZM608.956 33.1454C614.582 34.9182 613.925 39.057 614 40.6886C607.839 37.4578 600.426 38.642 591.763 44.241C585.306 48.4142 579.897 50.1347 575.536 49.4027C571.176 48.6707 570.195 43.3452 570 41.93C574.791 44.3527 581.213 42.9622 589.264 37.759C596.766 32.9105 603.33 31.3725 608.956 33.1454ZM596.778 20.9877L600.732 24.9347C601.03 25.2319 601.03 25.7144 600.733 26.0122C600.627 26.1185 600.492 26.191 600.345 26.2207C594.621 27.3738 590.043 29.0593 586.612 31.277C580.732 35.0773 575.721 36.8437 571.579 36.5762L571.58 36.5751L587.165 20.9877C589.82 18.3374 594.124 18.3374 596.778 20.9877Z" fill="white"/>
<rect x="72" y="241" width="560" height="25" fill="white" fill-opacity="0.08"/>
<rect x="72" y="241" width="560" height="25" stroke="#262626"/>
<path d="M82.616 255H81.504V257H80.624V251.256H82.616C83.904 251.256 84.736 251.912 84.736 253.112C84.736 254.32 83.904 255 82.616 255ZM82.608 252H81.504V254.256H82.608C83.384 254.256 83.856 253.832 83.856 253.12C83.856 252.408 83.384 252 82.608 252ZM86.4962 257H85.6162V251.256H87.7602C89.0802 251.256 89.8722 251.904 89.8722 253.048C89.8722 253.872 89.3522 254.504 88.4802 254.712L90.0402 257H88.9842L87.5522 254.84H86.4962V257ZM86.4962 251.992V254.104H87.7042C88.5202 254.104 88.9842 253.744 88.9842 253.048C88.9842 252.36 88.5202 251.992 87.7042 251.992H86.4962ZM93.4111 257.12C91.7471 257.12 90.4911 255.816 90.4911 254.12C90.4911 252.424 91.7471 251.136 93.4111 251.136C95.0751 251.136 96.3311 252.424 96.3311 254.12C96.3311 255.816 95.0751 257.12 93.4111 257.12ZM93.4111 256.328C94.6271 256.328 95.4191 255.352 95.4191 254.12C95.4191 252.888 94.6271 251.928 93.4111 251.928C92.1951 251.928 91.4031 252.888 91.4031 254.12C91.4031 255.352 92.1951 256.328 93.4111 256.328ZM99.8252 257.12C98.1612 257.12 96.9052 255.816 96.9052 254.12C96.9052 252.424 98.1612 251.136 99.8252 251.136C101.489 251.136 102.745 252.424 102.745 254.12C102.745 255.816 101.489 257.12 99.8252 257.12ZM99.8252 256.328C101.041 256.328 101.833 255.352 101.833 254.12C101.833 252.888 101.041 251.928 99.8252 251.928C98.6092 251.928 97.8172 252.888 97.8172 254.12C97.8172 255.352 98.6092 256.328 99.8252 256.328ZM104.535 257H103.655V251.256H107.143V252.024H104.535V253.896H106.759V254.664H104.535V257ZM113.631 257L113.111 255.576H110.631L110.103 257H109.215L111.415 251.256H112.383L114.567 257H113.631ZM111.879 252.216L110.895 254.864H112.847L111.879 252.216ZM117.599 257.12C115.943 257.12 114.663 255.864 114.663 254.12C114.663 252.424 115.879 251.136 117.551 251.136C119.031 251.136 120.031 252.04 120.383 253.232H119.359C119.143 252.496 118.511 251.928 117.527 251.928C116.391 251.928 115.575 252.784 115.575 254.136C115.575 255.408 116.351 256.368 117.631 256.368C118.695 256.368 119.367 255.712 119.527 254.728H117.543V254.024H120.455C120.487 255.864 119.359 257.12 117.599 257.12ZM123.974 257.12C122.318 257.12 121.038 255.864 121.038 254.12C121.038 252.424 122.254 251.136 123.926 251.136C125.406 251.136 126.406 252.04 126.758 253.232H125.734C125.518 252.496 124.886 251.928 123.902 251.928C122.766 251.928 121.95 252.784 121.95 254.136C121.95 255.408 122.726 256.368 124.006 256.368C125.07 256.368 125.742 255.712 125.902 254.728H123.918V254.024H126.83C126.862 255.864 125.734 257.12 123.974 257.12ZM128.629 257H127.749V251.256H129.893C131.213 251.256 132.005 251.904 132.005 253.048C132.005 253.872 131.485 254.504 130.613 254.712L132.173 257H131.117L129.685 254.84H128.629V257ZM128.629 251.992V254.104H129.837C130.653 254.104 131.117 253.744 131.117 253.048C131.117 252.36 130.653 251.992 129.837 251.992H128.629ZM136.662 256.232V257H133.022V251.256H136.606V252.024H133.902V253.656H136.366V254.424H133.902V256.232H136.662ZM140.294 257.12C138.638 257.12 137.358 255.864 137.358 254.12C137.358 252.424 138.574 251.136 140.246 251.136C141.726 251.136 142.726 252.04 143.078 253.232H142.054C141.838 252.496 141.206 251.928 140.222 251.928C139.086 251.928 138.27 252.784 138.27 254.136C138.27 255.408 139.046 256.368 140.326 256.368C141.39 256.368 142.062 255.712 142.222 254.728H140.238V254.024H143.15C143.182 255.864 142.054 257.12 140.294 257.12ZM147.74 257L147.22 255.576H144.74L144.212 257H143.324L145.524 251.256H146.492L148.676 257H147.74ZM145.988 252.216L145.004 254.864H146.956L145.988 252.216ZM151.224 257H150.344V252.048H148.472V251.256H153.096V252.048H151.224V257ZM154.754 257H153.874V251.256H154.754V257ZM158.583 257.12C156.919 257.12 155.663 255.816 155.663 254.12C155.663 252.424 156.919 251.136 158.583 251.136C160.247 251.136 161.503 252.424 161.503 254.12C161.503 255.816 160.247 257.12 158.583 257.12ZM158.583 256.328C159.799 256.328 160.591 255.352 160.591 254.12C160.591 252.888 159.799 251.928 158.583 251.928C157.367 251.928 156.575 252.888 156.575 254.12C156.575 255.352 157.367 256.328 158.583 256.328ZM166.253 257L163.229 252.512V257H162.413V251.256H163.373L166.325 255.624V251.256H167.141V257H166.253ZM171.79 253.92L173.07 255.36C173.166 255.08 173.222 254.736 173.238 254.368H173.982C173.966 254.904 173.806 255.464 173.55 255.896L174.534 257H173.526L173.07 256.488C172.638 256.88 172.134 257.08 171.606 257.08C170.454 257.08 169.718 256.408 169.718 255.36C169.718 254.712 170.134 254.192 170.766 253.888C170.518 253.552 170.398 253.256 170.398 252.872C170.398 252.088 171.062 251.512 171.95 251.512C172.846 251.512 173.47 252.072 173.486 252.896H172.726C172.686 252.424 172.342 252.16 171.95 252.16C171.534 252.16 171.222 252.464 171.222 252.88C171.222 253.24 171.414 253.488 171.79 253.92ZM170.494 255.312C170.494 255.88 170.87 256.416 171.67 256.416C172.038 256.416 172.39 256.272 172.654 256.024L171.182 254.368C170.774 254.536 170.494 254.872 170.494 255.312ZM181.601 251.256L179.489 257H178.521L176.409 251.256H177.353L179.025 255.976L180.721 251.256H181.601ZM185.342 257L184.822 255.576H182.342L181.814 257H180.926L183.126 251.256H184.094L186.278 257H185.342ZM183.59 252.216L182.606 254.864H184.558L183.59 252.216ZM190.549 257H187.069V251.256H187.949V256.208H190.549V257ZM192.293 257H191.413V251.256H192.293V257ZM195.354 257H193.538V251.256H195.354C197.186 251.256 198.242 252.424 198.242 254.104C198.242 255.76 197.146 257 195.354 257ZM194.418 252.016V256.24H195.314C196.634 256.24 197.346 255.424 197.346 254.104C197.346 252.808 196.642 252.016 195.314 252.016H194.418ZM202.756 257L202.236 255.576H199.756L199.228 257H198.34L200.54 251.256H201.508L203.692 257H202.756ZM201.004 252.216L200.02 254.864H201.972L201.004 252.216ZM206.24 257H205.36V252.048H203.488V251.256H208.112V252.048H206.24V257ZM209.77 257H208.89V251.256H209.77V257ZM213.599 257.12C211.935 257.12 210.679 255.816 210.679 254.12C210.679 252.424 211.935 251.136 213.599 251.136C215.263 251.136 216.519 252.424 216.519 254.12C216.519 255.816 215.263 257.12 213.599 257.12ZM213.599 256.328C214.815 256.328 215.607 255.352 215.607 254.12C215.607 252.888 214.815 251.928 213.599 251.928C212.383 251.928 211.591 252.888 211.591 254.12C211.591 255.352 212.383 256.328 213.599 256.328ZM221.269 257L218.245 252.512V257H217.429V251.256H218.389L221.341 255.624V251.256H222.157V257H221.269ZM229.757 251.256L227.645 257H226.677L224.565 251.256H225.509L227.181 255.976L228.877 251.256H229.757ZM231.387 257H230.507V251.256H231.387V257ZM236.584 257L236.064 255.576H233.584L233.056 257H232.168L234.368 251.256H235.336L237.52 257H236.584ZM234.832 252.216L233.848 254.864H235.8L234.832 252.216ZM242.263 257H241.383V252.048H239.511V251.256H244.135V252.048H242.263V257ZM245.793 257H244.913V251.256H245.793V253.656H248.705V251.256H249.585V257H248.705V254.424H245.793V257ZM254.475 256.232V257H250.835V251.256H254.419V252.024H251.715V253.656H254.179V254.424H251.715V256.232H254.475Z" fill="white" fill-opacity="0.5"/>
<path d="M259.171 255H258.059V257H257.179V251.256H259.171C260.459 251.256 261.291 251.912 261.291 253.112C261.291 254.32 260.459 255 259.171 255ZM259.163 252H258.059V254.256H259.163C259.939 254.256 260.411 253.832 260.411 253.12C260.411 252.408 259.939 252 259.163 252ZM265.811 256.232V257H262.171V251.256H265.755V252.024H263.051V253.656H265.515V254.424H263.051V256.232H265.811ZM271.043 255.32C271.043 256.32 270.243 257.08 268.851 257.08C267.467 257.08 266.627 256.32 266.555 255.176H267.451C267.491 255.904 267.955 256.376 268.835 256.376C269.563 256.376 270.107 256.032 270.107 255.44C270.107 254.96 269.795 254.72 269.131 254.576L268.299 254.416C267.491 254.256 266.755 253.848 266.755 252.872C266.755 251.904 267.603 251.176 268.795 251.176C269.987 251.176 270.891 251.904 270.963 253.048H270.067C270.019 252.36 269.523 251.88 268.803 251.88C268.059 251.88 267.651 252.32 267.651 252.816C267.651 253.36 268.123 253.552 268.659 253.664L269.507 253.832C270.491 254.032 271.043 254.464 271.043 255.32ZM276.262 255.32C276.262 256.32 275.462 257.08 274.07 257.08C272.686 257.08 271.846 256.32 271.774 255.176H272.67C272.71 255.904 273.174 256.376 274.054 256.376C274.782 256.376 275.326 256.032 275.326 255.44C275.326 254.96 275.014 254.72 274.35 254.576L273.518 254.416C272.71 254.256 271.974 253.848 271.974 252.872C271.974 251.904 272.822 251.176 274.014 251.176C275.206 251.176 276.11 251.904 276.182 253.048H275.286C275.238 252.36 274.742 251.88 274.022 251.88C273.278 251.88 272.87 252.32 272.87 252.816C272.87 253.36 273.342 253.552 273.878 253.664L274.726 253.832C275.71 254.032 276.262 254.464 276.262 255.32ZM278.16 257H277.28V251.256H278.16V257ZM282.029 257L280.213 252.608V257H279.405V251.256H280.485L282.413 255.92L284.333 251.256H285.421V257H284.605V252.6L282.781 257H282.029ZM287.543 257H286.663V251.256H287.543V257ZM292.988 255.32C292.988 256.32 292.188 257.08 290.796 257.08C289.412 257.08 288.572 256.32 288.5 255.176H289.396C289.436 255.904 289.9 256.376 290.78 256.376C291.508 256.376 292.052 256.032 292.052 255.44C292.052 254.96 291.74 254.72 291.076 254.576L290.244 254.416C289.436 254.256 288.7 253.848 288.7 252.872C288.7 251.904 289.548 251.176 290.74 251.176C291.932 251.176 292.836 251.904 292.908 253.048H292.012C291.964 252.36 291.468 251.88 290.748 251.88C290.004 251.88 289.596 252.32 289.596 252.816C289.596 253.36 290.068 253.552 290.604 253.664L291.452 253.832C292.436 254.032 292.988 254.464 292.988 255.32ZM296.084 257H295.204V252.048H293.332V251.256H297.956V252.048H296.084V257ZM299.613 257H298.733V251.256H299.613V257ZM303.362 257.12C301.762 257.12 300.522 255.816 300.522 254.12C300.522 252.432 301.762 251.136 303.362 251.136C304.802 251.136 305.954 252.096 306.17 253.512H305.234C305.074 252.584 304.322 251.928 303.37 251.928C302.234 251.928 301.434 252.848 301.434 254.12C301.434 255.408 302.234 256.328 303.37 256.328C304.322 256.328 305.074 255.664 305.234 254.736H306.17C305.954 256.16 304.802 257.12 303.362 257.12ZM310.749 255H309.637V257H308.757V251.256H310.749C312.037 251.256 312.869 251.912 312.869 253.112C312.869 254.32 312.037 255 310.749 255ZM310.741 252H309.637V254.256H310.741C311.517 254.256 311.989 253.832 311.989 253.12C311.989 252.408 311.517 252 310.741 252ZM314.629 257H313.749V251.256H315.893C317.213 251.256 318.005 251.904 318.005 253.048C318.005 253.872 317.485 254.504 316.613 254.712L318.173 257H317.117L315.685 254.84H314.629V257ZM314.629 251.992V254.104H315.837C316.653 254.104 317.117 253.744 317.117 253.048C317.117 252.36 316.653 251.992 315.837 251.992H314.629ZM321.544 257.12C319.88 257.12 318.624 255.816 318.624 254.12C318.624 252.424 319.88 251.136 321.544 251.136C323.208 251.136 324.464 252.424 324.464 254.12C324.464 255.816 323.208 257.12 321.544 257.12ZM321.544 256.328C322.76 256.328 323.552 255.352 323.552 254.12C323.552 252.888 322.76 251.928 321.544 251.928C320.328 251.928 319.536 252.888 319.536 254.12C319.536 255.352 320.328 256.328 321.544 256.328ZM327.958 257.12C326.294 257.12 325.038 255.816 325.038 254.12C325.038 252.424 326.294 251.136 327.958 251.136C329.622 251.136 330.878 252.424 330.878 254.12C330.878 255.816 329.622 257.12 327.958 257.12ZM327.958 256.328C329.174 256.328 329.966 255.352 329.966 254.12C329.966 252.888 329.174 251.928 327.958 251.928C326.742 251.928 325.95 252.888 325.95 254.12C325.95 255.352 326.742 256.328 327.958 256.328ZM332.668 257H331.788V251.256H335.276V252.024H332.668V253.896H334.892V254.664H332.668V257Z" fill="#6154F3"/>
<rect x="152" y="266" width="80" height="80" transform="rotate(90 152 266)" stroke="#262626"/>
<path d="M119.803 290L109.702 295.74V313.655L104.129 316.851L98.5223 313.652V307.256L104.129 304.088L107.734 306.157V300.982L104.098 298.939L94 304.744V316.226L104.132 322L114.23 316.226V298.314L119.837 295.115L125.441 298.314V304.682L119.837 307.909L116.2 305.822V310.971L119.803 313.027L130 307.287V295.74L119.803 290Z" fill="#3D3D3D"/>
<rect x="232" y="266" width="80" height="80" transform="rotate(90 232 266)" stroke="#262626"/>
<g clip-path="url(#clip0_2619_268)">
<mask id="mask2_2619_268" style="mask-type:luminance" maskUnits="userSpaceOnUse" x="176" y="290" width="32" height="32">
<path d="M208 290H176V322H208V290Z" fill="white"/>
</mask>
<g mask="url(#mask2_2619_268)">
<path fill-rule="evenodd" clip-rule="evenodd" d="M176 290L176 298L192 306L176 314L176 322L192 314V322L208 314V306V298L192 290V298L176 290ZM192 298V306V314L208 306L192 298Z" fill="#6154F3"/>
</g>
</g>
<rect x="312" y="266" width="80" height="80" transform="rotate(90 312 266)" stroke="#262626"/>
<path d="M289.403 310.025L289.355 310.075C289.332 310.098 289.31 310.121 289.287 310.144L276.127 323.283C273.834 325.572 270.117 325.572 267.825 323.283L264.19 319.655C263.933 319.399 263.932 318.982 264.189 318.725C264.264 318.649 264.357 318.593 264.459 318.561C268.354 317.359 271.519 315.971 273.954 314.397C279.753 310.65 284.902 309.192 289.403 310.025ZM286.644 299.216C291.503 300.748 290.936 304.322 291 305.731C285.679 302.941 279.277 303.964 271.795 308.799C266.219 312.403 261.547 313.889 257.782 313.257C254.016 312.625 253.168 308.025 253 306.803C257.138 308.896 262.684 307.695 269.637 303.201C276.116 299.014 281.785 297.685 286.644 299.216ZM276.127 288.717L279.541 292.125C279.798 292.382 279.799 292.799 279.542 293.056C279.451 293.148 279.334 293.21 279.207 293.236C274.264 294.232 270.31 295.688 267.347 297.603C262.268 300.885 257.941 302.41 254.364 302.179L254.364 302.178L267.825 288.717C270.117 286.428 273.834 286.428 276.127 288.717Z" fill="#3D3D3D"/>
<rect x="392" y="266" width="80" height="80" transform="rotate(90 392 266)" stroke="#262626"/>
<path fill-rule="evenodd" clip-rule="evenodd" d="M341.251 298.201H326.347C326.255 298.201 326.166 298.237 326.102 298.302C326.036 298.367 326 298.455 326 298.547V313.452C326 313.544 326.036 313.632 326.102 313.697C326.166 313.762 326.255 313.799 326.347 313.799H341.251C341.343 313.799 341.432 313.762 341.497 313.697C341.562 313.632 341.598 313.544 341.598 313.452V298.547C341.598 298.455 341.562 298.367 341.497 298.302C341.432 298.237 341.343 298.201 341.251 298.201ZM336.399 308.253C336.399 308.345 336.362 308.433 336.297 308.498C336.232 308.563 336.144 308.599 336.052 308.599H331.546C331.454 308.599 331.366 308.563 331.301 308.498C331.236 308.433 331.199 308.345 331.199 308.253V303.747C331.199 303.655 331.236 303.567 331.301 303.502C331.366 303.437 331.454 303.4 331.546 303.4H336.052C336.144 303.4 336.232 303.437 336.297 303.502C336.362 303.567 336.399 303.655 336.399 303.747V308.253ZM372.456 303.401H367.95C367.759 303.401 367.603 303.556 367.603 303.747V308.253C367.603 308.445 367.759 308.6 367.95 308.6H372.456C372.648 308.6 372.803 308.445 372.803 308.253V303.747C372.803 303.556 372.648 303.401 372.456 303.401ZM362.749 298.201H367.255C367.446 298.201 367.602 298.356 367.602 298.548V303.054C367.602 303.245 367.446 303.4 367.255 303.4H362.749C362.557 303.4 362.402 303.245 362.402 303.054V298.548C362.402 298.356 362.557 298.201 362.749 298.201ZM377.654 298.201H373.147C372.956 298.201 372.801 298.356 372.801 298.548V303.054C372.801 303.245 372.956 303.4 373.147 303.4H377.654C377.845 303.4 378 303.245 378 303.054V298.548C378 298.356 377.845 298.201 377.654 298.201ZM362.749 308.6H367.255C367.446 308.6 367.602 308.755 367.602 308.946V313.452C367.602 313.644 367.446 313.799 367.255 313.799H362.749C362.557 313.799 362.402 313.644 362.402 313.452V308.946C362.402 308.755 362.557 308.6 362.749 308.6ZM377.654 308.6H373.147C372.956 308.6 372.801 308.755 372.801 308.946V313.452C372.801 313.644 372.956 313.799 373.147 313.799H377.654C377.845 313.799 378 313.644 378 313.452V308.946C378 308.755 377.845 308.6 377.654 308.6ZM354.943 298.201H359.449C359.641 298.201 359.796 298.356 359.796 298.548V303.054C359.796 303.245 359.641 303.4 359.449 303.4H354.943C354.752 303.4 354.596 303.245 354.596 303.054V298.548C354.596 298.356 354.752 298.201 354.943 298.201ZM359.449 308.6H354.943C354.752 308.6 354.596 308.755 354.596 308.946V313.452C354.596 313.644 354.752 313.799 354.943 313.799H359.449C359.641 313.799 359.796 313.644 359.796 313.452V308.946C359.796 308.755 359.641 308.6 359.449 308.6ZM354.495 303.498C354.56 303.563 354.597 303.651 354.597 303.743V308.249C354.597 308.341 354.56 308.429 354.495 308.494C354.43 308.559 354.342 308.596 354.25 308.596H349.397V313.444C349.397 313.536 349.361 313.624 349.296 313.689C349.231 313.754 349.142 313.791 349.051 313.791H344.544C344.452 313.791 344.364 313.754 344.299 313.689C344.234 313.624 344.198 313.536 344.198 313.444V298.547C344.198 298.455 344.234 298.367 344.299 298.302C344.364 298.237 344.452 298.201 344.544 298.201H349.051C349.142 298.201 349.231 298.237 349.296 298.302C349.361 298.367 349.397 298.455 349.397 298.547V303.396H354.25C354.342 303.396 354.43 303.433 354.495 303.498Z" fill="#3D3D3D"/>
<rect x="472" y="266" width="80" height="80" transform="rotate(90 472 266)" stroke="#262626"/>
<mask id="mask3_2619_268" style="mask-type:luminance" maskUnits="userSpaceOnUse" x="416" y="290" width="32" height="32">
<path d="M448 290H416V322H448V290Z" fill="white"/>
</mask>
<g mask="url(#mask3_2619_268)">
<path fill-rule="evenodd" clip-rule="evenodd" d="M432 290H416L432 306H416L432 322H448L432 306H448L432 290Z" fill="#3D3D3D"/>
</g>
<rect x="552" y="266" width="80" height="80" transform="rotate(90 552 266)" stroke="#262626"/>
<path fill-rule="evenodd" clip-rule="evenodd" d="M501.12 306C501.12 300.84 504.666 296.514 509.44 295.355V290.103C501.82 291.336 496 297.984 496 306C496 314.016 501.82 320.664 509.44 321.898V316.645C504.666 315.486 501.12 311.16 501.12 306ZM528 306C528 314.016 522.18 320.664 514.56 321.898V316.645C519.334 315.486 522.88 311.16 522.88 306C522.88 300.84 519.334 296.514 514.56 295.355V290.103C522.18 291.336 528 297.984 528 306Z" fill="#6154F3"/>
<rect x="632" y="266" width="80" height="80" transform="rotate(90 632 266)" stroke="#262626"/>
<g clip-path="url(#clip1_2619_268)">
<mask id="mask4_2619_268" style="mask-type:luminance" maskUnits="userSpaceOnUse" x="576" y="290" width="32" height="32">
<path d="M608 290H576V322H608V290Z" fill="white"/>
</mask>
<g mask="url(#mask4_2619_268)">
<path fill-rule="evenodd" clip-rule="evenodd" d="M608 298V290L592 290V297.997C591.998 293.58 588.417 290 584 290H576V306H584C579.582 306 576 309.582 576 314L576 322H592V314C592 318.418 595.582 322 600 322H608V306H600.003C604.42 305.998 608 302.417 608 298Z" fill="#6154F3"/>
</g>
</g>
<rect x="152" y="161" width="80" height="80" transform="rotate(90 152 161)" stroke="#262626"/>
<path d="M101.767 213.012L111.883 207.183L121.999 213.012L111.883 218.842L101.767 213.012Z" fill="#323232" stroke="black"/>
<path d="M101.767 205.004L111.883 199.175L121.999 205.004L111.883 210.834L101.767 205.004Z" fill="#444444" stroke="black"/>
<path d="M101.767 196.996L111.883 191.167L121.999 196.996L111.883 202.826L101.767 196.996Z" fill="#818181" stroke="black"/>
<path d="M101.767 188.988L111.883 183.159L121.999 188.988L111.883 194.817L101.767 188.988Z" fill="white" stroke="black"/>
<rect x="152" y="81" width="80" height="80" transform="rotate(90 152 81)" stroke="#262626"/>
<path d="M102.001 133.431L112.117 127.601L122.233 133.431L112.117 139.26L102.001 133.431Z" fill="#323232" stroke="black"/>
<path d="M102.001 125.423L112.117 119.593L122.233 125.423L112.117 131.252L102.001 125.423Z" fill="#323232" stroke="black"/>
<path d="M102.001 117.415L112.117 111.585L122.233 117.415L112.117 123.244L102.001 117.415Z" fill="#323232" stroke="black"/>
<path d="M102.001 109.407L112.117 103.577L122.233 109.407L112.117 115.236L102.001 109.407Z" fill="#323232" stroke="black"/>
<rect x="312" y="81" width="80" height="80" transform="rotate(90 312 81)" stroke="#262626"/>
<path d="M261.767 133.012L271.883 127.183L281.999 133.012L271.883 138.842L261.767 133.012Z" fill="#323232" stroke="black"/>
<path d="M261.767 125.004L271.883 119.175L281.999 125.004L271.883 130.834L261.767 125.004Z" fill="#444444" stroke="black"/>
<path d="M261.767 116.996L271.883 111.167L281.999 116.996L271.883 122.826L261.767 116.996Z" fill="#818181" stroke="black"/>
<path d="M261.767 108.988L271.883 103.159L281.999 108.988L271.883 114.817L261.767 108.988Z" fill="white" stroke="black"/>
<rect x="312" y="161" width="80" height="80" transform="rotate(90 312 161)" stroke="#262626"/>
<path d="M262.001 213.431L272.117 207.601L282.233 213.431L272.117 219.26L262.001 213.431Z" fill="#323232" stroke="black"/>
<path d="M262.001 205.423L272.117 199.593L282.233 205.423L272.117 211.252L262.001 205.423Z" fill="#323232" stroke="black"/>
<path d="M262.001 197.415L272.117 191.585L282.233 197.415L272.117 203.244L262.001 197.415Z" fill="#323232" stroke="black"/>
<path d="M262.001 189.407L272.117 183.577L282.233 189.407L272.117 195.236L262.001 189.407Z" fill="#323232" stroke="black"/>
<rect x="632" y="81" width="80" height="80" transform="rotate(90 632 81)" stroke="#262626"/>
<path d="M581.767 133.012L591.883 127.183L601.999 133.012L591.883 138.842L581.767 133.012Z" fill="#323232" stroke="black"/>
<path d="M581.767 125.004L591.883 119.175L601.999 125.004L591.883 130.834L581.767 125.004Z" fill="#444444" stroke="black"/>
<path d="M581.767 116.996L591.883 111.167L601.999 116.996L591.883 122.826L581.767 116.996Z" fill="#818181" stroke="black"/>
<path d="M581.767 108.988L591.883 103.159L601.999 108.988L591.883 114.817L581.767 108.988Z" fill="white" stroke="black"/>
<rect x="632" y="161" width="80" height="80" transform="rotate(90 632 161)" stroke="#262626"/>
<path d="M582.001 213.431L592.117 207.601L602.233 213.431L592.117 219.26L582.001 213.431Z" fill="#323232" stroke="black"/>
<path d="M582.001 205.423L592.117 199.593L602.233 205.423L592.117 211.252L582.001 205.423Z" fill="#323232" stroke="black"/>
<path d="M582.001 197.415L592.117 191.585L602.233 197.415L592.117 203.244L582.001 197.415Z" fill="#323232" stroke="black"/>
<path d="M582.001 189.407L592.117 183.577L602.233 189.407L592.117 195.236L582.001 189.407Z" fill="#323232" stroke="black"/>
<rect x="392" y="346" width="80" height="80" transform="rotate(90 392 346)" stroke="#262626"/>
<path d="M342.001 398.431L352.117 392.601L362.233 398.431L352.117 404.26L342.001 398.431Z" fill="#323232" stroke="black"/>
<path d="M342.001 390.423L352.117 384.593L362.233 390.423L352.117 396.252L342.001 390.423Z" fill="#323232" stroke="black"/>
<path d="M342.001 382.415L352.117 376.585L362.233 382.415L352.117 388.244L342.001 382.415Z" fill="#323232" stroke="black"/>
<path d="M342.001 374.407L352.117 368.577L362.233 374.407L352.117 380.236L342.001 374.407Z" fill="#323232" stroke="black"/>
<rect x="472" y="161" width="80" height="80" transform="rotate(90 472 161)" stroke="#262626"/>
<path d="M422.001 213.431L432.117 207.601L442.233 213.431L432.117 219.26L422.001 213.431Z" fill="#323232" stroke="black"/>
<path d="M422.001 205.423L432.117 199.593L442.233 205.423L432.117 211.252L422.001 205.423Z" fill="#323232" stroke="black"/>
<path d="M422.001 197.415L432.117 191.585L442.233 197.415L432.117 203.244L422.001 197.415Z" fill="#323232" stroke="black"/>
<path d="M422.001 189.407L432.117 183.577L442.233 189.407L432.117 195.236L422.001 189.407Z" fill="#323232" stroke="black"/>
<rect x="472" y="81" width="80" height="80" transform="rotate(90 472 81)" stroke="#262626"/>
<path d="M422.001 133.431L432.117 127.601L442.233 133.431L432.117 139.26L422.001 133.431Z" fill="#323232" stroke="black"/>
<path d="M422.001 125.423L432.117 119.593L442.233 125.423L432.117 131.252L422.001 125.423Z" fill="#323232" stroke="black"/>
<path d="M422.001 117.415L432.117 111.585L442.233 117.415L432.117 123.244L422.001 117.415Z" fill="#323232" stroke="black"/>
<path d="M422.001 109.407L432.117 103.577L442.233 109.407L432.117 115.236L422.001 109.407Z" fill="#323232" stroke="black"/>
<rect x="72" y="426" width="560" height="25" fill="white" fill-opacity="0.08"/>
<rect x="72" y="426" width="560" height="25" stroke="#262626"/>
<path d="M85.048 436.256V439.936C85.048 441.256 84.2 442.12 82.824 442.12C81.448 442.12 80.608 441.256 80.608 439.936V436.256H81.488V439.96C81.488 440.792 81.976 441.328 82.824 441.328C83.68 441.328 84.168 440.792 84.168 439.96V436.256H85.048ZM90.1124 442L87.0884 437.512V442H86.2724V436.256H87.2324L90.1844 440.624V436.256H91.0004V442H90.1124ZM93.1212 442H92.2412V436.256H93.1212V442ZM95.2462 442H94.3662V436.256H97.8542V437.024H95.2462V438.896H97.4702V439.664H95.2462V442ZM99.5978 442H98.7178V436.256H99.5978V442ZM104.483 441.232V442H100.843V436.256H104.427V437.024H101.723V438.656H104.187V439.424H101.723V441.232H104.483ZM107.331 442H105.515V436.256H107.331C109.163 436.256 110.219 437.424 110.219 439.104C110.219 440.76 109.123 442 107.331 442ZM106.395 437.016V441.24H107.291C108.611 441.24 109.323 440.424 109.323 439.104C109.323 437.808 108.619 437.016 107.291 437.016H106.395ZM116.876 440.352C116.876 441.4 116.108 442 114.916 442H112.812V436.256H114.804C115.964 436.256 116.66 436.792 116.66 437.76C116.66 438.304 116.332 438.768 115.78 439.008C116.492 439.208 116.876 439.696 116.876 440.352ZM114.748 436.96H113.62V438.688H114.748C115.444 438.688 115.82 438.36 115.82 437.824C115.82 437.288 115.444 436.96 114.748 436.96ZM114.86 439.392H113.62V441.296H114.86C115.612 441.296 116.036 440.936 116.036 440.328C116.036 439.744 115.612 439.392 114.86 439.392ZM118.77 442H117.89V436.256H120.034C121.354 436.256 122.146 436.904 122.146 438.048C122.146 438.872 121.626 439.504 120.754 439.712L122.314 442H121.258L119.826 439.84H118.77V442ZM118.77 436.992V439.104H119.978C120.794 439.104 121.258 438.744 121.258 438.048C121.258 437.36 120.794 436.992 119.978 436.992H118.77ZM124.043 442H123.163V436.256H124.043V442ZM127.104 442H125.288V436.256H127.104C128.936 436.256 129.992 437.424 129.992 439.104C129.992 440.76 128.896 442 127.104 442ZM126.168 437.016V441.24H127.064C128.384 441.24 129.096 440.424 129.096 439.104C129.096 437.808 128.392 437.016 127.064 437.016H126.168ZM133.513 442.12C131.857 442.12 130.577 440.864 130.577 439.12C130.577 437.424 131.793 436.136 133.465 436.136C134.945 436.136 135.945 437.04 136.297 438.232H135.273C135.057 437.496 134.425 436.928 133.441 436.928C132.305 436.928 131.489 437.784 131.489 439.136C131.489 440.408 132.265 441.368 133.545 441.368C134.609 441.368 135.281 440.712 135.441 439.728H133.457V439.024H136.369C136.401 440.864 135.273 442.12 133.513 442.12ZM140.928 441.232V442H137.288V436.256H140.872V437.024H138.168V438.656H140.632V439.424H138.168V441.232H140.928ZM146.136 442.12C144.536 442.12 143.296 440.816 143.296 439.12C143.296 437.432 144.536 436.136 146.136 436.136C147.576 436.136 148.728 437.096 148.944 438.512H148.008C147.848 437.584 147.096 436.928 146.144 436.928C145.008 436.928 144.208 437.848 144.208 439.12C144.208 440.408 145.008 441.328 146.144 441.328C147.096 441.328 147.848 440.664 148.008 439.736H148.944C148.728 441.16 147.576 442.12 146.136 442.12ZM152.442 442.12C150.778 442.12 149.522 440.816 149.522 439.12C149.522 437.424 150.778 436.136 152.442 436.136C154.106 436.136 155.362 437.424 155.362 439.12C155.362 440.816 154.106 442.12 152.442 442.12ZM152.442 441.328C153.658 441.328 154.45 440.352 154.45 439.12C154.45 437.888 153.658 436.928 152.442 436.928C151.226 436.928 150.434 437.888 150.434 439.12C150.434 440.352 151.226 441.328 152.442 441.328ZM160.112 442L157.088 437.512V442H156.272V436.256H157.232L160.184 440.624V436.256H161V442H160.112ZM164.521 442H163.641V437.048H161.769V436.256H166.393V437.048H164.521V442ZM168.051 442H167.171V436.256H169.315C170.635 436.256 171.427 436.904 171.427 438.048C171.427 438.872 170.907 439.504 170.035 439.712L171.595 442H170.539L169.107 439.84H168.051V442ZM168.051 436.992V439.104H169.259C170.075 439.104 170.539 438.744 170.539 438.048C170.539 437.36 170.075 436.992 169.259 436.992H168.051ZM176.318 442L175.798 440.576H173.318L172.79 442H171.902L174.102 436.256H175.07L177.254 442H176.318ZM174.566 437.216L173.582 439.864H175.534L174.566 437.216ZM180.191 442.12C178.591 442.12 177.351 440.816 177.351 439.12C177.351 437.432 178.591 436.136 180.191 436.136C181.631 436.136 182.783 437.096 182.999 438.512H182.062C181.903 437.584 181.151 436.928 180.199 436.928C179.062 436.928 178.263 437.848 178.263 439.12C178.263 440.408 179.062 441.328 180.199 441.328C181.151 441.328 181.903 440.664 182.062 439.736H182.999C182.783 441.16 181.631 442.12 180.191 442.12ZM185.99 442H185.11V437.048H183.238V436.256H187.862V437.048H185.99V442Z" fill="white" fill-opacity="0.5"/>
<rect x="72" y="451" width="560" height="80" stroke="#262626"/>
<path d="M351.997 475.731L351.8 476.399V495.782L351.997 495.978L360.994 490.66L351.997 475.731Z" fill="white"/>
<path d="M351.997 475.731L343 490.66L351.997 495.978V486.57V475.731Z" fill="white"/>
<path d="M351.997 498.905L351.887 499.04V505.945L351.997 506.268L361 493.59L351.997 498.905Z" fill="white"/>
<path d="M351.997 506.268V498.905L343 493.59L351.997 506.268Z" fill="white"/>
<path d="M351.997 495.978L360.994 490.66L351.997 486.57V495.978Z" fill="white"/>
<path d="M343 490.66L351.997 495.978V486.57L343 490.66Z" fill="white"/>
<defs>
<clipPath id="clip0_2619_268">
<rect width="32" height="32" fill="white" transform="translate(176 290)"/>
</clipPath>
<clipPath id="clip1_2619_268">
<rect width="32" height="32" fill="white" transform="translate(576 290)"/>
</clipPath>
</defs>
</svg>
