<svg width="20" height="28" viewBox="0 0 20 28" fill="none" xmlns="http://www.w3.org/2000/svg">
<path d="M10.7954 3.05204C12.3723 0.973634 14.5645 0.963501 14.5645 0.963501C14.5645 0.963501 14.8906 2.91756 13.3241 4.79993C11.6514 6.8099 9.75009 6.481 9.75009 6.481C9.75009 6.481 9.39308 4.90023 10.7954 3.05204V3.05204ZM9.95065 7.84981C10.7619 7.84981 12.2675 6.73467 14.2273 6.73467C17.6007 6.73467 18.9278 9.13507 18.9278 9.13507C18.9278 9.13507 16.3322 10.4621 16.3322 13.6822C16.3322 17.3146 19.5656 18.5665 19.5656 18.5665C19.5656 18.5665 17.3053 24.9283 14.2524 24.9283C12.8502 24.9283 11.7601 23.9833 10.2826 23.9833C8.777 23.9833 7.2829 24.9635 6.30977 24.9635C3.52197 24.9636 0 18.9288 0 14.0779C0 9.3052 2.98111 6.80154 5.77728 6.80154C7.59504 6.80154 9.00564 7.84981 9.95065 7.84981V7.84981Z" fill="white"/>
</svg>
