<svg width="100" height="100" viewBox="0 0 100 100" fill="none" xmlns="http://www.w3.org/2000/svg">
<path d="M45.8359 10.5617C43.3847 9.14366 40.5383 8.33203 37.5026 8.33203C28.2979 8.33203 20.8359 15.7939 20.8359 24.9987V32.3913C17.2899 33.8172 14.3836 36.0314 12.2579 38.9542C9.55423 42.6716 8.33594 47.2266 8.33594 52.082C8.33594 58.5879 11.6496 64.3137 16.6693 67.6737V72.9154C16.6693 83.2708 25.0639 91.6654 35.4193 91.6654C39.2737 91.6654 42.8568 90.5024 45.8359 88.5079V72.9154C45.8359 67.3612 44.4609 63.8099 42.2534 61.4187C39.9919 58.9687 36.3202 57.1508 30.5676 56.192L31.9376 47.972C37.361 48.8758 42.1101 50.5708 45.8359 53.4449V10.5617ZM54.1693 10.5617V53.4449C57.8951 50.5708 62.6443 48.8758 68.0676 47.972L69.4376 56.192C63.6851 57.1508 60.0134 58.9687 57.7518 61.4187C55.5443 63.8099 54.1693 67.3612 54.1693 72.9154V88.5079C57.1484 90.5024 60.7314 91.6654 64.5859 91.6654C74.9414 91.6654 83.3359 83.2708 83.3359 72.9154V67.6737C88.3555 64.3137 91.6693 58.5879 91.6693 52.082C91.6693 47.2266 90.4509 42.6716 87.7472 38.9542C85.6218 36.0314 82.7155 33.8172 79.1693 32.3913V24.9987C79.1693 15.7939 71.7072 8.33203 62.5026 8.33203C59.4668 8.33203 56.6205 9.14366 54.1693 10.5617Z" fill="white"/>
</svg>
