<svg width="16" height="16" viewBox="0 0 16 16" fill="none" xmlns="http://www.w3.org/2000/svg">
<path d="M11.9999 8.00335C11.9999 8.37001 12.2999 8.67001 12.6666 8.67001H13.9999C14.3666 8.67001 14.6666 8.37001 14.6666 8.00335C14.6666 7.63668 14.3666 7.33668 13.9999 7.33668H12.6666C12.2999 7.33668 11.9999 7.63668 11.9999 8.00335Z" fill="#F4F4F6"/>
<path d="M11.0599 11.2167C10.8399 11.51 10.8999 11.9167 11.1933 12.13C11.5466 12.39 11.9199 12.67 12.2733 12.9367C12.5666 13.1567 12.9799 13.0967 13.1933 12.8033C13.1933 12.7967 13.1999 12.7967 13.1999 12.79C13.4199 12.4967 13.3599 12.0833 13.0666 11.87C12.7133 11.6033 12.3399 11.3233 11.9933 11.0633C11.6999 10.8433 11.2866 10.91 11.0666 11.2033C11.0666 11.21 11.0599 11.2167 11.0599 11.2167Z" fill="#F4F4F6"/>
<path d="M13.2066 3.21001C13.2066 3.20335 13.1999 3.20335 13.1999 3.19668C12.9799 2.90335 12.5666 2.84335 12.2799 3.06335C11.9266 3.33001 11.5466 3.61001 11.1999 3.87668C10.9066 4.09668 10.8533 4.51001 11.0733 4.79668C11.0733 4.80335 11.0799 4.80335 11.0799 4.81001C11.2999 5.10335 11.7066 5.16335 11.9999 4.94335C12.3533 4.68335 12.7266 4.39668 13.0799 4.13001C13.3666 3.91668 13.4199 3.50335 13.2066 3.21001Z" fill="#F4F4F6"/>
<path d="M5.33325 6.00335H2.66659C1.93325 6.00335 1.33325 6.60335 1.33325 7.33668V8.67001C1.33325 9.40335 1.93325 10.0033 2.66659 10.0033H3.33325V12.0033C3.33325 12.37 3.63325 12.67 3.99992 12.67C4.36659 12.67 4.66659 12.37 4.66659 12.0033V10.0033H5.33325L8.66659 12.0033V4.00335L5.33325 6.00335Z" fill="#F4F4F6"/>
<path d="M10.3333 8.00335C10.3333 7.11668 9.94659 6.31668 9.33325 5.77001V10.23C9.94659 9.69001 10.3333 8.89001 10.3333 8.00335Z" fill="#F4F4F6"/>
</svg>
