<svg width="48" height="48" viewBox="0 0 48 48" fill="none" xmlns="http://www.w3.org/2000/svg">
<path d="M1.11112 12C1.11112 11.9451 1.13108 11.8838 1.19145 11.8212C1.25567 11.7545 1.35407 11.7013 1.4679 11.6871C6.79986 11.0236 11.0236 6.79988 11.6871 1.46792C11.7013 1.35409 11.7545 1.25569 11.8211 1.19147C11.8838 1.1311 11.945 1.11113 12 1.11113C12.055 1.11113 12.1162 1.13109 12.1789 1.19147C12.2455 1.25569 12.2988 1.35409 12.3129 1.46792C12.9911 6.91777 17.3903 11.2117 22.8889 11.7261V12.274C17.271 12.7997 12.7996 17.2711 12.274 22.8889H11.7261C11.2116 17.3903 6.91777 12.9912 1.4679 12.313C1.35407 12.2988 1.25567 12.2456 1.19145 12.1789C1.13108 12.1162 1.11112 12.055 1.11112 12Z" stroke="#262626" stroke-width="2.22222"/>
<path d="M1.11112 36C1.11112 35.9451 1.13108 35.8838 1.19145 35.8212C1.25567 35.7545 1.35407 35.7013 1.4679 35.6871C6.91779 35.0089 11.2117 30.6097 11.7261 25.1111L12.274 25.1111C12.7996 30.7289 17.271 35.2004 22.8889 35.7261V36.274C17.3903 36.7884 12.9912 41.0823 12.3129 46.5321C12.2988 46.6459 12.2455 46.7443 12.1789 46.8085C12.1162 46.8689 12.055 46.8889 12 46.8889C11.945 46.8889 11.8838 46.8689 11.8211 46.8085C11.7545 46.7443 11.7012 46.6459 11.6871 46.5321C11.0235 41.2002 6.79984 36.9765 1.4679 36.313C1.35407 36.2988 1.25567 36.2456 1.19145 36.1789C1.13108 36.1162 1.11112 36.055 1.11112 36Z" stroke="#3247CD" stroke-width="2.22222"/>
<path d="M25.1111 35.7261C30.729 35.2004 35.2004 30.729 35.7261 25.1111L36.2739 25.1111C36.7884 30.6097 41.0822 35.0089 46.5321 35.6871C46.6459 35.7013 46.7443 35.7545 46.8085 35.8212C46.8689 35.8838 46.8889 35.9451 46.8889 36C46.8889 36.055 46.8689 36.1162 46.8085 36.1789C46.7443 36.2456 46.6459 36.2988 46.5321 36.313C41.2001 36.9765 36.9765 41.2002 36.3129 46.5321C36.2988 46.6459 36.2455 46.7443 36.1789 46.8085C36.1162 46.8689 36.055 46.8889 36 46.8889C35.945 46.8889 35.8838 46.8689 35.8211 46.8085C35.7545 46.7443 35.7012 46.6459 35.6871 46.5321C35.0089 41.0822 30.6097 36.7884 25.1111 36.274V35.7261Z" stroke="#9FD330" stroke-width="2.22222"/>
<path d="M25.1111 11.7261C30.6097 11.2117 35.0089 6.9178 35.6871 1.46792C35.7013 1.35409 35.7545 1.25569 35.8211 1.19147C35.8838 1.1311 35.945 1.11113 36 1.11113C36.055 1.11113 36.1162 1.13109 36.1789 1.19147C36.2455 1.25569 36.2988 1.35409 36.3129 1.46792C36.9765 6.79985 41.2001 11.0236 46.5321 11.6871C46.6459 11.7013 46.7443 11.7545 46.8085 11.8212C46.8689 11.8838 46.8889 11.9451 46.8889 12C46.8889 12.055 46.8689 12.1162 46.8085 12.1789C46.7443 12.2456 46.6459 12.2988 46.5321 12.313C41.0822 12.9912 36.7884 17.3904 36.2739 22.8889H35.7261C35.2004 17.2711 30.7289 12.7997 25.1111 12.274V11.7261Z" stroke="#EA4A4A" stroke-width="2.22222"/>
</svg>
