<svg width="77" height="23" viewBox="0 0 77 23" fill="none" xmlns="http://www.w3.org/2000/svg">
<rect width="77" height="23" rx="6" fill="#221C41"/>
<g clip-path="url(#clip0_4155_59540)">
<path d="M19 14.3428C19.0005 13.7716 18.751 13.2236 18.3063 12.8191C17.8615 12.4145 17.2579 12.1865 16.6279 12.185L13.9979 12.185C13.9813 11.9628 13.9709 11.7356 13.9709 11.5C13.9709 11.2644 13.9605 11.0383 13.9458 10.815L16.6279 10.815C17.2525 10.8059 17.848 10.5746 18.2861 10.171C18.7242 9.76737 18.9698 9.22378 18.9698 8.6575C18.9698 8.09122 18.7242 7.54763 18.2861 7.14401C17.848 6.74039 17.2525 6.50909 16.6279 6.5L10.342 6.5C9.71751 6.50909 9.12195 6.74039 8.68384 7.14401C8.24573 7.54763 8.00019 8.09122 8.00019 8.6575C8.00019 9.22378 8.24573 9.76737 8.68384 10.171C9.12195 10.5746 9.71751 10.8059 10.342 10.815L12.8125 10.875C12.9844 10.875 12.9991 11.2644 12.9991 11.5C12.9991 11.7356 13.0095 11.9617 13.0242 12.185L10.342 12.185C9.71751 12.1941 9.12195 12.4254 8.68384 12.829C8.24573 13.2326 8.00019 13.7762 8.00019 14.3425C8.00019 14.9088 8.24573 15.4524 8.68384 15.856C9.12195 16.2596 9.71751 16.4909 10.342 16.5L16.6279 16.5C17.2578 16.4985 17.8613 16.2706 18.306 15.8661C18.7508 15.4617 19.0003 14.9138 19 14.3428ZM18.0281 8.65722C18.0283 8.9943 17.881 9.31768 17.6185 9.55639C17.356 9.79511 16.9997 9.92967 16.6279 9.93056L13.8428 9.93056C13.742 9.29932 13.5497 8.6829 13.2711 8.09722C13.1483 7.84346 12.991 7.60458 12.803 7.38611L16.6279 7.38611C16.9993 7.38699 17.3552 7.52125 17.6176 7.75949C17.88 7.99772 18.0276 8.32053 18.0281 8.65722ZM10.342 9.93056C9.96955 9.93056 9.61231 9.7964 9.34892 9.5576C9.08552 9.31881 8.93755 8.99493 8.93755 8.65722C8.93755 8.31951 9.08552 7.99564 9.34892 7.75684C9.61231 7.51804 9.96955 7.38389 10.342 7.38389L10.9726 7.38389C11.5296 7.38389 12.0572 7.78389 12.3857 8.45444C12.6105 8.92693 12.7704 9.42269 12.8618 9.93056L10.342 9.93056ZM8.94184 14.3428C8.94168 14.0057 9.08901 13.6823 9.35151 13.4436C9.61401 13.2049 9.97024 13.0703 10.342 13.0694L13.1271 13.0694C13.228 13.7007 13.4202 14.3171 13.6988 14.9028C13.8217 15.1565 13.979 15.3954 14.167 15.6139L10.342 15.6139C9.97067 15.613 9.6148 15.4788 9.35237 15.2405C9.08994 15.0023 8.94233 14.6795 8.94184 14.3428ZM14.588 14.5456C14.3631 14.0731 14.2032 13.5773 14.1119 13.0694L16.6279 13.0694C17.0004 13.0694 17.3577 13.2036 17.6211 13.4424C17.8844 13.6812 18.0324 14.0051 18.0324 14.3428C18.0324 14.6805 17.8844 15.0044 17.6211 15.2432C17.3577 15.482 17.0004 15.6161 16.6279 15.6161L15.9974 15.6161C15.4428 15.6161 14.9152 15.2161 14.588 14.5456Z" fill="url(#paint0_linear_4155_59540)"/>
<path opacity="0.8" d="M19 8.65722C19.0005 9.22839 18.751 9.77639 18.3062 10.1809C17.8615 10.5855 17.2579 10.8135 16.6279 10.815L13.9978 10.815C13.9812 11.0372 13.9708 11.2644 13.9708 11.5C13.9708 11.7356 13.9604 11.9617 13.9457 12.185L16.6279 12.185C17.2524 12.1941 17.848 12.4254 18.2861 12.829C18.7242 13.2326 18.9698 13.7762 18.9698 14.3425C18.9698 14.9088 18.7242 15.4524 18.2861 15.856C17.848 16.2596 17.2524 16.4909 16.6279 16.5L10.3419 16.5C9.71735 16.4909 9.12177 16.2596 8.68366 15.856C8.24554 15.4524 8 14.9088 8 14.3425C8 13.7762 8.24554 13.2326 8.68366 12.829C9.12177 12.4254 9.71735 12.1941 10.3419 12.185L12.8124 12.125C12.9843 12.125 12.9989 11.7356 12.9989 11.5C12.9989 11.2644 13.0094 11.0383 13.0241 10.815L10.3419 10.815C9.71735 10.8059 9.12177 10.5746 8.68366 10.171C8.24554 9.76737 8 9.22378 8 8.6575C8 8.09122 8.24554 7.54763 8.68366 7.14401C9.12177 6.74039 9.71735 6.50908 10.3419 6.5L16.6279 6.5C17.2578 6.50147 17.8613 6.72943 18.306 7.13386C18.7507 7.53829 19.0003 8.08615 19 8.65722ZM18.0281 14.3428C18.0283 14.0057 17.8809 13.6823 17.6184 13.4436C17.3559 13.2049 16.9997 13.0703 16.6279 13.0694L13.8428 13.0694C13.7419 13.7007 13.5496 14.3171 13.271 14.9028C13.1482 15.1565 12.9909 15.3954 12.8029 15.6139L16.6279 15.6139C16.9993 15.613 17.3551 15.4788 17.6176 15.2405C17.88 15.0023 18.0276 14.6795 18.0281 14.3428ZM10.3419 13.0694C9.96939 13.0694 9.61214 13.2036 9.34875 13.4424C9.08535 13.6812 8.93737 14.0051 8.93737 14.3428C8.93737 14.6805 9.08535 15.0044 9.34875 15.2432C9.61214 15.482 9.96939 15.6161 10.3419 15.6161L10.9724 15.6161C11.5295 15.6161 12.0571 15.2161 12.3855 14.5456C12.6104 14.0731 12.7703 13.5773 12.8617 13.0694L10.3419 13.0694ZM8.94166 8.65722C8.9415 8.9943 9.08883 9.31768 9.35134 9.55639C9.61384 9.79511 9.97008 9.92967 10.3419 9.93055L13.127 9.93055C13.2279 9.29932 13.4201 8.6829 13.6988 8.09722C13.8216 7.84346 13.9789 7.60458 14.1669 7.38611L10.3419 7.38611C9.9705 7.38699 9.61464 7.52125 9.3522 7.75948C9.08977 7.99772 8.94215 8.32053 8.94166 8.65722ZM14.5879 8.45444C14.3631 8.92693 14.2032 9.42269 14.1118 9.93055L16.6279 9.93055C17.0004 9.93055 17.3576 9.7964 17.621 9.5576C17.8844 9.31881 18.0324 8.99493 18.0324 8.65722C18.0324 8.31951 17.8844 7.99564 17.621 7.75684C17.3576 7.51804 17.0004 7.38389 16.6279 7.38389L15.9973 7.38389C15.4428 7.38389 14.9151 7.78389 14.5879 8.45444Z" fill="url(#paint1_linear_4155_59540)"/>
</g>
<path d="M27.5 15H25.748V7.884H23.168V6.516H30.08V7.884H27.5V15ZM37.4086 15H35.5606L34.8406 12.924H31.7686L31.0486 15H29.2606L32.4406 6.516H34.2286L37.4086 15ZM34.3966 11.556L33.3046 8.4L32.2126 11.556H34.3966ZM45.3433 15H43.6753L40.0633 9.288V15H38.3953V6.516H40.0633L43.6753 12.228V6.516H45.3433V15ZM53.7871 14.472C53.4351 14.64 53.0111 14.792 52.5151 14.928C52.0191 15.056 51.4831 15.12 50.9071 15.12C50.1871 15.12 49.5631 15.004 49.0351 14.772C48.5151 14.54 48.0831 14.228 47.7391 13.836C47.3951 13.436 47.1391 12.972 46.9711 12.444C46.8031 11.916 46.7191 11.356 46.7191 10.764C46.7191 10.172 46.8031 9.612 46.9711 9.084C47.1391 8.548 47.3951 8.084 47.7391 7.692C48.0831 7.292 48.5151 6.976 49.0351 6.744C49.5631 6.512 50.1831 6.396 50.8951 6.396C51.4711 6.396 51.9991 6.468 52.4791 6.612C52.9591 6.756 53.3791 6.94 53.7391 7.164L53.1391 8.436C52.7631 8.228 52.3831 8.084 51.9991 8.004C51.6151 7.916 51.2751 7.872 50.9791 7.872C50.5711 7.872 50.2111 7.948 49.8991 8.1C49.5871 8.244 49.3271 8.448 49.1191 8.712C48.9111 8.968 48.7551 9.276 48.6511 9.636C48.5471 9.988 48.4951 10.368 48.4951 10.776C48.4951 11.176 48.5431 11.552 48.6391 11.904C48.7431 12.256 48.8991 12.56 49.1071 12.816C49.3231 13.072 49.5911 13.276 49.9111 13.428C50.2311 13.572 50.6071 13.644 51.0391 13.644C51.1831 13.644 51.3471 13.636 51.5311 13.62C51.7231 13.604 51.9271 13.564 52.1431 13.5V11.568H50.5951V10.224H53.7871V14.472ZM61.0523 15H55.3523V6.516H57.1043V13.632H61.0523V15ZM67.7085 15H62.0085V6.516H67.7085V7.884H63.7245V10.068H66.9885V11.436H63.7245V13.632H67.7085V15Z" fill="white"/>
<defs>
<linearGradient id="paint0_linear_4155_59540" x1="8.81971" y1="7.13333" x2="17.4803" y2="16.66" gradientUnits="userSpaceOnUse">
<stop stop-color="#8E59FF"/>
<stop offset="1" stop-color="#6888F9"/>
</linearGradient>
<linearGradient id="paint1_linear_4155_59540" x1="8.81953" y1="15.8667" x2="17.4802" y2="6.33982" gradientUnits="userSpaceOnUse">
<stop stop-color="#8E59FF"/>
<stop offset="1" stop-color="#6888F9"/>
</linearGradient>
<clipPath id="clip0_4155_59540">
<rect width="10" height="11" fill="white" transform="translate(19 6.5) rotate(90)"/>
</clipPath>
</defs>
</svg>
