<svg width="100" height="100" viewBox="0 0 100 100" fill="none" xmlns="http://www.w3.org/2000/svg">
<path d="M70.8346 29.1654C56.545 29.1654 44.3551 38.1572 39.6152 50.7916L47.42 53.7183C50.975 44.2424 60.1171 37.4987 70.8346 37.4987C73.7442 37.4987 76.5376 37.9957 79.1346 38.9094C88.8617 42.332 95.8346 51.6012 95.8346 62.4987C95.8346 76.3058 84.6417 87.4987 70.8346 87.4987H29.168C15.3608 87.4987 4.16797 76.3058 4.16797 62.4987C4.16797 51.6012 11.1407 42.332 20.8681 38.9094C20.8459 38.442 20.8346 37.9717 20.8346 37.4987C20.8346 21.3904 33.893 8.33203 50.0013 8.33203C63.5096 8.33203 74.8734 17.5153 78.1896 29.9795C75.8234 29.4466 73.3617 29.1654 70.8346 29.1654Z" fill="white"/>
</svg>
