<svg width="47" height="34" viewBox="0 0 47 34" fill="none" xmlns="http://www.w3.org/2000/svg">
<path d="M46.75 19C46.75 23.0274 44.1921 26.7089 39.9825 29.3959C35.7758 32.081 29.949 33.75 23.5 33.75C17.051 33.75 11.2242 32.081 7.0175 29.3959C2.80789 26.7089 0.25 23.0274 0.25 19C0.25 14.9726 2.80789 11.2911 7.0175 8.60413C11.2242 5.91898 17.051 4.25 23.5 4.25C29.949 4.25 35.7758 5.91898 39.9825 8.60413C44.1921 11.2911 46.75 14.9726 46.75 19Z" fill="url(#paint0_linear_85_4163)" stroke="url(#paint1_linear_85_4163)" stroke-width="0.5"/>
<path d="M46.75 15C46.75 19.0274 44.1921 22.7089 39.9825 25.3959C35.7758 28.081 29.949 29.75 23.5 29.75C17.051 29.75 11.2242 28.081 7.0175 25.3959C2.80789 22.7089 0.25 19.0274 0.25 15C0.25 10.9726 2.80789 7.29112 7.0175 4.60413C11.2242 1.91898 17.051 0.25 23.5 0.25C29.949 0.25 35.7758 1.91898 39.9825 4.60413C44.1921 7.29112 46.75 10.9726 46.75 15Z" fill="url(#paint2_linear_85_4163)" stroke="url(#paint3_linear_85_4163)" stroke-width="0.5"/>
<path d="M15.501 13.4362L16.8294 14.2031C16.2918 14.6451 15.9731 15.1375 15.9438 15.6775C15.906 16.3765 16.2427 17.0285 16.9268 17.6155L17.7571 18.3281L17.8887 18.2521L18.4844 18.5272C18.8477 18.695 19.248 18.8431 19.6809 18.9731L19.6976 18.9781L19.7146 18.9828C20.2191 19.1231 20.7446 19.2156 21.2874 19.2518C21.8525 19.297 22.4154 19.2789 22.9669 19.1964L22.9815 19.1942L22.996 19.1918C23.6404 19.0855 24.2001 18.8782 24.677 18.6029C25.4444 18.1598 25.9005 17.6023 25.7589 16.9623C25.6685 16.4328 25.2115 15.8214 24.5635 15.169L23.7719 14.3719L23.6967 14.2706C23.6247 14.1736 23.5284 14.0744 23.4266 13.9796C23.3343 13.8689 23.2257 13.7602 23.1048 13.6538C22.7327 13.2787 22.3877 12.8959 22.0697 12.5054C21.7948 12.1429 21.6166 11.783 21.5291 11.4244C21.476 11.0939 21.5378 10.766 21.7201 10.4353C21.8959 10.1333 22.2639 9.79485 22.9056 9.42444C23.5461 9.05465 24.1925 8.81795 24.8408 8.68762C25.556 8.55562 26.245 8.5138 26.9179 8.55398L26.9292 8.55466L26.9405 8.55521C27.648 8.58983 28.3467 8.70407 29.0426 8.90494L29.0543 8.9083L29.0661 8.91152C29.8042 9.11337 30.4844 9.37124 31.1089 9.68669L31.898 10.0853L32.2655 10.3505C32.7959 10.7332 33.2115 11.1249 33.5198 11.5254L33.5274 11.5353L33.5355 11.545C33.8568 11.9303 34.0344 12.3124 34.0817 12.6948L34.0825 12.7016L34.0836 12.7084C34.1408 13.0717 34.0632 13.4511 33.8314 13.8526C33.7224 14.0413 33.5665 14.2349 33.3579 14.4331L31.9535 13.6223C32.2723 13.2984 32.4653 12.9424 32.5166 12.558C32.6004 11.9288 32.2751 11.3536 31.4971 10.9045L31.0567 10.6502L30.6311 10.4045L30.1907 10.1503C29.8534 9.95553 29.4728 9.79335 29.0515 9.66595C28.6025 9.53017 28.1208 9.4492 27.6163 9.42288C27.0869 9.38568 26.5633 9.42215 26.0587 9.51924L26.043 9.52227L26.0275 9.52553C25.4957 9.63717 25.0315 9.82774 24.6278 10.0608C23.9415 10.457 23.5314 10.9572 23.6084 11.5354C23.6755 12.0393 24.0964 12.5745 24.6777 13.1096L25.2857 13.6693L25.6615 14.0309L26.0601 14.4144L26.0658 14.4199L26.0717 14.4253C26.2072 14.5505 26.3442 14.6849 26.4825 14.8286L26.4868 14.833L26.4912 14.8374C27.2479 15.5979 27.6407 16.2083 27.7579 16.6817L27.7593 16.6873L27.7609 16.693C27.9051 17.2154 27.8788 17.625 27.7392 17.941C27.5851 18.2902 27.3484 18.558 27.0529 18.7639L27.0409 18.7723L27.0293 18.7809C26.6387 19.0708 26.281 19.3075 25.9564 19.4948C25.7613 19.6075 25.3956 19.759 24.7865 19.939C24.3215 20.0726 23.7218 20.1616 22.9537 20.1834L22.943 20.1837L22.9323 20.1842C22.2337 20.211 21.4072 20.1489 20.4368 19.9724C19.5707 19.8148 18.5872 19.4813 17.4874 18.9258L16.8302 18.5938L16.2999 18.2406C14.8992 17.3076 14.2755 16.4217 14.2518 15.5732C14.2334 14.9129 14.6125 14.2028 15.501 13.4362Z" fill="url(#paint4_linear_85_4163)" stroke="url(#paint5_linear_85_4163)" stroke-width="2"/>
<mask id="mask0_85_4163" style="mask-type:alpha" maskUnits="userSpaceOnUse" x="13" y="7" width="23" height="14">
<path d="M15.501 13.4362L16.8294 14.2031C16.2918 14.6451 15.9731 15.1375 15.9438 15.6775C15.906 16.3765 16.2427 17.0285 16.9268 17.6155L17.7571 18.3281L17.8887 18.2521L18.4844 18.5272C18.8477 18.695 19.248 18.8431 19.6809 18.9731L19.6976 18.9781L19.7146 18.9828C20.2191 19.1231 20.7446 19.2156 21.2874 19.2518C21.8525 19.297 22.4154 19.2789 22.9669 19.1964L22.9815 19.1942L22.996 19.1918C23.6404 19.0855 24.2001 18.8782 24.677 18.6029C25.4444 18.1598 25.9005 17.6023 25.7589 16.9623C25.6685 16.4328 25.2115 15.8214 24.5635 15.169L23.7719 14.3719L23.6967 14.2706C23.6247 14.1736 23.5284 14.0744 23.4266 13.9796C23.3343 13.8689 23.2257 13.7602 23.1048 13.6538C22.7327 13.2787 22.3877 12.8959 22.0697 12.5054C21.7948 12.1429 21.6166 11.783 21.5291 11.4244C21.476 11.0939 21.5378 10.766 21.7201 10.4353C21.8959 10.1333 22.2639 9.79485 22.9056 9.42444C23.5461 9.05465 24.1925 8.81795 24.8408 8.68762C25.556 8.55562 26.245 8.5138 26.9179 8.55398L26.9292 8.55466L26.9405 8.55521C27.648 8.58983 28.3467 8.70407 29.0426 8.90494L29.0543 8.9083L29.0661 8.91152C29.8042 9.11337 30.4844 9.37124 31.1089 9.68669L31.898 10.0853L32.2655 10.3505C32.7959 10.7332 33.2115 11.1249 33.5198 11.5254L33.5274 11.5353L33.5355 11.545C33.8568 11.9303 34.0344 12.3124 34.0817 12.6948L34.0825 12.7016L34.0836 12.7084C34.1408 13.0717 34.0632 13.4511 33.8314 13.8526C33.7224 14.0413 33.5665 14.2349 33.3579 14.4331L31.9535 13.6223C32.2723 13.2984 32.4653 12.9424 32.5166 12.558C32.6004 11.9288 32.2751 11.3536 31.4971 10.9045L31.0567 10.6502L30.6311 10.4045L30.1907 10.1503C29.8534 9.95553 29.4728 9.79335 29.0515 9.66595C28.6025 9.53017 28.1208 9.4492 27.6163 9.42288C27.0869 9.38568 26.5633 9.42215 26.0587 9.51924L26.043 9.52227L26.0275 9.52553C25.4957 9.63717 25.0315 9.82774 24.6278 10.0608C23.9415 10.457 23.5314 10.9572 23.6084 11.5354C23.6755 12.0393 24.0964 12.5745 24.6777 13.1096L25.2857 13.6693L25.6615 14.0309L26.0601 14.4144L26.0658 14.4199L26.0717 14.4253C26.2072 14.5505 26.3442 14.6849 26.4825 14.8286L26.4868 14.833L26.4912 14.8374C27.2479 15.5979 27.6407 16.2083 27.7579 16.6817L27.7593 16.6873L27.7609 16.693C27.9051 17.2154 27.8788 17.625 27.7392 17.941C27.5851 18.2902 27.3484 18.558 27.0529 18.7639L27.0409 18.7723L27.0293 18.7809C26.6387 19.0708 26.281 19.3075 25.9564 19.4948C25.7613 19.6075 25.3956 19.759 24.7865 19.939C24.3215 20.0726 23.7218 20.1616 22.9537 20.1834L22.943 20.1837L22.9323 20.1842C22.2337 20.211 21.4072 20.1489 20.4368 19.9724C19.5707 19.8148 18.5872 19.4813 17.4874 18.9258L16.8302 18.5938L16.2999 18.2406C14.8992 17.3076 14.2755 16.4217 14.2518 15.5732C14.2334 14.9129 14.6125 14.2028 15.501 13.4362Z" fill="url(#paint6_linear_85_4163)" stroke="url(#paint7_linear_85_4163)" stroke-width="2"/>
</mask>
<g mask="url(#mask0_85_4163)">
<path d="M15.501 14.4362L16.8294 15.2031C16.2918 15.6451 15.9731 16.1375 15.9438 16.6775C15.906 17.3765 16.2427 18.0285 16.9268 18.6155L17.7571 19.3281L17.8887 19.2521L18.4844 19.5272C18.8477 19.695 19.248 19.8431 19.6809 19.9731L19.6976 19.9781L19.7146 19.9828C20.2191 20.1231 20.7446 20.2156 21.2874 20.2518C21.8525 20.297 22.4154 20.2789 22.9669 20.1964L22.9815 20.1942L22.996 20.1918C23.6404 20.0855 24.2001 19.8782 24.677 19.6029C25.4444 19.1598 25.9005 18.6023 25.7589 17.9623C25.6685 17.4328 25.2115 16.8214 24.5635 16.169L23.7719 15.3719L23.6967 15.2706C23.6247 15.1736 23.5284 15.0744 23.4266 14.9796C23.3343 14.8689 23.2257 14.7602 23.1048 14.6538C22.7327 14.2787 22.3877 13.8959 22.0697 13.5054C21.7948 13.1429 21.6166 12.783 21.5291 12.4244C21.476 12.0939 21.5378 11.766 21.7201 11.4353C21.8959 11.1333 22.2639 10.7948 22.9056 10.4244C23.5461 10.0547 24.1925 9.81795 24.8408 9.68762C25.556 9.55562 26.245 9.5138 26.9179 9.55398L26.9292 9.55466L26.9405 9.55521C27.648 9.58983 28.3467 9.70407 29.0426 9.90494L29.0543 9.9083L29.0661 9.91152C29.8042 10.1134 30.4844 10.3712 31.1089 10.6867L31.898 11.0853L32.2655 11.3505C32.7959 11.7332 33.2115 12.1249 33.5198 12.5254L33.5274 12.5353L33.5355 12.545C33.8568 12.9303 34.0344 13.3124 34.0817 13.6948L34.0825 13.7016L34.0836 13.7084C34.1408 14.0717 34.0632 14.4511 33.8314 14.8526C33.7224 15.0413 33.5665 15.2349 33.3579 15.4331L31.9535 14.6223C32.2723 14.2984 32.4653 13.9424 32.5166 13.558C32.6004 12.9288 32.2751 12.3536 31.4971 11.9045L31.0567 11.6502L30.6311 11.4045L30.1907 11.1503C29.8534 10.9555 29.4728 10.7934 29.0515 10.666C28.6025 10.5302 28.1208 10.4492 27.6163 10.4229C27.0869 10.3857 26.5633 10.4222 26.0587 10.5192L26.043 10.5223L26.0275 10.5255C25.4957 10.6372 25.0315 10.8277 24.6278 11.0608C23.9415 11.457 23.5314 11.9572 23.6084 12.5354C23.6755 13.0393 24.0964 13.5745 24.6777 14.1096L25.2857 14.6693L25.6615 15.0309L26.0601 15.4144L26.0658 15.4199L26.0717 15.4253C26.2072 15.5505 26.3442 15.6849 26.4825 15.8286L26.4868 15.833L26.4912 15.8374C27.2479 16.5979 27.6407 17.2083 27.7579 17.6817L27.7593 17.6873L27.7609 17.693C27.9051 18.2154 27.8788 18.625 27.7392 18.941C27.5851 19.2902 27.3484 19.558 27.0529 19.7639L27.0409 19.7723L27.0293 19.7809C26.6387 20.0708 26.281 20.3075 25.9564 20.4948C25.7613 20.6075 25.3956 20.759 24.7865 20.939C24.3215 21.0726 23.7218 21.1616 22.9537 21.1834L22.943 21.1837L22.9323 21.1842C22.2337 21.211 21.4072 21.1489 20.4368 20.9724C19.5707 20.8148 18.5872 20.4813 17.4874 19.9258L16.8302 19.5938L16.2999 19.2406C14.8992 18.3076 14.2755 17.4217 14.2518 16.5732C14.2334 15.9129 14.6125 15.2028 15.501 14.4362Z" fill="url(#paint8_linear_85_4163)" stroke="url(#paint9_linear_85_4163)" stroke-width="2"/>
</g>
<defs>
<linearGradient id="paint0_linear_85_4163" x1="4.10179e-07" y1="23" x2="36" y2="20" gradientUnits="userSpaceOnUse">
<stop stop-color="#314F43"/>
<stop offset="1" stop-color="#162821"/>
</linearGradient>
<linearGradient id="paint1_linear_85_4163" x1="-21.5" y1="28" x2="41" y2="22.5" gradientUnits="userSpaceOnUse">
<stop stop-color="#B0F3D3" stop-opacity="0.5"/>
<stop offset="1" stop-color="#071D0D"/>
</linearGradient>
<linearGradient id="paint2_linear_85_4163" x1="4.59899e-07" y1="19" x2="47" y2="14.5" gradientUnits="userSpaceOnUse">
<stop stop-color="#2D4D40"/>
<stop offset="1" stop-color="#183227"/>
</linearGradient>
<linearGradient id="paint3_linear_85_4163" x1="-21.5" y1="24" x2="48.5" y2="15" gradientUnits="userSpaceOnUse">
<stop stop-color="#B0F3D3" stop-opacity="0.5"/>
<stop offset="1" stop-color="#071D0D"/>
</linearGradient>
<linearGradient id="paint4_linear_85_4163" x1="34.2958" y1="8.56015" x2="24.369" y2="25.7554" gradientUnits="userSpaceOnUse">
<stop stop-color="#B3E2BA" stop-opacity="0.32"/>
<stop offset="1" stop-color="#A9DEB0" stop-opacity="0"/>
</linearGradient>
<linearGradient id="paint5_linear_85_4163" x1="34.2958" y1="8.56015" x2="24.233" y2="25.9909" gradientUnits="userSpaceOnUse">
<stop stop-color="#B0F3D3" stop-opacity="0.5"/>
<stop offset="1" stop-color="#5DC693" stop-opacity="0"/>
</linearGradient>
<linearGradient id="paint6_linear_85_4163" x1="34.2958" y1="8.56015" x2="24.369" y2="25.7554" gradientUnits="userSpaceOnUse">
<stop stop-color="#B3E2BA" stop-opacity="0.32"/>
<stop offset="1" stop-color="#A9DEB0" stop-opacity="0"/>
</linearGradient>
<linearGradient id="paint7_linear_85_4163" x1="34.2958" y1="8.56015" x2="24.233" y2="25.9909" gradientUnits="userSpaceOnUse">
<stop stop-color="#B0F3D3" stop-opacity="0.5"/>
<stop offset="1" stop-color="#5DC693" stop-opacity="0"/>
</linearGradient>
<linearGradient id="paint8_linear_85_4163" x1="34.2958" y1="9.56015" x2="24.369" y2="26.7554" gradientUnits="userSpaceOnUse">
<stop stop-color="#B3E2BA" stop-opacity="0.32"/>
<stop offset="1" stop-color="#A9DEB0" stop-opacity="0"/>
</linearGradient>
<linearGradient id="paint9_linear_85_4163" x1="34.2958" y1="9.56015" x2="24.233" y2="26.9909" gradientUnits="userSpaceOnUse">
<stop stop-color="#B0F3D3" stop-opacity="0.5"/>
<stop offset="1" stop-color="#5DC693" stop-opacity="0"/>
</linearGradient>
</defs>
</svg>
