<svg width="100" height="100" viewBox="0 0 100 100" fill="none" xmlns="http://www.w3.org/2000/svg">
<path d="M24.9948 75.0007H74.9948V25.0007H24.9948V75.0007ZM58.3281 83.334H41.6615V91.6673H33.3281V83.334H20.8281C18.527 83.334 16.6615 81.4686 16.6615 79.1673V66.6673H8.32812V58.334H16.6615V41.6673H8.32812V33.334H16.6615V20.834C16.6615 18.5328 18.527 16.6673 20.8281 16.6673H33.3281V8.33398H41.6615V16.6673H58.3281V8.33398H66.6615V16.6673H79.1615C81.4627 16.6673 83.3281 18.5328 83.3281 20.834V33.334H91.6615V41.6673H83.3281V58.334H91.6615V66.6673H83.3281V79.1673C83.3281 81.4686 81.4627 83.334 79.1615 83.334H66.6615V91.6673H58.3281V83.334ZM33.3281 33.334H66.6615V66.6673H33.3281V33.334Z" fill="white"/>
</svg>
