<svg width="100" height="100" viewBox="0 0 100 100" fill="none" xmlns="http://www.w3.org/2000/svg">
<path d="M87.4961 39.5833V52.0833C87.4961 62.4387 70.7069 70.8333 49.9961 70.8333C29.2854 70.8333 12.4961 62.4387 12.4961 52.0833V39.5833C12.4961 49.9387 29.2854 58.3333 49.9961 58.3333C70.7069 58.3333 87.4961 49.9387 87.4961 39.5833ZM12.4961 60.4167C12.4961 70.7721 29.2854 79.1667 49.9961 79.1667C70.7069 79.1667 87.4961 70.7721 87.4961 60.4167V72.9167C87.4961 83.2721 70.7069 91.6667 49.9961 91.6667C29.2854 91.6667 12.4961 83.2721 12.4961 72.9167V60.4167ZM49.9961 50C29.2854 50 12.4961 41.6053 12.4961 31.25C12.4961 20.8947 29.2854 12.5 49.9961 12.5C70.7069 12.5 87.4961 20.8947 87.4961 31.25C87.4961 41.6053 70.7069 50 49.9961 50Z" fill="white"/>
</svg>
