<svg width="380" height="141" viewBox="0 0 380 141" fill="none" xmlns="http://www.w3.org/2000/svg">
<mask id="path-1-inside-1_1259_147857" fill="white">
<path d="M0 10.951C0 4.90295 4.90295 0 10.951 0H369.049C375.097 0 380 4.90295 380 10.951V129.755C380 135.803 375.097 140.706 369.049 140.706H10.951C4.90295 140.706 0 135.803 0 129.755V10.951Z"/>
</mask>
<path d="M0 10.951C0 4.90295 4.90295 0 10.951 0H369.049C375.097 0 380 4.90295 380 10.951V129.755C380 135.803 375.097 140.706 369.049 140.706H10.951C4.90295 140.706 0 135.803 0 129.755V10.951Z" fill="#1D1D2B"/>
<path d="M0 0H380H0ZM380 140.706H0H380ZM10.951 140.706C-1.14515 140.706 -10.951 130.9 -10.951 118.804V21.9021C-10.951 9.8059 -1.14515 0 10.951 0C10.951 0 10.951 4.90295 10.951 10.951V129.755C10.951 135.803 10.951 140.706 10.951 140.706ZM380 0V140.706V0Z" fill="#EF570D" mask="url(#path-1-inside-1_1259_147857)"/>
<path d="M36.5427 29.9512H34.4401V17.9433H36.5427V22.9042H41.8649V17.9433H43.9675V29.9512H41.8649V24.8589H36.5427V29.9512ZM54.2536 29.9512H46.7959V17.9433H54.2536V19.8817H48.8985V22.9699H53.6951V24.8261H48.8985V28.0128H54.2536V29.9512ZM58.8 17.9433V28.0128H63.8266V29.9512H56.6974V17.9433H58.8ZM67.8032 17.9433V28.0128H72.8298V29.9512H65.7006V17.9433H67.8032ZM85.0828 23.939C85.0828 27.5857 82.6845 30.1483 79.235 30.1483C75.8018 30.1483 73.4364 27.6022 73.4364 23.939C73.4364 20.2923 75.8182 17.7298 79.2514 17.7298C82.6845 17.7298 85.0828 20.2759 85.0828 23.939ZM82.8652 23.939C82.8652 21.3765 81.4525 19.7503 79.2514 19.7503C77.0502 19.7503 75.6375 21.3765 75.6375 23.939C75.6375 26.5016 77.0502 28.1278 79.2514 28.1278C81.4525 28.1278 82.8652 26.4687 82.8652 23.939ZM94.2926 29.9512L90.7116 17.9433H92.8964L94.8018 24.284C94.9825 24.9411 95.1632 25.6146 95.3439 26.6659C95.541 25.5981 95.7217 24.9739 95.9353 24.284L97.8243 17.9433H100.14L101.997 24.284C102.194 24.9575 102.374 25.6474 102.572 26.6659C102.802 25.5489 102.966 24.9082 103.147 24.3004L105.085 17.9433H107.22L103.574 29.9512H101.537L98.9742 21.2122L96.3624 29.9512H94.2926ZM119.471 23.939C119.471 27.5857 117.073 30.1483 113.624 30.1483C110.19 30.1483 107.825 27.6022 107.825 23.939C107.825 20.2923 110.207 17.7298 113.64 17.7298C117.073 17.7298 119.471 20.2759 119.471 23.939ZM117.254 23.939C117.254 21.3765 115.841 19.7503 113.64 19.7503C111.439 19.7503 110.026 21.3765 110.026 23.939C110.026 26.5016 111.439 28.1278 113.64 28.1278C115.841 28.1278 117.254 26.4687 117.254 23.939ZM123.695 17.9433V28.0128H128.722V29.9512H121.593V17.9433H123.695ZM132.698 29.9512H130.596V17.9433H135.179C137.906 17.9433 139.499 19.3232 139.499 21.6886C139.499 23.2984 138.743 24.4483 137.331 25.0232L139.614 29.9512H137.314L135.277 25.4667H132.698V29.9512ZM132.698 19.816V23.6105H135.179C136.509 23.6105 137.298 22.9042 137.298 21.6886C137.298 20.4895 136.509 19.816 135.179 19.816H132.698ZM146.085 29.9512H141.765V17.9433H145.97C149.518 17.9433 151.966 20.3909 151.966 23.9719C151.966 27.5036 149.567 29.9512 146.085 29.9512ZM145.773 19.8817H143.867V28.0128H145.888C148.286 28.0128 149.748 26.4687 149.748 23.9719C149.748 21.4258 148.253 19.8817 145.773 19.8817Z" fill="#8195F6"/>
<path d="M168.521 21.9024L164.004 17.3853L165.294 16.0947L171.102 21.9024L165.294 27.71L164.004 26.4194L168.521 21.9024Z" fill="white"/>
<path d="M185.843 17.9433V29.9512H183.741V17.9433H185.843ZM190.739 29.9512H188.669V17.9433H190.756L196.39 26.4523V17.9433H198.46V29.9512H196.39L190.739 21.4422V29.9512ZM200.464 21.2944C200.464 19.1918 202.205 17.7298 204.735 17.7298C207.166 17.7298 208.71 19.0768 208.776 21.2451H206.673C206.624 20.2102 205.884 19.6024 204.702 19.6024C203.404 19.6024 202.566 20.2266 202.566 21.2287C202.566 22.0828 203.026 22.5592 204.028 22.7892L205.917 23.1999C207.971 23.6434 208.973 24.6947 208.973 26.4852C208.973 28.7192 207.231 30.1647 204.587 30.1647C202.024 30.1647 200.349 28.8013 200.299 26.6494H202.402C202.418 27.6679 203.24 28.2757 204.587 28.2757C205.983 28.2757 206.87 27.6679 206.87 26.6659C206.87 25.861 206.459 25.3846 205.474 25.171L203.568 24.7439C201.531 24.3004 200.464 23.1341 200.464 21.2944ZM209.827 19.8817V17.9433H218.961V19.8817H215.445V29.9512H213.343V19.8817H209.827ZM219.201 26.4523V24.6782H224.49V26.4523H219.201ZM226.368 23.9719C226.368 20.2431 228.372 17.7134 231.444 17.7134C234.515 17.7134 236.536 20.2431 236.536 23.9719C236.536 27.6843 234.63 30.1647 231.444 30.1647C228.257 30.1647 226.368 27.6843 226.368 23.9719ZM228.438 23.9719C228.438 26.748 229.555 28.3085 231.444 28.3085C233.349 28.3085 234.466 26.748 234.466 23.9719C234.466 21.1301 233.349 19.5696 231.444 19.5696C229.555 19.5696 228.438 21.1301 228.438 23.9719ZM238.114 23.9719C238.114 20.2431 240.118 17.7134 243.19 17.7134C246.262 17.7134 248.282 20.2431 248.282 23.9719C248.282 27.6843 246.377 30.1647 243.19 30.1647C240.003 30.1647 238.114 27.6843 238.114 23.9719ZM240.184 23.9719C240.184 26.748 241.301 28.3085 243.19 28.3085C245.095 28.3085 246.212 26.748 246.212 23.9719C246.212 21.1301 245.095 19.5696 243.19 19.5696C241.301 19.5696 240.184 21.1301 240.184 23.9719ZM252.341 19.8324H249.713V17.9433H254.361V29.9512H252.341V19.8324Z" fill="#8195F6"/>
<path d="M317.596 27.9512H310.704V27.1189L314.048 24.1986C315.975 22.5195 316.471 21.7894 316.471 20.5483C316.471 19.1319 315.625 18.2704 314.237 18.2704C312.792 18.2704 311.843 19.3217 311.799 20.9425H310.748C310.806 18.7523 312.193 17.3068 314.252 17.3068C316.223 17.3068 317.537 18.5771 317.537 20.4899C317.537 22.0084 316.851 23.0159 314.763 24.8411L312.325 26.9729H317.596V27.9512ZM322.115 22.3442H321.282V21.6142L324.509 18.4311H319.501V17.4966H325.838V18.3435L322.713 21.4535C324.67 21.5558 326.072 22.7969 326.072 24.6951C326.072 26.7685 324.553 28.1264 322.436 28.1264C320.377 28.1264 318.99 26.8561 318.99 24.7681H320.027C320.027 26.272 320.961 27.1773 322.436 27.1773C323.998 27.1773 325.006 26.1844 325.006 24.6659C325.006 23.2349 323.984 22.3442 322.115 22.3442ZM328.924 27.9512H327.917V20.8841H328.793L328.909 21.8916C329.26 21.1469 330.048 20.6943 331.041 20.6943C332.151 20.6943 332.983 21.2783 333.319 22.1982C333.64 21.2783 334.502 20.6943 335.641 20.6943C337.174 20.6943 338.181 21.6872 338.181 23.3225V27.9512H337.203V23.5269C337.203 22.315 336.531 21.5996 335.451 21.5996C334.268 21.5996 333.567 22.4902 333.567 23.5854V27.9512H332.574V23.5123C332.574 22.315 331.888 21.6142 330.822 21.6142C329.64 21.6142 328.924 22.4902 328.924 23.5708V27.9512ZM346.579 28.1264C345.075 28.1264 344.185 27.2795 344.185 26.0384C344.185 24.7389 345.177 23.9212 346.827 23.7898L349.164 23.6V23.3663C349.164 21.9792 348.331 21.5412 347.295 21.5412C346.068 21.5412 345.338 22.096 345.338 23.0451H344.418C344.418 21.6142 345.586 20.6943 347.324 20.6943C348.959 20.6943 350.157 21.512 350.157 23.3809V27.9512H349.31L349.178 26.7101C348.74 27.6007 347.777 28.1264 346.579 28.1264ZM346.813 27.3087C348.302 27.3087 349.164 26.272 349.164 24.7389V24.3592L347.076 24.5198C345.747 24.6367 345.207 25.2207 345.207 26.0092C345.207 26.8707 345.849 27.3087 346.813 27.3087ZM351.842 24.2132C351.842 22.2858 353.084 20.6943 355.157 20.6943C356.384 20.6943 357.318 21.2637 357.771 22.3004L357.873 20.8841H358.749V27.7322C358.749 29.8348 357.406 31.2073 355.332 31.2073C353.522 31.2073 352.251 30.1852 351.974 28.4768H352.981C353.2 29.6157 354.076 30.2874 355.347 30.2874C356.792 30.2874 357.756 29.3091 357.756 27.8344V26.1552C357.274 27.1481 356.296 27.7322 355.084 27.7322C353.069 27.7322 351.842 26.1406 351.842 24.2132ZM352.85 24.1986C352.85 25.6442 353.741 26.8269 355.23 26.8269C356.763 26.8269 357.668 25.7172 357.668 24.1986C357.668 22.6947 356.792 21.585 355.245 21.585C353.726 21.585 352.85 22.7677 352.85 24.1986ZM360.501 24.4176C360.501 22.2566 362.019 20.6943 364.093 20.6943C366.166 20.6943 367.685 22.2566 367.685 24.4176C367.685 26.564 366.166 28.1264 364.093 28.1264C362.019 28.1264 360.501 26.564 360.501 24.4176ZM361.523 24.403C361.523 26.0676 362.574 27.2211 364.093 27.2211C365.597 27.2211 366.663 26.0676 366.663 24.403C366.663 22.7677 365.597 21.5996 364.093 21.5996C362.574 21.5996 361.523 22.7677 361.523 24.403Z" fill="white"/>
<rect x="32.8516" y="57.8535" width="80.8042" height="24.3007" rx="12.1503" fill="#422417"/>
<path d="M51.0995 76.0878C47.7395 76.0878 45.0156 73.3639 45.0156 70.0038C45.0156 66.6438 47.7395 63.9199 51.0995 63.9199C54.4596 63.9199 57.1835 66.6438 57.1835 70.0038C57.1835 73.3639 54.4596 76.0878 51.0995 76.0878ZM51.0995 74.871C53.7876 74.871 55.9667 72.6919 55.9667 70.0038C55.9667 67.3158 53.7876 65.1367 51.0995 65.1367C48.4115 65.1367 46.2324 67.3158 46.2324 70.0038C46.2324 72.6919 48.4115 74.871 51.0995 74.871ZM51.0995 69.1435L52.8203 67.4227L53.6807 68.283L51.9599 70.0038L53.6807 71.7246L52.8203 72.585L51.0995 70.8642L49.3787 72.585L48.5184 71.7246L50.2392 70.0038L48.5184 68.283L49.3787 67.4227L51.0995 69.1435Z" fill="#FC6015"/>
<path d="M71.0495 70.2295H68.0708V73.5039H66.6691V65.4987H71.619V66.7909H68.0708V68.9702H71.0495V70.2295ZM73.0805 73.5039H71.624L74.5151 65.4987H75.9497L78.8407 73.5039H77.3624L76.7162 71.6532H73.7266L73.0805 73.5039ZM75.0517 67.886L74.1427 70.4705H76.3111L75.3912 67.886C75.3255 67.6779 75.2488 67.437 75.2269 67.2728C75.194 67.4261 75.1283 67.667 75.0517 67.886ZM81.2463 65.4987V73.5039H79.8446V65.4987H81.2463ZM84.4225 65.4987V72.2117H87.7736V73.5039H83.0208V65.4987H84.4225ZM93.8852 73.5039H88.9134V65.4987H93.8852V66.7909H90.3151V68.8497H93.5128V70.0872H90.3151V72.2117H93.8852V73.5039ZM98.285 73.5039H95.4049V65.4987H98.2084C100.574 65.4987 102.205 67.1304 102.205 69.5177C102.205 71.8722 100.607 73.5039 98.285 73.5039ZM98.0769 66.7909H96.8066V72.2117H98.1536C99.7525 72.2117 100.727 71.1823 100.727 69.5177C100.727 67.8203 99.7306 66.7909 98.0769 66.7909Z" fill="#FC6015"/>
<path d="M143.771 60.3145V62.1396H149.246V60.3145H151.072V62.1396H154.722C155.226 62.1396 155.635 62.5482 155.635 63.0522V77.6536C155.635 78.1576 155.226 78.5662 154.722 78.5662H138.295C137.791 78.5662 137.383 78.1576 137.383 77.6536V63.0522C137.383 62.5482 137.791 62.1396 138.295 62.1396H141.946V60.3145H143.771ZM153.809 69.4403H139.208V76.741H153.809V69.4403ZM141.946 63.9648H139.208V67.6152H153.809V63.9648H151.072V65.79H149.246V63.9648H143.771V65.79H141.946V63.9648Z" fill="white"/>
<path d="M168.073 76.8535H166.956V69.8558H165.363V68.9031H166.956V66.3898H168.073V68.9031H169.667V69.8558H168.073V76.8535ZM171.865 66.7183C171.406 66.7183 171.028 66.3405 171.028 65.8806C171.028 65.4206 171.406 65.0264 171.865 65.0264C172.325 65.0264 172.72 65.4206 172.72 65.8806C172.72 66.3405 172.325 66.7183 171.865 66.7183ZM171.307 76.8535V68.9031H172.44V76.8535H171.307ZM176.102 76.8535H174.968V68.9031H175.954L176.085 70.0365C176.48 69.1987 177.367 68.6895 178.484 68.6895C179.732 68.6895 180.668 69.3466 181.046 70.3814C181.407 69.3466 182.377 68.6895 183.658 68.6895C185.383 68.6895 186.516 69.8065 186.516 71.6463V76.8535H185.416V71.8763C185.416 70.5129 184.66 69.708 183.444 69.708C182.114 69.708 181.325 70.71 181.325 71.942V76.8535H180.208V71.8598C180.208 70.5129 179.436 69.7244 178.237 69.7244C176.907 69.7244 176.102 70.71 176.102 71.9255V76.8535ZM192.295 77.0506C189.962 77.0506 188.402 75.3751 188.402 72.8783C188.402 70.3979 189.946 68.6895 192.213 68.6895C194.365 68.6895 195.827 70.2172 195.827 72.4676V73.0261H189.502C189.585 74.9645 190.603 76.0815 192.311 76.0815C193.609 76.0815 194.447 75.523 194.743 74.4717H195.827C195.4 76.1472 194.168 77.0506 192.295 77.0506ZM192.213 69.6587C190.718 69.6587 189.732 70.6443 189.535 72.2048H194.693C194.693 70.6771 193.708 69.6587 192.213 69.6587Z" fill="white"/>
<path d="M229.615 60.3145L238.284 65.3337V75.3721L229.615 80.3914L220.945 75.3721V65.3337L229.615 60.3145ZM223.677 65.8609L230.528 69.8267V77.754L236.459 74.3198V66.386L229.615 62.4234L223.677 65.8609ZM222.77 67.4448V74.3198L228.702 77.7541V70.879L222.77 67.4448Z" fill="white"/>
<path d="M250.232 76.8535H249.246V64.8785H250.38V70.4472C250.938 69.2809 252.022 68.6895 253.369 68.6895C255.686 68.6895 257.033 70.4964 257.033 72.8947C257.033 75.2766 255.653 77.0506 253.337 77.0506C252.006 77.0506 250.905 76.4593 250.347 75.2273L250.232 76.8535ZM250.396 72.8619C250.396 74.7016 251.415 76.0158 253.156 76.0158C254.881 76.0158 255.883 74.7016 255.883 72.8619C255.883 71.0385 254.881 69.708 253.156 69.708C251.415 69.708 250.396 71.0385 250.396 72.8619ZM260.186 76.8535H259.053V64.8785H260.186V76.8535ZM262.203 72.8783C262.203 70.4472 263.911 68.6895 266.243 68.6895C268.576 68.6895 270.284 70.4472 270.284 72.8783C270.284 75.293 268.576 77.0506 266.243 77.0506C263.911 77.0506 262.203 75.293 262.203 72.8783ZM263.352 72.8619C263.352 74.7345 264.535 76.0322 266.243 76.0322C267.935 76.0322 269.135 74.7345 269.135 72.8619C269.135 71.0221 267.935 69.708 266.243 69.708C264.535 69.708 263.352 71.0221 263.352 72.8619ZM271.703 72.8947C271.703 70.3979 273.231 68.6895 275.547 68.6895C277.387 68.6895 278.734 69.7572 279.046 71.3999H277.912C277.617 70.2993 276.664 69.6915 275.563 69.6915C273.953 69.6915 272.82 70.9235 272.82 72.8783C272.82 74.7673 273.871 76.0322 275.481 76.0322C276.664 76.0322 277.617 75.3751 277.929 74.3567H279.079C278.701 75.9829 277.288 77.0506 275.481 77.0506C273.231 77.0506 271.703 75.3916 271.703 72.8947ZM282.143 76.8535H281.009V64.8785H282.143V73.0097L286.085 68.9031H287.514L284.459 72.0734L287.531 76.8535H286.216L283.687 72.8783L282.143 74.4717V76.8535ZM293.572 72.3198H295.28L295.822 69.6258H293.818L294.015 68.5581H296.019L296.709 65.0921H297.826L297.153 68.5581H300.027L300.717 65.0921H301.851L301.161 68.5581H302.902L302.688 69.6258H300.964L300.422 72.3198H302.245L302.048 73.3875H300.224L299.534 76.8535H298.401L299.091 73.3875H296.2L295.526 76.8535H294.393L295.083 73.3875H293.358L293.572 72.3198ZM296.413 72.3198H299.288L299.83 69.6258H296.939L296.413 72.3198Z" fill="white"/>
<path d="M38.7972 123.755H34.477V111.747H38.6822C42.2304 111.747 44.6779 114.195 44.6779 117.776C44.6779 121.307 42.2797 123.755 38.7972 123.755ZM38.4851 113.685H36.5796V121.817H38.6001C40.9984 121.817 42.4603 120.272 42.4603 117.776C42.4603 115.229 40.9655 113.685 38.4851 113.685ZM50.1354 123.968C47.7207 123.968 46.0288 122.211 46.0288 119.698C46.0288 117.151 47.6878 115.394 50.0697 115.394C52.5008 115.394 54.0449 117.02 54.0449 119.55V120.157L47.9342 120.174C48.0821 121.603 48.8377 122.326 50.1683 122.326C51.2688 122.326 51.9916 121.899 52.2216 121.127H54.0778C53.7328 122.901 52.2544 123.968 50.1354 123.968ZM50.0861 117.036C48.9034 117.036 48.1806 117.677 47.9835 118.893H52.0573C52.0573 117.776 51.2853 117.036 50.0861 117.036ZM55.8131 127.517V115.64H57.6693L57.8007 116.872C58.2935 115.936 59.3612 115.394 60.5932 115.394C62.8765 115.394 64.3878 117.053 64.3878 119.599C64.3878 122.129 63.0079 123.968 60.5932 123.968C59.3777 123.968 58.3264 123.492 57.8171 122.671V127.517H55.8131ZM57.8336 119.698C57.8336 121.159 58.737 122.162 60.1169 122.162C61.5295 122.162 62.3673 121.143 62.3673 119.698C62.3673 118.252 61.5295 117.217 60.1169 117.217C58.737 117.217 57.8336 118.236 57.8336 119.698ZM68.1682 123.755H66.1806V111.534H68.1682V123.755ZM69.9583 119.681C69.9583 117.151 71.7817 115.41 74.2949 115.41C76.8082 115.41 78.6315 117.151 78.6315 119.681C78.6315 122.211 76.8082 123.952 74.2949 123.952C71.7817 123.952 69.9583 122.211 69.9583 119.681ZM71.9623 119.681C71.9623 121.159 72.9151 122.162 74.2949 122.162C75.6748 122.162 76.6275 121.159 76.6275 119.681C76.6275 118.203 75.6748 117.201 74.2949 117.201C72.9151 117.201 71.9623 118.203 71.9623 119.681ZM79.3732 127.517V125.841H80.5723C81.3608 125.841 81.8536 125.66 82.1985 124.708L82.4285 124.1L79.1596 115.64H81.2786L83.3648 121.554L85.566 115.64H87.6357L83.6605 125.562C83.0527 127.073 82.1985 127.697 80.868 127.697C80.3095 127.697 79.8167 127.632 79.3732 127.517ZM92.1996 123.968C89.7849 123.968 88.093 122.211 88.093 119.698C88.093 117.151 89.7521 115.394 92.1339 115.394C94.5651 115.394 96.1091 117.02 96.1091 119.55V120.157L89.9985 120.174C90.1463 121.603 90.9019 122.326 92.2325 122.326C93.3331 122.326 94.0558 121.899 94.2858 121.127H96.142C95.797 122.901 94.3187 123.968 92.1996 123.968ZM92.1503 117.036C90.9676 117.036 90.2449 117.677 90.0477 118.893H94.1215C94.1215 117.776 93.3495 117.036 92.1503 117.036ZM102.97 115.607V117.464H102.23C100.785 117.464 99.8814 118.236 99.8814 119.813V123.755H97.8773V115.657H99.7664L99.8814 116.839C100.226 116.034 100.998 115.492 102.083 115.492C102.362 115.492 102.641 115.525 102.97 115.607ZM106.002 117.973C105.279 117.973 104.671 117.381 104.671 116.675C104.671 115.952 105.279 115.361 106.002 115.361C106.724 115.361 107.332 115.952 107.332 116.675C107.332 117.381 106.724 117.973 106.002 117.973ZM106.002 123.952C105.279 123.952 104.671 123.361 104.671 122.654C104.671 121.932 105.279 121.34 106.002 121.34C106.724 121.34 107.332 121.932 107.332 122.654C107.332 123.361 106.724 123.952 106.002 123.952Z" fill="white"/>
<path d="M113.546 117.874C113.546 114.227 115.337 111.763 118.261 111.763C121.168 111.763 122.959 114.227 122.959 117.874C122.959 121.537 121.201 123.968 118.261 123.968C115.304 123.968 113.546 121.537 113.546 117.874ZM114.712 117.874C114.712 120.93 116.01 122.901 118.261 122.901C120.511 122.901 121.809 120.93 121.809 117.874C121.809 114.802 120.511 112.848 118.261 112.848C116.01 112.848 114.712 114.802 114.712 117.874ZM125.515 123.755H124.184L127.026 119.78L124.201 115.804H125.531L127.782 118.991L130.016 115.804H131.33L128.504 119.796L131.313 123.755H129.966L127.732 120.568L125.515 123.755ZM134.633 113.061H132.235V111.993H135.766V123.755H134.633V113.061ZM145.803 123.755H138.049V122.819L141.811 119.533C143.979 117.644 144.538 116.823 144.538 115.427C144.538 113.833 143.585 112.864 142.025 112.864C140.398 112.864 139.331 114.047 139.281 115.87H138.099C138.164 113.406 139.725 111.78 142.041 111.78C144.259 111.78 145.737 113.209 145.737 115.361C145.737 117.069 144.965 118.203 142.616 120.256L139.873 122.654H145.803V123.755ZM150.886 117.447H149.95V116.626L153.58 113.045H147.946V111.993H155.075V112.946L151.56 116.445C153.761 116.56 155.338 117.956 155.338 120.092C155.338 122.424 153.629 123.952 151.248 123.952C148.931 123.952 147.371 122.523 147.371 120.174H148.537C148.537 121.866 149.589 122.884 151.248 122.884C153.005 122.884 154.139 121.767 154.139 120.059C154.139 118.449 152.989 117.447 150.886 117.447ZM157.982 123.936C157.423 123.936 156.947 123.476 156.947 122.934C156.947 122.375 157.423 121.899 157.982 121.899C158.54 121.899 159.017 122.375 159.017 122.934C159.017 123.476 158.54 123.936 157.982 123.936ZM162.445 123.936C161.887 123.936 161.41 123.476 161.41 122.934C161.41 122.375 161.887 121.899 162.445 121.899C163.004 121.899 163.48 122.375 163.48 122.934C163.48 123.476 163.004 123.936 162.445 123.936ZM166.908 123.936C166.35 123.936 165.874 123.476 165.874 122.934C165.874 122.375 166.35 121.899 166.908 121.899C167.467 121.899 167.943 122.375 167.943 122.934C167.943 123.476 167.467 123.936 166.908 123.936ZM172.975 117.447H172.039V116.626L175.669 113.045H170.035V111.993H177.164V112.946L173.648 116.445C175.85 116.56 177.426 117.956 177.426 120.092C177.426 122.424 175.718 123.952 173.336 123.952C171.02 123.952 169.46 122.523 169.46 120.174H170.626C170.626 121.866 171.677 122.884 173.336 122.884C175.094 122.884 176.227 121.767 176.227 120.059C176.227 118.449 175.077 117.447 172.975 117.447ZM186.523 123.755H178.77V122.819L182.532 119.533C184.7 117.644 185.258 116.823 185.258 115.427C185.258 113.833 184.306 112.864 182.745 112.864C181.119 112.864 180.051 114.047 180.002 115.87H178.819C178.885 113.406 180.445 111.78 182.762 111.78C184.979 111.78 186.457 113.209 186.457 115.361C186.457 117.069 185.685 118.203 183.336 120.256L180.593 122.654H186.523V123.755ZM195.943 123.755H188.19V122.819L191.952 119.533C194.12 117.644 194.679 116.823 194.679 115.427C194.679 113.833 193.726 112.864 192.165 112.864C190.539 112.864 189.471 114.047 189.422 115.87H188.239C188.305 113.406 189.866 111.78 192.182 111.78C194.399 111.78 195.878 113.209 195.878 115.361C195.878 117.069 195.106 118.203 192.757 120.256L190.013 122.654H195.943V123.755ZM199.844 113.061H197.446V111.993H200.978V123.755H199.844V113.061Z" fill="white"/>
<path d="M317.526 120.755L314.503 112.75H315.993L317.745 117.36C317.92 117.842 318.073 118.313 318.249 118.959C318.446 118.258 318.61 117.765 318.763 117.36L320.494 112.75H321.95L318.971 120.755H317.526ZM324.35 112.75V120.755H322.949V112.75H324.35ZM331.097 120.755H326.125V112.75H331.097V114.042H327.527V116.101H330.724V117.338H327.527V119.463H331.097V120.755ZM334.281 120.755L331.894 112.75H333.35L334.621 116.977C334.741 117.415 334.861 117.864 334.982 118.565C335.113 117.853 335.234 117.437 335.376 116.977L336.636 112.75H338.18L339.417 116.977C339.548 117.426 339.669 117.886 339.8 118.565C339.954 117.82 340.063 117.393 340.184 116.988L341.476 112.75H342.9L340.468 120.755H339.11L337.402 114.929L335.661 120.755H334.281ZM348.306 112.75V119.463H351.657V120.755H346.904V112.75H348.306ZM359.716 116.747C359.716 119.178 358.117 120.886 355.818 120.886C353.529 120.886 351.952 119.189 351.952 116.747C351.952 114.316 353.54 112.607 355.828 112.607C358.117 112.607 359.716 114.305 359.716 116.747ZM358.238 116.747C358.238 115.038 357.296 113.954 355.828 113.954C354.361 113.954 353.419 115.038 353.419 116.747C353.419 118.455 354.361 119.539 355.828 119.539C357.296 119.539 358.238 118.433 358.238 116.747ZM364.525 113.932C362.937 113.932 362.028 115.082 362.028 116.813C362.028 118.598 363.058 119.572 364.536 119.572C365.927 119.572 366.77 118.806 366.77 117.524V117.491H364.35V116.254H368.073V120.755H366.891L366.803 119.835C366.365 120.448 365.456 120.875 364.372 120.875C362.127 120.875 360.561 119.244 360.561 116.78C360.561 114.349 362.149 112.618 364.558 112.618C366.387 112.618 367.799 113.681 368.029 115.312H366.551C366.299 114.37 365.489 113.932 364.525 113.932Z" fill="#8195F6"/>
</svg>
