<svg width="100" height="100" viewBox="0 0 100 100" fill="none" xmlns="http://www.w3.org/2000/svg">
<path d="M18.8298 24.7256L5.80139 11.6973L11.694 5.80469L94.1899 88.3003L88.2974 94.1932L74.5057 80.4016C67.417 84.8962 59.0103 87.4991 49.9957 87.4991C27.5283 87.4991 8.83676 71.3332 4.91797 49.9991C6.73747 40.0933 11.7416 31.302 18.8298 24.7256ZM61.4849 67.3807L55.3849 61.2807C53.7528 62.0616 51.9253 62.4991 49.9957 62.4991C43.092 62.4991 37.4956 56.9024 37.4956 49.9991C37.4956 48.0691 37.9329 46.2416 38.7138 44.6095L32.6139 38.5098C30.4326 41.8032 29.1622 45.7528 29.1622 49.9991C29.1622 61.5049 38.4896 70.8324 49.9957 70.8324C54.2416 70.8324 58.1911 69.562 61.4849 67.3807ZM33.2214 15.6655C38.4164 13.6215 44.0749 12.4989 49.9957 12.4989C72.4628 12.4989 91.1545 28.6646 95.0732 49.9991C93.7724 57.0807 90.8436 63.5932 86.6895 69.1337L70.607 53.0512C70.7532 52.0549 70.829 51.0357 70.829 49.9991C70.829 38.4929 61.5016 29.1656 49.9957 29.1656C48.9586 29.1656 47.9395 29.2413 46.9432 29.3875L33.2214 15.6655Z" fill="white"/>
</svg>
