<svg width="401" height="256" viewBox="0 0 401 256" fill="none" xmlns="http://www.w3.org/2000/svg">
<path d="M0 12C0 5.37258 5.37258 0 12 0H401V74H12C5.37258 74 0 68.6274 0 62V12Z" fill="#DFDAFC"/>
<path d="M28.68 37.81V45.74C28.68 45.922 28.602 46 28.42 46H26.236C26.054 46 25.976 45.922 25.976 45.74V28.06C25.976 27.878 26.054 27.8 26.236 27.8H28.42C28.602 27.8 28.68 27.878 28.68 28.06V35.21H36.948V28.06C36.948 27.878 37.026 27.8 37.208 27.8H39.392C39.574 27.8 39.652 27.878 39.652 28.06V45.74C39.652 45.922 39.574 46 39.392 46H37.208C37.026 46 36.948 45.922 36.948 45.74V37.81H28.68ZM42.435 39.474C42.435 35.444 45.373 32.688 49.221 32.688C53.069 32.688 56.007 35.444 56.007 39.474C56.007 43.504 53.069 46.26 49.221 46.26C45.373 46.26 42.435 43.504 42.435 39.474ZM45.139 39.474C45.139 42.074 46.829 43.816 49.221 43.816C51.613 43.816 53.303 42.074 53.303 39.474C53.303 36.874 51.613 35.132 49.221 35.132C46.829 35.132 45.139 36.874 45.139 39.474ZM58.7033 45.74V33.208C58.7033 33.026 58.7813 32.948 58.9633 32.948H60.9913C61.1733 32.948 61.2513 33.026 61.2513 33.208V34.274C62.0833 33.26 63.3573 32.688 64.6053 32.688C66.2693 32.688 67.1273 33.208 68.0373 34.43C69.1553 33.312 70.3513 32.688 71.9373 32.688C74.4593 32.688 75.8113 34.144 75.8113 36.952V45.74C75.8113 45.922 75.7333 46 75.5513 46H73.5233C73.3413 46 73.2633 45.922 73.2633 45.74V37.576C73.2633 35.808 72.6393 35.132 71.2613 35.132C69.6233 35.132 68.5313 36.848 68.5313 39.656V45.74C68.5313 45.922 68.4533 46 68.2713 46H66.2433C66.0613 46 65.9833 45.922 65.9833 45.74V37.576C65.9833 35.938 65.2813 35.132 63.8773 35.132C62.3433 35.132 61.2513 36.562 61.2513 39.656V45.74C61.2513 45.922 61.1733 46 60.9913 46H58.9633C58.7813 46 58.7033 45.922 58.7033 45.74ZM85.0435 43.816C86.8115 43.816 87.9295 43.244 88.5795 41.866C88.6835 41.658 88.7615 41.632 88.9435 41.632H91.1535C91.2835 41.632 91.3355 41.684 91.3355 41.814C91.3355 41.892 91.3615 41.892 91.2835 42.074C90.1655 45.012 88.0855 46.26 85.0435 46.26C81.1435 46.26 78.4135 43.4 78.4135 39.474C78.4135 35.548 81.1955 32.688 85.0175 32.688C89.1775 32.688 91.5955 35.808 91.5955 39.552V40.046C91.5955 40.228 91.5175 40.306 91.3355 40.306H81.1175C81.4035 42.49 82.8595 43.816 85.0435 43.816ZM85.0175 35.132C83.4315 35.132 81.7155 35.99 81.2215 37.966H88.8135C88.3715 36.094 86.8895 35.132 85.0175 35.132Z" fill="black"/>
<rect width="401" height="156" transform="translate(0 100)" fill="white"/>
<mask id="path-3-inside-1_299_820" fill="white">
<path d="M0 100H401V180H0V100Z"/>
</mask>
<path d="M0 100H401V180H0V100Z" fill="white"/>
<path d="M32.5645 147.5H45.2485V143.944H37.1005V127.48H32.5645V147.5Z" fill="black"/>
<path d="M53.587 144.728C51.291 144.728 50.003 143.048 50.003 140.248V140.024C50.003 137.224 51.347 135.6 53.587 135.6C55.855 135.6 57.171 137.28 57.171 140.08V140.276C57.171 143.048 55.855 144.728 53.587 144.728ZM53.559 147.808C57.955 147.808 61.287 144.868 61.287 140.248V140.024C61.287 135.46 57.983 132.52 53.587 132.52C49.191 132.52 45.859 135.516 45.859 140.108V140.332C45.859 144.896 49.191 147.808 53.559 147.808Z" fill="black"/>
<path d="M69.6649 152.904C74.4809 152.904 77.3649 150.692 77.3929 146.352V132.856H73.3609V135.04C72.5209 133.556 71.0929 132.52 68.7129 132.52C65.0729 132.52 62.2729 135.46 62.2729 139.66V139.856C62.2729 144.196 65.1009 146.856 68.6569 146.856C70.8129 146.856 72.5489 145.568 73.3609 144.14V146.352C73.3609 148.648 72.1289 149.936 69.6649 149.936C67.5929 149.936 66.6689 149.096 66.4169 147.808H62.3849C62.7769 150.832 64.9329 152.904 69.6649 152.904ZM69.8609 143.804C67.8449 143.804 66.4169 142.292 66.4169 139.856V139.632C66.4169 137.224 67.6769 135.6 69.9449 135.6C72.1569 135.6 73.4729 137.112 73.4729 139.604V139.8C73.4729 142.292 71.9889 143.804 69.8609 143.804Z" fill="black"/>
<path d="M86.9617 144.728C84.6657 144.728 83.3777 143.048 83.3777 140.248V140.024C83.3777 137.224 84.7217 135.6 86.9617 135.6C89.2297 135.6 90.5457 137.28 90.5457 140.08V140.276C90.5457 143.048 89.2297 144.728 86.9617 144.728ZM86.9337 147.808C91.3297 147.808 94.6617 144.868 94.6617 140.248V140.024C94.6617 135.46 91.3577 132.52 86.9617 132.52C82.5657 132.52 79.2337 135.516 79.2337 140.108V140.332C79.2337 144.896 82.5657 147.808 86.9337 147.808Z" fill="black"/>
<path d="M401 179H0V181H401V179Z" fill="black" mask="url(#path-3-inside-1_299_820)"/>
</svg>
