<svg xmlns="http://www.w3.org/2000/svg" width="768" height="618" fill="none" viewBox="0 0 768 618"><path fill="url(#a)" fill-rule="evenodd" d="M0 0h1.437v12.935h57.489V0h1.437v12.935h57.488V0h1.437v12.935h57.489V0h1.437v12.935h57.488V0h1.438v12.935h57.488V0h1.437v12.935h57.488V0h1.438v12.935h57.488V0h1.437v12.935h57.489V0h1.437v12.935h57.488V0h1.437v12.935h57.489V0h1.437v12.935h57.488V0h1.438v12.935h57.488V0h1.437v12.935h57.489V0h1.437v618h-1.437v-14.372h-57.489V618h-1.437v-14.372h-57.488V618h-1.438v-14.372h-57.488V618h-1.437v-14.372h-57.489V618h-1.437v-14.372h-57.488V618h-1.437v-14.372h-57.489V618h-1.437v-14.372h-57.488V618h-1.438v-14.372h-57.488V618h-1.437v-14.372H237.14V618h-1.438v-14.372h-57.488V618h-1.437v-14.372h-57.489V618h-1.437v-14.372H60.363V618h-1.437v-14.372H1.437V618H0V0Zm1.437 14.372v57.489h57.489V14.372H1.437Zm58.926 0v57.489h57.488V14.372H60.363Zm58.925 0v57.489h57.489V14.372h-57.489Zm58.926 0v57.489h57.488V14.372h-57.488Zm58.926 0v57.489h57.488V14.372H237.14Zm58.925 0v57.489h57.488V14.372h-57.488Zm58.926 0v57.489h57.488V14.372h-57.488Zm58.925 0v57.489h57.489V14.372h-57.489Zm58.926 0v57.489h57.488V14.372h-57.488Zm58.925 0v57.489h57.489V14.372h-57.489Zm58.926 0v57.489h57.488V14.372h-57.488Zm58.926 0v57.489h57.488V14.372h-57.488Zm58.925 0v57.489h57.489V14.372h-57.489ZM1.437 130.786V73.298h57.489v57.488H1.437Zm58.926 0V73.298h57.488v57.488H60.363Zm58.925 0V73.298h57.489v57.488h-57.489Zm58.926 0V73.298h57.488v57.488h-57.488Zm58.926 0V73.298h57.488v57.488H237.14Zm58.925 0V73.298h57.488v57.488h-57.488Zm58.926 0V73.298h57.488v57.488h-57.488Zm58.925 0V73.298h57.489v57.488h-57.489Zm58.926 0V73.298h57.488v57.488h-57.488Zm58.925 0V73.298h57.489v57.488h-57.489Zm58.926 0V73.298h57.488v57.488h-57.488Zm58.926 0V73.298h57.488v57.488h-57.488Zm58.925 0V73.298h57.489v57.488h-57.489ZM1.437 132.223v57.489h57.489v-57.489H1.437Zm58.926 0v57.489h57.488v-57.489H60.363Zm58.925 0v57.489h57.489v-57.489h-57.489Zm58.926 0v57.489h57.488v-57.489h-57.488Zm58.926 0v57.489h57.488v-57.489H237.14Zm58.925 0v57.489h57.488v-57.489h-57.488Zm58.926 0v57.489h57.488v-57.489h-57.488Zm58.925 0v57.489h57.489v-57.489h-57.489Zm58.926 0v57.489h57.488v-57.489h-57.488Zm58.925 0v57.489h57.489v-57.489h-57.489Zm58.926 0v57.489h57.488v-57.489h-57.488Zm58.926 0v57.489h57.488v-57.489h-57.488Zm58.925 0v57.489h57.489v-57.489h-57.489ZM1.437 248.637v-57.488h57.489v57.488H1.437Zm58.926 0v-57.488h57.488v57.488H60.363Zm58.925 0v-57.488h57.489v57.488h-57.489Zm58.926 0v-57.488h57.488v57.488h-57.488Zm58.926 0v-57.488h57.488v57.488H237.14Zm58.925 0v-57.488h57.488v57.488h-57.488Zm58.926 0v-57.488h57.488v57.488h-57.488Zm58.925 0v-57.488h57.489v57.488h-57.489Zm58.926 0v-57.488h57.488v57.488h-57.488Zm58.925 0v-57.488h57.489v57.488h-57.489Zm58.926 0v-57.488h57.488v57.488h-57.488Zm58.926 0v-57.488h57.488v57.488h-57.488Zm58.925 0v-57.488h57.489v57.488h-57.489ZM1.437 250.075v57.488h57.489v-57.488H1.437Zm58.926 0v57.488h57.488v-57.488H60.363Zm58.925 0v57.488h57.489v-57.488h-57.489Zm58.926 0v57.488h57.488v-57.488h-57.488Zm58.926 0v57.488h57.488v-57.488H237.14Zm58.925 0v57.488h57.488v-57.488h-57.488Zm58.926 0v57.488h57.488v-57.488h-57.488Zm58.925 0v57.488h57.489v-57.488h-57.489Zm58.926 0v57.488h57.488v-57.488h-57.488Zm58.925 0v57.488h57.489v-57.488h-57.489Zm58.926 0v57.488h57.488v-57.488h-57.488Zm58.926 0v57.488h57.488v-57.488h-57.488Zm58.925 0v57.488h57.489v-57.488h-57.489ZM1.437 366.488V309h57.489v57.488H1.437Zm58.926 0V309h57.488v57.488H60.363Zm58.925 0V309h57.489v57.488h-57.489Zm58.926 0V309h57.488v57.488h-57.488Zm58.926 0V309h57.488v57.488H237.14Zm58.925 0V309h57.488v57.488h-57.488Zm58.926 0V309h57.488v57.488h-57.488Zm58.925 0V309h57.489v57.488h-57.489Zm58.926 0V309h57.488v57.488h-57.488Zm58.925 0V309h57.489v57.488h-57.489Zm58.926 0V309h57.488v57.488h-57.488Zm58.926 0V309h57.488v57.488h-57.488Zm58.925 0V309h57.489v57.488h-57.489ZM1.437 367.926v57.488h57.489v-57.488H1.437Zm58.926 0v57.488h57.488v-57.488H60.363Zm58.925 0v57.488h57.489v-57.488h-57.489Zm58.926 0v57.488h57.488v-57.488h-57.488Zm58.926 0v57.488h57.488v-57.488H237.14Zm58.925 0v57.488h57.488v-57.488h-57.488Zm58.926 0v57.488h57.488v-57.488h-57.488Zm58.925 0v57.488h57.489v-57.488h-57.489Zm58.926 0v57.488h57.488v-57.488h-57.488Zm58.925 0v57.488h57.489v-57.488h-57.489Zm58.926 0v57.488h57.488v-57.488h-57.488Zm58.926 0v57.488h57.488v-57.488h-57.488Zm58.925 0v57.488h57.489v-57.488h-57.489ZM1.437 484.339v-57.488h57.489v57.488H1.437Zm58.926 0v-57.488h57.488v57.488H60.363Zm58.925 0v-57.488h57.489v57.488h-57.489Zm58.926 0v-57.488h57.488v57.488h-57.488Zm58.926 0v-57.488h57.488v57.488H237.14Zm58.925 0v-57.488h57.488v57.488h-57.488Zm58.926 0v-57.488h57.488v57.488h-57.488Zm58.925 0v-57.488h57.489v57.488h-57.489Zm58.926 0v-57.488h57.488v57.488h-57.488Zm58.925 0v-57.488h57.489v57.488h-57.489Zm58.926 0v-57.488h57.488v57.488h-57.488Zm58.926 0v-57.488h57.488v57.488h-57.488Zm58.925 0v-57.488h57.489v57.488h-57.489ZM1.437 485.777v57.488h57.489v-57.488H1.437Zm58.926 0v57.488h57.488v-57.488H60.363Zm58.925 0v57.488h57.489v-57.488h-57.489Zm58.926 0v57.488h57.488v-57.488h-57.488Zm58.926 0v57.488h57.488v-57.488H237.14Zm58.925 0v57.488h57.488v-57.488h-57.488Zm58.926 0v57.488h57.488v-57.488h-57.488Zm58.925 0v57.488h57.489v-57.488h-57.489Zm58.926 0v57.488h57.488v-57.488h-57.488Zm58.925 0v57.488h57.489v-57.488h-57.489Zm58.926 0v57.488h57.488v-57.488h-57.488Zm58.926 0v57.488h57.488v-57.488h-57.488Zm58.925 0v57.488h57.489v-57.488h-57.489ZM1.437 602.191v-57.489h57.489v57.489H1.437Zm58.926 0v-57.489h57.488v57.489H60.363Zm58.925 0v-57.489h57.489v57.489h-57.489Zm58.926 0v-57.489h57.488v57.489h-57.488Zm58.926 0v-57.489h57.488v57.489H237.14Zm58.925 0v-57.489h57.488v57.489h-57.488Zm58.926 0v-57.489h57.488v57.489h-57.488Zm58.925 0v-57.489h57.489v57.489h-57.489Zm58.926 0v-57.489h57.488v57.489h-57.488Zm58.925 0v-57.489h57.489v57.489h-57.489Zm58.926 0v-57.489h57.488v57.489h-57.488Zm58.926 0v-57.489h57.488v57.489h-57.488Zm58.925 0v-57.489h57.489v57.489h-57.489Z" clip-rule="evenodd"/><defs><radialGradient id="a" cx="0" cy="0" r="1" gradientTransform="translate(383.735 309) scale(383.265)" gradientUnits="userSpaceOnUse"><stop stop-opacity=".12"/><stop offset="1" stop-opacity="0"/></radialGradient></defs></svg>