<svg width="1147" height="1045" viewBox="0 0 1147 1045" fill="none" xmlns="http://www.w3.org/2000/svg">
<g clip-path="url(#clip0_2673_272381)">
<rect width="1096.69" height="83.3521" rx="10" transform="matrix(0.866044 -0.499967 0.866044 0.499967 125.266 558.307)" stroke="white" stroke-width="1.5"/>
<rect width="159.75" height="91.9044" rx="5" transform="matrix(0.866044 -0.499967 0.866044 0.499967 266.893 639.543)" stroke="white" stroke-width="1.5"/>
<rect width="547.959" height="160.221" rx="10" transform="matrix(-0.866044 -0.499967 0.866044 -0.499967 506.066 1015.14)" stroke="white" stroke-width="1.5"/>
<rect width="159.75" height="91.9044" rx="5" transform="matrix(0.866044 -0.499967 0.866044 0.499967 454.158 531.436)" stroke="white" stroke-width="1.5"/>
<rect width="159.75" height="91.9044" rx="5" transform="matrix(0.866044 -0.499967 0.866044 0.499967 641.422 423.328)" stroke="white" stroke-width="1.5"/>
<rect width="159.75" height="91.9044" rx="5" transform="matrix(0.866044 -0.499967 0.866044 0.499967 828.688 315.221)" stroke="white" stroke-width="1.5"/>
<rect width="159.75" height="91.9044" rx="5" transform="matrix(0.866044 -0.499967 0.866044 0.499967 440.164 739.572)" stroke="white" stroke-width="1.5"/>
<rect width="159.75" height="91.9044" rx="5" transform="matrix(0.866044 -0.499967 0.866044 0.499967 627.428 631.465)" stroke="white" stroke-width="1.5"/>
<rect width="159.75" height="292.062" rx="5" transform="matrix(0.866044 -0.499967 0.866044 0.499967 641.348 423.285)" stroke="white" stroke-width="1.5"/>
<rect width="159.75" height="91.9044" rx="5" transform="matrix(0.866044 -0.499967 0.866044 0.499967 1001.96 415.25)" stroke="white" stroke-width="1.5"/>
<rect width="159.75" height="91.9044" rx="5" transform="matrix(0.866044 -0.499967 0.866044 0.499967 799.352 730.557)" stroke="white" stroke-width="1.5"/>
<rect width="159.75" height="91.9044" rx="5" transform="matrix(0.866044 -0.499967 0.866044 0.499967 612.088 838.664)" stroke="white" stroke-width="1.5"/>
<rect width="159.75" height="91.9044" rx="5" transform="matrix(0.866044 -0.499967 0.866044 0.499967 986.6 622.6)" stroke="white" stroke-width="1.5"/>
<rect width="1096.69" height="83.3521" rx="10" transform="matrix(0.866044 -0.499967 0.866044 0.499967 125.266 568.307)" stroke="white" stroke-width="1.5"/>
<rect width="159.75" height="91.9044" rx="5" transform="matrix(0.866044 -0.499967 0.866044 0.499967 266.893 649.543)" stroke="white" stroke-width="1.5"/>
<rect width="547.959" height="160.221" rx="10" transform="matrix(-0.866044 -0.499967 0.866044 -0.499967 506.066 1025.14)" stroke="white" stroke-width="1.5"/>
<rect width="159.75" height="91.9044" rx="5" transform="matrix(0.866044 -0.499967 0.866044 0.499967 454.158 541.436)" stroke="white" stroke-width="1.5"/>
<rect width="159.75" height="91.9044" rx="5" transform="matrix(0.866044 -0.499967 0.866044 0.499967 641.422 433.328)" stroke="white" stroke-width="1.5"/>
<rect width="159.75" height="91.9044" rx="5" transform="matrix(0.866044 -0.499967 0.866044 0.499967 828.688 325.221)" stroke="white" stroke-width="1.5"/>
<rect width="159.75" height="91.9044" rx="5" transform="matrix(0.866044 -0.499967 0.866044 0.499967 440.164 749.572)" stroke="white" stroke-width="1.5"/>
<rect width="159.75" height="293.786" rx="5" transform="matrix(0.866044 -0.499967 0.866044 0.499967 627.428 641.465)" stroke="white" stroke-width="1.5"/>
<rect width="159.75" height="91.9044" rx="5" transform="matrix(0.866044 -0.499967 0.866044 0.499967 814.691 533.357)" stroke="white" stroke-width="1.5"/>
<rect width="159.75" height="91.9044" rx="5" transform="matrix(0.866044 -0.499967 0.866044 0.499967 1001.96 425.25)" stroke="white" stroke-width="1.5"/>
<rect width="159.75" height="91.9044" rx="5" transform="matrix(0.866044 -0.499967 0.866044 0.499967 799.352 740.557)" stroke="white" stroke-width="1.5"/>
<rect width="159.75" height="91.9044" rx="5" transform="matrix(0.866044 -0.499967 0.866044 0.499967 612.088 848.664)" stroke="white" stroke-width="1.5"/>
<rect width="159.75" height="91.9044" rx="5" transform="matrix(0.866044 -0.499967 0.866044 0.499967 986.6 632.6)" stroke="white" stroke-width="1.5"/>
<rect width="1096.69" height="83.3521" rx="10" transform="matrix(0.866044 -0.499967 0.866044 0.499967 125.266 578.307)" stroke="white" stroke-width="1.5"/>
<rect width="159.75" height="91.9044" rx="5" transform="matrix(0.866044 -0.499967 0.866044 0.499967 266.893 659.543)" stroke="white" stroke-width="1.5"/>
<rect width="547.959" height="160.221" rx="10" transform="matrix(-0.866044 -0.499967 0.866044 -0.499967 506.066 1035.14)" stroke="white" stroke-width="1.5"/>
<rect width="159.75" height="91.9044" rx="5" transform="matrix(0.866044 -0.499967 0.866044 0.499967 454.158 551.436)" stroke="white" stroke-width="1.5"/>
<rect width="159.75" height="91.9044" rx="5" transform="matrix(0.866044 -0.499967 0.866044 0.499967 641.422 443.328)" stroke="white" stroke-width="1.5"/>
<rect width="159.75" height="91.9044" rx="5" transform="matrix(0.866044 -0.499967 0.866044 0.499967 828.688 335.221)" stroke="white" stroke-width="1.5"/>
<rect width="375.657" height="91.9044" rx="5" transform="matrix(0.866044 -0.499967 0.866044 0.499967 440.164 759.572)" stroke="white" stroke-width="1.5"/>
<rect width="159.75" height="91.9044" rx="5" transform="matrix(0.866044 -0.499967 0.866044 0.499967 627.428 651.465)" stroke="white" stroke-width="1.5"/>
<rect width="159.75" height="91.9044" rx="5" transform="matrix(0.866044 -0.499967 0.866044 0.499967 814.691 543.357)" stroke="white" stroke-width="1.5"/>
<rect width="159.75" height="91.9044" rx="5" transform="matrix(0.866044 -0.499967 0.866044 0.499967 1001.96 435.25)" stroke="white" stroke-width="1.5"/>
<rect width="159.75" height="91.9044" rx="5" transform="matrix(0.866044 -0.499967 0.866044 0.499967 799.352 750.557)" stroke="white" stroke-width="1.5"/>
<rect width="159.75" height="91.9044" rx="5" transform="matrix(0.866044 -0.499967 0.866044 0.499967 612.088 858.664)" stroke="white" stroke-width="1.5"/>
<rect width="159.75" height="91.9044" rx="5" transform="matrix(0.866044 -0.499967 0.866044 0.499967 986.6 642.6)" stroke="white" stroke-width="1.5"/>
<rect width="1096.69" height="83.3521" rx="10" transform="matrix(0.866044 -0.499967 0.866044 0.499967 125.266 588.307)" stroke="white" stroke-width="1.5"/>
<rect width="159.75" height="292.063" rx="5" transform="matrix(0.866044 -0.499967 0.866044 0.499967 266.893 669.543)" stroke="white" stroke-width="1.5"/>
<rect width="547.959" height="160.221" rx="10" transform="matrix(-0.866044 -0.499967 0.866044 -0.499967 506.066 1045.14)" stroke="white" stroke-width="1.5"/>
<rect width="159.75" height="91.9044" rx="5" transform="matrix(0.866044 -0.499967 0.866044 0.499967 454.158 561.436)" stroke="white" stroke-width="1.5"/>
<rect width="159.75" height="91.9044" rx="5" transform="matrix(0.866044 -0.499967 0.866044 0.499967 641.422 453.328)" stroke="white" stroke-width="1.5"/>
<rect width="159.75" height="91.9044" rx="5" transform="matrix(0.866044 -0.499967 0.866044 0.499967 828.688 345.221)" stroke="white" stroke-width="1.5"/>
<rect width="159.75" height="91.9044" rx="5" transform="matrix(0.866044 -0.499967 0.866044 0.499967 440.164 769.572)" stroke="white" stroke-width="1.5"/>
<rect width="159.75" height="91.9044" rx="5" transform="matrix(0.866044 -0.499967 0.866044 0.499967 627.428 661.465)" stroke="white" stroke-width="1.5"/>
<rect width="159.75" height="91.9044" rx="5" transform="matrix(0.866044 -0.499967 0.866044 0.499967 814.691 553.357)" stroke="white" stroke-width="1.5"/>
<rect width="159.75" height="91.9044" rx="5" transform="matrix(0.866044 -0.499967 0.866044 0.499967 1001.96 445.25)" stroke="white" stroke-width="1.5"/>
<rect width="159.75" height="91.9044" rx="5" transform="matrix(0.866044 -0.499967 0.866044 0.499967 799.352 760.557)" stroke="white" stroke-width="1.5"/>
<rect width="159.75" height="91.9044" rx="5" transform="matrix(0.866044 -0.499967 0.866044 0.499967 612.088 868.664)" stroke="white" stroke-width="1.5"/>
<rect width="159.75" height="91.9044" rx="5" transform="matrix(0.866044 -0.499967 0.866044 0.499967 986.6 652.6)" stroke="white" stroke-width="1.5"/>
<rect x="1.29907" width="1095.19" height="81.8521" rx="9.25" transform="matrix(0.866044 -0.499967 0.866044 0.499967 125.442 548.964)" fill="#140745" stroke="white" stroke-width="1.5"/>
<rect x="1.29907" width="158.25" height="90.4044" rx="4.25" transform="matrix(0.866044 -0.499967 0.866044 0.499967 267.069 630.2)" fill="#140745" stroke="white" stroke-width="1.5"/>
<rect x="1.29907" width="371.998" height="40.839" rx="20.4195" transform="matrix(0.866044 -0.499967 0.866044 0.499967 169.639 543.954)" stroke="white" stroke-width="1.5"/>
<rect x="-1.3411e-07" y="-0.749951" width="546.459" height="158.721" rx="9.25" transform="matrix(-0.866044 -0.499967 0.866044 -0.499967 506.716 1004.03)" fill="#140745" stroke="white" stroke-width="1.5"/>
<rect x="1.29907" width="159.061" height="40.839" rx="20.4195" transform="matrix(0.866044 -0.499967 0.866044 0.499967 543.465 328.144)" stroke="white" stroke-width="1.5"/>
<rect x="1.29907" width="212.968" height="40.839" rx="20.4195" transform="matrix(0.866044 -0.499967 0.866044 0.499967 731.432 219.63)" stroke="white" stroke-width="1.5"/>
<rect x="1.29907" width="158.25" height="90.4044" rx="4.25" transform="matrix(0.866044 -0.499967 0.866044 0.499967 454.332 522.093)" fill="#140745" stroke="white" stroke-width="1.5"/>
<circle cx="45.9465" cy="45.9465" r="45.1965" transform="matrix(0.866044 -0.499967 0.866044 0.499967 85.2578 728.648)" fill="#140745" stroke="white" stroke-width="1.5"/>
<circle cx="45.9465" cy="45.9465" r="45.1965" transform="matrix(0.866044 -0.499967 0.866044 0.499967 85.2578 728.648)" fill="#140745" stroke="white" stroke-width="1.5"/>
<rect x="1.29907" width="157.351" height="90.4044" rx="4.25" transform="matrix(0.866044 -0.499967 0.866044 0.499967 641.596 413.985)" fill="#140745" stroke="white" stroke-width="1.5"/>
<rect x="1.29907" width="158.25" height="90.4044" rx="4.25" transform="matrix(0.866044 -0.499967 0.866044 0.499967 828.862 305.876)" fill="#140745" stroke="white" stroke-width="1.5"/>
<rect x="1.29907" width="158.25" height="90.4044" rx="4.25" transform="matrix(0.866044 -0.499967 0.866044 0.499967 440.338 730.23)" fill="#140745" stroke="white" stroke-width="1.5"/>
<rect x="1.29907" width="158.25" height="90.4044" rx="4.25" transform="matrix(0.866044 -0.499967 0.866044 0.499967 627.604 622.12)" fill="#140745" stroke="white" stroke-width="1.5"/>
<circle cx="45.9465" cy="45.9465" r="45.1965" transform="matrix(0.866044 -0.499967 0.866044 0.499967 258.527 828.678)" stroke="white" stroke-width="1.5"/>
<rect x="1.29907" width="158.25" height="90.4044" rx="4.25" transform="matrix(0.866044 -0.499967 0.866044 0.499967 814.867 514.013)" fill="#140745" stroke="white" stroke-width="1.5"/>
<rect opacity="0.25" x="0.866044" width="158.75" height="90.9044" rx="4.5" transform="matrix(0.866044 -0.499967 0.866044 0.499967 1002.07 405.689)" fill="#140745" stroke="white"/>
<rect x="1.29907" width="158.25" height="90.4044" rx="4.25" transform="matrix(0.866044 -0.499967 0.866044 0.499967 799.528 721.214)" fill="#140745" stroke="white" stroke-width="1.5"/>
<rect x="1.29907" width="158.25" height="90.4044" rx="4.25" transform="matrix(0.866044 -0.499967 0.866044 0.499967 612.262 829.321)" fill="#140745" stroke="white" stroke-width="1.5"/>
<circle cx="45.9465" cy="45.9465" r="45.1965" transform="matrix(0.866044 -0.499967 0.866044 0.499967 440.424 927.914)" stroke="white" stroke-width="1.5"/>
<rect opacity="0.25" x="1.29907" width="158.25" height="90.4044" rx="4.25" transform="matrix(0.866044 -0.499967 0.866044 0.499967 986.774 613.255)" stroke="white" stroke-width="1.5"/>
</g>
<defs>
<clipPath id="clip0_2673_272381">
<rect width="1147" height="1045" fill="white"/>
</clipPath>
</defs>
</svg>
