<svg width="645" height="563" viewBox="0 0 645 563" fill="none" xmlns="http://www.w3.org/2000/svg">
<g clip-path="url(#clip0_2673_272556)">
<rect width="85.149" height="48.9864" rx="2.66507" transform="matrix(0.912845 -0.408307 0.810071 0.586332 175.894 244.081)" stroke="white" stroke-width="0.799522"/>
<rect width="292.07" height="85.3999" rx="5.33014" transform="matrix(-0.810071 -0.586332 0.912844 -0.408307 282.125 456.324)" stroke="white" stroke-width="0.799522"/>
<rect width="85.149" height="48.9864" rx="2.66507" transform="matrix(0.912845 -0.408307 0.810071 0.586332 281.103 197.023)" stroke="white" stroke-width="0.799522"/>
<rect width="85.149" height="48.9864" rx="2.66507" transform="matrix(0.912845 -0.408307 0.810071 0.586332 386.311 149.965)" stroke="white" stroke-width="0.799522"/>
<rect width="85.149" height="48.9864" rx="2.66507" transform="matrix(0.912845 -0.408307 0.810071 0.586332 491.52 102.906)" stroke="white" stroke-width="0.799522"/>
<rect width="85.149" height="48.9864" rx="2.66507" transform="matrix(0.912845 -0.408307 0.810071 0.586332 262.28 306.608)" stroke="white" stroke-width="0.799522"/>
<rect width="85.149" height="48.9864" rx="2.66507" transform="matrix(0.912845 -0.408307 0.810071 0.586332 367.488 259.549)" stroke="white" stroke-width="0.799522"/>
<rect width="85.149" height="155.673" rx="2.66507" transform="matrix(0.912845 -0.408307 0.810071 0.586332 386.273 149.938)" stroke="white" stroke-width="0.799522"/>
<rect width="85.149" height="48.9864" rx="2.66507" transform="matrix(0.912845 -0.408307 0.810071 0.586332 577.905 165.433)" stroke="white" stroke-width="0.799522"/>
<rect width="85.149" height="48.9864" rx="2.66507" transform="matrix(0.912845 -0.408307 0.810071 0.586332 453.213 321.505)" stroke="white" stroke-width="0.799522"/>
<rect width="85.149" height="48.9864" rx="2.66507" transform="matrix(0.912845 -0.408307 0.810071 0.586332 348.005 368.564)" stroke="white" stroke-width="0.799522"/>
<rect width="85.149" height="48.9864" rx="2.66507" transform="matrix(0.912845 -0.408307 0.810071 0.586332 558.404 274.526)" stroke="white" stroke-width="0.799522"/>
<rect width="85.149" height="48.9864" rx="2.66507" transform="matrix(0.912845 -0.408307 0.810071 0.586332 175.347 249.382)" stroke="white" stroke-width="0.799522"/>
<rect width="292.07" height="85.3999" rx="5.33014" transform="matrix(-0.810071 -0.586332 0.912844 -0.408307 281.578 461.626)" stroke="white" stroke-width="0.799522"/>
<rect width="85.149" height="48.9864" rx="2.66507" transform="matrix(0.912845 -0.408307 0.810071 0.586332 280.556 202.324)" stroke="white" stroke-width="0.799522"/>
<rect width="85.149" height="48.9864" rx="2.66507" transform="matrix(0.912845 -0.408307 0.810071 0.586332 385.764 155.266)" stroke="white" stroke-width="0.799522"/>
<rect width="85.149" height="48.9864" rx="2.66507" transform="matrix(0.912845 -0.408307 0.810071 0.586332 490.973 108.207)" stroke="white" stroke-width="0.799522"/>
<rect width="85.149" height="48.9864" rx="2.66507" transform="matrix(0.912845 -0.408307 0.810071 0.586332 261.734 311.909)" stroke="white" stroke-width="0.799522"/>
<rect width="85.149" height="156.592" rx="2.66507" transform="matrix(0.912845 -0.408307 0.810071 0.586332 366.941 264.85)" stroke="white" stroke-width="0.799522"/>
<rect width="85.149" height="48.9864" rx="2.66507" transform="matrix(0.912845 -0.408307 0.810071 0.586332 472.149 217.793)" stroke="white" stroke-width="0.799522"/>
<rect width="85.149" height="48.9864" rx="2.66507" transform="matrix(0.912845 -0.408307 0.810071 0.586332 577.359 170.734)" stroke="white" stroke-width="0.799522"/>
<rect width="85.149" height="48.9864" rx="2.66507" transform="matrix(0.912845 -0.408307 0.810071 0.586332 452.666 326.807)" stroke="white" stroke-width="0.799522"/>
<rect width="85.149" height="48.9864" rx="2.66507" transform="matrix(0.912845 -0.408307 0.810071 0.586332 347.458 373.865)" stroke="white" stroke-width="0.799522"/>
<rect width="85.149" height="48.9864" rx="2.66507" transform="matrix(0.912845 -0.408307 0.810071 0.586332 557.857 279.827)" stroke="white" stroke-width="0.799522"/>
<rect width="85.149" height="48.9864" rx="2.66507" transform="matrix(0.912845 -0.408307 0.810071 0.586332 174.798 254.684)" stroke="white" stroke-width="0.799522"/>
<rect width="292.07" height="85.3999" rx="5.33014" transform="matrix(-0.810071 -0.586332 0.912844 -0.408307 281.029 466.928)" stroke="white" stroke-width="0.799522"/>
<rect width="85.149" height="48.9864" rx="2.66507" transform="matrix(0.912845 -0.408307 0.810071 0.586332 280.007 207.627)" stroke="white" stroke-width="0.799522"/>
<rect width="85.149" height="48.9864" rx="2.66507" transform="matrix(0.912845 -0.408307 0.810071 0.586332 385.215 160.568)" stroke="white" stroke-width="0.799522"/>
<rect width="85.149" height="48.9864" rx="2.66507" transform="matrix(0.912845 -0.408307 0.810071 0.586332 490.424 113.51)" stroke="white" stroke-width="0.799522"/>
<rect width="200.231" height="48.9864" rx="2.66507" transform="matrix(0.912845 -0.408307 0.810071 0.586332 261.185 317.211)" stroke="white" stroke-width="0.799522"/>
<rect width="85.149" height="48.9864" rx="2.66507" transform="matrix(0.912845 -0.408307 0.810071 0.586332 366.393 270.153)" stroke="white" stroke-width="0.799522"/>
<rect width="85.149" height="48.9864" rx="2.66507" transform="matrix(0.912845 -0.408307 0.810071 0.586332 471.601 223.095)" stroke="white" stroke-width="0.799522"/>
<rect width="85.149" height="48.9864" rx="2.66507" transform="matrix(0.912845 -0.408307 0.810071 0.586332 576.809 176.037)" stroke="white" stroke-width="0.799522"/>
<rect width="85.149" height="48.9864" rx="2.66507" transform="matrix(0.912845 -0.408307 0.810071 0.586332 452.117 332.109)" stroke="white" stroke-width="0.799522"/>
<rect width="85.149" height="48.9864" rx="2.66507" transform="matrix(0.912845 -0.408307 0.810071 0.586332 346.909 379.167)" stroke="white" stroke-width="0.799522"/>
<rect width="85.149" height="48.9864" rx="2.66507" transform="matrix(0.912845 -0.408307 0.810071 0.586332 557.309 285.129)" stroke="white" stroke-width="0.799522"/>
<rect width="85.149" height="155.674" rx="2.66507" transform="matrix(0.912845 -0.408307 0.810071 0.586332 174.251 259.986)" stroke="white" stroke-width="0.799522"/>
<rect width="292.07" height="85.3999" rx="5.33014" transform="matrix(-0.810071 -0.586332 0.912844 -0.408307 280.482 472.23)" stroke="white" stroke-width="0.799522"/>
<rect width="85.149" height="48.9864" rx="2.66507" transform="matrix(0.912845 -0.408307 0.810071 0.586332 279.46 212.928)" stroke="white" stroke-width="0.799522"/>
<rect width="85.149" height="48.9864" rx="2.66507" transform="matrix(0.912845 -0.408307 0.810071 0.586332 384.668 165.87)" stroke="white" stroke-width="0.799522"/>
<rect width="85.149" height="48.9864" rx="2.66507" transform="matrix(0.912845 -0.408307 0.810071 0.586332 489.877 118.811)" stroke="white" stroke-width="0.799522"/>
<rect width="85.149" height="48.9864" rx="2.66507" transform="matrix(0.912845 -0.408307 0.810071 0.586332 260.638 322.513)" stroke="white" stroke-width="0.799522"/>
<rect width="85.149" height="48.9864" rx="2.66507" transform="matrix(0.912845 -0.408307 0.810071 0.586332 365.846 275.454)" stroke="white" stroke-width="0.799522"/>
<rect width="85.149" height="48.9864" rx="2.66507" transform="matrix(0.912845 -0.408307 0.810071 0.586332 471.054 228.397)" stroke="white" stroke-width="0.799522"/>
<rect width="85.149" height="48.9864" rx="2.66507" transform="matrix(0.912845 -0.408307 0.810071 0.586332 576.264 181.338)" stroke="white" stroke-width="0.799522"/>
<rect width="85.149" height="48.9864" rx="2.66507" transform="matrix(0.912845 -0.408307 0.810071 0.586332 451.57 337.411)" stroke="white" stroke-width="0.799522"/>
<rect width="85.149" height="48.9864" rx="2.66507" transform="matrix(0.912845 -0.408307 0.810071 0.586332 346.362 384.469)" stroke="white" stroke-width="0.799522"/>
<rect width="85.149" height="48.9864" rx="2.66507" transform="matrix(0.912845 -0.408307 0.810071 0.586332 556.762 290.431)" stroke="white" stroke-width="0.799522"/>
<rect x="0.688754" y="0.0711672" width="84.3495" height="48.1868" rx="2.26531" transform="matrix(0.912845 -0.408307 0.810071 0.586332 176.447 239.095)" fill="#1D1D2B" stroke="white" stroke-width="0.799522"/>
<rect x="0.0410848" y="-0.397618" width="291.27" height="84.6004" rx="4.93038" transform="matrix(-0.810071 -0.586332 0.912844 -0.408307 283.111 450.491)" fill="#1D1D2B" stroke="white" stroke-width="0.799522"/>
<rect width="584.549" height="44.4279" rx="5.33014" transform="matrix(0.912845 -0.408307 0.810071 0.586332 -11.0879 246.975)" stroke="white" stroke-width="0.799522"/>
<rect width="584.549" height="44.4279" rx="5.33014" transform="matrix(0.912845 -0.408307 0.810071 0.586332 -11.6348 252.277)" stroke="white" stroke-width="0.799522"/>
<rect width="584.549" height="44.4279" rx="5.33014" transform="matrix(0.912845 -0.408307 0.810071 0.586332 -12.1826 257.579)" stroke="white" stroke-width="0.799522"/>
<rect width="584.549" height="44.4279" rx="5.33014" transform="matrix(0.912845 -0.408307 0.810071 0.586332 -12.7305 262.88)" stroke="white" stroke-width="0.799522"/>
<rect x="0.688754" y="0.0711672" width="583.75" height="43.6283" rx="4.93038" transform="matrix(0.912845 -0.408307 0.810071 0.586332 -10.5357 241.987)" fill="#1D1D2B" stroke="white" stroke-width="0.799522"/>
<rect x="0.688754" y="0.0711672" width="198.28" height="21.7677" rx="10.8839" transform="matrix(0.912845 -0.408307 0.810071 0.586332 13.1723 241.752)" stroke="white" stroke-width="0.799522"/>
<rect x="0.688754" y="0.0711672" width="84.782" height="21.7677" rx="10.8839" transform="matrix(0.912845 -0.408307 0.810071 0.586332 223.195 147.81)" stroke="white" stroke-width="0.799522"/>
<rect x="0.688754" y="0.0711672" width="113.515" height="21.7677" rx="10.8839" transform="matrix(0.912845 -0.408307 0.810071 0.586332 328.797 100.575)" stroke="white" stroke-width="0.799522"/>
<rect x="0.688754" y="0.0711672" width="84.3495" height="48.1868" rx="2.26531" transform="matrix(0.912845 -0.408307 0.810071 0.586332 281.655 192.036)" fill="#1D1D2B" stroke="white" stroke-width="0.799522"/>
<circle cx="24.4901" cy="24.4901" r="24.0904" transform="matrix(0.912845 -0.408307 0.810071 0.586332 74.7129 281.374)" fill="#1D1D2B" stroke="white" stroke-width="0.799522"/>
<circle cx="24.4901" cy="24.4901" r="24.0904" transform="matrix(0.912845 -0.408307 0.810071 0.586332 74.7129 281.374)" fill="#1D1D2B" stroke="white" stroke-width="0.799522"/>
<rect x="0.688754" y="0.0711672" width="83.8702" height="48.1868" rx="2.26531" transform="matrix(0.912845 -0.408307 0.810071 0.586332 386.863 144.977)" fill="#1D1D2B" stroke="white" stroke-width="0.799522"/>
<rect x="0.688754" y="0.0711672" width="84.3495" height="48.1868" rx="2.26531" transform="matrix(0.912845 -0.408307 0.810071 0.586332 492.072 97.9178)" fill="#1D1D2B" stroke="white" stroke-width="0.799522"/>
<rect x="0.688754" y="0.0711672" width="84.3495" height="48.1868" rx="2.26531" transform="matrix(0.912845 -0.408307 0.810071 0.586332 262.832 301.622)" fill="#1D1D2B" stroke="white" stroke-width="0.799522"/>
<rect x="0.688754" y="0.0711672" width="84.3495" height="48.1868" rx="2.26531" transform="matrix(0.912845 -0.408307 0.810071 0.586332 368.042 254.562)" fill="#1D1D2B" stroke="white" stroke-width="0.799522"/>
<circle cx="24.4901" cy="24.4901" r="24.0904" transform="matrix(0.912845 -0.408307 0.810071 0.586332 161.099 343.901)" stroke="white" stroke-width="0.799522"/>
<rect x="0.688754" y="0.0711672" width="84.3495" height="48.1868" rx="2.26531" transform="matrix(0.912845 -0.408307 0.810071 0.586332 473.249 207.503)" fill="#1D1D2B" stroke="white" stroke-width="0.799522"/>
<rect opacity="0.25" x="0.459169" y="0.0474448" width="84.616" height="48.4533" rx="2.39856" transform="matrix(0.912845 -0.408307 0.810071 0.586332 578.458 160.341)" fill="#1D1D2B" stroke="white" stroke-width="0.533014"/>
<rect x="0.688754" y="0.0711672" width="84.3495" height="48.1868" rx="2.26531" transform="matrix(0.912845 -0.408307 0.810071 0.586332 453.766 316.519)" fill="#1D1D2B" stroke="white" stroke-width="0.799522"/>
<rect x="0.688754" y="0.0711672" width="84.3495" height="48.1868" rx="2.26531" transform="matrix(0.912845 -0.408307 0.810071 0.586332 348.556 363.578)" fill="#1D1D2B" stroke="white" stroke-width="0.799522"/>
<circle cx="24.4901" cy="24.4901" r="24.0904" transform="matrix(0.912845 -0.408307 0.810071 0.586332 252.103 406.48)" stroke="white" stroke-width="0.799522"/>
<rect opacity="0.25" x="0.688754" y="0.0711672" width="84.3495" height="48.1868" rx="2.26531" transform="matrix(0.912845 -0.408307 0.810071 0.586332 558.956 269.538)" stroke="white" stroke-width="0.799522"/>
</g>
<defs>
<clipPath id="clip0_2673_272556">
<rect width="645" height="563" fill="white"/>
</clipPath>
</defs>
</svg>
