<svg width="525" height="214" viewBox="0 0 525 214" fill="none" xmlns="http://www.w3.org/2000/svg">
<g clip-path="url(#clip0_3017_13946)">
<path d="M13 214C21.423 208.457 29.846 202.915 38.27 199.22C46.693 195.524 55.116 192.815 63.539 191.829C71.962 190.844 80.385 191.337 88.809 190.351C97.232 189.366 105.655 187.395 114.078 182.961C122.501 178.527 130.924 168.427 139.348 163.746C147.771 159.066 156.194 157.342 164.617 154.878C173.04 152.415 181.463 152.168 189.887 148.966C198.31 145.763 206.733 142.807 215.156 135.663C223.579 128.52 232.002 113.739 240.426 106.103C248.849 98.4659 257.272 96.7415 265.695 89.844C274.118 82.9464 282.541 71.6147 290.965 64.7171C299.388 57.8196 307.811 48.4586 316.234 48.4586H341.504C363.999 48.4586 386.495 46.2415 408.991 44.0245L522 7.07324V214H408.991H341.504H316.234H290.965H265.695H240.426H215.156H189.887H164.617H139.348H114.078H88.809H63.539H38.27H13Z" fill="url(#paint0_linear_3017_13946)"/>
<path d="M13 214C21.423 201.437 29.846 188.873 38.27 182.961C46.693 177.049 55.116 174.093 63.539 174.093C71.962 174.093 80.385 174.093 88.809 174.093C97.232 174.093 105.655 171.137 114.078 166.703C122.501 162.268 130.924 153.154 139.348 147.488C147.771 141.822 156.194 137.142 164.617 132.707C173.04 128.273 181.463 126.056 189.887 120.883C198.31 115.71 206.733 111.276 215.156 101.668C223.579 92.061 232.002 71.122 240.426 63.2391C248.849 55.3562 257.272 57.5732 265.695 51.4147C274.118 45.2562 282.541 31.9537 290.965 26.2879C299.388 20.622 307.811 17.4196 316.234 17.4196C324.657 17.4196 333.08 17.4196 341.504 17.4196C363.999 17.4196 386.495 7.07324 408.991 7.07324C424.643 7.07324 440.295 7.07324 455.947 7.07324C476.403 7.07324 496.859 7.07324 517.32 7.07324C518.88 7.07324 520.44 7.07324 522 7.07324" stroke="url(#paint1_linear_3017_13946)" stroke-width="2" stroke-linecap="round" stroke-dasharray="1 1"/>
<path d="M13 214C21.423 207.103 28.504 196.51 36.927 192.568C45.351 188.627 56.057 185.917 64.48 185.917C72.903 185.917 81.434 184.439 89.858 184.439C98.281 184.439 108.262 180.251 116.685 175.571C125.108 170.89 130.014 163.254 138.437 158.573C146.86 153.893 158.292 147.981 166.715 145.271C175.138 142.561 183.669 145.024 192.093 141.576C200.516 138.127 204.696 134.924 213.12 126.795C221.543 118.666 232.002 105.61 240.426 97.2342C248.849 88.8586 257.272 89.3513 265.695 82.4537C274.118 75.5562 282.541 62.2537 290.965 55.8489C299.388 49.444 307.811 44.0245 316.234 44.0245C324.657 44.0245 333.08 44.0245 341.504 44.0245C363.999 44.0245 393.867 45.5025 408.991 38.1123C424.115 30.722 522 7.07324 522 7.07324" stroke="url(#paint2_linear_3017_13946)" stroke-width="2" stroke-linecap="round" stroke-dasharray="1 1"/>
<path d="M13 214C21.423 208.457 29.846 202.915 38.27 199.22C46.693 195.524 55.116 192.815 63.539 191.829C71.962 190.844 80.385 191.337 88.809 190.351C97.232 189.366 105.655 187.395 114.078 182.961C122.501 178.527 130.924 168.427 139.348 163.746C147.771 159.066 156.194 157.342 164.617 154.878C173.04 152.415 181.463 152.168 189.887 148.966C198.31 145.763 206.733 142.807 215.156 135.663C223.579 128.52 232.002 113.739 240.426 106.103C248.849 98.4659 257.272 96.7415 265.695 89.844C274.118 82.9464 282.541 71.6147 290.965 64.7171C299.388 57.8196 307.811 48.4586 316.234 48.4586C324.657 48.4586 333.08 48.4586 341.504 48.4586C363.999 48.4586 398.217 48.4586 408.991 44.0245C419.765 39.5903 522 7.07324 522 7.07324" stroke="url(#paint3_linear_3017_13946)" stroke-width="2" stroke-linecap="round" stroke-dasharray="1 1"/>
</g>
<defs>
<linearGradient id="paint0_linear_3017_13946" x1="13" y1="7.07324" x2="13" y2="214" gradientUnits="userSpaceOnUse">
<stop stop-color="#5E6AD2" stop-opacity="0.5"/>
<stop offset="1" stop-color="#5E6AD2" stop-opacity="0"/>
</linearGradient>
<linearGradient id="paint1_linear_3017_13946" x1="13" y1="7.07324" x2="13" y2="214" gradientUnits="userSpaceOnUse">
<stop stop-color="#626366"/>
<stop offset="1" stop-color="#626366" stop-opacity="0.4"/>
</linearGradient>
<linearGradient id="paint2_linear_3017_13946" x1="13" y1="7.07324" x2="13" y2="214" gradientUnits="userSpaceOnUse">
<stop stop-color="#F2BE00"/>
<stop offset="1" stop-color="#F2BE00" stop-opacity="0.4"/>
</linearGradient>
<linearGradient id="paint3_linear_3017_13946" x1="13" y1="7.07324" x2="13" y2="214" gradientUnits="userSpaceOnUse">
<stop stop-color="#5E6AD2"/>
<stop offset="1" stop-color="#5E6AD2" stop-opacity="0.4"/>
</linearGradient>
<clipPath id="clip0_3017_13946">
<rect width="525" height="214" fill="white"/>
</clipPath>
</defs>
</svg>
