<svg width="64" height="64" viewBox="0 0 64 64" fill="none" xmlns="http://www.w3.org/2000/svg">
<rect width="64" height="64" rx="32" fill="#958FDC"/>
<path d="M49.3986 42.6716C49.4056 41.7311 52.9965 41.7714 52.9719 40.8922C52.9544 40.2143 51.3641 40.2301 51.8638 38.7957C52.6002 36.6589 53 34.3645 53 31.9772C53 20.3913 43.595 11 32 11C20.4015 11 11 20.3913 11 31.9772C10.9976 34.3514 11.3996 36.7086 12.1888 38.948C12.4869 39.8991 11.0035 40.2721 11.0035 40.8396C11.0035 41.7294 14.128 41.6103 14.128 42.6436C14.128 43.5474 11.0403 43.8241 11.0403 44.7349C11.0403 45.9907 17.8802 45.5528 17.9661 46.6334C18.0345 47.4689 15.6166 47.5179 15.6008 48.4094C15.578 49.8316 24.9375 49.3657 24.9375 50.3133C24.9375 51.0296 20.6803 50.7704 20.6803 51.6163C20.6803 52.4623 26.2841 53 32.4594 53C38.6347 53 42.8971 52.3134 42.8971 51.5708C42.8971 50.8299 38.9205 50.9841 39.0029 50.3133C39.1467 49.145 47.9696 49.7423 47.9696 48.3919C47.9696 47.6791 45.543 47.5127 45.6201 46.7455C45.7323 45.6596 53 45.8225 53 44.6963C53 43.8118 49.4003 43.5929 49.4039 42.6751L49.3986 42.6716ZM43.7703 39.9464C43.5774 40.6627 45.7902 40.7696 45.7902 41.5174C45.7902 42.4264 39.0433 42.0639 39.1099 43.2671C39.152 44.0238 43.9036 44.1516 43.8124 44.9433C43.6826 46.0887 36.4553 45.5178 36.3834 46.6142C36.3308 47.4198 39.9112 47.4461 39.9182 48.18C39.9252 48.7982 37.1058 49.1345 31.7125 49.1345C25.5634 49.1345 22.5774 48.8035 22.9158 48.1134C23.2332 47.4689 28.6756 47.588 28.6213 46.5739C28.5652 45.5616 18.9568 45.861 18.6657 44.8785C18.4255 44.0623 21.8235 43.8942 21.8025 43.1183C21.7797 42.3284 17.4489 42.507 17.3542 41.5507C17.2928 40.9202 19.6178 40.9622 19.5178 40.1706C19.4442 39.5961 18.4834 39.6766 17.9153 38.4892C16.8201 36.1276 16.3381 33.5286 16.5135 30.9319C16.689 28.3352 17.5163 25.8244 18.9192 23.6313C20.3221 21.4382 22.2553 19.6333 24.5405 18.3832C26.8257 17.1331 29.3893 16.4781 31.9947 16.4786C34.5489 16.4779 37.0637 17.1073 39.3159 18.3107C41.568 19.5141 43.4879 21.2543 44.9051 23.3769C46.3223 25.4995 47.1929 27.9388 47.4397 30.4782C47.6865 33.0177 47.3017 35.5787 46.3197 37.9339C45.5921 39.5838 43.9527 39.2528 43.7651 39.9481H43.7686L43.7703 39.9464Z" fill="#2B1D3C"/>
</svg>
