<svg width="97" height="96" viewBox="0 0 97 96" fill="none" xmlns="http://www.w3.org/2000/svg">
<g filter="url(#filter0_d_16_8044)">
<path d="M6.66675 35.8667C6.66675 25.4124 6.66675 20.1852 8.70129 16.1922C10.4909 12.6798 13.3466 9.82418 16.8589 8.03455C20.8519 6 26.0791 6 36.5334 6H60.8001C71.2544 6 76.4816 6 80.4746 8.03455C83.9869 9.82418 86.8426 12.6798 88.6322 16.1922C90.6667 20.1852 90.6667 25.4124 90.6667 35.8667V60.1333C90.6667 70.5876 90.6667 75.8148 88.6322 79.8078C86.8426 83.3202 83.9869 86.1758 80.4746 87.9655C76.4816 90 71.2544 90 60.8001 90H36.5334C26.0791 90 20.8519 90 16.8589 87.9655C13.3466 86.1758 10.4909 83.3202 8.70129 79.8078C6.66675 75.8148 6.66675 70.5876 6.66675 60.1333V35.8667Z" fill="white"/>
<path d="M48.6729 37.353L38.2903 19.0299C38.635 18.6789 39.0316 18.4487 39.4282 18.2939C36.3665 19.3016 34.9616 22.7398 34.9616 22.7398L15.9941 56.2046C15.7272 57.2538 15.653 58.2011 15.6864 59.0351H36.3887L48.6729 37.353Z" fill="#34A853"/>
<path d="M48.6725 37.353L60.9567 59.0351H81.659C81.6924 58.2011 81.6183 57.2538 81.3514 56.2046L62.3838 22.7398C62.3838 22.7398 60.9753 19.3016 57.9172 18.2939C58.3101 18.4487 58.7104 18.6789 59.0552 19.0299L48.6725 37.353Z" fill="#FBBC05"/>
<path d="M48.6726 37.3533L59.0552 19.0301C58.7105 18.6792 58.3102 18.4489 57.9172 18.2942C57.465 18.147 56.9794 18.0489 56.4531 18.0225H55.9045H41.4407H40.8921C40.3694 18.0451 39.8801 18.1432 39.4279 18.2942C39.035 18.4489 38.6346 18.6792 38.2899 19.0301L48.6726 37.3533Z" fill="#188038"/>
<path d="M36.3921 59.0352L26.128 77.1507C26.128 77.1507 25.787 76.9847 25.3236 76.6412C26.7804 77.7621 28.1964 77.9999 28.1964 77.9999H68.5075C70.7315 77.9999 71.1949 77.1507 71.1949 77.1507C71.2023 77.147 71.206 77.1432 71.2134 77.1394L60.9568 59.0352H36.3921Z" fill="#4285F4"/>
<path d="M36.3929 59.0352H15.6906C15.7943 61.4959 16.8619 62.9338 16.8619 62.9338L17.6403 64.2849C17.6959 64.3642 17.7293 64.4094 17.7293 64.4094L19.4233 67.3834L23.2264 74.0032C23.3376 74.2711 23.4674 74.5164 23.6045 74.7504C23.6564 74.8297 23.7046 74.9165 23.7602 74.992C23.775 75.0146 23.7898 75.0373 23.8047 75.0599C24.2754 75.7241 24.8018 76.2374 25.3281 76.6412C25.7915 76.9885 26.1325 77.1507 26.1325 77.1507L36.3929 59.0352Z" fill="#1967D2"/>
<path d="M60.9568 59.0352H81.6591C81.5553 61.4959 80.4877 62.9338 80.4877 62.9338L79.7093 64.2849C79.6537 64.3642 79.6204 64.4094 79.6204 64.4094L77.9264 67.3834L74.1232 74.0032C74.012 74.2711 73.8823 74.5164 73.7451 74.7504C73.6932 74.8297 73.645 74.9165 73.5894 74.992C73.5746 75.0146 73.5598 75.0373 73.545 75.0599C73.0742 75.7241 72.5478 76.2374 72.0215 76.6412C71.5581 76.9885 71.2171 77.1507 71.2171 77.1507L60.9568 59.0352Z" fill="#EA4335"/>
</g>
<defs>
<filter id="filter0_d_16_8044" x="-1.33325" y="-1" width="100" height="100" filterUnits="userSpaceOnUse" color-interpolation-filters="sRGB">
<feFlood flood-opacity="0" result="BackgroundImageFix"/>
<feColorMatrix in="SourceAlpha" type="matrix" values="0 0 0 0 0 0 0 0 0 0 0 0 0 0 0 0 0 0 127 0" result="hardAlpha"/>
<feOffset dy="1"/>
<feGaussianBlur stdDeviation="1"/>
<feColorMatrix type="matrix" values="0 0 0 0 0.0627451 0 0 0 0 0.0941176 0 0 0 0 0.156863 0 0 0 0.05 0"/>
<feBlend mode="normal" in2="BackgroundImageFix" result="effect1_dropShadow_16_8044"/>
<feBlend mode="normal" in="SourceGraphic" in2="effect1_dropShadow_16_8044" result="shape"/>
</filter>
</defs>
</svg>
