<svg width="1358" height="780" viewBox="0 0 1358 780" fill="none" xmlns="http://www.w3.org/2000/svg">
<path opacity="0.8" d="M83.487 335.27L80.7887 332.485L80.2396 336.348L76.7578 338.055L80.2396 339.77L80.7887 343.633L83.487 340.841L87.317 341.484L85.5226 338.055L87.317 334.634L83.487 335.27Z" fill="white" fill-opacity="0.1"/>
<path opacity="0.8" d="M328.774 358.759L327.99 353.355L324.16 357.272L318.757 356.348L321.315 361.196L318.757 366.044L324.16 365.113L327.99 369.03L328.774 363.607L333.702 361.196L328.774 358.759Z" fill="white" fill-opacity="0.32"/>
<path opacity="0.8" d="M862.54 108.009L863.932 109.462L864.227 107.487L866.022 106.59L864.227 105.719L863.932 103.744L862.54 105.164L860.564 104.815L861.495 106.59L860.564 108.358L862.54 108.009Z" fill="white" fill-opacity="0.32"/>
<path opacity="0.8" d="M761.01 138.073L757.703 141.408L753.116 140.631L755.266 144.776L753.116 148.927L757.703 148.144L761.01 151.485L761.653 146.838L765.858 144.776L761.653 142.687L761.01 138.073Z" fill="white" fill-opacity="0.1"/>
<path opacity="0.8" d="M1264.35 45.337L1266.26 43.3618L1268.93 43.8238L1267.66 41.3865L1268.93 38.9827L1266.26 39.4447L1264.35 37.4695L1263.94 40.1679L1261.47 41.3865L1263.94 42.6051L1264.35 45.337Z" fill="white" fill-opacity="0.32"/>
<path opacity="0.8" d="M766.751 301.805L768.606 303.666L768.954 301.075L771.304 299.917L768.954 298.758L768.606 296.174L766.751 298.028L764.193 297.6L765.412 299.917L764.193 302.24L766.751 301.805Z" fill="white" fill-opacity="0.32"/>
<path opacity="0.8" d="M399.755 6.3408L396.447 2.94604L395.751 7.65316L391.452 9.76903L395.751 11.8849L396.447 16.592L399.755 13.1638L404.455 13.9807L402.252 9.76903L404.455 5.53061L399.755 6.3408Z" fill="white" fill-opacity="0.32"/>
<path opacity="0.8" d="M18.7595 90.2724L20.9959 86.0339L16.2888 86.8508L12.9543 83.4226L12.2512 88.1565L8.01953 90.2724L12.2512 92.3949L12.9543 97.0954L16.2888 93.7006L20.9959 94.484L18.7595 90.2724Z" fill="white" fill-opacity="0.1"/>
<path opacity="0.8" d="M492.833 394.936L496.054 391.628L500.64 392.378L498.498 388.287L500.64 384.196L496.054 384.979L492.833 381.672L492.17 386.258L487.985 388.287L492.17 390.349L492.833 394.936Z" fill="white" fill-opacity="0.32"/>
<path opacity="0.8" d="M202.766 341.893L206.596 345.81L207.379 340.379L212.314 337.969L207.379 335.532L206.596 330.101L202.766 334.052L197.362 333.121L199.92 337.969L197.362 342.817L202.766 341.893Z" fill="white"/>
<path opacity="0.8" d="M884.655 300.787L882.74 298.845L882.332 301.544L879.895 302.762L882.332 303.981L882.74 306.679L884.655 304.711L887.387 305.199L886.108 302.762L887.387 300.325L884.655 300.787Z" fill="white" fill-opacity="0.32"/>
<path opacity="0.8" d="M996.414 3.95049L995.865 0L993.046 2.87248L989.096 2.17612L990.984 5.71818L989.096 9.26024L993.046 8.59066L995.865 11.4631L996.414 7.48586L1000.02 5.71818L996.414 3.95049Z" fill="white" fill-opacity="0.32"/>
<path opacity="0.8" d="M878.046 18.6879L880.136 20.8372L880.577 17.871L883.276 16.5386L880.577 15.2061L880.136 12.2466L878.046 14.3959L875.087 13.9004L876.48 16.5386L875.087 19.1834L878.046 18.6879Z" fill="white" fill-opacity="0.26"/>
<path opacity="0.8" d="M324.1 66.5625L326.564 69.06L327.06 65.5782L330.22 64.0382L327.06 62.4714L326.564 59.0164L324.1 61.5139L320.672 60.9313L322.299 64.0382L320.672 67.145L324.1 66.5625Z" fill="white" fill-opacity="0.1"/>
<path opacity="0.8" d="M183.577 68.9731L185.961 66.509L189.382 67.0849L187.755 64.0383L189.382 60.9917L185.961 61.5676L183.577 59.1035L183.055 62.4983L179.981 64.0383L183.055 65.5783L183.577 68.9731Z" fill="white" fill-opacity="0.32"/>
<path opacity="0.8" d="M426.606 136.633L428.206 133.587L424.805 134.169L422.368 131.672L421.906 135.1L418.799 136.633L421.906 138.147L422.368 141.568L424.805 139.104L428.206 139.687L426.606 136.633Z" fill="white" fill-opacity="0.32"/>
<path opacity="0.8" d="M232.087 151.96L228.745 148.532L228.049 153.266L223.811 155.388L228.049 157.477L228.745 162.211L232.087 158.783L236.787 159.593L234.551 155.388L236.787 151.15L232.087 151.96Z" fill="white" fill-opacity="0.26"/>
<path opacity="0.8" d="M1033.13 143.155L1034.67 144.776L1035.02 142.546L1036.99 141.555L1035.02 140.571L1034.67 138.361L1033.13 139.961L1030.9 139.58L1031.94 141.555L1030.9 143.53L1033.13 143.155Z" fill="white" fill-opacity="0.32"/>
<path opacity="0.8" d="M770.524 90.9817L772.385 92.8699L772.733 90.2519L775.117 89.127L772.733 87.9619L772.385 85.3506L770.524 87.2388L767.973 86.7969L769.191 89.127L767.973 91.4169L770.524 90.9817Z" fill="white" fill-opacity="0.32"/>
<path opacity="0.8" d="M94.5615 83.744L99.965 78.1664L107.598 79.5056L103.996 72.6491L107.598 65.7726L99.965 67.0783L94.5615 61.5342L93.43 69.1941L86.4932 72.6491L93.43 76.0774L94.5615 83.744Z" fill="white" fill-opacity="0.26"/>
<path opacity="0.8" d="M499.341 90.0447L504.162 85.1099L510.985 86.2683L507.758 80.1751L510.985 74.0485L504.162 75.2136L499.341 70.2788L498.357 77.0951L492.177 80.1751L498.357 83.2217L499.341 90.0447Z" fill="white" fill-opacity="0.1"/>
<path opacity="0.8" d="M930.025 110.359L932.261 112.629L932.696 109.489L935.515 108.103L932.696 106.703L932.261 103.57L930.025 105.833L926.918 105.311L928.371 108.103L926.918 110.888L930.025 110.359Z" fill="white" fill-opacity="0.1"/>
<path opacity="0.8" d="M653.811 335.665L651.575 333.342L651.139 336.535L648.233 337.955L651.139 339.374L651.575 342.568L653.811 340.252L656.998 340.801L655.492 337.955L656.998 335.109L653.811 335.665Z" fill="white" fill-opacity="0.32"/>
<path opacity="0.8" d="M1116.22 20.3888L1121.13 17.9784L1116.22 15.5411L1115.44 10.1108L1111.61 14.0279L1106.21 13.1306L1108.76 17.9784L1106.21 22.8261L1111.61 21.9021L1115.44 25.8191L1116.22 20.3888Z" fill="white" fill-opacity="0.1"/>
<path opacity="0.8" d="M1197.54 329.552L1200.88 326.124L1205.58 326.941L1203.34 322.729L1205.58 318.49L1200.88 319.307L1197.54 315.913L1196.84 320.613L1192.58 322.729L1196.84 324.851L1197.54 329.552Z" fill="white" fill-opacity="0.1"/>
<path opacity="0.8" d="M1348.42 389.392L1350.57 385.301L1346.03 386.078L1342.79 382.77L1342.12 387.357L1337.96 389.392L1342.12 391.454L1342.79 396.041L1346.03 392.733L1350.57 393.483L1348.42 389.392Z" fill="white" fill-opacity="0.26"/>
<path opacity="0.8" d="M1070.25 320.647L1077.04 313.65L1086.68 315.304L1082.12 306.679L1086.68 298.062L1077.04 299.682L1070.25 292.719L1068.86 302.361L1060.09 306.679L1068.86 311.005L1070.25 320.647Z" fill="white" fill-opacity="0.32"/>
<path opacity="0.8" d="M1163.85 115.073L1165.48 112.027L1162.06 112.609L1159.68 110.112L1159.15 113.54L1156.07 115.073L1159.15 116.587L1159.68 120.008L1162.06 117.544L1165.48 118.127L1163.85 115.073Z" fill="white" fill-opacity="0.32"/>
<path opacity="0.8" d="M1346.38 92.4081L1351.2 87.4733L1358 88.6317L1354.8 82.5385L1358 76.4119L1351.2 77.5703L1346.38 72.6355L1345.4 79.4585L1339.18 82.5385L1345.4 85.5851L1346.38 92.4081Z" fill="white" fill-opacity="0.32"/>
<path opacity="0.8" d="M1274.51 443.827L1277.21 446.613L1277.76 442.749L1281.24 441.042L1277.76 439.328L1277.21 435.464L1274.51 438.256L1270.68 437.613L1272.48 441.042L1270.68 444.463L1274.51 443.827Z" fill="white" fill-opacity="0.1"/>
<path opacity="0.8" d="M1029.23 420.339L1030.01 425.742L1033.84 421.825L1039.24 422.749L1036.68 417.901L1039.24 413.054L1033.84 413.984L1030.01 410.067L1029.23 415.491L1024.3 417.901L1029.23 420.339Z" fill="white" fill-opacity="0.32"/>
<path opacity="0.8" d="M495.46 671.088L494.068 669.635L493.773 671.61L491.978 672.508L493.773 673.378L494.068 675.353L495.46 673.934L497.436 674.282L496.505 672.508L497.436 670.74L495.46 671.088Z" fill="white" fill-opacity="0.32"/>
<path opacity="0.8" d="M596.99 641.024L600.297 637.69L604.884 638.467L602.734 634.322L604.884 630.171L600.297 630.954L596.99 627.613L596.347 632.26L592.142 634.322L596.347 636.411L596.99 641.024Z" fill="white" fill-opacity="0.1"/>
<path opacity="0.8" d="M93.6481 733.76L91.7398 735.735L89.0682 735.273L90.3405 737.711L89.0682 740.114L91.7398 739.652L93.6481 741.628L94.0565 738.929L96.5273 737.711L94.0565 736.492L93.6481 733.76Z" fill="white" fill-opacity="0.32"/>
<path opacity="0.8" d="M591.249 477.292L589.394 475.431L589.046 478.022L586.696 479.181L589.046 480.339L589.394 482.924L591.249 481.069L593.807 481.497L592.588 479.181L593.807 476.857L591.249 477.292Z" fill="white" fill-opacity="0.32"/>
<path opacity="0.8" d="M958.244 772.757L961.552 776.152L962.248 771.444L966.547 769.329L962.248 767.213L961.552 762.506L958.244 765.934L953.544 765.117L955.747 769.329L953.544 773.567L958.244 772.757Z" fill="white" fill-opacity="0.32"/>
<path opacity="0.8" d="M1339.24 688.825L1337 693.063L1341.71 692.247L1345.05 695.675L1345.75 690.941L1349.98 688.825L1345.75 686.702L1345.05 682.002L1341.71 685.397L1337 684.613L1339.24 688.825Z" fill="white" fill-opacity="0.1"/>
<path opacity="0.8" d="M865.167 384.162L861.946 387.469L857.36 386.72L859.502 390.811L857.36 394.902L861.946 394.118L865.167 397.426L865.83 392.839L870.015 390.811L865.83 388.748L865.167 384.162Z" fill="white" fill-opacity="0.32"/>
<path opacity="0.8" d="M1155.24 437.205L1151.41 433.288L1150.62 438.718L1145.69 441.129L1150.62 443.566L1151.41 448.996L1155.24 445.046L1160.64 445.977L1158.08 441.129L1160.64 436.281L1155.24 437.205Z" fill="white"/>
<path opacity="0.8" d="M473.345 478.31L475.26 480.252L475.668 477.554L478.105 476.335L475.668 475.117L475.26 472.418L473.345 474.387L470.613 473.898L471.892 476.335L470.613 478.772L473.345 478.31Z" fill="white" fill-opacity="0.32"/>
<path opacity="0.8" d="M361.586 775.147L362.135 779.098L364.954 776.225L368.904 776.922L367.016 773.379L368.904 769.837L364.954 770.507L362.135 767.635L361.586 771.612L357.983 773.379L361.586 775.147Z" fill="white" fill-opacity="0.32"/>
<path opacity="0.8" d="M479.954 760.41L477.864 758.26L477.423 761.227L474.724 762.559L477.423 763.892L477.864 766.851L479.954 764.702L482.913 765.197L481.52 762.559L482.913 759.914L479.954 760.41Z" fill="white" fill-opacity="0.26"/>
<path opacity="0.8" d="M1033.9 712.535L1031.44 710.037L1030.94 713.519L1027.78 715.059L1030.94 716.626L1031.44 720.081L1033.9 717.583L1037.33 718.166L1035.7 715.059L1037.33 711.952L1033.9 712.535Z" fill="white" fill-opacity="0.1"/>
<path opacity="0.8" d="M1174.42 710.125L1172.04 712.589L1168.62 712.013L1170.24 715.059L1168.62 718.106L1172.04 717.53L1174.42 719.994L1174.94 716.599L1178.02 715.059L1174.94 713.519L1174.42 710.125Z" fill="white" fill-opacity="0.32"/>
<path opacity="0.8" d="M931.394 642.464L929.794 645.511L933.195 644.928L935.632 647.426L936.094 643.997L939.201 642.464L936.094 640.951L935.632 637.529L933.195 639.993L929.794 639.411L931.394 642.464Z" fill="white" fill-opacity="0.32"/>
<path opacity="0.8" d="M1125.91 627.137L1129.25 630.565L1129.95 625.832L1134.19 623.709L1129.95 621.62L1129.25 616.886L1125.91 620.314L1121.21 619.504L1123.45 623.709L1121.21 627.947L1125.91 627.137Z" fill="white" fill-opacity="0.26"/>
<path opacity="0.8" d="M324.866 635.942L323.326 634.322L322.985 636.551L321.009 637.542L322.985 638.527L323.326 640.736L324.866 639.136L327.103 639.518L326.058 637.542L327.103 635.567L324.866 635.942Z" fill="white" fill-opacity="0.32"/>
<path opacity="0.8" d="M587.476 688.115L585.615 686.227L585.267 688.845L582.883 689.97L585.267 691.135L585.615 693.747L587.476 691.858L590.027 692.3L588.809 689.97L590.027 687.68L587.476 688.115Z" fill="white" fill-opacity="0.32"/>
<path opacity="0.8" d="M1263.44 695.354L1258.03 700.931L1250.4 699.592L1254 706.449L1250.4 713.325L1258.03 712.019L1263.44 717.563L1264.57 709.904L1271.51 706.449L1264.57 703.02L1263.44 695.354Z" fill="white" fill-opacity="0.26"/>
<path opacity="0.8" d="M858.659 689.053L853.838 693.988L847.015 692.829L850.242 698.923L847.015 705.049L853.838 703.884L858.659 708.819L859.643 702.003L865.823 698.923L859.643 695.876L858.659 689.053Z" fill="white" fill-opacity="0.1"/>
<path opacity="0.8" d="M427.974 668.738L425.738 666.468L425.303 669.608L422.484 670.994L425.303 672.394L425.738 675.527L427.974 673.264L431.081 673.786L429.628 670.994L431.081 668.209L427.974 668.738Z" fill="white" fill-opacity="0.1"/>
<path opacity="0.8" d="M704.189 443.432L706.425 445.756L706.861 442.562L709.767 441.142L706.861 439.723L706.425 436.529L704.189 438.846L701.002 438.297L702.508 441.142L701.002 443.988L704.189 443.432Z" fill="white" fill-opacity="0.32"/>
<path opacity="0.8" d="M241.782 758.709L236.874 761.119L241.782 763.556L242.565 768.987L246.395 765.07L251.792 765.967L249.241 761.119L251.792 756.271L246.395 757.195L242.565 753.278L241.782 758.709Z" fill="white" fill-opacity="0.1"/>
<path opacity="0.8" d="M160.46 449.545L157.119 452.974L152.419 452.157L154.655 456.368L152.419 460.607L157.119 459.79L160.46 463.185L161.157 458.484L165.422 456.368L161.157 454.246L160.46 449.545Z" fill="white" fill-opacity="0.1"/>
<path opacity="0.8" d="M9.583 389.705L7.43369 393.796L11.9667 393.02L15.2141 396.327L15.8837 391.741L20.0352 389.705L15.8837 387.643L15.2141 383.056L11.9667 386.364L7.43369 385.614L9.583 389.705Z" fill="white" fill-opacity="0.26"/>
<path opacity="0.8" d="M287.751 458.451L280.961 465.448L271.319 463.794L275.879 472.418L271.319 481.036L280.961 479.415L287.751 486.379L289.143 476.737L297.908 472.418L289.143 468.093L287.751 458.451Z" fill="white" fill-opacity="0.32"/>
<path opacity="0.8" d="M194.146 664.024L192.519 667.071L195.941 666.488L198.324 668.986L198.847 665.557L201.927 664.024L198.847 662.511L198.324 659.089L195.941 661.553L192.519 660.971L194.146 664.024Z" fill="white" fill-opacity="0.32"/>
<path opacity="0.8" d="M11.6175 686.689L6.79657 691.624L0.000278725 690.466L3.19417 696.559L0.000277657 702.686L6.79657 701.527L11.6175 706.462L12.6017 699.639L18.8154 696.559L12.6017 693.512L11.6175 686.689Z" fill="white" fill-opacity="0.32"/>
</svg>
