<svg width="100" height="100" viewBox="0 0 100 100" fill="none" xmlns="http://www.w3.org/2000/svg">
<path d="M41.6693 82.282V68.332C41.6693 62.9879 45.8143 58.7804 51.9472 56.3824C48.0989 54.9487 43.9339 54.1654 39.5859 54.1654C31.7115 54.1654 24.4373 56.7354 18.5562 61.082C22.2192 71.4754 30.889 79.507 41.6693 82.282ZM78.6668 67.0233C77.0284 64.8012 71.5476 62.4987 64.5859 62.4987C56.2272 62.4987 50.0026 65.8183 50.0026 68.332V83.332C62.1922 83.332 72.8539 76.7887 78.6668 67.0233ZM39.7943 47.9154C44.9718 47.9154 49.1693 43.7179 49.1693 38.5404C49.1693 33.3627 44.9718 29.1654 39.7943 29.1654C34.6166 29.1654 30.4193 33.3627 30.4193 38.5404C30.4193 43.7179 34.6166 47.9154 39.7943 47.9154ZM64.5859 52.082C69.1884 52.082 72.9193 48.3512 72.9193 43.7487C72.9193 39.1463 69.1884 35.4154 64.5859 35.4154C59.9834 35.4154 56.2526 39.1463 56.2526 43.7487C56.2526 48.3512 59.9834 52.082 64.5859 52.082ZM50.0026 91.6654C26.9907 91.6654 8.33594 73.0104 8.33594 49.9987C8.33594 26.9868 26.9907 8.33203 50.0026 8.33203C73.0143 8.33203 91.6693 26.9868 91.6693 49.9987C91.6693 73.0104 73.0143 91.6654 50.0026 91.6654Z" fill="white"/>
</svg>
