<svg width="1742" height="1046" viewBox="0 0 1742 1046" fill="none" xmlns="http://www.w3.org/2000/svg">
<rect width="1096.69" height="83.3521" rx="10" transform="matrix(0.866044 -0.499967 0.866044 0.499967 205.266 558.307)" stroke="white" stroke-width="1.5"/>
<rect width="159.75" height="91.9044" rx="5" transform="matrix(0.866044 -0.499967 0.866044 0.499967 346.893 639.543)" stroke="white" stroke-width="1.5"/>
<rect width="547.959" height="160.221" rx="10" transform="matrix(-0.866044 -0.499967 0.866044 -0.499967 586.066 1015.14)" stroke="white" stroke-width="1.5"/>
<rect width="159.75" height="91.9044" rx="5" transform="matrix(0.866044 -0.499967 0.866044 0.499967 534.158 531.436)" stroke="white" stroke-width="1.5"/>
<rect width="159.75" height="91.9044" rx="5" transform="matrix(0.866044 -0.499967 0.866044 0.499967 721.422 423.328)" stroke="white" stroke-width="1.5"/>
<rect width="159.75" height="91.9044" rx="5" transform="matrix(0.866044 -0.499967 0.866044 0.499967 908.688 315.221)" stroke="white" stroke-width="1.5"/>
<rect width="159.75" height="91.9044" rx="5" transform="matrix(0.866044 -0.499967 0.866044 0.499967 520.164 739.572)" stroke="white" stroke-width="1.5"/>
<rect width="159.75" height="91.9044" rx="5" transform="matrix(0.866044 -0.499967 0.866044 0.499967 707.428 631.465)" stroke="white" stroke-width="1.5"/>
<rect width="159.75" height="292.062" rx="5" transform="matrix(0.866044 -0.499967 0.866044 0.499967 721.348 423.285)" stroke="white" stroke-width="1.5"/>
<rect width="159.75" height="91.9044" rx="5" transform="matrix(0.866044 -0.499967 0.866044 0.499967 1081.96 415.25)" stroke="white" stroke-width="1.5"/>
<rect width="159.75" height="91.9044" rx="5" transform="matrix(0.866044 -0.499967 0.866044 0.499967 879.352 730.557)" stroke="white" stroke-width="1.5"/>
<rect width="159.75" height="91.9044" rx="5" transform="matrix(0.866044 -0.499967 0.866044 0.499967 692.088 838.664)" stroke="white" stroke-width="1.5"/>
<rect width="159.75" height="91.9044" rx="5" transform="matrix(0.866044 -0.499967 0.866044 0.499967 1066.6 622.6)" stroke="white" stroke-width="1.5"/>
<rect width="159.75" height="91.9044" rx="5" transform="matrix(0.866044 -0.499967 0.866044 0.499967 1253.86 514.492)" stroke="white" stroke-width="1.5"/>
<rect width="1096.69" height="83.3521" rx="10" transform="matrix(0.866044 -0.499967 0.866044 0.499967 205.266 568.307)" stroke="white" stroke-width="1.5"/>
<rect width="159.75" height="91.9044" rx="5" transform="matrix(0.866044 -0.499967 0.866044 0.499967 346.893 649.543)" stroke="white" stroke-width="1.5"/>
<rect width="547.959" height="160.221" rx="10" transform="matrix(-0.866044 -0.499967 0.866044 -0.499967 586.066 1025.14)" stroke="white" stroke-width="1.5"/>
<rect width="159.75" height="91.9044" rx="5" transform="matrix(0.866044 -0.499967 0.866044 0.499967 534.158 541.436)" stroke="white" stroke-width="1.5"/>
<rect width="159.75" height="91.9044" rx="5" transform="matrix(0.866044 -0.499967 0.866044 0.499967 721.422 433.328)" stroke="white" stroke-width="1.5"/>
<rect width="159.75" height="91.9044" rx="5" transform="matrix(0.866044 -0.499967 0.866044 0.499967 908.688 325.221)" stroke="white" stroke-width="1.5"/>
<rect width="159.75" height="91.9044" rx="5" transform="matrix(0.866044 -0.499967 0.866044 0.499967 520.164 749.572)" stroke="white" stroke-width="1.5"/>
<rect width="159.75" height="293.786" rx="5" transform="matrix(0.866044 -0.499967 0.866044 0.499967 707.428 641.465)" stroke="white" stroke-width="1.5"/>
<rect width="159.75" height="91.9044" rx="5" transform="matrix(0.866044 -0.499967 0.866044 0.499967 894.691 533.357)" stroke="white" stroke-width="1.5"/>
<rect width="159.75" height="91.9044" rx="5" transform="matrix(0.866044 -0.499967 0.866044 0.499967 1081.96 425.25)" stroke="white" stroke-width="1.5"/>
<rect width="159.75" height="91.9044" rx="5" transform="matrix(0.866044 -0.499967 0.866044 0.499967 879.352 740.557)" stroke="white" stroke-width="1.5"/>
<rect width="159.75" height="91.9044" rx="5" transform="matrix(0.866044 -0.499967 0.866044 0.499967 692.088 848.664)" stroke="white" stroke-width="1.5"/>
<rect width="159.75" height="91.9044" rx="5" transform="matrix(0.866044 -0.499967 0.866044 0.499967 1066.6 632.6)" stroke="white" stroke-width="1.5"/>
<rect width="159.75" height="91.9044" rx="5" transform="matrix(0.866044 -0.499967 0.866044 0.499967 1253.86 524.492)" stroke="white" stroke-width="1.5"/>
<rect width="1096.69" height="83.3521" rx="10" transform="matrix(0.866044 -0.499967 0.866044 0.499967 205.266 578.307)" stroke="white" stroke-width="1.5"/>
<rect width="159.75" height="91.9044" rx="5" transform="matrix(0.866044 -0.499967 0.866044 0.499967 346.893 659.543)" stroke="white" stroke-width="1.5"/>
<rect width="547.959" height="160.221" rx="10" transform="matrix(-0.866044 -0.499967 0.866044 -0.499967 586.066 1035.14)" stroke="white" stroke-width="1.5"/>
<rect width="159.75" height="91.9044" rx="5" transform="matrix(0.866044 -0.499967 0.866044 0.499967 534.158 551.436)" stroke="white" stroke-width="1.5"/>
<rect width="159.75" height="91.9044" rx="5" transform="matrix(0.866044 -0.499967 0.866044 0.499967 721.422 443.328)" stroke="white" stroke-width="1.5"/>
<rect width="159.75" height="91.9044" rx="5" transform="matrix(0.866044 -0.499967 0.866044 0.499967 908.688 335.221)" stroke="white" stroke-width="1.5"/>
<rect width="375.657" height="91.9044" rx="5" transform="matrix(0.866044 -0.499967 0.866044 0.499967 520.164 759.572)" stroke="white" stroke-width="1.5"/>
<rect width="159.75" height="91.9044" rx="5" transform="matrix(0.866044 -0.499967 0.866044 0.499967 707.428 651.465)" stroke="white" stroke-width="1.5"/>
<rect width="159.75" height="91.9044" rx="5" transform="matrix(0.866044 -0.499967 0.866044 0.499967 894.691 543.357)" stroke="white" stroke-width="1.5"/>
<rect width="159.75" height="91.9044" rx="5" transform="matrix(0.866044 -0.499967 0.866044 0.499967 1081.96 435.25)" stroke="white" stroke-width="1.5"/>
<rect width="159.75" height="91.9044" rx="5" transform="matrix(0.866044 -0.499967 0.866044 0.499967 879.352 750.557)" stroke="white" stroke-width="1.5"/>
<rect width="159.75" height="91.9044" rx="5" transform="matrix(0.866044 -0.499967 0.866044 0.499967 692.088 858.664)" stroke="white" stroke-width="1.5"/>
<rect width="159.75" height="91.9044" rx="5" transform="matrix(0.866044 -0.499967 0.866044 0.499967 1066.6 642.6)" stroke="white" stroke-width="1.5"/>
<rect width="159.75" height="91.9044" rx="5" transform="matrix(0.866044 -0.499967 0.866044 0.499967 1253.86 534.492)" stroke="white" stroke-width="1.5"/>
<rect width="1096.69" height="83.3521" rx="10" transform="matrix(0.866044 -0.499967 0.866044 0.499967 205.266 588.307)" stroke="white" stroke-width="1.5"/>
<rect width="159.75" height="292.063" rx="5" transform="matrix(0.866044 -0.499967 0.866044 0.499967 346.893 669.543)" stroke="white" stroke-width="1.5"/>
<rect width="547.959" height="160.221" rx="10" transform="matrix(-0.866044 -0.499967 0.866044 -0.499967 586.066 1045.14)" stroke="white" stroke-width="1.5"/>
<rect width="159.75" height="91.9044" rx="5" transform="matrix(0.866044 -0.499967 0.866044 0.499967 534.158 561.436)" stroke="white" stroke-width="1.5"/>
<rect width="159.75" height="91.9044" rx="5" transform="matrix(0.866044 -0.499967 0.866044 0.499967 721.422 453.328)" stroke="white" stroke-width="1.5"/>
<rect width="159.75" height="91.9044" rx="5" transform="matrix(0.866044 -0.499967 0.866044 0.499967 908.688 345.221)" stroke="white" stroke-width="1.5"/>
<rect width="159.75" height="91.9044" rx="5" transform="matrix(0.866044 -0.499967 0.866044 0.499967 520.164 769.572)" stroke="white" stroke-width="1.5"/>
<rect width="159.75" height="91.9044" rx="5" transform="matrix(0.866044 -0.499967 0.866044 0.499967 707.428 661.465)" stroke="white" stroke-width="1.5"/>
<rect width="159.75" height="91.9044" rx="5" transform="matrix(0.866044 -0.499967 0.866044 0.499967 894.691 553.357)" stroke="white" stroke-width="1.5"/>
<rect width="159.75" height="91.9044" rx="5" transform="matrix(0.866044 -0.499967 0.866044 0.499967 1081.96 445.25)" stroke="white" stroke-width="1.5"/>
<rect width="159.75" height="91.9044" rx="5" transform="matrix(0.866044 -0.499967 0.866044 0.499967 879.352 760.557)" stroke="white" stroke-width="1.5"/>
<rect width="159.75" height="91.9044" rx="5" transform="matrix(0.866044 -0.499967 0.866044 0.499967 692.088 868.664)" stroke="white" stroke-width="1.5"/>
<rect width="159.75" height="91.9044" rx="5" transform="matrix(0.866044 -0.499967 0.866044 0.499967 1066.6 652.6)" stroke="white" stroke-width="1.5"/>
<rect width="159.75" height="91.9044" rx="5" transform="matrix(0.866044 -0.499967 0.866044 0.499967 1253.86 544.492)" stroke="white" stroke-width="1.5"/>
<rect x="1.29907" width="1095.19" height="81.8521" rx="9.25" transform="matrix(0.866044 -0.499967 0.866044 0.499967 205.442 548.958)" fill="#1F1D2A" stroke="white" stroke-width="1.5"/>
<rect x="1.29907" width="158.25" height="90.4044" rx="4.25" transform="matrix(0.866044 -0.499967 0.866044 0.499967 347.069 630.194)" fill="#1F1D2A" stroke="white" stroke-width="1.5"/>
<rect x="1.29907" width="371.998" height="40.839" rx="20.4195" transform="matrix(0.866044 -0.499967 0.866044 0.499967 249.639 543.948)" stroke="white" stroke-width="1.5"/>
<rect x="-1.3411e-07" y="-0.749951" width="546.459" height="158.721" rx="9.25" transform="matrix(-0.866044 -0.499967 0.866044 -0.499967 586.716 1004.02)" fill="#1F1D2A" stroke="white" stroke-width="1.5"/>
<rect x="1.29907" width="159.061" height="40.839" rx="20.4195" transform="matrix(0.866044 -0.499967 0.866044 0.499967 623.465 328.138)" stroke="white" stroke-width="1.5"/>
<rect x="1.29907" width="212.968" height="40.839" rx="20.4195" transform="matrix(0.866044 -0.499967 0.866044 0.499967 811.432 219.624)" stroke="white" stroke-width="1.5"/>
<rect x="1.29907" width="158.25" height="90.4044" rx="4.25" transform="matrix(0.866044 -0.499967 0.866044 0.499967 534.332 522.087)" fill="#1F1D2A" stroke="white" stroke-width="1.5"/>
<circle cx="45.9465" cy="45.9465" r="45.1965" transform="matrix(0.866044 -0.499967 0.866044 0.499967 165.258 728.643)" fill="#1F1D2A" stroke="white" stroke-width="1.5"/>
<circle cx="45.9465" cy="45.9465" r="45.1965" transform="matrix(0.866044 -0.499967 0.866044 0.499967 165.258 728.643)" fill="#1F1D2A" stroke="white" stroke-width="1.5"/>
<rect x="1.29907" width="321.4" height="90.4044" rx="4.25" transform="matrix(0.866044 -0.499967 0.866044 0.499967 721.596 413.98)" fill="#1F1D2A" stroke="white" stroke-width="1.5"/>
<rect x="1.29907" width="158.25" height="90.4044" rx="4.25" transform="matrix(0.866044 -0.499967 0.866044 0.499967 908.862 305.87)" fill="#1F1D2A" stroke="white" stroke-width="1.5"/>
<rect x="1.29907" width="158.25" height="90.4044" rx="4.25" transform="matrix(0.866044 -0.499967 0.866044 0.499967 520.338 730.224)" fill="#1F1D2A" stroke="white" stroke-width="1.5"/>
<rect x="1.29907" width="158.25" height="90.4044" rx="4.25" transform="matrix(0.866044 -0.499967 0.866044 0.499967 707.604 622.114)" fill="#1F1D2A" stroke="white" stroke-width="1.5"/>
<circle cx="45.9465" cy="45.9465" r="45.1965" transform="matrix(0.866044 -0.499967 0.866044 0.499967 338.527 828.672)" stroke="white" stroke-width="1.5"/>
<rect x="1.29907" width="158.25" height="90.4044" rx="4.25" transform="matrix(0.866044 -0.499967 0.866044 0.499967 894.867 514.007)" fill="#1F1D2A" stroke="white" stroke-width="1.5"/>
<rect opacity="0.25" width="159.75" height="91.9044" rx="5" transform="matrix(0.866044 -0.499967 0.866044 0.499967 1081.96 405.25)" fill="white"/>
<rect x="1.29907" width="158.25" height="90.4044" rx="4.25" transform="matrix(0.866044 -0.499967 0.866044 0.499967 879.528 721.208)" fill="#1F1D2A" stroke="white" stroke-width="1.5"/>
<rect x="1.29907" width="158.25" height="90.4044" rx="4.25" transform="matrix(0.866044 -0.499967 0.866044 0.499967 692.262 829.316)" fill="#1F1D2A" stroke="white" stroke-width="1.5"/>
<circle cx="45.9465" cy="45.9465" r="45.1965" transform="matrix(0.866044 -0.499967 0.866044 0.499967 520.424 927.908)" stroke="white" stroke-width="1.5"/>
<rect opacity="0.25" x="1.29907" width="158.25" height="90.4044" rx="4.25" transform="matrix(0.866044 -0.499967 0.866044 0.499967 1066.77 613.249)" stroke="white" stroke-width="1.5"/>
<rect opacity="0.25" x="1.29907" width="158.25" height="90.4044" rx="4.25" transform="matrix(0.866044 -0.499967 0.866044 0.499967 1254.04 505.142)" stroke="white" stroke-width="1.5"/>
</svg>
