<svg width="328" height="371" viewBox="0 0 328 371" fill="none" xmlns="http://www.w3.org/2000/svg">
<path d="M0 79C0 67.9543 8.95431 59 20 59H308C319.046 59 328 67.9543 328 79V371H0V79Z" fill="#04130A"/>
<path d="M21 72H308C312.971 72 317 76.0294 317 81V370H12V81C12 76.0294 16.0294 72 21 72Z" fill="url(#paint0_linear_96_4294)" stroke="url(#paint1_linear_96_4294)" stroke-width="2"/>
<rect opacity="0.23" x="30" y="72" width="22" height="298" fill="url(#paint2_linear_96_4294)" stroke="url(#paint3_linear_96_4294)" stroke-width="2"/>
<rect opacity="0.23" x="79" y="72" width="22" height="298" fill="url(#paint4_linear_96_4294)" stroke="url(#paint5_linear_96_4294)" stroke-width="2"/>
<rect opacity="0.23" x="128" y="72" width="22" height="298" fill="url(#paint6_linear_96_4294)" stroke="url(#paint7_linear_96_4294)" stroke-width="2"/>
<rect opacity="0.23" x="177" y="72" width="22" height="298" fill="url(#paint8_linear_96_4294)" stroke="url(#paint9_linear_96_4294)" stroke-width="2"/>
<rect opacity="0.23" x="226" y="72" width="22" height="298" fill="url(#paint10_linear_96_4294)" stroke="url(#paint11_linear_96_4294)" stroke-width="2"/>
<rect opacity="0.23" x="275" y="72" width="22" height="298" fill="url(#paint12_linear_96_4294)" stroke="url(#paint13_linear_96_4294)" stroke-width="2"/>
<path d="M52 28V54.5M52 81V54.5M52 54.5H77C77.5523 54.5 78 54.9477 78 55.5V81V28" stroke="url(#paint14_linear_96_4294)" stroke-width="2" stroke-linecap="square"/>
<path d="M46.6963 4.31186C47.4643 4.31186 48.211 4.24786 48.9363 4.11986C49.6616 3.99186 50.3123 3.77852 50.8883 3.47986C51.4856 3.18119 51.987 2.79719 52.3923 2.32786C52.819 1.85852 53.0963 1.28252 53.2243 0.599855H56.2003V22.9999H52.2003V7.19186H46.6963V4.31186Z" fill="#5A9B79"/>
<path d="M79.0055 22.9999H63.7095C63.7309 21.1439 64.1789 19.5225 65.0535 18.1359C65.9282 16.7492 67.1229 15.5439 68.6375 14.5199C69.3629 13.9865 70.1202 13.4745 70.9095 12.9839C71.6989 12.4719 72.4242 11.9279 73.0855 11.3519C73.7469 10.7759 74.2909 10.1572 74.7175 9.49586C75.1442 8.81319 75.3682 8.03452 75.3895 7.15986C75.3895 6.75452 75.3362 6.32786 75.2295 5.87986C75.1442 5.41052 74.9629 4.98386 74.6855 4.59986C74.4082 4.19452 74.0242 3.86386 73.5335 3.60786C73.0429 3.33052 72.4029 3.19186 71.6135 3.19186C70.8882 3.19186 70.2802 3.34119 69.7895 3.63986C69.3202 3.91719 68.9362 4.31186 68.6375 4.82386C68.3602 5.31452 68.1469 5.90119 67.9975 6.58386C67.8695 7.26652 67.7949 8.00252 67.7735 8.79186H64.1255C64.1255 7.55452 64.2855 6.41319 64.6055 5.36786C64.9469 4.30119 65.4482 3.38386 66.1095 2.61586C66.7709 1.84786 67.5709 1.25052 68.5095 0.823856C69.4695 0.375856 70.5789 0.151855 71.8375 0.151855C73.2029 0.151855 74.3442 0.375856 75.2615 0.823856C76.1789 1.27186 76.9149 1.83719 77.4695 2.51986C78.0455 3.20252 78.4509 3.94919 78.6855 4.75986C78.9202 5.54919 79.0375 6.30652 79.0375 7.03186C79.0375 7.92786 78.8989 8.73852 78.6215 9.46386C78.3442 10.1892 77.9709 10.8612 77.5015 11.4799C77.0322 12.0772 76.4989 12.6319 75.9015 13.1439C75.3042 13.6559 74.6855 14.1359 74.0455 14.5839C73.4055 15.0319 72.7655 15.4585 72.1255 15.8639C71.4855 16.2692 70.8882 16.6745 70.3335 17.0799C69.8002 17.4852 69.3309 17.9119 68.9255 18.3599C68.5202 18.7865 68.2429 19.2452 68.0935 19.7359H79.0055V22.9999Z" fill="#5A9B79"/>
<defs>
<linearGradient id="paint0_linear_96_4294" x1="164.5" y1="71" x2="164.5" y2="371" gradientUnits="userSpaceOnUse">
<stop stop-color="#123A1C"/>
<stop offset="1" stop-color="#071D0D"/>
</linearGradient>
<linearGradient id="paint1_linear_96_4294" x1="164.5" y1="71" x2="164.5" y2="371" gradientUnits="userSpaceOnUse">
<stop stop-color="#1A5024"/>
<stop offset="1" stop-color="#1A5024" stop-opacity="0"/>
</linearGradient>
<linearGradient id="paint2_linear_96_4294" x1="41" y1="71" x2="41" y2="366.946" gradientUnits="userSpaceOnUse">
<stop stop-color="#B3E2BA" stop-opacity="0.32"/>
<stop offset="1" stop-color="#A9DEB0" stop-opacity="0"/>
</linearGradient>
<linearGradient id="paint3_linear_96_4294" x1="41" y1="71" x2="41" y2="371" gradientUnits="userSpaceOnUse">
<stop stop-color="#B0F3D3" stop-opacity="0.5"/>
<stop offset="1" stop-color="#5DC693" stop-opacity="0"/>
</linearGradient>
<linearGradient id="paint4_linear_96_4294" x1="90" y1="71" x2="90" y2="366.946" gradientUnits="userSpaceOnUse">
<stop stop-color="#B3E2BA" stop-opacity="0.32"/>
<stop offset="1" stop-color="#A9DEB0" stop-opacity="0"/>
</linearGradient>
<linearGradient id="paint5_linear_96_4294" x1="90" y1="71" x2="90" y2="371" gradientUnits="userSpaceOnUse">
<stop stop-color="#B0F3D3" stop-opacity="0.5"/>
<stop offset="1" stop-color="#5DC693" stop-opacity="0"/>
</linearGradient>
<linearGradient id="paint6_linear_96_4294" x1="139" y1="71" x2="139" y2="366.946" gradientUnits="userSpaceOnUse">
<stop stop-color="#B3E2BA" stop-opacity="0.32"/>
<stop offset="1" stop-color="#A9DEB0" stop-opacity="0"/>
</linearGradient>
<linearGradient id="paint7_linear_96_4294" x1="139" y1="71" x2="139" y2="371" gradientUnits="userSpaceOnUse">
<stop stop-color="#B0F3D3" stop-opacity="0.5"/>
<stop offset="1" stop-color="#5DC693" stop-opacity="0"/>
</linearGradient>
<linearGradient id="paint8_linear_96_4294" x1="188" y1="71" x2="188" y2="366.946" gradientUnits="userSpaceOnUse">
<stop stop-color="#B3E2BA" stop-opacity="0.32"/>
<stop offset="1" stop-color="#A9DEB0" stop-opacity="0"/>
</linearGradient>
<linearGradient id="paint9_linear_96_4294" x1="188" y1="71" x2="188" y2="371" gradientUnits="userSpaceOnUse">
<stop stop-color="#B0F3D3" stop-opacity="0.5"/>
<stop offset="1" stop-color="#5DC693" stop-opacity="0"/>
</linearGradient>
<linearGradient id="paint10_linear_96_4294" x1="237" y1="71" x2="237" y2="366.946" gradientUnits="userSpaceOnUse">
<stop stop-color="#B3E2BA" stop-opacity="0.32"/>
<stop offset="1" stop-color="#A9DEB0" stop-opacity="0"/>
</linearGradient>
<linearGradient id="paint11_linear_96_4294" x1="237" y1="71" x2="237" y2="371" gradientUnits="userSpaceOnUse">
<stop stop-color="#B0F3D3" stop-opacity="0.5"/>
<stop offset="1" stop-color="#5DC693" stop-opacity="0"/>
</linearGradient>
<linearGradient id="paint12_linear_96_4294" x1="286" y1="71" x2="286" y2="366.946" gradientUnits="userSpaceOnUse">
<stop stop-color="#B3E2BA" stop-opacity="0.32"/>
<stop offset="1" stop-color="#A9DEB0" stop-opacity="0"/>
</linearGradient>
<linearGradient id="paint13_linear_96_4294" x1="286" y1="71" x2="286" y2="371" gradientUnits="userSpaceOnUse">
<stop stop-color="#B0F3D3" stop-opacity="0.5"/>
<stop offset="1" stop-color="#5DC693" stop-opacity="0"/>
</linearGradient>
<linearGradient id="paint14_linear_96_4294" x1="65" y1="28" x2="65" y2="81" gradientUnits="userSpaceOnUse">
<stop stop-color="#B0F3D3" stop-opacity="0.5"/>
<stop offset="1" stop-color="#60CB97" stop-opacity="0.75"/>
</linearGradient>
</defs>
</svg>
