<svg width="100" height="100" viewBox="0 0 100 100" fill="none" xmlns="http://www.w3.org/2000/svg">
<path d="M22.9128 8.33203C20.8114 8.33203 19.0389 9.89678 18.7783 11.9819L12.5283 61.982C12.5068 62.1533 12.4961 62.3258 12.4961 62.4987V87.4987C12.4961 89.7999 14.3616 91.6654 16.6628 91.6654H83.3294C85.6307 91.6654 87.4961 89.7999 87.4961 87.4987V62.4987C87.4961 62.3258 87.4852 62.1533 87.464 61.982L81.214 11.9819C80.9532 9.89678 79.1807 8.33203 77.0794 8.33203H22.9128ZM20.8294 66.6654H79.1628V83.332H20.8294V66.6654ZM62.4961 70.832H70.8294V79.1654H62.4961V70.832ZM54.1628 70.832H45.8294V79.1654H54.1628V70.832Z" fill="white"/>
</svg>
