<svg width="100" height="100" viewBox="0 0 100 100" fill="none" xmlns="http://www.w3.org/2000/svg">
<g clip-path="url(#clip0_2954_11782)">
<path d="M57.0828 40.5225H30.2734V60.6662H57.0828L61.4625 50.3063L57.0828 40.5225Z" fill="#D631B9"/>
<path d="M55.1603 4H74.1516C76.7412 4 79.0605 5.49854 79.9641 7.75765L96.6341 49.3987C96.7627 49.7187 96.7641 50.0755 96.6379 50.3965L96.5434 50.6337V50.6374L79.9452 93.1463C79.053 95.428 76.7242 96.9473 74.1138 96.9473H55.1263C54.0583 96.9473 53.3116 95.9665 53.6613 95.027L70.7775 49.3987L53.7048 5.93907C53.3343 4.99777 54.0828 4 55.1603 4Z" fill="white"/>
<path d="M5.58883 4H24.5782C27.1678 4 29.4872 5.49854 30.3907 7.75765L47.0608 49.3987C47.1894 49.7187 47.1907 50.0755 47.0646 50.3965L46.97 50.6337V50.6374L30.3718 93.1463C29.4796 95.428 27.1508 96.9473 24.5404 96.9473H5.55291C4.48492 96.9473 3.73828 95.9665 4.08986 95.027L21.2022 49.3987L4.13334 5.93907C3.76285 4.99777 4.51139 4 5.58883 4Z" fill="white"/>
<path d="M68.0476 40.5225H41.2383V60.6662H68.0476L72.4273 50.3063L68.0476 40.5225Z" fill="white"/>
</g>
<defs>
<clipPath id="clip0_2954_11782">
<rect width="93" height="93" fill="white" transform="translate(4 4)"/>
</clipPath>
</defs>
</svg>
