<svg width="40" height="40" viewBox="0 0 40 40" fill="none" xmlns="http://www.w3.org/2000/svg">
<path d="M31.5699 8.76025C29.4121 7.78213 27.105 7.07127 24.693 6.6665C24.3967 7.1854 24.0506 7.88333 23.812 8.43853C21.248 8.06493 18.7075 8.06493 16.1905 8.43853C15.952 7.88333 15.598 7.1854 15.2992 6.6665C12.8845 7.07127 10.5747 7.78474 8.41698 8.76543C4.06482 15.1374 2.88503 21.351 3.47492 27.4765C6.3615 29.565 9.15894 30.8337 11.9092 31.6639C12.5882 30.7585 13.1938 29.7959 13.7156 28.7815C12.7219 28.4157 11.7702 27.9643 10.871 27.4402C11.1095 27.2689 11.3429 27.0899 11.5683 26.9057C17.0531 29.3912 23.0124 29.3912 28.4316 26.9057C28.6597 27.0899 28.893 27.2689 29.129 27.4402C28.2271 27.9668 27.2728 28.4183 26.2791 28.7841C26.8009 29.7959 27.4039 30.7611 28.0855 31.6665C30.8384 30.8363 33.6385 29.5676 36.525 27.4765C37.2172 20.3755 35.3426 14.2189 31.5699 8.76025ZM14.4628 23.7094C12.8163 23.7094 11.4661 22.2202 11.4661 20.4067C11.4661 18.5932 12.7875 17.1014 14.4628 17.1014C16.1381 17.1014 17.4883 18.5905 17.4595 20.4067C17.4621 22.2202 16.1381 23.7094 14.4628 23.7094ZM25.5372 23.7094C23.8907 23.7094 22.5405 22.2202 22.5405 20.4067C22.5405 18.5932 23.8618 17.1014 25.5372 17.1014C27.2125 17.1014 28.5627 18.5905 28.5339 20.4067C28.5339 22.2202 27.2125 23.7094 25.5372 23.7094Z" fill="#5865F2"/>
</svg>
