<svg width="40" height="40" viewBox="0 0 40 40" fill="none" xmlns="http://www.w3.org/2000/svg">
<path d="M27 7.3V5.76667C27 5.56333 26.8946 5.36833 26.7071 5.22455C26.5196 5.08078 26.2652 5 26 5H6C5.73478 5 5.48043 5.08078 5.29289 5.22455C5.10536 5.36833 5 5.56333 5 5.76667V27.2333C5 27.4367 5.10536 27.6317 5.29289 27.7754C5.48043 27.9192 5.73478 28 6 28H26C26.2652 28 26.5196 27.9192 26.7071 27.7754C26.8946 27.6317 27 27.4367 27 27.2333V16.5" fill="url(#paint0_linear_2997_12679)" fill-opacity="0.24"/>
<path d="M27 10.9V9.63333C27 9.46536 26.8946 9.30427 26.7071 9.1855C26.5196 9.06673 26.2652 9 26 9H6C5.73478 9 5.48043 9.06673 5.29289 9.1855C5.10536 9.30427 5 9.46536 5 9.63333V27.3667C5 27.5346 5.10536 27.6957 5.29289 27.8145C5.48043 27.9332 5.73478 28 6 28H26C26.2652 28 26.5196 27.9332 26.7071 27.8145C26.8946 27.6957 27 27.5346 27 27.3667V18.5" stroke="white" stroke-linecap="round" stroke-linejoin="round"/>
<path d="M5 25C5 25.7956 5.31607 26.5587 5.87868 27.1213C6.44129 27.6839 7.20435 28 8 28H24C24.7956 28 25.5587 27.6839 26.1213 27.1213C26.6839 26.5587 27 25.7956 27 25V24H5V25Z" fill="white" stroke="white"/>
<path d="M21 19C20.4477 19 20 18.5523 20 18V18C20 17.4477 20.4477 17 21 17V17C21.5523 17 22 17.4477 22 18V18C22 18.5523 21.5523 19 21 19V19Z" fill="white" stroke="white" stroke-linecap="round" stroke-linejoin="round"/>
<path opacity="0.4" d="M10 13H22" stroke="white" stroke-linecap="round" stroke-linejoin="round"/>
<path d="M24 14H34" stroke="white" stroke-linecap="round" stroke-linejoin="round"/>
<path d="M35 14L31 11V17L35 14Z" fill="white" stroke="white" stroke-linecap="round" stroke-linejoin="round"/>
<defs>
<linearGradient id="paint0_linear_2997_12679" x1="16" y1="5" x2="16" y2="28" gradientUnits="userSpaceOnUse">
<stop stop-color="white" stop-opacity="0"/>
<stop offset="1" stop-color="white"/>
</linearGradient>
</defs>
</svg>
