<svg width="24" height="17" viewBox="0 0 24 17" fill="none" xmlns="http://www.w3.org/2000/svg">
<path d="M5.4 16.8C2.41763 16.8 0 14.3812 0 11.4C0 9.045 1.50637 7.0425 3.6075 6.30375C3.60263 6.2025 3.6 6.10125 3.6 6C3.6 2.685 6.285 0 9.6 0C11.8238 0 13.7625 1.20937 14.8013 3.0075C15.3713 2.59125 16.0613 2.4 16.8 2.4C18.7875 2.4 20.4 3.97875 20.4 6C20.4 6.4575 20.3137 6.8925 20.16 7.2975C22.35 7.74 24 9.67875 24 12C24 14.6512 21.8513 16.8 19.2 16.8H5.4ZM8.3625 8.6625C8.01375 9.015 8.01375 9.585 8.3625 9.90375C8.715 10.2862 9.285 10.2862 9.60375 9.90375L11.1 8.47125V13.5C11.1 13.9987 11.5013 14.4 12 14.4C12.4988 14.4 12.9 13.9987 12.9 13.5V8.47125L14.3625 9.90375C14.715 10.2862 15.285 10.2862 15.6038 9.90375C15.9863 9.585 15.9863 9.015 15.6038 8.6625L12.6038 5.6625C12.285 5.31375 11.715 5.31375 11.3625 5.6625L8.3625 8.6625V8.6625Z" fill="black"/>
</svg>
