<svg width="40" height="40" viewBox="0 0 40 40" fill="none" xmlns="http://www.w3.org/2000/svg">
<path d="M8 5H32C32.7956 5 33.5587 5.31607 34.1213 5.87868C34.6839 6.44129 35 7.20435 35 8V27C35 27.7956 34.6839 28.5587 34.1213 29.1213C33.5587 29.6839 32.7956 30 32 30H26.7101C26.8987 29.3663 27 28.695 27 28C27 24.134 23.866 21 20 21C16.134 21 13 24.134 13 28C13 28.695 13.1013 29.3663 13.2899 30H8C7.20435 30 6.44129 29.6839 5.87868 29.1213C5.31607 28.5587 5 27.7956 5 27V8C5 7.20435 5.31607 6.44129 5.87868 5.87868C6.44129 5.31607 7.20435 5 8 5Z" fill="url(#paint0_linear_2997_12640)" fill-opacity="0.24"/>
<path d="M8 30C7.20435 30 6.44129 29.6839 5.87868 29.1213C5.31607 28.5587 5 27.7956 5 27V8C5 7.20435 5.31607 6.44129 5.87868 5.87868C6.44129 5.31607 7.20435 5 8 5H32C32.7956 5 33.5587 5.31607 34.1213 5.87868C34.6839 6.44129 35 7.20435 35 8V27C35 27.7956 34.6839 28.5587 34.1213 29.1213C33.5587 29.6839 32.7956 30 32 30" stroke="white" stroke-linecap="round" stroke-linejoin="round"/>
<path d="M27 28C27 29.7135 26.3843 31.2832 25.3621 32.5C24.078 34.0285 22.1525 35 20 35C16.134 35 13 31.866 13 28C13 24.134 16.134 21 20 21C23.866 21 27 24.134 27 28Z" fill="url(#paint1_linear_2997_12640)" fill-opacity="0.24"/>
<path d="M25.3621 32.5C26.3843 31.2832 27 29.7135 27 28C27 24.134 23.866 21 20 21C16.134 21 13 24.134 13 28C13 31.866 16.134 35 20 35C22.1525 35 24.078 34.0285 25.3621 32.5ZM25.3621 32.5L28.8621 36" stroke="white" stroke-linecap="round" stroke-linejoin="round"/>
<path d="M17 28L19 30L23 26" stroke="white" stroke-linecap="round" stroke-linejoin="round"/>
<path opacity="0.32" d="M9 12L12.1429 10L15.2857 12L18.4286 11L20 12H31" stroke="white" stroke-linecap="round" stroke-linejoin="round"/>
<path opacity="0.48" d="M9 16H31" stroke="white" stroke-linecap="round" stroke-linejoin="round"/>
<path d="M9 20H31" stroke="white" stroke-linecap="round" stroke-linejoin="round"/>
<defs>
<linearGradient id="paint0_linear_2997_12640" x1="20" y1="5" x2="20" y2="30" gradientUnits="userSpaceOnUse">
<stop stop-color="white" stop-opacity="0"/>
<stop offset="1" stop-color="white"/>
</linearGradient>
<linearGradient id="paint1_linear_2997_12640" x1="20" y1="21" x2="20" y2="35" gradientUnits="userSpaceOnUse">
<stop stop-color="white" stop-opacity="0"/>
<stop offset="1" stop-color="white"/>
</linearGradient>
</defs>
</svg>
