<svg width="40" height="40" viewBox="0 0 40 40" fill="none" xmlns="http://www.w3.org/2000/svg">
<path d="M18 29C24.0752 29 29 24.0751 29 18C29 11.9249 24.0752 7 18 7C11.9249 7 7 11.9249 7 18C7 24.0751 11.9249 29 18 29Z" fill="url(#paint0_linear_2997_12625)" fill-opacity="0.24" stroke="white" stroke-width="1.25" stroke-linecap="round" stroke-linejoin="round"/>
<path opacity="0.2" d="M4.00391 7.00098C4.00391 6.73576 4.10927 6.48141 4.29681 6.29388C4.48434 6.10634 4.73869 6.00098 5.00392 6.00098H18.0039C18.2691 6.00098 18.5235 6.10634 18.711 6.29388C18.8985 6.48141 19.0039 6.73576 19.0039 7.00098C19.0039 7.26619 18.8985 7.52055 18.711 7.70809C18.5235 7.89563 18.2691 8.00098 18.0039 8.00098H5.00392C4.73869 8.00098 4.48434 7.89563 4.29681 7.70809C4.10927 7.52055 4.00391 7.26619 4.00391 7.00098ZM4.00391 33.001C4.00391 32.7358 4.10927 32.4814 4.29681 32.2939C4.48434 32.1064 4.73869 32.001 5.00392 32.001H18.0039C18.2691 32.001 18.5235 32.1064 18.711 32.2939C18.8985 32.4814 19.0039 32.7358 19.0039 33.001C19.0039 33.2663 18.8985 33.5205 18.711 33.7081C18.5235 33.8956 18.2691 34.001 18.0039 34.001H5.00392C4.73869 34.001 4.48434 33.8956 4.29681 33.7081C4.10927 33.5205 4.00391 33.2663 4.00391 33.001Z" fill="white"/>
<path d="M28.0731 26.0244L27.0487 25L25 27.0487L26.0244 28.0731L28.0731 26.0244ZM30.0089 32.0576C30.1425 32.196 30.3024 32.3064 30.4792 32.3824C30.656 32.4582 30.8461 32.4983 31.0385 32.5C31.2309 32.5016 31.4216 32.465 31.5998 32.3921C31.7778 32.3193 31.9396 32.2116 32.0756 32.0756C32.2116 31.9396 32.3193 31.7778 32.3921 31.5998C32.465 31.4216 32.5016 31.2309 32.5 31.0385C32.4983 30.8461 32.4582 30.656 32.3824 30.4792C32.3064 30.3024 32.196 30.1425 32.0576 30.0089L30.0089 32.0576ZM26.0244 28.0731L30.0089 32.0576L32.0576 30.0089L28.0731 26.0244L26.0244 28.0731Z" fill="white"/>
<g opacity="0.2">
<path d="M19.0039 29.2C17.5125 29.352 16.0059 29.1657 14.5964 28.655C13.1869 28.1442 11.9108 27.3221 10.8629 26.25H5.00392C4.73869 26.25 4.48434 26.3554 4.29681 26.5429C4.10927 26.7304 4.00392 26.9847 4.00391 27.25V29.25C4.00391 29.5152 4.10927 29.7696 4.29681 29.9571C4.48434 30.1446 4.73869 30.25 5.00392 30.25H18.0039C18.2691 30.25 18.5235 30.1446 18.711 29.9571C18.8985 29.7696 19.0039 29.5152 19.0039 29.25V29.2Z" fill="white"/>
</g>
<path d="M9.82391 22H16.7539C17.0191 22 17.2735 21.8946 17.461 21.7071C17.6485 21.5195 17.7539 21.2652 17.7539 21V19C17.7539 18.7348 17.6485 18.4804 17.461 18.2929C17.2735 18.1054 17.0191 18 16.7539 18H8.75392C8.75392 19.457 9.14391 20.823 9.82391 22ZM7.58591 22C7.03532 20.7384 6.75203 19.3765 6.75392 18H3.75392C3.48869 18 3.23434 18.1054 3.04681 18.2929C2.85927 18.4804 2.75392 18.7348 2.75391 19V21C2.75391 21.2652 2.85927 21.5195 3.04681 21.7071C3.23434 21.8946 3.48869 22 3.75392 22H7.58591Z" fill="white"/>
<path opacity="0.2" fill-rule="evenodd" clip-rule="evenodd" d="M9.33591 15.001H16.7539C17.0191 15.001 17.2735 14.8956 17.461 14.7081C17.6485 14.5205 17.7539 14.2663 17.7539 14.001V12.001C17.7539 11.7358 17.6485 11.4814 17.461 11.2939C17.2735 11.1063 17.0191 11.001 16.7539 11.001H12.8779C11.2749 11.8908 10.0256 13.3023 9.33591 15.001ZM7.21192 15.001C7.68522 13.497 8.50762 12.1264 9.61191 11.001H3.75392C3.48869 11.001 3.23434 11.1063 3.04681 11.2939C2.85927 11.4814 2.75392 11.7358 2.75391 12.001V14.001C2.75391 14.2663 2.85927 14.5205 3.04681 14.7081C3.23434 14.8956 3.48869 15.001 3.75392 15.001H7.21192Z" fill="white"/>
<defs>
<linearGradient id="paint0_linear_2997_12625" x1="18" y1="7" x2="18" y2="29" gradientUnits="userSpaceOnUse">
<stop stop-color="white" stop-opacity="0"/>
<stop offset="1" stop-color="white"/>
</linearGradient>
</defs>
</svg>
