<svg width="24" height="28" viewBox="0 0 24 28" fill="none" xmlns="http://www.w3.org/2000/svg">
<path d="M24 4.28571V6.85714C24 9.225 18.6268 11.1429 12 11.1429C5.37321 11.1429 0 9.225 0 6.85714V4.28571C0 1.91893 5.37321 0 12 0C18.6268 0 24 1.91893 24 4.28571ZM21.0643 11.5018C22.1304 11.1054 23.2018 10.5964 24 9.96964V15.4286C24 17.7964 18.6268 19.7143 12 19.7143C5.37321 19.7143 0 17.7964 0 15.4286V9.96964C0.799821 10.5964 1.8225 11.1054 2.93839 11.5018C5.33893 12.3589 8.54464 12.8571 12 12.8571C15.4554 12.8571 18.6589 12.3589 21.0643 11.5018ZM2.93839 20.0732C5.33893 20.9304 8.54464 21.4286 12 21.4286C15.4554 21.4286 18.6589 20.9304 21.0643 20.0732C22.1304 19.6768 23.2018 19.1679 24 18.5411V23.1429C24 25.5107 18.6268 27.4286 12 27.4286C5.37321 27.4286 0 25.5107 0 23.1429V18.5411C0.799821 19.1679 1.8225 19.6768 2.93839 20.0732V20.0732Z" fill="black"/>
</svg>
