<svg width="40" height="40" viewBox="0 0 40 40" fill="none" xmlns="http://www.w3.org/2000/svg">
<path d="M6 13L20 5L34 13V18.858C34 22.7831 32.5841 26.5764 30.0124 29.5417C27.4407 32.5069 23.8856 34.4449 20 35C16.1144 34.4449 12.5593 32.5069 9.98761 29.5417C7.41588 26.5764 6.00003 22.7831 6 18.858V13Z" fill="url(#paint0_linear_2997_12662)" fill-opacity="0.24" stroke="white" stroke-width="1.5"/>
<path d="M23 19.3748V17C23 16.2044 22.6839 15.4413 22.1213 14.8787C21.5587 14.3161 20.7956 14 20 14C19.2044 14 18.4413 14.3161 17.8787 14.8787C17.3161 15.4413 17 16.2044 17 17V19.3748" stroke="white" stroke-width="1.5"/>
<path d="M15 24C15 24.7956 15.3161 25.5587 15.8787 26.1213C16.4413 26.6839 17.2044 27 18 27H22C22.7956 27 23.5587 26.6839 24.1213 26.1213C24.6839 25.5587 25 24.7956 25 24V20H15V24Z" fill="white" stroke="white" stroke-width="1.5"/>
<defs>
<linearGradient id="paint0_linear_2997_12662" x1="20" y1="5" x2="20" y2="35" gradientUnits="userSpaceOnUse">
<stop stop-color="white" stop-opacity="0"/>
<stop offset="1" stop-color="white"/>
</linearGradient>
</defs>
</svg>
