<svg width="24" height="21" viewBox="0 0 24 21" fill="none" xmlns="http://www.w3.org/2000/svg">
<path d="M1.5 0C2.32828 0 3 0.671719 3 1.5V17.25C3 17.6625 3.33562 18 3.75 18H22.5C23.3297 18 24 18.6703 24 19.5C24 20.3297 23.3297 21 22.5 21H3.75C1.67906 21 0 19.3219 0 17.25V1.5C0 0.671719 0.671719 0 1.5 0ZM7.5 9C8.32969 9 9 9.67031 9 10.5V13.5C9 14.3297 8.32969 15 7.5 15C6.67031 15 6 14.3297 6 13.5V10.5C6 9.67031 6.67031 9 7.5 9ZM13.5 13.5C13.5 14.3297 12.8297 15 12 15C11.1703 15 10.5 14.3297 10.5 13.5V6C10.5 5.17031 11.1703 4.5 12 4.5C12.8297 4.5 13.5 5.17031 13.5 6V13.5ZM16.5 7.5C17.3297 7.5 18 8.17031 18 9V13.5C18 14.3297 17.3297 15 16.5 15C15.6703 15 15 14.3297 15 13.5V9C15 8.17031 15.6703 7.5 16.5 7.5ZM22.5 13.5C22.5 14.3297 21.8297 15 21 15C20.1703 15 19.5 14.3297 19.5 13.5V3C19.5 2.17172 20.1703 1.5 21 1.5C21.8297 1.5 22.5 2.17172 22.5 3V13.5Z" fill="black"/>
</svg>
