<svg width="40" height="40" viewBox="0 0 40 40" fill="none" xmlns="http://www.w3.org/2000/svg">
<path d="M32 15H18C16.3431 15 15 16.3431 15 18V32C15 33.6569 16.3431 35 18 35H32C33.6569 35 35 33.6569 35 32V18C35 16.3431 33.6569 15 32 15Z" fill="url(#paint0_linear_2992_12109)" fill-opacity="0.24" stroke="white" stroke-width="1.25"/>
<path opacity="0.2" d="M13 30C12.2043 30 11.4413 29.6839 10.8787 29.1214C10.3161 28.5588 10 27.7956 10 27V13C10 12.2043 10.3161 11.4413 10.8787 10.8787C11.4413 10.3161 12.2043 10 13 10H27C27.7956 10 28.5588 10.3161 29.1214 10.8787C29.6839 11.4413 30 12.2043 30 13" stroke="white" stroke-width="1.25"/>
<path opacity="0.2" d="M8 25C7.20435 25 6.44129 24.6839 5.87867 24.1214C5.31607 23.5588 5 22.7956 5 22V8C5 7.20435 5.31607 6.44129 5.87867 5.87867C6.44129 5.31607 7.20435 5 8 5H22C22.7956 5 23.5588 5.31607 24.1214 5.87867C24.6839 6.44129 25 7.20435 25 8" stroke="white" stroke-width="1.25"/>
<defs>
<linearGradient id="paint0_linear_2992_12109" x1="25" y1="15" x2="25" y2="35" gradientUnits="userSpaceOnUse">
<stop stop-color="white" stop-opacity="0"/>
<stop offset="1" stop-color="white"/>
</linearGradient>
</defs>
</svg>
