<svg width="72" height="72" viewBox="0 0 72 72" fill="none" xmlns="http://www.w3.org/2000/svg">
<rect width="72" height="72" fill="#F2F1FF"/>
<path d="M35.8946 20.5782C35.8982 19.7049 35.1896 18.9963 34.3163 18.9999L24.7927 19.0428C23.5222 19.0482 22.8905 20.5836 23.7888 21.4819L33.4108 31.1039C34.3091 32.0022 35.8445 31.3705 35.8499 30.1L35.8946 20.5782Z" fill="#4A3AFF"/>
<path opacity="0.35" d="M25.1579 52.9999H21.5789C19.6016 52.9999 18 51.3983 18 49.4209V47.6314C18 45.6541 19.6016 44.0525 21.5789 44.0525H25.1579C27.1353 44.0525 28.7368 45.6541 28.7368 47.6314V49.4209C28.7368 51.3983 27.1353 52.9999 25.1579 52.9999Z" fill="#4A3AFF"/>
<path opacity="0.35" d="M37.6843 52.9998H34.1053C32.1279 52.9998 30.5264 51.3983 30.5264 49.4209V38.6841C30.5264 36.7067 32.1279 35.1051 34.1053 35.1051H37.6843C39.6616 35.1051 41.2632 36.7067 41.2632 38.6841V49.4209C41.2632 51.3983 39.6616 52.9998 37.6843 52.9998Z" fill="#4A3AFF"/>
<path opacity="0.35" d="M50.2106 52.9999H46.6317C44.6543 52.9999 43.0527 51.3983 43.0527 49.4209V22.5788C43.0527 20.6015 44.6543 18.9999 46.6317 18.9999H50.2106C52.188 18.9999 53.7896 20.6015 53.7896 22.5788V49.4209C53.7896 51.3983 52.188 52.9999 50.2106 52.9999Z" fill="#4A3AFF"/>
<path d="M21.1818 36.8946C20.3676 36.8946 19.5533 36.5832 18.9324 35.9623C17.6905 34.7204 17.6905 32.7055 18.9324 31.4636L26.8848 23.5111C28.1267 22.2692 30.1417 22.2692 31.3836 23.5111C32.6255 24.753 32.6255 26.768 31.3836 28.0099L23.4311 35.9623C22.8102 36.5832 21.996 36.8946 21.1818 36.8946Z" fill="#4A3AFF"/>
</svg>
