<svg width="72" height="72" viewBox="0 0 72 72" fill="none" xmlns="http://www.w3.org/2000/svg">
<rect width="72" height="72" fill="#F2F1FF"/>
<path opacity="0.35" d="M36.25 52.9999C35.1682 52.9999 34.067 52.5942 33.2364 51.7442C32.4057 50.9135 20.4091 40.926 18.4193 38.9556C13.8602 34.3965 13.8602 26.9976 18.4193 22.4192C22.9977 17.8601 30.3966 17.8601 34.9557 22.4192C35.4386 22.9215 35.8636 23.4624 36.25 24.0033L40.3976 34.2323L36.25 52.9999Z" fill="#4A3AFF"/>
<path d="M36.25 52.9999C37.3318 52.9999 38.433 52.5942 39.2636 51.7442C40.0943 50.9135 52.0909 40.926 54.0807 38.9556C58.6398 34.3965 58.6398 26.9976 54.0807 22.4192C49.5023 17.8601 42.1034 17.8601 37.5443 22.4192C37.0614 22.9215 36.6364 23.4624 36.25 24.0033V36.3862V52.9999Z" fill="#4A3AFF"/>
</svg>
