<svg width="24" height="22" viewBox="0 0 24 22" fill="none" xmlns="http://www.w3.org/2000/svg">
<path d="M22 0H2C0.895833 0 0 0.895833 0 2V15.3333C0 16.4375 0.895833 17.3333 2 17.3333H10L9.33333 19.3333H6.33333C5.78333 19.3333 5.33333 19.7833 5.33333 20.3333C5.33333 20.8833 5.78333 21.3333 6.33333 21.3333H17.6667C18.2188 21.3333 18.6667 20.8854 18.6667 20.3333C18.6667 19.7813 18.2188 19.3333 17.6667 19.3333H14.6667L14 17.3333H22C23.1042 17.3333 24 16.4375 24 15.3333V2C24 0.895833 23.1042 0 22 0ZM21.3333 14.6667H2.66667V2.66667H21.3333V14.6667Z" fill="black"/>
</svg>
