<svg width="24" height="20" viewBox="0 0 24 20" fill="none" xmlns="http://www.w3.org/2000/svg">
<path d="M15 0C15.9938 0 16.8 0.805875 16.8 1.8V5.4C16.8 6.39375 15.9938 7.2 15 7.2H13.2V8.4H22.8C23.4638 8.4 24 8.93625 24 9.6C24 10.2638 23.4638 10.8 22.8 10.8H19.2V12H21C21.9938 12 22.8 12.8063 22.8 13.8V17.4C22.8 18.3938 21.9938 19.2 21 19.2H15C14.0063 19.2 13.2 18.3938 13.2 17.4V13.8C13.2 12.8063 14.0063 12 15 12H16.8V10.8H7.2V12H9C9.99375 12 10.8 12.8063 10.8 13.8V17.4C10.8 18.3938 9.99375 19.2 9 19.2H3C2.00588 19.2 1.2 18.3938 1.2 17.4V13.8C1.2 12.8063 2.00588 12 3 12H4.8V10.8H1.2C0.537375 10.8 0 10.2638 0 9.6C0 8.93625 0.537375 8.4 1.2 8.4H10.8V7.2H9C8.00625 7.2 7.2 6.39375 7.2 5.4V1.8C7.2 0.805875 8.00625 0 9 0H15ZM9.6 2.4V4.8H14.4V2.4H9.6ZM8.4 16.8V14.4H3.6V16.8H8.4ZM15.6 14.4V16.8H20.4V14.4H15.6Z" fill="black"/>
</svg>
