<svg width="72" height="72" viewBox="0 0 72 72" fill="none" xmlns="http://www.w3.org/2000/svg">
<rect width="72" height="72" fill="#F2F1FF"/>
<path opacity="0.35" d="M45.0001 54H27.0001C24.0175 54 21.6001 51.5826 21.6001 48.6V23.4C21.6001 20.4174 24.0175 18 27.0001 18H39.6001L50.4001 28.8V48.6C50.4001 51.5826 47.9827 54 45.0001 54Z" fill="#4A3AFF"/>
<path d="M39.6001 25.2V18L50.4001 28.8H43.2001C41.2111 28.8 39.6001 27.189 39.6001 25.2Z" fill="#4A3AFF"/>
<path d="M28.0926 45.0521C27.7225 45.0521 27.3508 44.924 27.0519 44.6615C26.394 44.0858 26.3276 43.0863 26.9017 42.43L32.437 36.1039C32.7407 35.7528 33.1424 35.5788 33.6469 35.563C34.1103 35.5693 34.5468 35.7765 34.8441 36.1308L37.558 39.3887L42.6726 32.993C43.2214 32.313 44.213 32.1991 44.8963 32.7463C45.5779 33.2935 45.6886 34.2883 45.143 34.9699L38.8169 42.8775C38.5196 43.2476 38.072 43.4659 37.5975 43.4706C37.1025 43.5418 36.6708 43.265 36.3671 42.9028L33.5994 39.5801L29.2835 44.5113C28.9703 44.8703 28.5322 45.0521 28.0926 45.0521Z" fill="#4A3AFF"/>
</svg>
