<svg width="40" height="40" viewBox="0 0 40 40" fill="none" xmlns="http://www.w3.org/2000/svg">
<path d="M29.2 11H10.8C10.0574 11 9.3452 11.281 8.8201 11.781C8.295 12.2811 8 12.9594 8 13.6667V29.3333C8 30.0406 8.295 30.7189 8.8201 31.219C9.3452 31.719 10.0574 32 10.8 32H29.2C29.9426 32 30.6548 31.719 31.1799 31.219C31.705 30.7189 32 30.0406 32 29.3333V13.6667C32 12.9594 31.705 12.2811 31.1799 11.781C30.6548 11.281 29.9426 11 29.2 11Z" fill="url(#paint0_linear_2992_12140)" fill-opacity="0.24" stroke="white" stroke-linecap="round" stroke-linejoin="round"/>
<path d="M8 14C8 13.2044 8.295 12.4413 8.8201 11.8787C9.3452 11.3161 10.0574 11 10.8 11H29.2C29.9426 11 30.6548 11.3161 31.1799 11.8787C31.705 12.4413 32 13.2044 32 14V15H8V14Z" fill="white" fill-opacity="0.5" stroke="white"/>
<path d="M14 21C13.4477 21 13 20.5523 13 20V20C13 19.4477 13.4477 19 14 19V19C14.5523 19 15 19.4477 15 20V20C15 20.5523 14.5523 21 14 21V21ZM14 27C13.4477 27 13 26.5523 13 26V26C13 25.4477 13.4477 25 14 25V25C14.5523 25 15 25.4477 15 26V26C15 26.5523 14.5523 27 14 27V27ZM20 21C19.4477 21 19 20.5523 19 20V20C19 19.4477 19.4477 19 20 19V19C20.5523 19 21 19.4477 21 20V20C21 20.5523 20.5523 21 20 21V21ZM20 27C19.4477 27 19 26.5523 19 26V26C19 25.4477 19.4477 25 20 25V25C20.5523 25 21 25.4477 21 26V26C21 26.5523 20.5523 27 20 27V27Z" fill="white" stroke="white" stroke-linecap="round" stroke-linejoin="round"/>
<path opacity="0.4" d="M26 21C25.4477 21 25 20.5523 25 20V20C25 19.4477 25.4477 19 26 19V19C26.5523 19 27 19.4477 27 20V20C27 20.5523 26.5523 21 26 21V21Z" fill="white" stroke="white" stroke-linecap="round" stroke-linejoin="round"/>
<defs>
<linearGradient id="paint0_linear_2992_12140" x1="22" y1="11" x2="22" y2="35" gradientUnits="userSpaceOnUse">
<stop stop-color="white" stop-opacity="0"/>
<stop offset="1" stop-color="white"/>
</linearGradient>
</defs>
</svg>
