<svg width="40" height="40" viewBox="0 0 40 40" fill="none" xmlns="http://www.w3.org/2000/svg">
<rect width="40" height="40" rx="20" fill="#45B36B"/>
<path fill-rule="evenodd" clip-rule="evenodd" d="M26.818 22.1248C26.2016 21.4101 25.1428 21.4469 24.3149 21.9001C23.0338 22.6013 21.5635 23 20 23C18.4365 23 16.9662 22.6013 15.6851 21.9001C14.8572 21.4469 13.7984 21.4101 13.182 22.1248C11.8222 23.7014 11 25.7547 11 28V29C11 30.1045 11.8954 31 13 31H27C28.1046 31 29 30.1045 29 29V28C29 25.7547 28.1778 23.7014 26.818 22.1248Z" fill="#FCFCFD"/>
<path d="M25 14C25 16.7614 22.7614 19 20 19C17.2386 19 15 16.7614 15 14C15 11.2386 17.2386 9 20 9C22.7614 9 25 11.2386 25 14Z" fill="#FCFCFD"/>
</svg>
