<svg width="96" height="96" viewBox="0 0 96 96" fill="none" xmlns="http://www.w3.org/2000/svg">
<circle cx="48" cy="48" r="42" fill="#3290E8"/>
<path fill-rule="evenodd" clip-rule="evenodd" d="M66 24H30C26.7292 23.9949 24.0058 26.7351 24 30V66C24 69.3133 26.687 72 30 72H66C69.2708 72.0051 71.9942 69.2649 72 66V30C72 26.6867 69.3143 24 66 24ZM54.3987 32.8C54.3987 31.9173 55.1163 31.2 56 31.2C56.8837 31.2 57.6 31.9173 57.6 32.8V54.1773C57.6 55.06 56.8824 55.7773 56 55.7773C55.1529 55.778 54.4021 55.0272 54.4 54.1773L54.3987 32.8ZM46.3987 31.9907C46.3987 31.1067 47.1163 30.3907 48 30.3907C48.8837 30.3907 49.6013 31.1067 49.6013 31.9907V55.1907C49.6013 56.0747 48.8837 56.7907 48 56.7907C47.1529 56.7914 46.4021 56.0406 46.4 55.1907L46.3987 31.9907ZM38.4 32.8C38.4 31.9173 39.1176 31.2 40 31.2C40.8837 31.2 41.6 31.9173 41.6 32.8V54.1773C41.6 55.06 40.8837 55.7773 40 55.7773C39.1529 55.778 38.4021 55.0272 38.4 54.1773V32.8ZM30.4 36C30.4 35.116 31.1163 34.4 32 34.4C32.8837 34.4 33.6 35.116 33.6 36V50.3907C33.6 51.2747 32.8824 51.9907 32 51.9907C31.1277 51.9921 30.4014 51.2614 30.4 50.3907V36ZM65.0419 60.4053C64.796 60.6187 58.8678 65.5907 48 65.5907C37.1322 65.5907 31.208 60.6173 30.9581 60.404C30.2971 59.8376 30.2188 58.8099 30.7854 58.1493C31.3377 57.5064 32.3917 57.424 33.0365 57.9733C33.1296 58.052 38.4226 62.3907 47.9987 62.3907C57.6944 62.3907 62.9063 58.02 62.9568 57.9773C63.6008 57.4239 64.6587 57.5046 65.212 58.1493C65.7823 58.8086 65.7051 59.8392 65.0419 60.4053ZM65.6 50.392C65.6 51.2747 64.8824 51.992 64 51.992C63.1277 51.9935 62.4014 51.2627 62.4 50.392V36C62.4 35.116 63.1163 34.4 63.9987 34.4C64.8824 34.4 65.6 35.116 65.6 36V50.392Z" fill="white"/>
</svg>
