<svg width="96" height="96" viewBox="0 0 96 96" fill="none" xmlns="http://www.w3.org/2000/svg">
<path d="M88.9942 45.6494L51.6225 9.5037L48 6L19.8681 33.2091L7.00578 45.6494C5.66474 46.9481 5.66474 49.0519 7.00578 50.3506L32.7074 75.2091L48 90L76.1319 62.7909L76.5676 62.3696L88.9942 50.3506C90.3353 49.0519 90.3353 46.9481 88.9942 45.6494ZM48 60.4182L35.1606 48L48 35.5818L60.8394 48L48 60.4182Z" fill="#2684FF"/>
<path fill-rule="evenodd" clip-rule="evenodd" d="M48.0002 35.5817C39.5939 27.4502 39.553 14.2798 47.9085 6.09961L19.8109 33.2643L35.1035 48.0553L48.0002 35.5817Z" fill="url(#paint0_linear_16_8046)"/>
<path fill-rule="evenodd" clip-rule="evenodd" d="M60.8737 47.9668L48 60.4182C52.0574 64.3402 54.3371 69.661 54.3371 75.2091C54.3371 80.7573 52.0574 86.0781 48 90.0001L76.1663 62.7577L60.8737 47.9668Z" fill="url(#paint1_linear_16_8046)"/>
<defs>
<linearGradient id="paint0_linear_16_8046" x1="45.7074" y1="23.0194" x2="24.2897" y2="32.3707" gradientUnits="userSpaceOnUse">
<stop offset="0.18" stop-color="#0052CC"/>
<stop offset="1" stop-color="#2684FF"/>
</linearGradient>
<linearGradient id="paint1_linear_16_8046" x1="50.4532" y1="72.8364" x2="71.8324" y2="63.5514" gradientUnits="userSpaceOnUse">
<stop offset="0.18" stop-color="#0052CC"/>
<stop offset="1" stop-color="#2684FF"/>
</linearGradient>
</defs>
</svg>
