<svg width="100" height="100" viewBox="0 0 100 100" fill="none" xmlns="http://www.w3.org/2000/svg">
<path d="M44.8199 49.2829L77.5236 16.5791L83.4161 22.4717L77.5236 28.3642L87.8357 38.6762L81.9432 44.5687L71.6311 34.2568L65.7386 40.1494L74.5774 48.9883L68.6849 54.8808L59.8461 46.042L50.7124 55.1754C56.0715 63.2645 55.1878 74.2704 48.0607 81.3974C39.9249 89.5333 26.734 89.5333 18.5981 81.3974C10.4621 73.2612 10.4621 60.0704 18.5981 51.9345C25.725 44.8074 36.7308 43.9237 44.8199 49.2829ZM42.1682 75.5045C47.0499 70.6233 47.0499 62.7087 42.1682 57.827C37.2867 52.9454 29.3721 52.9454 24.4906 57.827C19.6091 62.7087 19.6091 70.6233 24.4906 75.5045C29.3721 80.3862 37.2867 80.3862 42.1682 75.5045Z" fill="white"/>
</svg>
