<svg width="396" height="168" viewBox="0 0 396 168" fill="none" xmlns="http://www.w3.org/2000/svg">
<rect x="0.5" y="0.5" width="395" height="167" rx="3.5" fill="#10101A"/>
<rect x="0.5" y="0.5" width="395" height="167" rx="3.5" stroke="#2B2F40"/>
<path d="M33.312 38.016V30.544H34.464V37.968C34.464 39.984 35.568 41.072 37.568 41.072C39.52 41.072 40.624 39.952 40.624 37.968V30.544H41.776V38.016C41.776 40.608 40.176 42.192 37.568 42.192C34.912 42.192 33.312 40.624 33.312 38.016ZM44.4057 45.376V34.256H45.3657L45.4778 35.824C46.0217 34.624 47.1098 34.048 48.4058 34.048C50.6458 34.048 51.9897 35.76 51.9897 38.096C51.9897 40.432 50.6938 42.192 48.4058 42.192C47.0938 42.192 46.0538 41.632 45.5097 40.512V45.376H44.4057ZM45.5257 38.128C45.5257 39.904 46.5178 41.2 48.2137 41.2C49.8938 41.2 50.8698 39.904 50.8698 38.128C50.8698 36.336 49.8938 35.056 48.2137 35.056C46.5178 35.056 45.5257 36.336 45.5257 38.128ZM55.6074 42H54.5194V35.184H52.9674V34.256H54.5194V31.808H55.6074V34.256H57.1594V35.184H55.6074V42ZM59.301 32.128C58.853 32.128 58.485 31.76 58.485 31.312C58.485 30.864 58.853 30.48 59.301 30.48C59.749 30.48 60.133 30.864 60.133 31.312C60.133 31.76 59.749 32.128 59.301 32.128ZM58.757 42V34.256H59.861V42H58.757ZM63.4272 42H62.3232V34.256H63.2832L63.4112 35.36C63.7952 34.544 64.6592 34.048 65.7472 34.048C66.9632 34.048 67.8752 34.688 68.2432 35.696C68.5952 34.688 69.5392 34.048 70.7872 34.048C72.4672 34.048 73.5712 35.136 73.5712 36.928V42H72.4992V37.152C72.4992 35.824 71.7633 35.04 70.5792 35.04C69.2832 35.04 68.5152 36.016 68.5152 37.216V42H67.4272V37.136C67.4272 35.824 66.6752 35.056 65.5072 35.056C64.2112 35.056 63.4272 36.016 63.4272 37.2V42ZM79.2 42.192C76.928 42.192 75.408 40.56 75.408 38.128C75.408 35.712 76.912 34.048 79.12 34.048C81.216 34.048 82.64 35.536 82.64 37.728V38.272H76.48C76.56 40.16 77.552 41.248 79.216 41.248C80.48 41.248 81.296 40.704 81.584 39.68H82.64C82.224 41.312 81.024 42.192 79.2 42.192ZM79.12 34.992C77.664 34.992 76.704 35.952 76.512 37.472H81.536C81.536 35.984 80.576 34.992 79.12 34.992Z" fill="white"/>
<path d="M41.8239 57.9091C41.8239 58.983 41.63 59.911 41.2422 60.6932C40.8544 61.4754 40.3224 62.0786 39.6463 62.5028C38.9702 62.9271 38.1979 63.1392 37.3295 63.1392C36.4612 63.1392 35.6889 62.9271 35.0128 62.5028C34.3366 62.0786 33.8047 61.4754 33.4169 60.6932C33.0291 59.911 32.8352 58.983 32.8352 57.9091C32.8352 56.8352 33.0291 55.9072 33.4169 55.125C33.8047 54.3428 34.3366 53.7396 35.0128 53.3153C35.6889 52.8911 36.4612 52.679 37.3295 52.679C38.1979 52.679 38.9702 52.8911 39.6463 53.3153C40.3224 53.7396 40.8544 54.3428 41.2422 55.125C41.63 55.9072 41.8239 56.8352 41.8239 57.9091ZM40.6307 57.9091C40.6307 57.0275 40.4832 56.2834 40.1882 55.6768C39.8965 55.0703 39.5005 54.6113 39 54.2997C38.5028 53.9882 37.946 53.8324 37.3295 53.8324C36.7131 53.8324 36.1546 53.9882 35.6541 54.2997C35.157 54.6113 34.7609 55.0703 34.4659 55.6768C34.1742 56.2834 34.0284 57.0275 34.0284 57.9091C34.0284 58.7907 34.1742 59.5348 34.4659 60.1413C34.7609 60.7479 35.157 61.2069 35.6541 61.5185C36.1546 61.83 36.7131 61.9858 37.3295 61.9858C37.946 61.9858 38.5028 61.83 39 61.5185C39.5005 61.2069 39.8965 60.7479 40.1882 60.1413C40.4832 59.5348 40.6307 58.7907 40.6307 57.9091ZM43.7379 65.8636V55.3636H44.8714V56.5767H45.0107C45.0968 56.4441 45.2161 56.2751 45.3686 56.0696C45.5244 55.8608 45.7464 55.6752 46.0348 55.5128C46.3265 55.3471 46.7209 55.2642 47.218 55.2642C47.861 55.2642 48.4278 55.425 48.9183 55.7464C49.4089 56.0679 49.7917 56.5237 50.0668 57.1136C50.3419 57.7036 50.4794 58.3996 50.4794 59.2017C50.4794 60.0104 50.3419 60.7114 50.0668 61.3047C49.7917 61.8946 49.4105 62.352 48.9233 62.6768C48.4361 62.9983 47.8743 63.1591 47.2379 63.1591C46.7474 63.1591 46.3546 63.0779 46.0597 62.9155C45.7647 62.7498 45.5376 62.5625 45.3786 62.3537C45.2195 62.1416 45.0968 61.9659 45.0107 61.8267H44.9112V65.8636H43.7379ZM44.8913 59.1818C44.8913 59.7585 44.9759 60.2673 45.1449 60.7081C45.3139 61.1456 45.5608 61.4886 45.8857 61.7372C46.2105 61.9825 46.6082 62.1051 47.0788 62.1051C47.5694 62.1051 47.9787 61.9759 48.3068 61.7173C48.6383 61.4555 48.8868 61.1042 49.0526 60.6634C49.2216 60.2192 49.3061 59.7254 49.3061 59.1818C49.3061 58.6449 49.2232 58.161 49.0575 57.7301C48.8951 57.2959 48.6482 56.9529 48.3168 56.701C47.9886 56.4458 47.576 56.3182 47.0788 56.3182C46.6016 56.3182 46.2005 56.4392 45.8757 56.6811C45.5509 56.9197 45.3056 57.2545 45.1399 57.6854C44.9742 58.1129 44.8913 58.6117 44.8913 59.1818ZM55.4709 63.1591C54.7351 63.1591 54.1004 62.9967 53.5668 62.6719C53.0365 62.3438 52.6271 61.8864 52.3388 61.2997C52.0537 60.7098 51.9112 60.0237 51.9112 59.2415C51.9112 58.4593 52.0537 57.7699 52.3388 57.1733C52.6271 56.5734 53.0282 56.1061 53.5419 55.7713C54.0589 55.4332 54.6622 55.2642 55.3516 55.2642C55.7493 55.2642 56.142 55.3305 56.5298 55.4631C56.9176 55.5956 57.2706 55.8111 57.5888 56.1094C57.907 56.4044 58.1605 56.7955 58.3494 57.2827C58.5384 57.7699 58.6328 58.3698 58.6328 59.0824V59.5795H52.7464V58.5653H57.4396C57.4396 58.1345 57.3535 57.75 57.1811 57.4119C57.0121 57.0739 56.7701 56.8071 56.4553 56.6115C56.1437 56.416 55.7758 56.3182 55.3516 56.3182C54.8842 56.3182 54.4799 56.4342 54.1385 56.6662C53.8004 56.8949 53.5402 57.1932 53.358 57.5611C53.1757 57.929 53.0845 58.3234 53.0845 58.7443V59.4205C53.0845 59.9972 53.1839 60.486 53.3828 60.8871C53.585 61.2848 53.8651 61.5881 54.223 61.7969C54.581 62.0024 54.9969 62.1051 55.4709 62.1051C55.7791 62.1051 56.0575 62.062 56.3061 61.9759C56.558 61.8864 56.7751 61.7538 56.9574 61.5781C57.1397 61.3991 57.2805 61.1771 57.38 60.9119L58.5135 61.2301C58.3942 61.6146 58.1937 61.9527 57.9119 62.2443C57.6302 62.5327 57.2822 62.758 56.8679 62.9205C56.4536 63.0795 55.9879 63.1591 55.4709 63.1591ZM60.4176 63V55.3636H61.5511V56.517H61.6307C61.7699 56.1392 62.0218 55.8326 62.3864 55.5973C62.7509 55.362 63.1619 55.2443 63.6193 55.2443C63.7055 55.2443 63.8132 55.246 63.9425 55.2493C64.0717 55.2526 64.1695 55.2576 64.2358 55.2642V56.4574C64.196 56.4474 64.1049 56.4325 63.9624 56.4126C63.8232 56.3894 63.6757 56.3778 63.5199 56.3778C63.1487 56.3778 62.8172 56.4557 62.5256 56.6115C62.2372 56.764 62.0085 56.9761 61.8395 57.2479C61.6738 57.5163 61.5909 57.8229 61.5909 58.1676V63H60.4176ZM67.8738 63.179C67.3899 63.179 66.9507 63.0878 66.5563 62.9055C66.1619 62.7199 65.8487 62.4531 65.6167 62.1051C65.3846 61.7538 65.2686 61.3295 65.2686 60.8324C65.2686 60.3949 65.3548 60.0402 65.5272 59.7685C65.6995 59.4934 65.9299 59.2779 66.2182 59.1222C66.5066 58.9664 66.8248 58.8504 67.1728 58.7741C67.5241 58.6946 67.8771 58.6316 68.2317 58.5852C68.6957 58.5256 69.0719 58.4808 69.3603 58.451C69.6519 58.4179 69.8641 58.3632 69.9966 58.2869C70.1325 58.2107 70.2005 58.0781 70.2005 57.8892V57.8494C70.2005 57.3589 70.0662 56.9777 69.7978 56.706C69.5326 56.4342 69.1299 56.2983 68.5897 56.2983C68.0295 56.2983 67.5904 56.4209 67.2722 56.6662C66.954 56.9115 66.7303 57.1733 66.601 57.4517L65.4874 57.054C65.6863 56.59 65.9514 56.2287 66.2828 55.9702C66.6176 55.7083 66.9822 55.526 67.3766 55.4233C67.7743 55.3172 68.1654 55.2642 68.5499 55.2642C68.7952 55.2642 69.0769 55.294 69.3951 55.3537C69.7166 55.41 70.0265 55.5277 70.3248 55.7067C70.6264 55.8857 70.8766 56.1558 71.0755 56.517C71.2743 56.8783 71.3738 57.3622 71.3738 57.9688V63H70.2005V61.9659H70.1408C70.0613 62.1316 69.9287 62.3089 69.7431 62.4979C69.5575 62.6868 69.3105 62.8475 69.0023 62.9801C68.6941 63.1127 68.3179 63.179 67.8738 63.179ZM68.0527 62.125C68.5167 62.125 68.9078 62.0339 69.226 61.8516C69.5475 61.6693 69.7895 61.4339 69.9519 61.1456C70.1176 60.8572 70.2005 60.554 70.2005 60.2358V59.1619C70.1507 59.2216 70.0414 59.2763 69.8723 59.326C69.7066 59.3724 69.5144 59.4138 69.2956 59.4503C69.0802 59.4834 68.8697 59.5133 68.6642 59.5398C68.4621 59.563 68.298 59.5829 68.1721 59.5994C67.8671 59.6392 67.5821 59.7038 67.3169 59.7933C67.0551 59.8795 66.843 60.0104 66.6806 60.1861C66.5215 60.3584 66.4419 60.5937 66.4419 60.892C66.4419 61.2997 66.5927 61.608 66.8944 61.8168C67.1993 62.0223 67.5854 62.125 68.0527 62.125ZM76.8363 55.3636V56.358H72.8789V55.3636H76.8363ZM74.0323 53.5341H75.2056V60.8125C75.2056 61.1439 75.2537 61.3925 75.3498 61.5582C75.4492 61.7206 75.5752 61.83 75.7276 61.8864C75.8834 61.9394 76.0475 61.9659 76.2198 61.9659C76.3491 61.9659 76.4551 61.9593 76.538 61.946C76.6209 61.9295 76.6871 61.9162 76.7369 61.9062L76.9755 62.9602C76.896 62.9901 76.7849 63.0199 76.6424 63.0497C76.4999 63.0829 76.3192 63.0994 76.1005 63.0994C75.7691 63.0994 75.4442 63.0282 75.1261 62.8857C74.8112 62.7431 74.5494 62.526 74.3406 62.2344C74.1351 61.9427 74.0323 61.5748 74.0323 61.1307V53.5341ZM78.6012 63V55.3636H79.7745V63H78.6012ZM79.1978 54.0909C78.9691 54.0909 78.7719 54.013 78.6062 53.8572C78.4438 53.7015 78.3626 53.5142 78.3626 53.2955C78.3626 53.0767 78.4438 52.8894 78.6062 52.7337C78.7719 52.5779 78.9691 52.5 79.1978 52.5C79.4265 52.5 79.622 52.5779 79.7844 52.7337C79.9502 52.8894 80.033 53.0767 80.033 53.2955C80.033 53.5142 79.9502 53.7015 79.7844 53.8572C79.622 54.013 79.4265 54.0909 79.1978 54.0909ZM85.0257 63.1591C84.3364 63.1591 83.7315 62.995 83.2111 62.6669C82.6941 62.3388 82.2897 61.8797 81.998 61.2898C81.7097 60.6998 81.5655 60.0104 81.5655 59.2216C81.5655 58.4261 81.7097 57.7318 81.998 57.1385C82.2897 56.5452 82.6941 56.0845 83.2111 55.7564C83.7315 55.4283 84.3364 55.2642 85.0257 55.2642C85.7151 55.2642 86.3184 55.4283 86.8354 55.7564C87.3558 56.0845 87.7601 56.5452 88.0485 57.1385C88.3401 57.7318 88.486 58.4261 88.486 59.2216C88.486 60.0104 88.3401 60.6998 88.0485 61.2898C87.7601 61.8797 87.3558 62.3388 86.8354 62.6669C86.3184 62.995 85.7151 63.1591 85.0257 63.1591ZM85.0257 62.1051C85.5494 62.1051 85.9803 61.9709 86.3184 61.7024C86.6564 61.4339 86.9067 61.081 87.0691 60.6435C87.2315 60.206 87.3127 59.732 87.3127 59.2216C87.3127 58.7112 87.2315 58.2356 87.0691 57.7947C86.9067 57.3539 86.6564 56.9976 86.3184 56.7259C85.9803 56.4541 85.5494 56.3182 85.0257 56.3182C84.5021 56.3182 84.0712 56.4541 83.7331 56.7259C83.3951 56.9976 83.1448 57.3539 82.9824 57.7947C82.82 58.2356 82.7388 58.7112 82.7388 59.2216C82.7388 59.732 82.82 60.206 82.9824 60.6435C83.1448 61.081 83.3951 61.4339 83.7331 61.7024C84.0712 61.9709 84.5021 62.1051 85.0257 62.1051ZM91.4503 58.4062V63H90.277V55.3636H91.4105V56.5568H91.5099C91.6889 56.169 91.9607 55.8575 92.3253 55.6222C92.6899 55.3835 93.1605 55.2642 93.7372 55.2642C94.2543 55.2642 94.7067 55.3703 95.0945 55.5824C95.4822 55.7912 95.7839 56.1094 95.9993 56.5369C96.2147 56.9612 96.3224 57.4981 96.3224 58.1477V63H95.1491V58.2273C95.1491 57.6274 94.9934 57.16 94.6818 56.8253C94.3703 56.4872 93.9427 56.3182 93.3991 56.3182C93.0246 56.3182 92.6899 56.3994 92.3949 56.5618C92.1032 56.7242 91.8729 56.9612 91.7038 57.2727C91.5348 57.5843 91.4503 57.9621 91.4503 58.4062ZM102.563 63V52.8182H106.003C106.799 52.8182 107.452 52.9541 107.962 53.2259C108.473 53.4943 108.85 53.8639 109.096 54.3345C109.341 54.8052 109.464 55.3404 109.464 55.9403C109.464 56.5402 109.341 57.0722 109.096 57.5362C108.85 58.0002 108.474 58.3648 107.967 58.63C107.46 58.8918 106.812 59.0227 106.023 59.0227H103.239V57.9091H105.983C106.527 57.9091 106.965 57.8295 107.296 57.6705C107.631 57.5114 107.873 57.286 108.022 56.9943C108.174 56.6993 108.251 56.348 108.251 55.9403C108.251 55.5327 108.174 55.1764 108.022 54.8714C107.869 54.5665 107.626 54.3312 107.291 54.1655C106.956 53.9964 106.514 53.9119 105.964 53.9119H103.796V63H102.563ZM107.356 58.4261L109.861 63H108.43L105.964 58.4261H107.356ZM114.479 63.1591C113.743 63.1591 113.108 62.9967 112.575 62.6719C112.044 62.3438 111.635 61.8864 111.347 61.2997C111.062 60.7098 110.919 60.0237 110.919 59.2415C110.919 58.4593 111.062 57.7699 111.347 57.1733C111.635 56.5734 112.036 56.1061 112.55 55.7713C113.067 55.4332 113.67 55.2642 114.359 55.2642C114.757 55.2642 115.15 55.3305 115.538 55.4631C115.925 55.5956 116.278 55.8111 116.597 56.1094C116.915 56.4044 117.168 56.7955 117.357 57.2827C117.546 57.7699 117.641 58.3698 117.641 59.0824V59.5795H111.754V58.5653H116.447C116.447 58.1345 116.361 57.75 116.189 57.4119C116.02 57.0739 115.778 56.8071 115.463 56.6115C115.152 56.416 114.784 56.3182 114.359 56.3182C113.892 56.3182 113.488 56.4342 113.146 56.6662C112.808 56.8949 112.548 57.1932 112.366 57.5611C112.183 57.929 112.092 58.3234 112.092 58.7443V59.4205C112.092 59.9972 112.192 60.486 112.391 60.8871C112.593 61.2848 112.873 61.5881 113.231 61.7969C113.589 62.0024 114.005 62.1051 114.479 62.1051C114.787 62.1051 115.065 62.062 115.314 61.9759C115.566 61.8864 115.783 61.7538 115.965 61.5781C116.147 61.3991 116.288 61.1771 116.388 60.9119L117.521 61.2301C117.402 61.6146 117.201 61.9527 116.92 62.2443C116.638 62.5327 116.29 62.758 115.876 62.9205C115.461 63.0795 114.996 63.1591 114.479 63.1591ZM120.599 52.8182V63H119.425V52.8182H120.599ZM124.995 63.179C124.511 63.179 124.072 63.0878 123.677 62.9055C123.283 62.7199 122.97 62.4531 122.738 62.1051C122.506 61.7538 122.39 61.3295 122.39 60.8324C122.39 60.3949 122.476 60.0402 122.648 59.7685C122.821 59.4934 123.051 59.2779 123.339 59.1222C123.628 58.9664 123.946 58.8504 124.294 58.7741C124.645 58.6946 124.998 58.6316 125.353 58.5852C125.817 58.5256 126.193 58.4808 126.481 58.451C126.773 58.4179 126.985 58.3632 127.118 58.2869C127.254 58.2107 127.322 58.0781 127.322 57.8892V57.8494C127.322 57.3589 127.187 56.9777 126.919 56.706C126.654 56.4342 126.251 56.2983 125.711 56.2983C125.151 56.2983 124.711 56.4209 124.393 56.6662C124.075 56.9115 123.851 57.1733 123.722 57.4517L122.608 57.054C122.807 56.59 123.073 56.2287 123.404 55.9702C123.739 55.7083 124.103 55.526 124.498 55.4233C124.895 55.3172 125.287 55.2642 125.671 55.2642C125.916 55.2642 126.198 55.294 126.516 55.3537C126.838 55.41 127.148 55.5277 127.446 55.7067C127.747 55.8857 127.998 56.1558 128.197 56.517C128.395 56.8783 128.495 57.3622 128.495 57.9688V63H127.322V61.9659H127.262C127.182 62.1316 127.05 62.3089 126.864 62.4979C126.679 62.6868 126.432 62.8475 126.123 62.9801C125.815 63.1127 125.439 63.179 124.995 63.179ZM125.174 62.125C125.638 62.125 126.029 62.0339 126.347 61.8516C126.669 61.6693 126.911 61.4339 127.073 61.1456C127.239 60.8572 127.322 60.554 127.322 60.2358V59.1619C127.272 59.2216 127.162 59.2763 126.993 59.326C126.828 59.3724 126.635 59.4138 126.417 59.4503C126.201 59.4834 125.991 59.5133 125.785 59.5398C125.583 59.563 125.419 59.5829 125.293 59.5994C124.988 59.6392 124.703 59.7038 124.438 59.7933C124.176 59.8795 123.964 60.0104 123.802 60.1861C123.643 60.3584 123.563 60.5937 123.563 60.892C123.563 61.2997 123.714 61.608 124.015 61.8168C124.32 62.0223 124.706 62.125 125.174 62.125ZM130.636 63V55.3636H131.81V63H130.636ZM131.233 54.0909C131.004 54.0909 130.807 54.013 130.641 53.8572C130.479 53.7015 130.398 53.5142 130.398 53.2955C130.398 53.0767 130.479 52.8894 130.641 52.7337C130.807 52.5779 131.004 52.5 131.233 52.5C131.462 52.5 131.657 52.5779 131.82 52.7337C131.985 52.8894 132.068 53.0767 132.068 53.2955C132.068 53.5142 131.985 53.7015 131.82 53.8572C131.657 54.013 131.462 54.0909 131.233 54.0909ZM134.118 63V52.8182H135.291V56.5767H135.39C135.477 56.4441 135.596 56.2751 135.748 56.0696C135.904 55.8608 136.126 55.6752 136.415 55.5128C136.706 55.3471 137.101 55.2642 137.598 55.2642C138.241 55.2642 138.808 55.425 139.298 55.7464C139.789 56.0679 140.171 56.5237 140.447 57.1136C140.722 57.7036 140.859 58.3996 140.859 59.2017C140.859 60.0104 140.722 60.7114 140.447 61.3047C140.171 61.8946 139.79 62.352 139.303 62.6768C138.816 62.9983 138.254 63.1591 137.618 63.1591C137.127 63.1591 136.734 63.0779 136.439 62.9155C136.144 62.7498 135.917 62.5625 135.758 62.3537C135.599 62.1416 135.477 61.9659 135.39 61.8267H135.251V63H134.118ZM135.271 59.1818C135.271 59.7585 135.356 60.2673 135.525 60.7081C135.694 61.1456 135.941 61.4886 136.265 61.7372C136.59 61.9825 136.988 62.1051 137.459 62.1051C137.949 62.1051 138.358 61.9759 138.687 61.7173C139.018 61.4555 139.267 61.1042 139.432 60.6634C139.601 60.2192 139.686 59.7254 139.686 59.1818C139.686 58.6449 139.603 58.161 139.437 57.7301C139.275 57.2959 139.028 56.9529 138.697 56.701C138.368 56.4458 137.956 56.3182 137.459 56.3182C136.981 56.3182 136.58 56.4392 136.256 56.6811C135.931 56.9197 135.685 57.2545 135.52 57.6854C135.354 58.1129 135.271 58.6117 135.271 59.1818ZM142.654 63V55.3636H143.827V63H142.654ZM143.251 54.0909C143.022 54.0909 142.825 54.013 142.659 53.8572C142.497 53.7015 142.415 53.5142 142.415 53.2955C142.415 53.0767 142.497 52.8894 142.659 52.7337C142.825 52.5779 143.022 52.5 143.251 52.5C143.479 52.5 143.675 52.5779 143.837 52.7337C144.003 52.8894 144.086 53.0767 144.086 53.2955C144.086 53.5142 144.003 53.7015 143.837 53.8572C143.675 54.013 143.479 54.0909 143.251 54.0909ZM147.15 52.8182V63H145.976V52.8182H147.15ZM149.298 63V55.3636H150.472V63H149.298ZM149.895 54.0909C149.666 54.0909 149.469 54.013 149.303 53.8572C149.141 53.7015 149.06 53.5142 149.06 53.2955C149.06 53.0767 149.141 52.8894 149.303 52.7337C149.469 52.5779 149.666 52.5 149.895 52.5C150.124 52.5 150.319 52.5779 150.482 52.7337C150.647 52.8894 150.73 53.0767 150.73 53.2955C150.73 53.5142 150.647 53.7015 150.482 53.8572C150.319 54.013 150.124 54.0909 149.895 54.0909ZM155.942 55.3636V56.358H151.984V55.3636H155.942ZM153.138 53.5341H154.311V60.8125C154.311 61.1439 154.359 61.3925 154.455 61.5582C154.555 61.7206 154.681 61.83 154.833 61.8864C154.989 61.9394 155.153 61.9659 155.325 61.9659C155.455 61.9659 155.561 61.9593 155.643 61.946C155.726 61.9295 155.793 61.9162 155.842 61.9062L156.081 62.9602C156.001 62.9901 155.89 63.0199 155.748 63.0497C155.605 63.0829 155.425 63.0994 155.206 63.0994C154.875 63.0994 154.55 63.0282 154.232 62.8857C153.917 62.7431 153.655 62.526 153.446 62.2344C153.241 61.9427 153.138 61.5748 153.138 61.1307V53.5341ZM158.462 65.8636C158.263 65.8636 158.086 65.8471 157.93 65.8139C157.775 65.7841 157.667 65.7543 157.607 65.7244L157.906 64.6903C158.191 64.7633 158.442 64.7898 158.661 64.7699C158.88 64.75 159.074 64.6522 159.243 64.4766C159.415 64.3042 159.573 64.0241 159.715 63.6364L159.934 63.0398L157.11 55.3636H158.383L160.491 61.4489H160.57L162.678 55.3636H163.951L160.71 64.1136C160.564 64.508 160.383 64.8345 160.168 65.093C159.952 65.3549 159.702 65.5488 159.417 65.6747C159.135 65.8007 158.817 65.8636 158.462 65.8636Z" fill="#5A5D6C"/>
<path d="M43.352 129.84L39.56 135H36.056L40.256 129.408C39.824 129.528 39.368 129.6 38.936 129.6C35.312 129.6 32.864 127.056 32.864 123.504C32.864 119.76 35.648 117.144 39.392 117.144C43.184 117.144 46.016 119.928 46.016 123.528C46.016 125.64 45.32 127.176 43.352 129.84ZM42.872 123.504C42.872 121.368 41.456 119.88 39.392 119.88C37.376 119.88 35.96 121.368 35.96 123.504C35.96 125.616 37.376 127.08 39.392 127.08C41.48 127.08 42.872 125.616 42.872 123.504ZM58.2348 129.84L54.4428 135H50.9388L55.1388 129.408C54.7068 129.528 54.2508 129.6 53.8188 129.6C50.1948 129.6 47.7468 127.056 47.7468 123.504C47.7468 119.76 50.5308 117.144 54.2748 117.144C58.0668 117.144 60.8988 119.928 60.8988 123.528C60.8988 125.64 60.2028 127.176 58.2348 129.84ZM57.7548 123.504C57.7548 121.368 56.3388 119.88 54.2748 119.88C52.2588 119.88 50.8428 121.368 50.8428 123.504C50.8428 125.616 52.2588 127.08 54.2748 127.08C56.3628 127.08 57.7548 125.616 57.7548 123.504ZM71.7496 121.728C71.7496 124.44 69.8296 126.336 67.1656 126.336C64.5016 126.336 62.5816 124.44 62.5816 121.728C62.5816 119.04 64.5016 117.12 67.1656 117.12C69.8296 117.12 71.7496 119.04 71.7496 121.728ZM81.3736 117.48L68.0536 135H65.1256L78.4456 117.48H81.3736ZM69.4216 121.728C69.4216 120.336 68.5096 119.376 67.1656 119.376C65.8216 119.376 64.9336 120.336 64.9336 121.728C64.9336 123.12 65.8456 124.08 67.1656 124.08C68.5096 124.08 69.4216 123.12 69.4216 121.728ZM83.9416 130.704C83.9416 133.392 82.0456 135.312 79.3816 135.312C76.6936 135.312 74.7976 133.392 74.7976 130.704C74.7976 128.016 76.6936 126.096 79.3816 126.096C82.0456 126.096 83.9416 128.016 83.9416 130.704ZM81.6136 130.704C81.6136 129.312 80.7016 128.352 79.3816 128.352C78.0376 128.352 77.1256 129.312 77.1256 130.704C77.1256 132.096 78.0376 133.056 79.3816 133.056C80.7016 133.056 81.6136 132.096 81.6136 130.704Z" fill="white"/>
<rect x="93" y="112" width="91" height="28" rx="4" fill="#1A4623"/>
<path d="M114.335 121L116.243 122.908L112.176 126.975L108.843 123.642L102.668 129.825L103.843 131L108.843 126L112.176 129.333L117.426 124.092L119.335 126V121H114.335Z" fill="#91DBA1"/>
<path d="M130.992 129.29V122.568H132.33V129.29H130.992ZM128.303 126.595V125.263H135.024V126.595H128.303ZM141.167 120.818V131H139.625V122.359H139.566L137.13 123.95V122.479L139.67 120.818H141.167ZM144.332 131.094C144.06 131.094 143.827 130.998 143.631 130.806C143.436 130.611 143.338 130.375 143.338 130.1C143.338 129.828 143.436 129.596 143.631 129.404C143.827 129.209 144.06 129.111 144.332 129.111C144.604 129.111 144.838 129.209 145.033 129.404C145.229 129.596 145.327 129.828 145.327 130.1C145.327 130.282 145.28 130.45 145.187 130.602C145.098 130.751 144.979 130.871 144.829 130.96C144.68 131.05 144.515 131.094 144.332 131.094ZM147.298 131V129.886L150.743 126.317C151.111 125.929 151.414 125.589 151.653 125.298C151.895 125.003 152.075 124.723 152.195 124.457C152.314 124.192 152.374 123.911 152.374 123.612C152.374 123.274 152.294 122.982 152.135 122.737C151.976 122.489 151.759 122.298 151.484 122.165C151.209 122.03 150.899 121.962 150.554 121.962C150.19 121.962 149.871 122.036 149.6 122.185C149.328 122.335 149.119 122.545 148.973 122.817C148.827 123.089 148.754 123.407 148.754 123.771H147.288C147.288 123.152 147.43 122.61 147.715 122.146C148 121.682 148.392 121.322 148.889 121.067C149.386 120.808 149.951 120.679 150.584 120.679C151.224 120.679 151.787 120.807 152.274 121.062C152.765 121.314 153.148 121.658 153.423 122.096C153.698 122.53 153.835 123.021 153.835 123.567C153.835 123.945 153.764 124.315 153.622 124.676C153.482 125.037 153.239 125.44 152.891 125.884C152.543 126.325 152.059 126.86 151.439 127.49L149.416 129.608V129.683H153.999V131H147.298ZM155.884 131V129.886L159.329 126.317C159.697 125.929 160 125.589 160.239 125.298C160.481 125.003 160.661 124.723 160.781 124.457C160.9 124.192 160.96 123.911 160.96 123.612C160.96 123.274 160.88 122.982 160.721 122.737C160.562 122.489 160.345 122.298 160.07 122.165C159.795 122.03 159.485 121.962 159.14 121.962C158.776 121.962 158.457 122.036 158.186 122.185C157.914 122.335 157.705 122.545 157.559 122.817C157.413 123.089 157.34 123.407 157.34 123.771H155.874C155.874 123.152 156.016 122.61 156.301 122.146C156.586 121.682 156.977 121.322 157.475 121.067C157.972 120.808 158.537 120.679 159.17 120.679C159.81 120.679 160.373 120.807 160.86 121.062C161.351 121.314 161.734 121.658 162.009 122.096C162.284 122.53 162.421 123.021 162.421 123.567C162.421 123.945 162.35 124.315 162.208 124.676C162.068 125.037 161.825 125.44 161.477 125.884C161.129 126.325 160.645 126.86 160.025 127.49L158.002 129.608V129.683H162.585V131H155.884ZM169.784 129.091V128.554C169.784 128.17 169.864 127.818 170.023 127.5C170.185 127.179 170.421 126.922 170.729 126.729C171.04 126.534 171.417 126.436 171.857 126.436C172.308 126.436 172.686 126.532 172.991 126.724C173.296 126.917 173.526 127.174 173.682 127.495C173.841 127.817 173.921 128.17 173.921 128.554V129.091C173.921 129.475 173.841 129.828 173.682 130.15C173.523 130.468 173.289 130.725 172.981 130.92C172.676 131.113 172.302 131.209 171.857 131.209C171.41 131.209 171.032 131.113 170.724 130.92C170.416 130.725 170.182 130.468 170.023 130.15C169.864 129.828 169.784 129.475 169.784 129.091ZM170.943 128.554V129.091C170.943 129.376 171.011 129.634 171.146 129.866C171.282 130.098 171.519 130.214 171.857 130.214C172.192 130.214 172.426 130.098 172.558 129.866C172.691 129.634 172.757 129.376 172.757 129.091V128.554C172.757 128.269 172.693 128.01 172.563 127.778C172.437 127.546 172.202 127.43 171.857 127.43C171.526 127.43 171.291 127.546 171.151 127.778C171.012 128.01 170.943 128.269 170.943 128.554ZM164.664 123.264V122.727C164.664 122.343 164.743 121.99 164.902 121.668C165.065 121.347 165.3 121.09 165.608 120.898C165.92 120.705 166.296 120.609 166.737 120.609C167.187 120.609 167.565 120.705 167.87 120.898C168.175 121.09 168.405 121.347 168.561 121.668C168.717 121.99 168.795 122.343 168.795 122.727V123.264C168.795 123.649 168.715 124.002 168.556 124.323C168.401 124.641 168.169 124.898 167.86 125.094C167.555 125.286 167.181 125.382 166.737 125.382C166.286 125.382 165.906 125.286 165.598 125.094C165.293 124.898 165.061 124.641 164.902 124.323C164.743 124.002 164.664 123.649 164.664 123.264ZM165.827 122.727V123.264C165.827 123.549 165.893 123.808 166.026 124.04C166.162 124.272 166.399 124.388 166.737 124.388C167.068 124.388 167.3 124.272 167.433 124.04C167.569 123.808 167.637 123.549 167.637 123.264V122.727C167.637 122.442 167.572 122.184 167.443 121.952C167.313 121.72 167.078 121.604 166.737 121.604C166.405 121.604 166.17 121.72 166.031 121.952C165.895 122.184 165.827 122.442 165.827 122.727ZM165.136 131L172.136 120.818H173.324L166.324 131H165.136Z" fill="#91DBA1"/>
<path d="M199.318 123.364L196.494 131H195.301L192.477 123.364H193.75L195.858 129.449H195.938L198.045 123.364H199.318ZM206.276 125.074L205.222 125.372C205.156 125.196 205.058 125.026 204.929 124.86C204.803 124.691 204.63 124.552 204.412 124.442C204.193 124.333 203.913 124.278 203.571 124.278C203.104 124.278 202.715 124.386 202.403 124.602C202.095 124.814 201.941 125.084 201.941 125.412C201.941 125.704 202.047 125.934 202.259 126.103C202.471 126.272 202.802 126.413 203.253 126.526L204.387 126.804C205.069 126.97 205.578 127.223 205.913 127.565C206.248 127.903 206.415 128.339 206.415 128.872C206.415 129.31 206.289 129.701 206.037 130.045C205.789 130.39 205.441 130.662 204.993 130.861C204.546 131.06 204.025 131.159 203.432 131.159C202.653 131.159 202.009 130.99 201.498 130.652C200.988 130.314 200.665 129.82 200.529 129.17L201.642 128.892C201.748 129.303 201.949 129.611 202.244 129.817C202.542 130.022 202.932 130.125 203.412 130.125C203.959 130.125 204.393 130.009 204.715 129.777C205.04 129.542 205.202 129.26 205.202 128.932C205.202 128.667 205.109 128.445 204.924 128.266C204.738 128.083 204.453 127.947 204.069 127.858L202.796 127.56C202.096 127.394 201.583 127.137 201.255 126.789C200.93 126.438 200.767 125.999 200.767 125.472C200.767 125.041 200.888 124.66 201.13 124.328C201.376 123.997 201.709 123.737 202.13 123.548C202.554 123.359 203.034 123.264 203.571 123.264C204.327 123.264 204.92 123.43 205.351 123.761C205.785 124.093 206.094 124.53 206.276 125.074ZM209.036 131.08C208.791 131.08 208.581 130.992 208.405 130.816C208.229 130.64 208.142 130.43 208.142 130.185C208.142 129.939 208.229 129.729 208.405 129.553C208.581 129.378 208.791 129.29 209.036 129.29C209.282 129.29 209.492 129.378 209.668 129.553C209.843 129.729 209.931 129.939 209.931 130.185C209.931 130.347 209.89 130.496 209.807 130.632C209.727 130.768 209.62 130.877 209.484 130.96C209.351 131.04 209.202 131.08 209.036 131.08ZM217.148 120.818V131H215.974V120.818H217.148ZM221.544 131.179C221.06 131.179 220.621 131.088 220.226 130.906C219.832 130.72 219.519 130.453 219.287 130.105C219.055 129.754 218.939 129.33 218.939 128.832C218.939 128.395 219.025 128.04 219.197 127.768C219.369 127.493 219.6 127.278 219.888 127.122C220.176 126.966 220.495 126.85 220.843 126.774C221.194 126.695 221.547 126.632 221.902 126.585C222.366 126.526 222.742 126.481 223.03 126.451C223.322 126.418 223.534 126.363 223.667 126.287C223.802 126.211 223.87 126.078 223.87 125.889V125.849C223.87 125.359 223.736 124.978 223.468 124.706C223.203 124.434 222.8 124.298 222.26 124.298C221.699 124.298 221.26 124.421 220.942 124.666C220.624 124.911 220.4 125.173 220.271 125.452L219.157 125.054C219.356 124.59 219.621 124.229 219.953 123.97C220.288 123.708 220.652 123.526 221.047 123.423C221.444 123.317 221.835 123.264 222.22 123.264C222.465 123.264 222.747 123.294 223.065 123.354C223.386 123.41 223.696 123.528 223.995 123.707C224.296 123.886 224.547 124.156 224.745 124.517C224.944 124.878 225.044 125.362 225.044 125.969V131H223.87V129.966H223.811C223.731 130.132 223.599 130.309 223.413 130.498C223.227 130.687 222.98 130.848 222.672 130.98C222.364 131.113 221.988 131.179 221.544 131.179ZM221.723 130.125C222.187 130.125 222.578 130.034 222.896 129.852C223.217 129.669 223.459 129.434 223.622 129.146C223.788 128.857 223.87 128.554 223.87 128.236V127.162C223.821 127.222 223.711 127.276 223.542 127.326C223.377 127.372 223.184 127.414 222.966 127.45C222.75 127.483 222.54 127.513 222.334 127.54C222.132 127.563 221.968 127.583 221.842 127.599C221.537 127.639 221.252 127.704 220.987 127.793C220.725 127.879 220.513 128.01 220.35 128.186C220.191 128.358 220.112 128.594 220.112 128.892C220.112 129.3 220.263 129.608 220.564 129.817C220.869 130.022 221.255 130.125 221.723 130.125ZM232.594 125.074L231.54 125.372C231.474 125.196 231.376 125.026 231.247 124.86C231.121 124.691 230.949 124.552 230.73 124.442C230.511 124.333 230.231 124.278 229.89 124.278C229.422 124.278 229.033 124.386 228.721 124.602C228.413 124.814 228.259 125.084 228.259 125.412C228.259 125.704 228.365 125.934 228.577 126.103C228.789 126.272 229.121 126.413 229.572 126.526L230.705 126.804C231.388 126.97 231.897 127.223 232.231 127.565C232.566 127.903 232.733 128.339 232.733 128.872C232.733 129.31 232.608 129.701 232.356 130.045C232.107 130.39 231.759 130.662 231.312 130.861C230.864 131.06 230.344 131.159 229.751 131.159C228.972 131.159 228.327 130.99 227.817 130.652C227.306 130.314 226.983 129.82 226.847 129.17L227.961 128.892C228.067 129.303 228.267 129.611 228.562 129.817C228.861 130.022 229.25 130.125 229.731 130.125C230.278 130.125 230.712 130.009 231.033 129.777C231.358 129.542 231.52 129.26 231.52 128.932C231.52 128.667 231.428 128.445 231.242 128.266C231.056 128.083 230.771 127.947 230.387 127.858L229.114 127.56C228.415 127.394 227.901 127.137 227.573 126.789C227.248 126.438 227.086 125.999 227.086 125.472C227.086 125.041 227.207 124.66 227.449 124.328C227.694 123.997 228.027 123.737 228.448 123.548C228.872 123.359 229.353 123.264 229.89 123.264C230.645 123.264 231.239 123.43 231.67 123.761C232.104 124.093 232.412 124.53 232.594 125.074ZM237.821 123.364V124.358H233.863V123.364H237.821ZM235.017 121.534H236.19V128.812C236.19 129.144 236.238 129.393 236.334 129.558C236.434 129.721 236.56 129.83 236.712 129.886C236.868 129.939 237.032 129.966 237.204 129.966C237.333 129.966 237.44 129.959 237.522 129.946C237.605 129.929 237.672 129.916 237.721 129.906L237.96 130.96C237.88 130.99 237.769 131.02 237.627 131.05C237.484 131.083 237.304 131.099 237.085 131.099C236.753 131.099 236.429 131.028 236.11 130.886C235.796 130.743 235.534 130.526 235.325 130.234C235.119 129.943 235.017 129.575 235.017 129.131V121.534ZM243.523 131V123.364H244.657V124.557H244.756C244.915 124.149 245.172 123.833 245.527 123.607C245.881 123.379 246.307 123.264 246.804 123.264C247.308 123.264 247.727 123.379 248.062 123.607C248.4 123.833 248.664 124.149 248.853 124.557H248.932C249.128 124.162 249.421 123.849 249.812 123.617C250.203 123.382 250.672 123.264 251.219 123.264C251.902 123.264 252.46 123.478 252.895 123.906C253.329 124.33 253.546 124.991 253.546 125.889V131H252.373V125.889C252.373 125.326 252.218 124.923 251.91 124.681C251.602 124.439 251.239 124.318 250.821 124.318C250.284 124.318 249.868 124.481 249.574 124.805C249.279 125.127 249.131 125.535 249.131 126.028V131H247.938V125.77C247.938 125.336 247.797 124.986 247.515 124.721C247.234 124.452 246.871 124.318 246.426 124.318C246.122 124.318 245.837 124.399 245.571 124.562C245.31 124.724 245.097 124.95 244.935 125.238C244.776 125.523 244.696 125.853 244.696 126.227V131H243.523ZM258.793 131.159C258.104 131.159 257.499 130.995 256.979 130.667C256.462 130.339 256.057 129.88 255.766 129.29C255.477 128.7 255.333 128.01 255.333 127.222C255.333 126.426 255.477 125.732 255.766 125.138C256.057 124.545 256.462 124.085 256.979 123.756C257.499 123.428 258.104 123.264 258.793 123.264C259.483 123.264 260.086 123.428 260.603 123.756C261.123 124.085 261.528 124.545 261.816 125.138C262.108 125.732 262.254 126.426 262.254 127.222C262.254 128.01 262.108 128.7 261.816 129.29C261.528 129.88 261.123 130.339 260.603 130.667C260.086 130.995 259.483 131.159 258.793 131.159ZM258.793 130.105C259.317 130.105 259.748 129.971 260.086 129.702C260.424 129.434 260.674 129.081 260.837 128.643C260.999 128.206 261.08 127.732 261.08 127.222C261.08 126.711 260.999 126.236 260.837 125.795C260.674 125.354 260.424 124.998 260.086 124.726C259.748 124.454 259.317 124.318 258.793 124.318C258.27 124.318 257.839 124.454 257.501 124.726C257.163 124.998 256.912 125.354 256.75 125.795C256.588 126.236 256.506 126.711 256.506 127.222C256.506 127.732 256.588 128.206 256.75 128.643C256.912 129.081 257.163 129.434 257.501 129.702C257.839 129.971 258.27 130.105 258.793 130.105ZM265.218 126.406V131H264.045V123.364H265.178V124.557H265.278C265.456 124.169 265.728 123.857 266.093 123.622C266.457 123.384 266.928 123.264 267.505 123.264C268.022 123.264 268.474 123.37 268.862 123.582C269.25 123.791 269.551 124.109 269.767 124.537C269.982 124.961 270.09 125.498 270.09 126.148V131H268.917V126.227C268.917 125.627 268.761 125.16 268.449 124.825C268.138 124.487 267.71 124.318 267.167 124.318C266.792 124.318 266.457 124.399 266.162 124.562C265.871 124.724 265.64 124.961 265.471 125.273C265.302 125.584 265.218 125.962 265.218 126.406ZM275.555 123.364V124.358H271.598V123.364H275.555ZM272.751 121.534H273.924V128.812C273.924 129.144 273.972 129.393 274.069 129.558C274.168 129.721 274.294 129.83 274.446 129.886C274.602 129.939 274.766 129.966 274.939 129.966C275.068 129.966 275.174 129.959 275.257 129.946C275.34 129.929 275.406 129.916 275.456 129.906L275.694 130.96C275.615 130.99 275.504 131.02 275.361 131.05C275.219 131.083 275.038 131.099 274.819 131.099C274.488 131.099 274.163 131.028 273.845 130.886C273.53 130.743 273.268 130.526 273.059 130.234C272.854 129.943 272.751 129.575 272.751 129.131V121.534ZM278.657 126.406V131H277.484V120.818H278.657V124.557H278.757C278.936 124.162 279.204 123.849 279.562 123.617C279.923 123.382 280.404 123.264 281.004 123.264C281.524 123.264 281.98 123.369 282.371 123.577C282.762 123.783 283.065 124.099 283.281 124.527C283.5 124.951 283.609 125.491 283.609 126.148V131H282.436V126.227C282.436 125.621 282.278 125.152 281.963 124.82C281.652 124.486 281.219 124.318 280.666 124.318C280.281 124.318 279.937 124.399 279.632 124.562C279.33 124.724 279.092 124.961 278.916 125.273C278.743 125.584 278.657 125.962 278.657 126.406Z" fill="#9C9FB0"/>
</svg>
