<svg width="186" height="41" viewBox="0 0 186 41" fill="none" xmlns="http://www.w3.org/2000/svg">
<path d="M0.0670013 13.874H6.31099V12.791H1.73799V12.684L3.931 10.418C5.676 8.619 6.151 7.817 6.151 6.714V6.701C6.151 5.143 4.86099 4 3.17599 4C1.33099 4 0.007 5.23001 0 6.94101L0.0139923 6.94801L1.164 6.955L1.17 6.94101C1.17 5.80501 1.93899 5.04901 3.09599 5.04901C4.23199 5.04901 4.92099 5.811 4.92099 6.828V6.841C4.92099 7.683 4.56 8.185 3.33 9.515L0.0670013 13.045V13.874Z" fill="white"/>
<mask id="mask0_402_174" style="mask-type:luminance" maskUnits="userSpaceOnUse" x="27" y="0" width="159" height="41">
<path d="M27.693 0.852051H185.153V40.3979H27.693V0.852051Z" fill="white"/>
</mask>
<g mask="url(#mask0_402_174)">
<mask id="mask1_402_174" style="mask-type:luminance" maskUnits="userSpaceOnUse" x="27" y="0" width="159" height="15">
<path d="M27.693 0.852051H185.153V14.5442H27.693V0.852051Z" fill="white"/>
</mask>
<g mask="url(#mask1_402_174)">
<path d="M31.9648 9.63672L33.5171 4.17969H34.269L33.834 6.30127L32.1636 12H31.417L31.9648 9.63672ZM30.3589 4.17969L31.5942 9.5293L31.9648 12H31.2236L29.3276 4.17969H30.3589ZM36.2778 9.52393L37.4863 4.17969H38.5229L36.6323 12H35.8911L36.2778 9.52393ZM34.3818 4.17969L35.8911 9.63672L36.439 12H35.6924L34.0811 6.30127L33.6406 4.17969H34.3818ZM41.7617 12.1074C41.3571 12.1074 40.9901 12.0394 40.6606 11.9033C40.3348 11.7637 40.0537 11.5685 39.8174 11.3179C39.5846 11.0672 39.4056 10.77 39.2803 10.4263C39.1549 10.0825 39.0923 9.70654 39.0923 9.29834V9.07275C39.0923 8.6001 39.1621 8.17936 39.3018 7.81055C39.4414 7.43815 39.6312 7.12305 39.8711 6.86523C40.111 6.60742 40.3831 6.41227 40.6875 6.27979C40.9919 6.1473 41.307 6.08105 41.6328 6.08105C42.0482 6.08105 42.4062 6.15267 42.707 6.2959C43.0114 6.43913 43.2603 6.63965 43.4536 6.89746C43.647 7.15169 43.7902 7.45247 43.8833 7.7998C43.9764 8.14355 44.0229 8.51953 44.0229 8.92773V9.37354H39.6831V8.5625H43.0293V8.4873C43.015 8.22949 42.9613 7.97884 42.8682 7.73535C42.7786 7.49186 42.6354 7.29134 42.4385 7.13379C42.2415 6.97624 41.973 6.89746 41.6328 6.89746C41.4072 6.89746 41.1995 6.9458 41.0098 7.04248C40.82 7.13558 40.6571 7.27523 40.521 7.46143C40.3849 7.64762 40.2793 7.875 40.2041 8.14355C40.1289 8.41211 40.0913 8.72184 40.0913 9.07275V9.29834C40.0913 9.57406 40.1289 9.83366 40.2041 10.0771C40.2829 10.3171 40.3957 10.5283 40.5425 10.7109C40.6929 10.8936 40.8737 11.0368 41.085 11.1406C41.2998 11.2445 41.5433 11.2964 41.8154 11.2964C42.1663 11.2964 42.4635 11.2248 42.707 11.0815C42.9505 10.9383 43.1636 10.7467 43.3462 10.5068L43.9478 10.9849C43.8224 11.1746 43.6631 11.3555 43.4697 11.5273C43.2764 11.6992 43.0382 11.8389 42.7554 11.9463C42.4761 12.0537 42.1449 12.1074 41.7617 12.1074ZM45.1777 3.75H46.1768V10.8721L46.0908 12H45.1777V3.75ZM50.103 9.0459V9.15869C50.103 9.58122 50.0529 9.97331 49.9526 10.335C49.8524 10.693 49.7056 11.0046 49.5122 11.2695C49.3188 11.5345 49.0825 11.7404 48.8032 11.8872C48.5239 12.034 48.2035 12.1074 47.8418 12.1074C47.473 12.1074 47.1489 12.0448 46.8696 11.9194C46.5939 11.7905 46.3612 11.6061 46.1714 11.3662C45.9816 11.1263 45.8294 10.8363 45.7148 10.4961C45.6038 10.1559 45.5269 9.77279 45.4839 9.34668V8.85254C45.5269 8.42285 45.6038 8.03792 45.7148 7.69775C45.8294 7.35758 45.9816 7.06755 46.1714 6.82764C46.3612 6.58415 46.5939 6.39974 46.8696 6.27441C47.1453 6.14551 47.4658 6.08105 47.8311 6.08105C48.1963 6.08105 48.5203 6.15267 48.8032 6.2959C49.0861 6.43555 49.3224 6.63607 49.5122 6.89746C49.7056 7.15885 49.8524 7.47217 49.9526 7.8374C50.0529 8.19906 50.103 8.60189 50.103 9.0459ZM49.104 9.15869V9.0459C49.104 8.75586 49.0771 8.48372 49.0234 8.22949C48.9697 7.97168 48.8838 7.74609 48.7656 7.55273C48.6475 7.35579 48.4917 7.20182 48.2983 7.09082C48.105 6.97624 47.8669 6.91895 47.584 6.91895C47.3333 6.91895 47.1149 6.96191 46.9287 7.04785C46.7461 7.13379 46.5903 7.25016 46.4614 7.39697C46.3325 7.5402 46.2269 7.70492 46.1445 7.89111C46.0658 8.07373 46.0067 8.26351 45.9673 8.46045V9.75488C46.0246 10.0055 46.1177 10.2472 46.2466 10.48C46.3791 10.7091 46.5545 10.8971 46.7729 11.0439C46.995 11.1908 47.2689 11.2642 47.5947 11.2642C47.8633 11.2642 48.0924 11.2104 48.2822 11.103C48.4756 10.992 48.6313 10.8398 48.7495 10.6465C48.8713 10.4531 48.9608 10.2293 49.0181 9.9751C49.0754 9.72087 49.104 9.44873 49.104 9.15869ZM57.4722 10.4585C57.4722 10.3153 57.4399 10.1828 57.3755 10.061C57.3146 9.93571 57.1875 9.82292 56.9941 9.72266C56.8044 9.61882 56.5179 9.5293 56.1348 9.4541C55.8125 9.38607 55.5207 9.3055 55.2593 9.2124C55.0015 9.1193 54.7812 9.00651 54.5986 8.87402C54.4196 8.74154 54.2817 8.58577 54.1851 8.40674C54.0884 8.2277 54.04 8.01823 54.04 7.77832C54.04 7.54915 54.0902 7.33252 54.1904 7.12842C54.2943 6.92432 54.4393 6.74349 54.6255 6.58594C54.8153 6.42839 55.0426 6.30485 55.3076 6.21533C55.5726 6.12581 55.868 6.08105 56.1938 6.08105C56.6593 6.08105 57.0568 6.16341 57.3862 6.32812C57.7157 6.49284 57.9681 6.71305 58.1436 6.98877C58.319 7.2609 58.4067 7.56348 58.4067 7.89648H57.4131C57.4131 7.73535 57.3647 7.57959 57.2681 7.4292C57.175 7.27523 57.0371 7.14811 56.8545 7.04785C56.6755 6.94759 56.4552 6.89746 56.1938 6.89746C55.9181 6.89746 55.6943 6.94043 55.5225 7.02637C55.3542 7.10872 55.2306 7.21436 55.1519 7.34326C55.0767 7.47217 55.0391 7.60824 55.0391 7.75146C55.0391 7.85889 55.057 7.95557 55.0928 8.0415C55.1322 8.12386 55.2002 8.20085 55.2969 8.27246C55.3936 8.34049 55.5296 8.40495 55.7051 8.46582C55.8805 8.52669 56.1043 8.58757 56.3765 8.64844C56.8527 8.75586 57.2448 8.88477 57.5527 9.03516C57.8607 9.18555 58.0898 9.36995 58.2402 9.58838C58.3906 9.8068 58.4658 10.0718 58.4658 10.3833C58.4658 10.6375 58.4121 10.8703 58.3047 11.0815C58.2008 11.2928 58.0487 11.4754 57.8481 11.6294C57.6512 11.7798 57.4149 11.8979 57.1392 11.9839C56.867 12.0662 56.5609 12.1074 56.2207 12.1074C55.7087 12.1074 55.2754 12.0161 54.9209 11.8335C54.5664 11.6509 54.2979 11.4146 54.1152 11.1245C53.9326 10.8345 53.8413 10.5283 53.8413 10.2061H54.8403C54.8547 10.4782 54.9334 10.6948 55.0767 10.856C55.2199 11.0135 55.3953 11.1263 55.603 11.1943C55.8107 11.2588 56.0166 11.291 56.2207 11.291C56.4928 11.291 56.7202 11.2552 56.9028 11.1836C57.089 11.112 57.2305 11.0135 57.3271 10.8882C57.4238 10.7629 57.4722 10.6196 57.4722 10.4585ZM62.2041 6.18848V6.95117H59.062V6.18848H62.2041ZM60.1255 4.77588H61.1191V10.5605C61.1191 10.7575 61.1496 10.9061 61.2104 11.0063C61.2713 11.1066 61.3501 11.1729 61.4468 11.2051C61.5435 11.2373 61.6473 11.2534 61.7583 11.2534C61.8407 11.2534 61.9266 11.2463 62.0161 11.2319C62.1092 11.214 62.179 11.1997 62.2256 11.189L62.231 12C62.1522 12.0251 62.0483 12.0483 61.9194 12.0698C61.7941 12.0949 61.6419 12.1074 61.4629 12.1074C61.2194 12.1074 60.9956 12.0591 60.7915 11.9624C60.5874 11.8657 60.4245 11.7046 60.3027 11.479C60.1846 11.2498 60.1255 10.9419 60.1255 10.5552V4.77588ZM64.3633 7.10156V12H63.3696V6.18848H64.3364L64.3633 7.10156ZM66.1787 6.15625L66.1733 7.08008C66.091 7.06217 66.0122 7.05143 65.937 7.04785C65.8654 7.04069 65.783 7.03711 65.6899 7.03711C65.4608 7.03711 65.2585 7.07292 65.083 7.14453C64.9076 7.21615 64.759 7.31641 64.6372 7.44531C64.5155 7.57422 64.4188 7.72819 64.3472 7.90723C64.2791 8.08268 64.2344 8.27604 64.2129 8.4873L63.9336 8.64844C63.9336 8.29753 63.9676 7.9681 64.0356 7.66016C64.1073 7.35221 64.2165 7.08008 64.3633 6.84375C64.5101 6.60384 64.6963 6.41764 64.9219 6.28516C65.151 6.14909 65.4232 6.08105 65.7383 6.08105C65.8099 6.08105 65.8923 6.09001 65.9854 6.10791C66.0785 6.12223 66.1429 6.13835 66.1787 6.15625ZM70.6528 10.6572V6.18848H71.6519V12H70.7012L70.6528 10.6572ZM70.8408 9.43262L71.2544 9.42188C71.2544 9.80859 71.2132 10.1667 71.1309 10.4961C71.0521 10.8219 70.9232 11.1048 70.7441 11.3447C70.5651 11.5846 70.3306 11.7726 70.0405 11.9087C69.7505 12.0412 69.3978 12.1074 68.9824 12.1074C68.6995 12.1074 68.4399 12.0662 68.2036 11.9839C67.9709 11.9015 67.7703 11.7744 67.6021 11.6025C67.4338 11.4307 67.3031 11.2069 67.21 10.9312C67.1204 10.6554 67.0757 10.3242 67.0757 9.9375V6.18848H68.0693V9.94824C68.0693 10.2096 68.098 10.4263 68.1553 10.5981C68.2161 10.7664 68.2967 10.9007 68.397 11.001C68.5008 11.0977 68.6154 11.1657 68.7407 11.2051C68.8696 11.2445 69.0021 11.2642 69.1382 11.2642C69.5607 11.2642 69.8955 11.1836 70.1426 11.0225C70.3896 10.8577 70.5669 10.6375 70.6743 10.3618C70.7853 10.0825 70.8408 9.77279 70.8408 9.43262ZM75.4922 11.291C75.7285 11.291 75.9469 11.2427 76.1475 11.146C76.348 11.0493 76.5127 10.9168 76.6416 10.7485C76.7705 10.5767 76.8439 10.3815 76.8618 10.1631H77.8071C77.7892 10.5068 77.6729 10.8273 77.458 11.1245C77.2467 11.4181 76.9692 11.6562 76.6255 11.8389C76.2817 12.0179 75.904 12.1074 75.4922 12.1074C75.0553 12.1074 74.674 12.0304 74.3481 11.8765C74.0259 11.7225 73.7573 11.5112 73.5425 11.2427C73.3312 10.9741 73.1719 10.6662 73.0645 10.3188C72.9606 9.96794 72.9087 9.59733 72.9087 9.20703V8.98145C72.9087 8.59115 72.9606 8.22233 73.0645 7.875C73.1719 7.52409 73.3312 7.21436 73.5425 6.9458C73.7573 6.67725 74.0259 6.46598 74.3481 6.31201C74.674 6.15804 75.0553 6.08105 75.4922 6.08105C75.9469 6.08105 76.3444 6.17415 76.6846 6.36035C77.0247 6.54297 77.2915 6.79362 77.4849 7.1123C77.6818 7.42741 77.7892 7.78548 77.8071 8.18652H76.8618C76.8439 7.94661 76.7759 7.72998 76.6577 7.53662C76.5431 7.34326 76.3856 7.18929 76.1851 7.07471C75.9881 6.95654 75.7572 6.89746 75.4922 6.89746C75.1878 6.89746 74.9318 6.95833 74.7241 7.08008C74.52 7.19824 74.3571 7.35938 74.2354 7.56348C74.1172 7.764 74.0312 7.98779 73.9775 8.23486C73.9274 8.47835 73.9023 8.72721 73.9023 8.98145V9.20703C73.9023 9.46126 73.9274 9.71191 73.9775 9.95898C74.0277 10.2061 74.1118 10.4299 74.23 10.6304C74.3517 10.8309 74.5146 10.992 74.7188 11.1138C74.9264 11.2319 75.1842 11.291 75.4922 11.291ZM81.3574 6.18848V6.95117H78.2153V6.18848H81.3574ZM79.2788 4.77588H80.2725V10.5605C80.2725 10.7575 80.3029 10.9061 80.3638 11.0063C80.4246 11.1066 80.5034 11.1729 80.6001 11.2051C80.6968 11.2373 80.8006 11.2534 80.9116 11.2534C80.994 11.2534 81.0799 11.2463 81.1694 11.2319C81.2625 11.214 81.3324 11.1997 81.3789 11.189L81.3843 12C81.3055 12.0251 81.2017 12.0483 81.0728 12.0698C80.9474 12.0949 80.7952 12.1074 80.6162 12.1074C80.3727 12.1074 80.1489 12.0591 79.9448 11.9624C79.7407 11.8657 79.5778 11.7046 79.4561 11.479C79.3379 11.2498 79.2788 10.9419 79.2788 10.5552V4.77588ZM86.0786 10.6572V6.18848H87.0776V12H86.127L86.0786 10.6572ZM86.2666 9.43262L86.6802 9.42188C86.6802 9.80859 86.639 10.1667 86.5566 10.4961C86.4779 10.8219 86.349 11.1048 86.1699 11.3447C85.9909 11.5846 85.7563 11.7726 85.4663 11.9087C85.1763 12.0412 84.8236 12.1074 84.4082 12.1074C84.1253 12.1074 83.8657 12.0662 83.6294 11.9839C83.3966 11.9015 83.1961 11.7744 83.0278 11.6025C82.8595 11.4307 82.7288 11.2069 82.6357 10.9312C82.5462 10.6554 82.5015 10.3242 82.5015 9.9375V6.18848H83.4951V9.94824C83.4951 10.2096 83.5238 10.4263 83.5811 10.5981C83.6419 10.7664 83.7225 10.9007 83.8228 11.001C83.9266 11.0977 84.0412 11.1657 84.1665 11.2051C84.2954 11.2445 84.4279 11.2642 84.564 11.2642C84.9865 11.2642 85.3213 11.1836 85.5684 11.0225C85.8154 10.8577 85.9927 10.6375 86.1001 10.3618C86.2111 10.0825 86.2666 9.77279 86.2666 9.43262ZM89.5859 7.10156V12H88.5923V6.18848H89.5591L89.5859 7.10156ZM91.4014 6.15625L91.396 7.08008C91.3136 7.06217 91.2349 7.05143 91.1597 7.04785C91.0881 7.04069 91.0057 7.03711 90.9126 7.03711C90.6834 7.03711 90.4811 7.07292 90.3057 7.14453C90.1302 7.21615 89.9816 7.31641 89.8599 7.44531C89.7381 7.57422 89.6414 7.72819 89.5698 7.90723C89.5018 8.08268 89.457 8.27604 89.4355 8.4873L89.1562 8.64844C89.1562 8.29753 89.1903 7.9681 89.2583 7.66016C89.3299 7.35221 89.4391 7.08008 89.5859 6.84375C89.7327 6.60384 89.9189 6.41764 90.1445 6.28516C90.3737 6.14909 90.6458 6.08105 90.9609 6.08105C91.0326 6.08105 91.1149 6.09001 91.208 6.10791C91.3011 6.12223 91.3656 6.13835 91.4014 6.15625ZM94.624 12.1074C94.2194 12.1074 93.8524 12.0394 93.5229 11.9033C93.1971 11.7637 92.916 11.5685 92.6797 11.3179C92.4469 11.0672 92.2679 10.77 92.1426 10.4263C92.0173 10.0825 91.9546 9.70654 91.9546 9.29834V9.07275C91.9546 8.6001 92.0244 8.17936 92.1641 7.81055C92.3037 7.43815 92.4935 7.12305 92.7334 6.86523C92.9733 6.60742 93.2454 6.41227 93.5498 6.27979C93.8542 6.1473 94.1693 6.08105 94.4951 6.08105C94.9105 6.08105 95.2686 6.15267 95.5693 6.2959C95.8737 6.43913 96.1226 6.63965 96.3159 6.89746C96.5093 7.15169 96.6525 7.45247 96.7456 7.7998C96.8387 8.14355 96.8853 8.51953 96.8853 8.92773V9.37354H92.5454V8.5625H95.8916V8.4873C95.8773 8.22949 95.8236 7.97884 95.7305 7.73535C95.641 7.49186 95.4977 7.29134 95.3008 7.13379C95.1038 6.97624 94.8353 6.89746 94.4951 6.89746C94.2695 6.89746 94.0618 6.9458 93.8721 7.04248C93.6823 7.13558 93.5194 7.27523 93.3833 7.46143C93.2472 7.64762 93.1416 7.875 93.0664 8.14355C92.9912 8.41211 92.9536 8.72184 92.9536 9.07275V9.29834C92.9536 9.57406 92.9912 9.83366 93.0664 10.0771C93.1452 10.3171 93.258 10.5283 93.4048 10.7109C93.5552 10.8936 93.736 11.0368 93.9473 11.1406C94.1621 11.2445 94.4056 11.2964 94.6777 11.2964C95.0286 11.2964 95.3258 11.2248 95.5693 11.0815C95.8128 10.9383 96.0259 10.7467 96.2085 10.5068L96.8101 10.9849C96.6847 11.1746 96.5254 11.3555 96.332 11.5273C96.1387 11.6992 95.9006 11.8389 95.6177 11.9463C95.3384 12.0537 95.0072 12.1074 94.624 12.1074Z" fill="white"/>
<path d="M181.731 0.852051H159.823C157.933 0.852051 156.4 2.3846 156.4 4.2751V11.1212C156.4 13.0117 157.933 14.5442 159.823 14.5442H181.731C183.621 14.5442 185.154 13.0117 185.154 11.1212V4.2751C185.154 2.3846 183.621 0.852051 181.731 0.852051Z" fill="black" fill-opacity="0.1"/>
<path d="M163.136 8.13818L162.413 7.95264L162.77 4.4126H166.417V5.24756H163.536L163.321 7.18115C163.451 7.10628 163.616 7.0363 163.814 6.97119C164.016 6.90609 164.247 6.87354 164.508 6.87354C164.837 6.87354 165.131 6.9305 165.392 7.04443C165.652 7.15511 165.873 7.31462 166.056 7.52295C166.241 7.73128 166.383 7.98193 166.48 8.2749C166.578 8.56787 166.627 8.89502 166.627 9.25635C166.627 9.59814 166.58 9.91227 166.485 10.1987C166.394 10.4852 166.256 10.7358 166.07 10.9507C165.885 11.1623 165.65 11.3267 165.367 11.4438C165.087 11.561 164.757 11.6196 164.376 11.6196C164.09 11.6196 163.818 11.5806 163.561 11.5024C163.307 11.4211 163.079 11.299 162.877 11.1362C162.678 10.9702 162.516 10.7651 162.389 10.521C162.265 10.2736 162.187 9.98389 162.154 9.65186H163.014C163.053 9.91878 163.131 10.1434 163.248 10.3257C163.365 10.508 163.518 10.6463 163.707 10.7407C163.899 10.8319 164.122 10.8774 164.376 10.8774C164.591 10.8774 164.781 10.84 164.947 10.7651C165.113 10.6903 165.253 10.5828 165.367 10.4429C165.481 10.3029 165.567 10.1336 165.626 9.93506C165.688 9.73649 165.719 9.51351 165.719 9.26611C165.719 9.0415 165.688 8.83317 165.626 8.64111C165.564 8.44906 165.471 8.28141 165.348 8.13818C165.227 7.99495 165.079 7.88428 164.903 7.80615C164.728 7.72477 164.526 7.68408 164.298 7.68408C163.995 7.68408 163.766 7.72477 163.609 7.80615C163.456 7.88753 163.299 7.99821 163.136 8.13818ZM167.677 11.0435C167.677 10.8905 167.724 10.7619 167.818 10.6577C167.916 10.5503 168.056 10.4966 168.238 10.4966C168.421 10.4966 168.559 10.5503 168.653 10.6577C168.751 10.7619 168.8 10.8905 168.8 11.0435C168.8 11.1932 168.751 11.3201 168.653 11.4243C168.559 11.5285 168.421 11.5806 168.238 11.5806C168.056 11.5806 167.916 11.5285 167.818 11.4243C167.724 11.3201 167.677 11.1932 167.677 11.0435ZM167.682 6.73193C167.682 6.57894 167.729 6.45036 167.823 6.34619C167.921 6.23877 168.061 6.18506 168.243 6.18506C168.425 6.18506 168.564 6.23877 168.658 6.34619C168.756 6.45036 168.805 6.57894 168.805 6.73193C168.805 6.88167 168.756 7.00863 168.658 7.11279C168.564 7.21696 168.425 7.26904 168.243 7.26904C168.061 7.26904 167.921 7.21696 167.823 7.11279C167.729 7.00863 167.682 6.88167 167.682 6.73193ZM174.845 9.12939V9.87158H169.708V9.33936L172.892 4.4126H173.629L172.838 5.83838L170.733 9.12939H174.845ZM173.854 4.4126V11.522H172.95V4.4126H173.854ZM180.26 4.4126V4.92041L177.315 11.522H176.363L179.303 5.15479H175.455V4.4126H180.26Z" fill="white"/>
</g>
<mask id="mask2_402_174" style="mask-type:luminance" maskUnits="userSpaceOnUse" x="27" y="20" width="124" height="4">
<path d="M149.211 20.021H29.4045C28.4593 20.021 27.693 20.7873 27.693 21.7325C27.693 22.6778 28.4593 23.444 29.4045 23.444H149.211C150.157 23.444 150.923 22.6778 150.923 21.7325C150.923 20.7873 150.157 20.021 149.211 20.021Z" fill="white"/>
</mask>
<g mask="url(#mask2_402_174)">
<path d="M149.211 20.021H29.4045C28.4593 20.021 27.693 20.7873 27.693 21.7325C27.693 22.6778 28.4593 23.444 29.4045 23.444H149.211C150.157 23.444 150.923 22.6778 150.923 21.7325C150.923 20.7873 150.157 20.021 149.211 20.021Z" fill="black" fill-opacity="0.1"/>
<path d="M47.6524 20.522H31.1524C29.6336 20.522 28.4024 20.9697 28.4024 21.522C28.4024 22.0743 29.6336 22.522 31.1524 22.522H47.6524C49.1712 22.522 50.4024 22.0743 50.4024 21.522C50.4024 20.9697 49.1712 20.522 47.6524 20.522Z" fill="#2F4AFD" stroke="black" stroke-opacity="0.05" stroke-width="0.247119"/>
</g>
<path d="M101.193 28.9209H29.193C28.3646 28.9209 27.693 29.5925 27.693 30.4209C27.693 31.2493 28.3646 31.9209 29.193 31.9209H101.193C102.021 31.9209 102.693 31.2493 102.693 30.4209C102.693 29.5925 102.021 28.9209 101.193 28.9209Z" fill="white" fill-opacity="0.3"/>
<path d="M131.193 37.3979H29.193C28.3646 37.3979 27.693 38.0695 27.693 38.8979C27.693 39.7264 28.3646 40.3979 29.193 40.3979H131.193C132.021 40.3979 132.693 39.7264 132.693 38.8979C132.693 38.0695 132.021 37.3979 131.193 37.3979Z" fill="white" fill-opacity="0.3"/>
</g>
</svg>
