<svg width="186" height="49" viewBox="0 0 186 49" fill="none" xmlns="http://www.w3.org/2000/svg">
<mask id="mask0_402_149" style="mask-type:luminance" maskUnits="userSpaceOnUse" x="0" y="0" width="186" height="49">
<path d="M0 0H185.154V49H0V0Z" fill="white"/>
</mask>
<g mask="url(#mask0_402_149)">
<path d="M3.30701 12.6474H4.50999V3H3.314L0.746002 4.8452V6.1155L3.2 4.3371H3.30701V12.6474Z" fill="white"/>
<mask id="mask1_402_149" style="mask-type:luminance" maskUnits="userSpaceOnUse" x="27" y="1" width="159" height="51">
<path d="M27.693 1H185.153V51.0626H27.693V1Z" fill="white"/>
</mask>
<g mask="url(#mask1_402_149)">
<mask id="mask2_402_149" style="mask-type:luminance" maskUnits="userSpaceOnUse" x="27" y="1" width="159" height="14">
<path d="M27.693 1H185.153V14.9148H27.693V1Z" fill="white"/>
</mask>
<g mask="url(#mask2_402_149)">
<path d="M31.0196 3.17969V11H29.9829V3.17969H31.0196ZM33.7481 6.4292V11H32.7544V5.18848H33.6944L33.7481 6.4292ZM33.5117 7.87402L33.0982 7.85791C33.1018 7.46045 33.1608 7.09342 33.2754 6.75684C33.39 6.41667 33.5511 6.12126 33.7588 5.87061C33.9665 5.61995 34.2136 5.4266 34.5 5.29053C34.7901 5.15088 35.1105 5.08105 35.4615 5.08105C35.7479 5.08105 36.0057 5.12044 36.2349 5.19922C36.4641 5.27441 36.6592 5.39616 36.8203 5.56445C36.9851 5.73275 37.1104 5.95117 37.1963 6.21973C37.2823 6.4847 37.3252 6.80876 37.3252 7.19189V11H36.3262V7.18115C36.3262 6.87679 36.2814 6.6333 36.1919 6.45068C36.1024 6.26449 35.9717 6.13021 35.7998 6.04785C35.628 5.96191 35.4167 5.91895 35.166 5.91895C34.919 5.91895 34.6934 5.97087 34.4893 6.07471C34.2888 6.17855 34.1151 6.32178 33.9683 6.50439C33.8251 6.68701 33.7123 6.89648 33.6299 7.13281C33.5511 7.36556 33.5117 7.61263 33.5117 7.87402ZM41.2676 5.18848V5.95117H38.1255V5.18848H41.2676ZM39.189 3.77588H40.1826V9.56055C40.1826 9.75749 40.2131 9.90609 40.274 10.0063C40.3348 10.1066 40.4136 10.1729 40.5103 10.2051C40.607 10.2373 40.7108 10.2534 40.8218 10.2534C40.9042 10.2534 40.9901 10.2463 41.0796 10.2319C41.1727 10.214 41.2425 10.1997 41.2891 10.189L41.2945 11C41.2157 11.0251 41.1118 11.0483 40.9829 11.0698C40.8576 11.0949 40.7054 11.1074 40.5264 11.1074C40.2829 11.1074 40.0591 11.0591 39.855 10.9624C39.6509 10.8657 39.488 10.7046 39.3662 10.479C39.2481 10.2498 39.189 9.94189 39.189 9.55518V3.77588ZM43.4268 6.10156V11H42.4331V5.18848H43.3999L43.4268 6.10156ZM45.2422 5.15625L45.2368 6.08008C45.1545 6.06217 45.0757 6.05143 45.0005 6.04785C44.9289 6.04069 44.8465 6.03711 44.7534 6.03711C44.5243 6.03711 44.322 6.07292 44.1465 6.14453C43.9711 6.21615 43.8225 6.31641 43.7007 6.44531C43.579 6.57422 43.4823 6.72819 43.4107 6.90723C43.3426 7.08268 43.2979 7.27604 43.2764 7.4873L42.9971 7.64844C42.9971 7.29753 43.0311 6.9681 43.0992 6.66016C43.1708 6.35221 43.28 6.08008 43.4268 5.84375C43.5736 5.60384 43.7598 5.41764 43.9854 5.28516C44.2145 5.14909 44.4867 5.08105 44.8018 5.08105C44.8734 5.08105 44.9558 5.09001 45.0489 5.10791C45.142 5.12223 45.2064 5.13835 45.2422 5.15625ZM45.7901 8.15869V8.03516C45.7901 7.61621 45.8509 7.2277 45.9727 6.86963C46.0944 6.50798 46.2699 6.19466 46.4991 5.92969C46.7282 5.66113 47.0057 5.45345 47.3316 5.30664C47.6574 5.15625 48.0227 5.08105 48.4273 5.08105C48.8355 5.08105 49.2025 5.15625 49.5284 5.30664C49.8578 5.45345 50.1371 5.66113 50.3662 5.92969C50.599 6.19466 50.7762 6.50798 50.898 6.86963C51.0197 7.2277 51.0806 7.61621 51.0806 8.03516V8.15869C51.0806 8.57764 51.0197 8.96615 50.898 9.32422C50.7762 9.68229 50.599 9.99561 50.3662 10.2642C50.1371 10.5291 49.8596 10.7368 49.5337 10.8872C49.2115 11.034 48.8462 11.1074 48.438 11.1074C48.0298 11.1074 47.6628 11.034 47.3369 10.8872C47.0111 10.7368 46.7318 10.5291 46.4991 10.2642C46.2699 9.99561 46.0944 9.68229 45.9727 9.32422C45.8509 8.96615 45.7901 8.57764 45.7901 8.15869ZM46.7837 8.03516V8.15869C46.7837 8.44873 46.8177 8.72266 46.8858 8.98047C46.9538 9.2347 47.0559 9.46029 47.1919 9.65723C47.3316 9.85417 47.5052 10.0099 47.7129 10.1245C47.9206 10.2355 48.1623 10.291 48.438 10.291C48.7102 10.291 48.9483 10.2355 49.1524 10.1245C49.3601 10.0099 49.5319 9.85417 49.668 9.65723C49.8041 9.46029 49.9061 9.2347 49.9742 8.98047C50.0458 8.72266 50.0816 8.44873 50.0816 8.15869V8.03516C50.0816 7.7487 50.0458 7.47835 49.9742 7.22412C49.9061 6.96631 49.8023 6.73893 49.6626 6.54199C49.5266 6.34147 49.3547 6.18392 49.147 6.06934C48.9429 5.95475 48.703 5.89746 48.4273 5.89746C48.1551 5.89746 47.9152 5.95475 47.7076 6.06934C47.5034 6.18392 47.3316 6.34147 47.1919 6.54199C47.0559 6.73893 46.9538 6.96631 46.8858 7.22412C46.8177 7.47835 46.7837 7.7487 46.7837 8.03516ZM55.9898 9.87207V2.75H56.9888V11H56.0757L55.9898 9.87207ZM52.0796 8.15869V8.0459C52.0796 7.60189 52.1333 7.19906 52.2408 6.8374C52.3518 6.47217 52.5075 6.15885 52.708 5.89746C52.9121 5.63607 53.1538 5.43555 53.4331 5.2959C53.716 5.15267 54.0311 5.08105 54.3784 5.08105C54.7437 5.08105 55.0624 5.14551 55.3345 5.27441C55.6102 5.39974 55.843 5.58415 56.0327 5.82764C56.2261 6.06755 56.3783 6.35758 56.4893 6.69775C56.6003 7.03792 56.6773 7.42285 56.7202 7.85254V8.34668C56.6809 8.77279 56.6039 9.15592 56.4893 9.49609C56.3783 9.83626 56.2261 10.1263 56.0327 10.3662C55.843 10.6061 55.6102 10.7905 55.3345 10.9194C55.0588 11.0448 54.7365 11.1074 54.3677 11.1074C54.0275 11.1074 53.716 11.034 53.4331 10.8872C53.1538 10.7404 52.9121 10.5345 52.708 10.2695C52.5075 10.0046 52.3518 9.69303 52.2408 9.33496C52.1333 8.97331 52.0796 8.58122 52.0796 8.15869ZM53.0786 8.0459V8.15869C53.0786 8.44873 53.1073 8.72087 53.1646 8.9751C53.2255 9.22933 53.3186 9.45312 53.4439 9.64648C53.5692 9.83984 53.7285 9.99202 53.9219 10.103C54.1153 10.2104 54.3462 10.2642 54.6148 10.2642C54.9442 10.2642 55.2145 10.1943 55.4258 10.0547C55.6407 9.91504 55.8125 9.73063 55.9414 9.50146C56.0703 9.2723 56.1706 9.02344 56.2422 8.75488V7.46045C56.1992 7.26351 56.1366 7.07373 56.0542 6.89111C55.9755 6.70492 55.8716 6.5402 55.7427 6.39697C55.6174 6.25016 55.4616 6.13379 55.2754 6.04785C55.0928 5.96191 54.8762 5.91895 54.6255 5.91895C54.3534 5.91895 54.1188 5.97624 53.9219 6.09082C53.7285 6.20182 53.5692 6.35579 53.4439 6.55273C53.3186 6.74609 53.2255 6.97168 53.1646 7.22949C53.1073 7.48372 53.0786 7.75586 53.0786 8.0459ZM62.0913 9.65723V5.18848H63.0904V11H62.1397L62.0913 9.65723ZM62.2793 8.43262L62.6929 8.42188C62.6929 8.80859 62.6517 9.16667 62.5694 9.49609C62.4906 9.82194 62.3617 10.1048 62.1826 10.3447C62.0036 10.5846 61.7691 10.7726 61.479 10.9087C61.189 11.0412 60.8363 11.1074 60.4209 11.1074C60.1381 11.1074 59.8784 11.0662 59.6421 10.9839C59.4094 10.9015 59.2089 10.7744 59.0406 10.6025C58.8723 10.4307 58.7416 10.2069 58.6485 9.93115C58.5589 9.65544 58.5142 9.32422 58.5142 8.9375V5.18848H59.5078V8.94824C59.5078 9.20964 59.5365 9.42627 59.5938 9.59814C59.6547 9.76644 59.7352 9.90072 59.8355 10.001C59.9393 10.0977 60.0539 10.1657 60.1792 10.2051C60.3081 10.2445 60.4406 10.2642 60.5767 10.2642C60.9992 10.2642 61.334 10.1836 61.5811 10.0225C61.8282 9.85775 62.0054 9.63753 62.1128 9.36182C62.2238 9.08252 62.2793 8.77279 62.2793 8.43262ZM66.9307 10.291C67.167 10.291 67.3854 10.2427 67.586 10.146C67.7865 10.0493 67.9512 9.91683 68.0801 9.74854C68.209 9.57666 68.2824 9.38151 68.3003 9.16309H69.2456C69.2277 9.50684 69.1114 9.82731 68.8965 10.1245C68.6853 10.4181 68.4077 10.6562 68.064 10.8389C67.7202 11.0179 67.3425 11.1074 66.9307 11.1074C66.4938 11.1074 66.1125 11.0304 65.7867 10.8765C65.4644 10.7225 65.1958 10.5112 64.981 10.2427C64.7697 9.97412 64.6104 9.66618 64.503 9.31885C64.3991 8.96794 64.3472 8.59733 64.3472 8.20703V7.98145C64.3472 7.59115 64.3991 7.22233 64.503 6.875C64.6104 6.52409 64.7697 6.21436 64.981 5.9458C65.1958 5.67725 65.4644 5.46598 65.7867 5.31201C66.1125 5.15804 66.4938 5.08105 66.9307 5.08105C67.3854 5.08105 67.7829 5.17415 68.1231 5.36035C68.4632 5.54297 68.73 5.79362 68.9234 6.1123C69.1203 6.42741 69.2277 6.78548 69.2456 7.18652H68.3003C68.2824 6.94661 68.2144 6.72998 68.0962 6.53662C67.9816 6.34326 67.8241 6.18929 67.6236 6.07471C67.4266 5.95654 67.1957 5.89746 66.9307 5.89746C66.6263 5.89746 66.3703 5.95833 66.1626 6.08008C65.9585 6.19824 65.7956 6.35938 65.6739 6.56348C65.5557 6.764 65.4698 6.98779 65.416 7.23486C65.3659 7.47835 65.3409 7.72721 65.3409 7.98145V8.20703C65.3409 8.46126 65.3659 8.71191 65.416 8.95898C65.4662 9.20605 65.5503 9.42985 65.6685 9.63037C65.7902 9.83089 65.9532 9.99202 66.1573 10.1138C66.3649 10.2319 66.6228 10.291 66.9307 10.291ZM72.7959 5.18848V5.95117H69.6538V5.18848H72.7959ZM70.7173 3.77588H71.711V9.56055C71.711 9.75749 71.7414 9.90609 71.8023 10.0063C71.8631 10.1066 71.9419 10.1729 72.0386 10.2051C72.1353 10.2373 72.2391 10.2534 72.3501 10.2534C72.4325 10.2534 72.5184 10.2463 72.6079 10.2319C72.701 10.214 72.7709 10.1997 72.8174 10.189L72.8228 11C72.744 11.0251 72.6402 11.0483 72.5113 11.0698C72.3859 11.0949 72.2338 11.1074 72.0547 11.1074C71.8112 11.1074 71.5874 11.0591 71.3833 10.9624C71.1792 10.8657 71.0163 10.7046 70.8946 10.479C70.7764 10.2498 70.7173 9.94189 70.7173 9.55518V3.77588ZM75.041 5.18848V11H74.042V5.18848H75.041ZM73.9668 3.64697C73.9668 3.48584 74.0152 3.34977 74.1118 3.23877C74.2121 3.12777 74.3589 3.07227 74.5523 3.07227C74.7421 3.07227 74.8871 3.12777 74.9873 3.23877C75.0912 3.34977 75.1431 3.48584 75.1431 3.64697C75.1431 3.80094 75.0912 3.93343 74.9873 4.04443C74.8871 4.15186 74.7421 4.20557 74.5523 4.20557C74.3589 4.20557 74.2121 4.15186 74.1118 4.04443C74.0152 3.93343 73.9668 3.80094 73.9668 3.64697ZM76.3731 8.15869V8.03516C76.3731 7.61621 76.4339 7.2277 76.5557 6.86963C76.6774 6.50798 76.8529 6.19466 77.0821 5.92969C77.3112 5.66113 77.5887 5.45345 77.9146 5.30664C78.2404 5.15625 78.6057 5.08105 79.0103 5.08105C79.4185 5.08105 79.7855 5.15625 80.1114 5.30664C80.4408 5.45345 80.7201 5.66113 80.9492 5.92969C81.182 6.19466 81.3592 6.50798 81.481 6.86963C81.6027 7.2277 81.6636 7.61621 81.6636 8.03516V8.15869C81.6636 8.57764 81.6027 8.96615 81.481 9.32422C81.3592 9.68229 81.182 9.99561 80.9492 10.2642C80.7201 10.5291 80.4426 10.7368 80.1167 10.8872C79.7945 11.034 79.4292 11.1074 79.021 11.1074C78.6128 11.1074 78.2458 11.034 77.92 10.8872C77.5941 10.7368 77.3148 10.5291 77.0821 10.2642C76.8529 9.99561 76.6774 9.68229 76.5557 9.32422C76.4339 8.96615 76.3731 8.57764 76.3731 8.15869ZM77.3667 8.03516V8.15869C77.3667 8.44873 77.4007 8.72266 77.4688 8.98047C77.5368 9.2347 77.6389 9.46029 77.7749 9.65723C77.9146 9.85417 78.0882 10.0099 78.2959 10.1245C78.5036 10.2355 78.7453 10.291 79.021 10.291C79.2932 10.291 79.5313 10.2355 79.7354 10.1245C79.9431 10.0099 80.1149 9.85417 80.251 9.65723C80.3871 9.46029 80.4891 9.2347 80.5572 8.98047C80.6288 8.72266 80.6646 8.44873 80.6646 8.15869V8.03516C80.6646 7.7487 80.6288 7.47835 80.5572 7.22412C80.4891 6.96631 80.3853 6.73893 80.2456 6.54199C80.1096 6.34147 79.9377 6.18392 79.73 6.06934C79.5259 5.95475 79.286 5.89746 79.0103 5.89746C78.7381 5.89746 78.4982 5.95475 78.2906 6.06934C78.0865 6.18392 77.9146 6.34147 77.7749 6.54199C77.6389 6.73893 77.5368 6.96631 77.4688 7.22412C77.4007 7.47835 77.3667 7.7487 77.3667 8.03516ZM83.9034 6.4292V11H82.9097V5.18848H83.8496L83.9034 6.4292ZM83.667 7.87402L83.2534 7.85791C83.257 7.46045 83.3161 7.09342 83.4307 6.75684C83.5453 6.41667 83.7064 6.12126 83.9141 5.87061C84.1218 5.61995 84.3688 5.4266 84.6553 5.29053C84.9453 5.15088 85.2658 5.08105 85.6167 5.08105C85.9032 5.08105 86.161 5.12044 86.3902 5.19922C86.6193 5.27441 86.8145 5.39616 86.9756 5.56445C87.1403 5.73275 87.2657 5.95117 87.3516 6.21973C87.4375 6.4847 87.4805 6.80876 87.4805 7.19189V11H86.4815V7.18115C86.4815 6.87679 86.4367 6.6333 86.3472 6.45068C86.2577 6.26449 86.127 6.13021 85.9551 6.04785C85.7832 5.96191 85.572 5.91895 85.3213 5.91895C85.0742 5.91895 84.8487 5.97087 84.6446 6.07471C84.444 6.17855 84.2704 6.32178 84.1236 6.50439C83.9803 6.68701 83.8675 6.89648 83.7852 7.13281C83.7064 7.36556 83.667 7.61263 83.667 7.87402Z" fill="white"/>
<path d="M181.73 1H155.715C153.825 1 152.292 2.55456 152.292 4.47222V11.4166C152.292 13.3343 153.825 14.8889 155.715 14.8889H181.73C183.621 14.8889 185.153 13.3343 185.153 11.4166V4.47222C185.153 2.55456 183.621 1 181.73 1Z" fill="black" fill-opacity="0.1"/>
<path d="M161.312 7.52295H161.956C162.272 7.52295 162.532 7.47087 162.737 7.3667C162.946 7.25928 163.1 7.11442 163.201 6.93213C163.305 6.74658 163.357 6.53825 163.357 6.30713C163.357 6.03369 163.312 5.8042 163.221 5.61865C163.13 5.43311 162.993 5.29313 162.811 5.19873C162.628 5.10433 162.397 5.05713 162.117 5.05713C161.863 5.05713 161.639 5.10758 161.443 5.2085C161.251 5.30615 161.1 5.44613 160.989 5.62842C160.882 5.81071 160.828 6.02555 160.828 6.27295H159.925C159.925 5.91162 160.016 5.58285 160.198 5.28662C160.381 4.9904 160.636 4.75439 160.965 4.57861C161.297 4.40283 161.681 4.31494 162.117 4.31494C162.547 4.31494 162.923 4.39144 163.245 4.54443C163.567 4.69417 163.818 4.91878 163.997 5.21826C164.176 5.51449 164.266 5.88395 164.266 6.32666C164.266 6.5057 164.223 6.69775 164.139 6.90283C164.057 7.10465 163.929 7.29346 163.753 7.46924C163.58 7.64502 163.356 7.78988 163.079 7.90381C162.802 8.01449 162.47 8.06982 162.083 8.06982H161.312V7.52295ZM161.312 8.26514V7.72314H162.083C162.536 7.72314 162.91 7.77686 163.206 7.88428C163.502 7.9917 163.735 8.13493 163.904 8.31396C164.077 8.493 164.197 8.68994 164.266 8.90479C164.337 9.11637 164.373 9.32796 164.373 9.53955C164.373 9.87158 164.316 10.1662 164.202 10.4233C164.092 10.6805 163.934 10.8986 163.729 11.0776C163.527 11.2567 163.289 11.3918 163.016 11.4829C162.742 11.5741 162.444 11.6196 162.122 11.6196C161.813 11.6196 161.522 11.5757 161.248 11.4878C160.978 11.3999 160.739 11.2729 160.53 11.1069C160.322 10.9377 160.159 10.731 160.042 10.4868C159.925 10.2394 159.866 9.95785 159.866 9.64209H160.77C160.77 9.88949 160.823 10.106 160.931 10.2915C161.041 10.4771 161.198 10.6219 161.399 10.7261C161.605 10.827 161.845 10.8774 162.122 10.8774C162.399 10.8774 162.636 10.8302 162.835 10.7358C163.037 10.6382 163.191 10.4917 163.299 10.2964C163.41 10.1011 163.465 9.85531 163.465 9.55908C163.465 9.26286 163.403 9.02035 163.279 8.83154C163.156 8.63949 162.98 8.49788 162.752 8.40674C162.527 8.31234 162.262 8.26514 161.956 8.26514H161.312ZM165.677 11.0435C165.677 10.8905 165.724 10.7619 165.818 10.6577C165.916 10.5503 166.056 10.4966 166.238 10.4966C166.421 10.4966 166.559 10.5503 166.653 10.6577C166.751 10.7619 166.8 10.8905 166.8 11.0435C166.8 11.1932 166.751 11.3201 166.653 11.4243C166.559 11.5285 166.421 11.5806 166.238 11.5806C166.056 11.5806 165.916 11.5285 165.818 11.4243C165.724 11.3201 165.677 11.1932 165.677 11.0435ZM165.682 6.73193C165.682 6.57894 165.729 6.45036 165.823 6.34619C165.921 6.23877 166.061 6.18506 166.243 6.18506C166.425 6.18506 166.564 6.23877 166.658 6.34619C166.756 6.45036 166.805 6.57894 166.805 6.73193C166.805 6.88167 166.756 7.00863 166.658 7.11279C166.564 7.21696 166.425 7.26904 166.243 7.26904C166.061 7.26904 165.921 7.21696 165.823 7.11279C165.729 7.00863 165.682 6.88167 165.682 6.73193ZM169.183 8.13818L168.46 7.95264L168.816 4.4126H172.464V5.24756H169.583L169.368 7.18115C169.498 7.10628 169.663 7.0363 169.861 6.97119C170.063 6.90609 170.294 6.87354 170.555 6.87354C170.883 6.87354 171.178 6.9305 171.439 7.04443C171.699 7.15511 171.92 7.31462 172.103 7.52295C172.288 7.73128 172.43 7.98193 172.527 8.2749C172.625 8.56787 172.674 8.89502 172.674 9.25635C172.674 9.59814 172.627 9.91227 172.532 10.1987C172.441 10.4852 172.303 10.7358 172.117 10.9507C171.932 11.1623 171.697 11.3267 171.414 11.4438C171.134 11.561 170.804 11.6196 170.423 11.6196C170.136 11.6196 169.865 11.5806 169.607 11.5024C169.354 11.4211 169.126 11.299 168.924 11.1362C168.725 10.9702 168.563 10.7651 168.436 10.521C168.312 10.2736 168.234 9.98389 168.201 9.65186H169.061C169.1 9.91878 169.178 10.1434 169.295 10.3257C169.412 10.508 169.565 10.6463 169.754 10.7407C169.946 10.8319 170.169 10.8774 170.423 10.8774C170.638 10.8774 170.828 10.84 170.994 10.7651C171.16 10.6903 171.3 10.5828 171.414 10.4429C171.528 10.3029 171.614 10.1336 171.673 9.93506C171.735 9.73649 171.766 9.51351 171.766 9.26611C171.766 9.0415 171.735 8.83317 171.673 8.64111C171.611 8.44906 171.518 8.28141 171.395 8.13818C171.274 7.99495 171.126 7.88428 170.95 7.80615C170.774 7.72477 170.573 7.68408 170.345 7.68408C170.042 7.68408 169.813 7.72477 169.656 7.80615C169.503 7.88753 169.345 7.99821 169.183 8.13818ZM176.634 4.37354V11.522H175.73V5.50146L173.909 6.16553V5.3501L176.492 4.37354H176.634Z" fill="white"/>
</g>
<mask id="mask3_402_149" style="mask-type:luminance" maskUnits="userSpaceOnUse" x="27" y="25" width="118" height="4">
<path d="M142.366 25.123H29.4046C28.4593 25.123 27.693 25.8893 27.693 26.8346C27.693 27.7798 28.4593 28.5461 29.4046 28.5461H142.366C143.311 28.5461 144.077 27.7798 144.077 26.8346C144.077 25.8893 143.311 25.123 142.366 25.123Z" fill="white"/>
</mask>
<g mask="url(#mask3_402_149)">
<path d="M142.366 25.123H29.4046C28.4593 25.123 27.693 25.8893 27.693 26.8346C27.693 27.7798 28.4593 28.5461 29.4046 28.5461H142.366C143.311 28.5461 144.077 27.7798 144.077 26.8346C144.077 25.8893 143.311 25.123 142.366 25.123Z" fill="black" fill-opacity="0.1"/>
<path d="M42.4125 25.8076H29.405C28.8378 25.8076 28.3781 26.2674 28.3781 26.8345C28.3781 27.4017 28.8378 27.8615 29.405 27.8615H42.4125C42.9797 27.8615 43.4395 27.4017 43.4395 26.8345C43.4395 26.2674 42.9797 25.8076 42.4125 25.8076Z" fill="#2F4AFD" stroke="black" stroke-opacity="0.05" stroke-width="0.247119"/>
</g>
<path d="M122.264 34.0225H29.0838C28.3157 34.0225 27.693 34.6451 27.693 35.4132C27.693 36.1813 28.3157 36.8039 29.0838 36.8039H122.264C123.032 36.8039 123.654 36.1813 123.654 35.4132C123.654 34.6451 123.032 34.0225 122.264 34.0225Z" fill="white" fill-opacity="0.3"/>
<path d="M92.2623 42.2808H29.0838C28.3157 42.2808 27.693 42.9034 27.693 43.6715C27.693 44.4396 28.3157 45.0622 29.0838 45.0622H92.2623C93.0304 45.0622 93.653 44.4396 93.653 43.6715C93.653 42.9034 93.0304 42.2808 92.2623 42.2808Z" fill="white" fill-opacity="0.3"/>
</g>
</g>
</svg>
