<svg width="187" height="40" viewBox="0 0 187 40" fill="none" xmlns="http://www.w3.org/2000/svg">
<mask id="mask0_402_194" style="mask-type:luminance" maskUnits="userSpaceOnUse" x="0" y="0" width="187" height="40">
<path d="M0 0H186.154V39.1089H0V0Z" fill="white"/>
</mask>
<g mask="url(#mask0_402_194)">
<path d="M4.45702 12.969C6.38902 12.969 7.80702 11.778 7.80702 10.167V10.154C7.80702 8.78301 6.85102 7.908 5.44702 7.787V7.76001C6.65002 7.50601 7.49301 6.69101 7.49301 5.50101V5.487C7.49301 4.023 6.28202 3 4.44402 3C2.63902 3 1.39501 4.05 1.24101 5.621L1.23502 5.688H2.39102L2.39801 5.621C2.49801 4.645 3.30702 4.04301 4.44402 4.04301C5.62102 4.04301 6.28201 4.625 6.28201 5.634V5.64801C6.28201 6.61001 5.48002 7.319 4.33002 7.319H3.17401V8.33501H4.38402C5.73402 8.33501 6.58301 8.997 6.58301 10.181V10.194C6.58301 11.217 5.72102 11.926 4.45702 11.926C3.17402 11.926 2.29801 11.27 2.20401 10.321L2.19801 10.254H1.04102L1.04802 10.334C1.17502 11.859 2.46502 12.969 4.45702 12.969Z" fill="white"/>
<mask id="mask1_402_194" style="mask-type:luminance" maskUnits="userSpaceOnUse" x="28" y="0" width="159" height="40">
<path d="M28.693 0H186.153V39.1089H28.693V0Z" fill="white"/>
</mask>
<g mask="url(#mask1_402_194)">
<mask id="mask2_402_194" style="mask-type:luminance" maskUnits="userSpaceOnUse" x="28" y="0" width="159" height="14">
<path d="M28.693 0H186.153V13.6922H28.693V0Z" fill="white"/>
</mask>
<g mask="url(#mask2_402_194)">
<path d="M34.876 10.1567V11H30.7349V10.1567H34.876ZM30.9443 3.17969V11H29.9077V3.17969H30.9443ZM34.3281 6.54199V7.38525H30.7349V6.54199H34.3281ZM34.8223 3.17969V4.02832H30.7349V3.17969H34.8223ZM37.0889 2.75V11H36.0898V2.75H37.0889ZM41.0957 11.1074C40.6911 11.1074 40.3241 11.0394 39.9946 10.9033C39.6688 10.7637 39.3877 10.5685 39.1514 10.3179C38.9186 10.0672 38.7396 9.77002 38.6143 9.42627C38.4889 9.08252 38.4263 8.70654 38.4263 8.29834V8.07275C38.4263 7.6001 38.4961 7.17936 38.6357 6.81055C38.7754 6.43815 38.9652 6.12305 39.2051 5.86523C39.445 5.60742 39.7171 5.41227 40.0215 5.27979C40.3258 5.1473 40.641 5.08105 40.9668 5.08105C41.3822 5.08105 41.7402 5.15267 42.041 5.2959C42.3454 5.43913 42.5942 5.63965 42.7876 5.89746C42.981 6.15169 43.1242 6.45247 43.2173 6.7998C43.3104 7.14355 43.3569 7.51953 43.3569 7.92773V8.37354H39.0171V7.5625H42.3633V7.4873C42.349 7.22949 42.2952 6.97884 42.2021 6.73535C42.1126 6.49186 41.9694 6.29134 41.7725 6.13379C41.5755 5.97624 41.307 5.89746 40.9668 5.89746C40.7412 5.89746 40.5335 5.9458 40.3438 6.04248C40.154 6.13558 39.991 6.27523 39.855 6.46143C39.7189 6.64762 39.6133 6.875 39.5381 7.14355C39.4629 7.41211 39.4253 7.72184 39.4253 8.07275V8.29834C39.4253 8.57406 39.4629 8.83366 39.5381 9.07715C39.6169 9.31706 39.7297 9.52832 39.8765 9.71094C40.0269 9.89355 40.2077 10.0368 40.4189 10.1406C40.6338 10.2445 40.8773 10.2964 41.1494 10.2964C41.5003 10.2964 41.7975 10.2248 42.041 10.0815C42.2845 9.93831 42.4976 9.74674 42.6802 9.50684L43.2817 9.98486C43.1564 10.1746 42.9971 10.3555 42.8037 10.5273C42.6104 10.6992 42.3722 10.8389 42.0894 10.9463C41.8101 11.0537 41.4788 11.1074 41.0957 11.1074ZM45.5054 6.34326V11H44.5063V5.18848H45.4517L45.5054 6.34326ZM45.3013 7.87402L44.8394 7.85791C44.8429 7.46045 44.8949 7.09342 44.9951 6.75684C45.0954 6.41667 45.244 6.12126 45.4409 5.87061C45.6379 5.61995 45.8831 5.4266 46.1768 5.29053C46.4704 5.15088 46.8105 5.08105 47.1973 5.08105C47.4694 5.08105 47.7201 5.12044 47.9492 5.19922C48.1784 5.27441 48.3771 5.39437 48.5454 5.55908C48.7137 5.7238 48.8444 5.93506 48.9375 6.19287C49.0306 6.45068 49.0771 6.76221 49.0771 7.12744V11H48.0835V7.17578C48.0835 6.87142 48.0316 6.62793 47.9277 6.44531C47.8275 6.2627 47.6842 6.13021 47.498 6.04785C47.3118 5.96191 47.0934 5.91895 46.8428 5.91895C46.5492 5.91895 46.3039 5.97087 46.1069 6.07471C45.91 6.17855 45.7524 6.32178 45.6343 6.50439C45.5161 6.68701 45.4302 6.89648 45.3765 7.13281C45.3263 7.36556 45.3013 7.61263 45.3013 7.87402ZM49.0664 7.32617L48.4004 7.53027C48.404 7.21159 48.4559 6.90544 48.5562 6.61182C48.66 6.3182 48.8086 6.0568 49.002 5.82764C49.1989 5.59847 49.4406 5.41764 49.7271 5.28516C50.0135 5.14909 50.3411 5.08105 50.71 5.08105C51.0215 5.08105 51.2972 5.12223 51.5371 5.20459C51.7806 5.28695 51.9847 5.41406 52.1494 5.58594C52.3177 5.75423 52.4448 5.97087 52.5308 6.23584C52.6167 6.50081 52.6597 6.81592 52.6597 7.18115V11H51.6606V7.17041C51.6606 6.84456 51.6087 6.59212 51.5049 6.41309C51.4046 6.23047 51.2614 6.10335 51.0752 6.03174C50.8926 5.95654 50.6742 5.91895 50.4199 5.91895C50.2015 5.91895 50.0081 5.95654 49.8398 6.03174C49.6715 6.10693 49.5301 6.21077 49.4155 6.34326C49.3009 6.47217 49.2132 6.62077 49.1523 6.78906C49.0951 6.95736 49.0664 7.13639 49.0664 7.32617ZM56.5752 11.1074C56.1706 11.1074 55.8035 11.0394 55.4741 10.9033C55.1483 10.7637 54.8672 10.5685 54.6309 10.3179C54.3981 10.0672 54.2191 9.77002 54.0938 9.42627C53.9684 9.08252 53.9058 8.70654 53.9058 8.29834V8.07275C53.9058 7.6001 53.9756 7.17936 54.1152 6.81055C54.2549 6.43815 54.4447 6.12305 54.6846 5.86523C54.9245 5.60742 55.1966 5.41227 55.501 5.27979C55.8053 5.1473 56.1204 5.08105 56.4463 5.08105C56.8617 5.08105 57.2197 5.15267 57.5205 5.2959C57.8249 5.43913 58.0737 5.63965 58.2671 5.89746C58.4604 6.15169 58.6037 6.45247 58.6968 6.7998C58.7899 7.14355 58.8364 7.51953 58.8364 7.92773V8.37354H54.4966V7.5625H57.8428V7.4873C57.8285 7.22949 57.7747 6.97884 57.6816 6.73535C57.5921 6.49186 57.4489 6.29134 57.252 6.13379C57.055 5.97624 56.7865 5.89746 56.4463 5.89746C56.2207 5.89746 56.013 5.9458 55.8232 6.04248C55.6335 6.13558 55.4705 6.27523 55.3345 6.46143C55.1984 6.64762 55.0928 6.875 55.0176 7.14355C54.9424 7.41211 54.9048 7.72184 54.9048 8.07275V8.29834C54.9048 8.57406 54.9424 8.83366 55.0176 9.07715C55.0964 9.31706 55.2091 9.52832 55.356 9.71094C55.5063 9.89355 55.6872 10.0368 55.8984 10.1406C56.1133 10.2445 56.3568 10.2964 56.6289 10.2964C56.9798 10.2964 57.277 10.2248 57.5205 10.0815C57.764 9.93831 57.9771 9.74674 58.1597 9.50684L58.7612 9.98486C58.6359 10.1746 58.4766 10.3555 58.2832 10.5273C58.0898 10.6992 57.8517 10.8389 57.5688 10.9463C57.2896 11.0537 56.9583 11.1074 56.5752 11.1074ZM60.9902 6.4292V11H59.9966V5.18848H60.9365L60.9902 6.4292ZM60.7539 7.87402L60.3403 7.85791C60.3439 7.46045 60.403 7.09342 60.5176 6.75684C60.6322 6.41667 60.7933 6.12126 61.001 5.87061C61.2087 5.61995 61.4557 5.4266 61.7422 5.29053C62.0322 5.15088 62.3527 5.08105 62.7036 5.08105C62.9901 5.08105 63.2479 5.12044 63.4771 5.19922C63.7062 5.27441 63.9014 5.39616 64.0625 5.56445C64.2272 5.73275 64.3525 5.95117 64.4385 6.21973C64.5244 6.4847 64.5674 6.80876 64.5674 7.19189V11H63.5684V7.18115C63.5684 6.87679 63.5236 6.6333 63.4341 6.45068C63.3446 6.26449 63.2139 6.13021 63.042 6.04785C62.8701 5.96191 62.6589 5.91895 62.4082 5.91895C62.1611 5.91895 61.9355 5.97087 61.7314 6.07471C61.5309 6.17855 61.3573 6.32178 61.2104 6.50439C61.0672 6.68701 60.9544 6.89648 60.8721 7.13281C60.7933 7.36556 60.7539 7.61263 60.7539 7.87402ZM68.5098 5.18848V5.95117H65.3677V5.18848H68.5098ZM66.4312 3.77588H67.4248V9.56055C67.4248 9.75749 67.4552 9.90609 67.5161 10.0063C67.577 10.1066 67.6558 10.1729 67.7524 10.2051C67.8491 10.2373 67.953 10.2534 68.064 10.2534C68.1463 10.2534 68.2323 10.2463 68.3218 10.2319C68.4149 10.214 68.4847 10.1997 68.5312 10.189L68.5366 11C68.4578 11.0251 68.354 11.0483 68.2251 11.0698C68.0998 11.0949 67.9476 11.1074 67.7686 11.1074C67.5251 11.1074 67.3013 11.0591 67.0972 10.9624C66.8931 10.8657 66.7301 10.7046 66.6084 10.479C66.4902 10.2498 66.4312 9.94189 66.4312 9.55518V3.77588ZM72.3984 2.75H73.3975V9.87207L73.3115 11H72.3984V2.75ZM77.3237 8.0459V8.15869C77.3237 8.58122 77.2736 8.97331 77.1733 9.33496C77.0731 9.69303 76.9263 10.0046 76.7329 10.2695C76.5396 10.5345 76.3032 10.7404 76.0239 10.8872C75.7446 11.034 75.4242 11.1074 75.0625 11.1074C74.6937 11.1074 74.3696 11.0448 74.0903 10.9194C73.8146 10.7905 73.5819 10.6061 73.3921 10.3662C73.2023 10.1263 73.0501 9.83626 72.9355 9.49609C72.8245 9.15592 72.7476 8.77279 72.7046 8.34668V7.85254C72.7476 7.42285 72.8245 7.03792 72.9355 6.69775C73.0501 6.35758 73.2023 6.06755 73.3921 5.82764C73.5819 5.58415 73.8146 5.39974 74.0903 5.27441C74.366 5.14551 74.6865 5.08105 75.0518 5.08105C75.417 5.08105 75.741 5.15267 76.0239 5.2959C76.3068 5.43555 76.5431 5.63607 76.7329 5.89746C76.9263 6.15885 77.0731 6.47217 77.1733 6.8374C77.2736 7.19906 77.3237 7.60189 77.3237 8.0459ZM76.3247 8.15869V8.0459C76.3247 7.75586 76.2979 7.48372 76.2441 7.22949C76.1904 6.97168 76.1045 6.74609 75.9863 6.55273C75.8682 6.35579 75.7124 6.20182 75.519 6.09082C75.3257 5.97624 75.0876 5.91895 74.8047 5.91895C74.554 5.91895 74.3356 5.96191 74.1494 6.04785C73.9668 6.13379 73.811 6.25016 73.6821 6.39697C73.5532 6.5402 73.4476 6.70492 73.3652 6.89111C73.2865 7.07373 73.2274 7.26351 73.188 7.46045V8.75488C73.2453 9.00553 73.3384 9.24723 73.4673 9.47998C73.5998 9.70915 73.7752 9.89714 73.9937 10.0439C74.2157 10.1908 74.4896 10.2642 74.8154 10.2642C75.084 10.2642 75.3132 10.2104 75.5029 10.103C75.6963 9.99202 75.8521 9.83984 75.9702 9.64648C76.092 9.45312 76.1815 9.22933 76.2388 8.9751C76.2961 8.72087 76.3247 8.44873 76.3247 8.15869ZM82.0073 10.0063V7.01465C82.0073 6.78548 81.9608 6.58675 81.8677 6.41846C81.7782 6.24658 81.6421 6.1141 81.4595 6.021C81.2769 5.9279 81.0513 5.88135 80.7827 5.88135C80.5321 5.88135 80.3118 5.92432 80.1221 6.01025C79.9359 6.09619 79.7891 6.20898 79.6816 6.34863C79.5778 6.48828 79.5259 6.63867 79.5259 6.7998H78.5322C78.5322 6.59212 78.5859 6.38623 78.6934 6.18213C78.8008 5.97803 78.9548 5.79362 79.1553 5.62891C79.3594 5.46061 79.6029 5.32812 79.8857 5.23145C80.1722 5.13118 80.4909 5.08105 80.8418 5.08105C81.2643 5.08105 81.6367 5.15267 81.959 5.2959C82.2848 5.43913 82.5391 5.65576 82.7217 5.9458C82.9079 6.23226 83.001 6.59212 83.001 7.02539V9.73242C83.001 9.92578 83.0171 10.1317 83.0493 10.3501C83.0851 10.5685 83.137 10.7565 83.2051 10.9141V11H82.1685C82.1183 10.8854 82.0789 10.7332 82.0503 10.5435C82.0216 10.3501 82.0073 10.1711 82.0073 10.0063ZM82.1792 7.47656L82.1899 8.1748H81.1855C80.9027 8.1748 80.6502 8.19808 80.4282 8.24463C80.2062 8.2876 80.02 8.35384 79.8696 8.44336C79.7192 8.53288 79.6047 8.64567 79.5259 8.78174C79.4471 8.91423 79.4077 9.06999 79.4077 9.24902C79.4077 9.43164 79.4489 9.59814 79.5312 9.74854C79.6136 9.89893 79.7371 10.0189 79.9019 10.1084C80.0701 10.1943 80.276 10.2373 80.5195 10.2373C80.8239 10.2373 81.0924 10.1729 81.3252 10.0439C81.5579 9.91504 81.7424 9.75749 81.8784 9.57129C82.0181 9.38509 82.0933 9.20426 82.104 9.02881L82.5283 9.50684C82.5033 9.65723 82.4352 9.82373 82.3242 10.0063C82.2132 10.189 82.0646 10.3644 81.8784 10.5327C81.6958 10.6974 81.4774 10.8353 81.2231 10.9463C80.9725 11.0537 80.6896 11.1074 80.3745 11.1074C79.9806 11.1074 79.6351 11.0304 79.3379 10.8765C79.0443 10.7225 78.8151 10.5166 78.6504 10.2588C78.4893 9.9974 78.4087 9.70557 78.4087 9.3833C78.4087 9.07178 78.4696 8.79785 78.5913 8.56152C78.7131 8.32161 78.8885 8.12288 79.1177 7.96533C79.3468 7.8042 79.6226 7.68245 79.9448 7.6001C80.2671 7.51774 80.627 7.47656 81.0244 7.47656H82.1792ZM87.9478 9.4585C87.9478 9.31527 87.9155 9.18278 87.8511 9.06104C87.7902 8.93571 87.6631 8.82292 87.4697 8.72266C87.2799 8.61882 86.9935 8.5293 86.6104 8.4541C86.2881 8.38607 85.9963 8.3055 85.7349 8.2124C85.4771 8.1193 85.2568 8.00651 85.0742 7.87402C84.8952 7.74154 84.7573 7.58577 84.6606 7.40674C84.564 7.2277 84.5156 7.01823 84.5156 6.77832C84.5156 6.54915 84.5658 6.33252 84.666 6.12842C84.7699 5.92432 84.9149 5.74349 85.1011 5.58594C85.2909 5.42839 85.5182 5.30485 85.7832 5.21533C86.0482 5.12581 86.3436 5.08105 86.6694 5.08105C87.1349 5.08105 87.5324 5.16341 87.8618 5.32812C88.1912 5.49284 88.4437 5.71305 88.6191 5.98877C88.7946 6.2609 88.8823 6.56348 88.8823 6.89648H87.8887C87.8887 6.73535 87.8403 6.57959 87.7437 6.4292C87.6506 6.27523 87.5127 6.14811 87.3301 6.04785C87.151 5.94759 86.9308 5.89746 86.6694 5.89746C86.3937 5.89746 86.1699 5.94043 85.998 6.02637C85.8298 6.10872 85.7062 6.21436 85.6274 6.34326C85.5522 6.47217 85.5146 6.60824 85.5146 6.75146C85.5146 6.85889 85.5326 6.95557 85.5684 7.0415C85.6077 7.12386 85.6758 7.20085 85.7725 7.27246C85.8691 7.34049 86.0052 7.40495 86.1807 7.46582C86.3561 7.52669 86.5799 7.58757 86.8521 7.64844C87.3283 7.75586 87.7204 7.88477 88.0283 8.03516C88.3363 8.18555 88.5654 8.36995 88.7158 8.58838C88.8662 8.8068 88.9414 9.07178 88.9414 9.3833C88.9414 9.63753 88.8877 9.87028 88.7803 10.0815C88.6764 10.2928 88.5243 10.4754 88.3237 10.6294C88.1268 10.7798 87.8905 10.8979 87.6147 10.9839C87.3426 11.0662 87.0365 11.1074 86.6963 11.1074C86.1842 11.1074 85.751 11.0161 85.3965 10.8335C85.042 10.6509 84.7734 10.4146 84.5908 10.1245C84.4082 9.83447 84.3169 9.52832 84.3169 9.20605H85.3159C85.3302 9.47819 85.409 9.69482 85.5522 9.85596C85.6955 10.0135 85.8709 10.1263 86.0786 10.1943C86.2863 10.2588 86.4922 10.291 86.6963 10.291C86.9684 10.291 87.1958 10.2552 87.3784 10.1836C87.5646 10.112 87.7061 10.0135 87.8027 9.88818C87.8994 9.76286 87.9478 9.61963 87.9478 9.4585ZM91.3262 5.18848V11H90.3271V5.18848H91.3262ZM90.252 3.64697C90.252 3.48584 90.3003 3.34977 90.397 3.23877C90.4972 3.12777 90.644 3.07227 90.8374 3.07227C91.0272 3.07227 91.1722 3.12777 91.2725 3.23877C91.3763 3.34977 91.4282 3.48584 91.4282 3.64697C91.4282 3.80094 91.3763 3.93343 91.2725 4.04443C91.1722 4.15186 91.0272 4.20557 90.8374 4.20557C90.644 4.20557 90.4972 4.15186 90.397 4.04443C90.3003 3.93343 90.252 3.80094 90.252 3.64697ZM95.2471 10.291C95.4834 10.291 95.7018 10.2427 95.9023 10.146C96.1029 10.0493 96.2676 9.91683 96.3965 9.74854C96.5254 9.57666 96.5988 9.38151 96.6167 9.16309H97.562C97.5441 9.50684 97.4277 9.82731 97.2129 10.1245C97.0016 10.4181 96.7241 10.6562 96.3804 10.8389C96.0366 11.0179 95.6589 11.1074 95.2471 11.1074C94.8102 11.1074 94.4289 11.0304 94.103 10.8765C93.7808 10.7225 93.5122 10.5112 93.2974 10.2427C93.0861 9.97412 92.9268 9.66618 92.8193 9.31885C92.7155 8.96794 92.6636 8.59733 92.6636 8.20703V7.98145C92.6636 7.59115 92.7155 7.22233 92.8193 6.875C92.9268 6.52409 93.0861 6.21436 93.2974 5.9458C93.5122 5.67725 93.7808 5.46598 94.103 5.31201C94.4289 5.15804 94.8102 5.08105 95.2471 5.08105C95.7018 5.08105 96.0993 5.17415 96.4395 5.36035C96.7796 5.54297 97.0464 5.79362 97.2397 6.1123C97.4367 6.42741 97.5441 6.78548 97.562 7.18652H96.6167C96.5988 6.94661 96.5308 6.72998 96.4126 6.53662C96.298 6.34326 96.1405 6.18929 95.9399 6.07471C95.743 5.95654 95.512 5.89746 95.2471 5.89746C94.9427 5.89746 94.6867 5.95833 94.479 6.08008C94.2749 6.19824 94.112 6.35938 93.9902 6.56348C93.8721 6.764 93.7861 6.98779 93.7324 7.23486C93.6823 7.47835 93.6572 7.72721 93.6572 7.98145V8.20703C93.6572 8.46126 93.6823 8.71191 93.7324 8.95898C93.7826 9.20605 93.8667 9.42985 93.9849 9.63037C94.1066 9.83089 94.2695 9.99202 94.4736 10.1138C94.6813 10.2319 94.9391 10.291 95.2471 10.291ZM102.063 9.4585C102.063 9.31527 102.031 9.18278 101.966 9.06104C101.905 8.93571 101.778 8.82292 101.585 8.72266C101.395 8.61882 101.109 8.5293 100.726 8.4541C100.403 8.38607 100.111 8.3055 99.8501 8.2124C99.5923 8.1193 99.3721 8.00651 99.1895 7.87402C99.0104 7.74154 98.8726 7.58577 98.7759 7.40674C98.6792 7.2277 98.6309 7.01823 98.6309 6.77832C98.6309 6.54915 98.681 6.33252 98.7812 6.12842C98.8851 5.92432 99.0301 5.74349 99.2163 5.58594C99.4061 5.42839 99.6335 5.30485 99.8984 5.21533C100.163 5.12581 100.459 5.08105 100.785 5.08105C101.25 5.08105 101.648 5.16341 101.977 5.32812C102.306 5.49284 102.559 5.71305 102.734 5.98877C102.91 6.2609 102.998 6.56348 102.998 6.89648H102.004C102.004 6.73535 101.956 6.57959 101.859 6.4292C101.766 6.27523 101.628 6.14811 101.445 6.04785C101.266 5.94759 101.046 5.89746 100.785 5.89746C100.509 5.89746 100.285 5.94043 100.113 6.02637C99.945 6.10872 99.8215 6.21436 99.7427 6.34326C99.6675 6.47217 99.6299 6.60824 99.6299 6.75146C99.6299 6.85889 99.6478 6.95557 99.6836 7.0415C99.723 7.12386 99.791 7.20085 99.8877 7.27246C99.9844 7.34049 100.12 7.40495 100.296 7.46582C100.471 7.52669 100.695 7.58757 100.967 7.64844C101.444 7.75586 101.836 7.88477 102.144 8.03516C102.451 8.18555 102.681 8.36995 102.831 8.58838C102.981 8.8068 103.057 9.07178 103.057 9.3833C103.057 9.63753 103.003 9.87028 102.896 10.0815C102.792 10.2928 102.639 10.4754 102.439 10.6294C102.242 10.7798 102.006 10.8979 101.73 10.9839C101.458 11.0662 101.152 11.1074 100.812 11.1074C100.299 11.1074 99.8662 11.0161 99.5117 10.8335C99.1572 10.6509 98.8887 10.4146 98.7061 10.1245C98.5234 9.83447 98.4321 9.52832 98.4321 9.20605H99.4312C99.4455 9.47819 99.5243 9.69482 99.6675 9.85596C99.8107 10.0135 99.9862 10.1263 100.194 10.1943C100.402 10.2588 100.607 10.291 100.812 10.291C101.084 10.291 101.311 10.2552 101.494 10.1836C101.68 10.112 101.821 10.0135 101.918 9.88818C102.015 9.76286 102.063 9.61963 102.063 9.4585Z" fill="white"/>
<path d="M182.731 0H160.139C158.249 0 156.716 1.53255 156.716 3.42305V10.2691C156.716 12.1596 158.249 13.6922 160.139 13.6922H182.731C184.622 13.6922 186.154 12.1596 186.154 10.2691V3.42305C186.154 1.53255 184.622 0 182.731 0Z" fill="black" fill-opacity="0.1"/>
<path d="M163.035 10.3688H164.009V4.09781H163.035L161.384 5.2718V6.2278L162.961 5.10181H163.035V10.3688ZM167.32 10.3688H168.293V4.09781H167.32L165.669 5.2718V6.2278L167.246 5.10181H167.32V10.3688ZM170.797 6.22281C171.157 6.22281 171.431 5.94081 171.431 5.58881C171.431 5.23281 171.157 4.9538 170.797 4.9538C170.436 4.9538 170.158 5.23281 170.158 5.58881C170.158 5.94081 170.436 6.22281 170.797 6.22281ZM170.797 9.5088C171.157 9.5088 171.431 9.22579 171.431 8.87379C171.431 8.51779 171.157 8.23981 170.797 8.23981C170.436 8.23981 170.158 8.51779 170.158 8.87379C170.158 9.22579 170.436 9.5088 170.797 9.5088ZM174.412 10.3688H175.386V4.09781H174.412L172.761 5.2718V6.2278L174.338 5.10181H174.412V10.3688ZM177.163 10.3688H181.387V9.5388H178.488V9.4518L179.818 8.1268C180.957 6.9968 181.287 6.4488 181.287 5.7368V5.7238C181.287 4.6888 180.427 3.9458 179.258 3.9458C177.997 3.9458 177.111 4.75479 177.106 5.90179L177.115 5.90981H178.028L178.032 5.8968C178.032 5.2108 178.501 4.7498 179.205 4.7498C179.892 4.7498 180.314 5.2018 180.314 5.8148V5.8278C180.314 6.3358 180.075 6.6578 179.245 7.5228L177.163 9.7088V10.3688Z" fill="white"/>
</g>
<path d="M150.211 19.1689H30.4045C29.4593 19.1689 28.693 19.9352 28.693 20.8805C28.693 21.8257 29.4593 22.592 30.4045 22.592H150.211C151.157 22.592 151.923 21.8257 151.923 20.8805C151.923 19.9352 151.157 19.1689 150.211 19.1689Z" fill="black" fill-opacity="0.1"/>
<path d="M77.643 19.854H30.4049C29.8378 19.854 29.378 20.3138 29.378 20.8809C29.378 21.4481 29.8378 21.9078 30.4049 21.9078H77.643C78.2101 21.9078 78.6699 21.4481 78.6699 20.8809C78.6699 20.3138 78.2101 19.854 77.643 19.854Z" fill="#2F4AFD" stroke="black" stroke-opacity="0.05" stroke-width="0.247119"/>
<path d="M123.264 28.0688H30.0838C29.3157 28.0688 28.693 28.6915 28.693 29.4596C28.693 30.2277 29.3157 30.8503 30.0838 30.8503H123.264C124.032 30.8503 124.654 30.2277 124.654 29.4596C124.654 28.6915 124.032 28.0688 123.264 28.0688Z" fill="white" fill-opacity="0.3"/>
<path d="M73.2622 36.3267H30.0838C29.3157 36.3267 28.693 36.9493 28.693 37.7174C28.693 38.4855 29.3157 39.1082 30.0838 39.1082H73.2622C74.0303 39.1082 74.653 38.4855 74.653 37.7174C74.653 36.9493 74.0303 36.3267 73.2622 36.3267Z" fill="white" fill-opacity="0.3"/>
</g>
</g>
</svg>
