<svg width="187" height="40" viewBox="0 0 187 40" fill="none" xmlns="http://www.w3.org/2000/svg">
<path d="M34.4781 9.54541C34.4781 9.36279 34.4494 9.20166 34.3921 9.06201C34.3384 8.91878 34.2417 8.78988 34.1021 8.67529C33.966 8.56071 33.7762 8.4515 33.5327 8.34766C33.2928 8.24382 32.9885 8.13818 32.6197 8.03076C32.2329 7.91618 31.8838 7.78906 31.5723 7.64941C31.2608 7.50618 30.994 7.34326 30.772 7.16064C30.55 6.97803 30.3799 6.76855 30.2617 6.53223C30.1436 6.2959 30.0845 6.02555 30.0845 5.72119C30.0845 5.41683 30.1472 5.13574 30.2725 4.87793C30.3978 4.62012 30.5769 4.39632 30.8096 4.20654C31.0459 4.01318 31.327 3.86279 31.6529 3.75537C31.9787 3.64795 32.3422 3.59424 32.7432 3.59424C33.3304 3.59424 33.8282 3.70703 34.2364 3.93262C34.6481 4.15462 34.9615 4.44645 35.1763 4.80811C35.3911 5.16618 35.4986 5.54932 35.4986 5.95752H34.4673C34.4673 5.6639 34.4047 5.4043 34.2793 5.17871C34.154 4.94954 33.9642 4.77051 33.71 4.6416C33.4558 4.50911 33.1335 4.44287 32.7432 4.44287C32.3744 4.44287 32.07 4.49837 31.8301 4.60938C31.5902 4.72038 31.4112 4.87077 31.293 5.06055C31.1784 5.25033 31.1211 5.46696 31.1211 5.71045C31.1211 5.87516 31.1551 6.02555 31.2232 6.16162C31.2948 6.29411 31.404 6.41764 31.5508 6.53223C31.7012 6.64681 31.891 6.75244 32.1201 6.84912C32.3529 6.9458 32.6304 7.0389 32.9527 7.12842C33.3967 7.25374 33.7798 7.39339 34.1021 7.54736C34.4243 7.70133 34.6893 7.875 34.897 8.06836C35.1083 8.25814 35.264 8.47477 35.3643 8.71826C35.4681 8.95817 35.5201 9.23031 35.5201 9.53467C35.5201 9.85335 35.4556 10.1416 35.3267 10.3994C35.1978 10.6572 35.0134 10.8774 34.7735 11.0601C34.5336 11.2427 34.2453 11.3841 33.9087 11.4844C33.5757 11.5811 33.2033 11.6294 32.7915 11.6294C32.4299 11.6294 32.0736 11.5793 31.7227 11.479C31.3754 11.3787 31.0585 11.2284 30.772 11.0278C30.4891 10.8273 30.2617 10.5802 30.0899 10.2866C29.9216 9.98942 29.8374 9.64567 29.8374 9.25537H30.8687C30.8687 9.52393 30.9206 9.75488 31.0244 9.94824C31.1283 10.138 31.2697 10.2956 31.4488 10.4209C31.6314 10.5462 31.8373 10.6393 32.0664 10.7002C32.2992 10.7575 32.5409 10.7861 32.7915 10.7861C33.1532 10.7861 33.4593 10.736 33.71 10.6357C33.9606 10.5355 34.1504 10.3923 34.2793 10.2061C34.4118 10.0199 34.4781 9.79964 34.4781 9.54541ZM39.1241 5.71045V6.47314H35.982V5.71045H39.1241ZM37.0454 4.29785H38.0391V10.0825C38.0391 10.2795 38.0695 10.4281 38.1304 10.5283C38.1913 10.6286 38.2701 10.6948 38.3667 10.7271C38.4634 10.7593 38.5673 10.7754 38.6783 10.7754C38.7606 10.7754 38.8465 10.7682 38.9361 10.7539C39.0292 10.736 39.099 10.7217 39.1455 10.7109L39.1509 11.522C39.0721 11.547 38.9683 11.5703 38.8394 11.5918C38.7141 11.6169 38.5619 11.6294 38.3828 11.6294C38.1394 11.6294 37.9156 11.5811 37.7115 11.4844C37.5074 11.3877 37.3444 11.2266 37.2227 11.001C37.1045 10.7718 37.0454 10.4639 37.0454 10.0771V4.29785ZM41.9224 10.9204L43.5391 5.71045H44.6026L42.2715 12.4189C42.2178 12.5622 42.1462 12.7161 42.0567 12.8809C41.9707 13.0492 41.8597 13.2085 41.7237 13.3589C41.5876 13.5093 41.4229 13.631 41.2295 13.7241C41.0397 13.8208 40.8124 13.8691 40.5474 13.8691C40.4686 13.8691 40.3684 13.8584 40.2466 13.8369C40.1249 13.8154 40.0389 13.7975 39.9888 13.7832L39.9834 12.9775C40.0121 12.9811 40.0568 12.9847 40.1177 12.9883C40.1822 12.9954 40.2269 12.999 40.252 12.999C40.4776 12.999 40.6691 12.9686 40.8267 12.9077C40.9842 12.8504 41.1167 12.752 41.2242 12.6123C41.3352 12.4762 41.43 12.2882 41.5088 12.0483L41.9224 10.9204ZM40.7354 5.71045L42.2447 10.2222L42.5025 11.2695L41.7881 11.6348L39.6504 5.71045H40.7354ZM46.5791 3.27197V11.522H45.5801V3.27197H46.5791ZM50.586 11.6294C50.1813 11.6294 49.8143 11.5614 49.4849 11.4253C49.159 11.2856 48.878 11.0905 48.6416 10.8398C48.4089 10.5892 48.2298 10.292 48.1045 9.94824C47.9792 9.60449 47.9165 9.22852 47.9165 8.82031V8.59473C47.9165 8.12207 47.9864 7.70133 48.126 7.33252C48.2657 6.96012 48.4554 6.64502 48.6953 6.38721C48.9353 6.12939 49.2074 5.93424 49.5117 5.80176C49.8161 5.66927 50.1312 5.60303 50.4571 5.60303C50.8724 5.60303 51.2305 5.67464 51.5313 5.81787C51.8356 5.9611 52.0845 6.16162 52.2779 6.41943C52.4712 6.67367 52.6145 6.97445 52.7076 7.32178C52.8006 7.66553 52.8472 8.0415 52.8472 8.44971V8.89551H48.5074V8.08447H51.8535V8.00928C51.8392 7.75146 51.7855 7.50081 51.6924 7.25732C51.6029 7.01383 51.4597 6.81331 51.2627 6.65576C51.0658 6.49821 50.7972 6.41943 50.4571 6.41943C50.2315 6.41943 50.0238 6.46777 49.834 6.56445C49.6442 6.65755 49.4813 6.7972 49.3452 6.9834C49.2092 7.1696 49.1035 7.39697 49.0284 7.66553C48.9532 7.93408 48.9156 8.24382 48.9156 8.59473V8.82031C48.9156 9.09603 48.9532 9.35563 49.0284 9.59912C49.1071 9.83903 49.2199 10.0503 49.3667 10.2329C49.5171 10.4155 49.6979 10.5588 49.9092 10.6626C50.1241 10.7664 50.3675 10.8184 50.6397 10.8184C50.9906 10.8184 51.2878 10.7467 51.5313 10.6035C51.7748 10.4603 51.9878 10.2687 52.1704 10.0288L52.772 10.5068C52.6467 10.6966 52.4873 10.8774 52.294 11.0493C52.1006 11.2212 51.8625 11.3608 51.5796 11.4683C51.3003 11.5757 50.9691 11.6294 50.586 11.6294ZM56.7305 3.27197H57.7295V10.394L57.6436 11.522H56.7305V3.27197ZM61.6558 8.56787V8.68066C61.6558 9.10319 61.6057 9.49528 61.5054 9.85693C61.4051 10.215 61.2583 10.5265 61.065 10.7915C60.8716 11.0565 60.6353 11.2624 60.356 11.4092C60.0767 11.556 59.7562 11.6294 59.3946 11.6294C59.0257 11.6294 58.7017 11.5667 58.4224 11.4414C58.1467 11.3125 57.9139 11.1281 57.7242 10.8882C57.5344 10.6483 57.3822 10.3582 57.2676 10.0181C57.1566 9.6779 57.0796 9.29476 57.0367 8.86865V8.37451C57.0796 7.94482 57.1566 7.5599 57.2676 7.21973C57.3822 6.87956 57.5344 6.58952 57.7242 6.34961C57.9139 6.10612 58.1467 5.92171 58.4224 5.79639C58.6981 5.66748 59.0186 5.60303 59.3838 5.60303C59.7491 5.60303 60.0731 5.67464 60.356 5.81787C60.6389 5.95752 60.8752 6.15804 61.065 6.41943C61.2583 6.68083 61.4051 6.99414 61.5054 7.35938C61.6057 7.72103 61.6558 8.12386 61.6558 8.56787ZM60.6568 8.68066V8.56787C60.6568 8.27783 60.6299 8.0057 60.5762 7.75146C60.5225 7.49365 60.4366 7.26807 60.3184 7.07471C60.2002 6.87777 60.0445 6.7238 59.8511 6.61279C59.6577 6.49821 59.4196 6.44092 59.1367 6.44092C58.8861 6.44092 58.6677 6.48389 58.4815 6.56982C58.2989 6.65576 58.1431 6.77214 58.0142 6.91895C57.8853 7.06217 57.7797 7.22689 57.6973 7.41309C57.6185 7.5957 57.5594 7.78548 57.5201 7.98242V9.27686C57.5773 9.52751 57.6704 9.76921 57.7993 10.002C57.9318 10.2311 58.1073 10.4191 58.3257 10.5659C58.5477 10.7127 58.8216 10.7861 59.1475 10.7861C59.416 10.7861 59.6452 10.7324 59.835 10.625C60.0284 10.514 60.1841 10.3618 60.3023 10.1685C60.424 9.9751 60.5135 9.7513 60.5708 9.49707C60.6281 9.24284 60.6568 8.9707 60.6568 8.68066ZM66.3394 10.5283V7.53662C66.3394 7.30745 66.2928 7.10872 66.1997 6.94043C66.1102 6.76855 65.9742 6.63607 65.7915 6.54297C65.6089 6.44987 65.3833 6.40332 65.1148 6.40332C64.8641 6.40332 64.6439 6.44629 64.4541 6.53223C64.2679 6.61816 64.1211 6.73096 64.0137 6.87061C63.9099 7.01025 63.8579 7.16064 63.8579 7.32178H62.8643C62.8643 7.1141 62.918 6.9082 63.0254 6.7041C63.1328 6.5 63.2868 6.31559 63.4873 6.15088C63.6914 5.98258 63.9349 5.8501 64.2178 5.75342C64.5043 5.65316 64.8229 5.60303 65.1739 5.60303C65.5964 5.60303 65.9688 5.67464 66.291 5.81787C66.6169 5.9611 66.8711 6.17773 67.0537 6.46777C67.2399 6.75423 67.333 7.1141 67.333 7.54736V10.2544C67.333 10.4478 67.3492 10.6536 67.3814 10.8721C67.4172 11.0905 67.4691 11.2785 67.5371 11.436V11.522H66.5005C66.4504 11.4074 66.411 11.2552 66.3824 11.0654C66.3537 10.8721 66.3394 10.693 66.3394 10.5283ZM66.5113 7.99854L66.522 8.69678H65.5176C65.2347 8.69678 64.9823 8.72005 64.7603 8.7666C64.5383 8.80957 64.3521 8.87581 64.2017 8.96533C64.0513 9.05485 63.9367 9.16764 63.8579 9.30371C63.7792 9.4362 63.7398 9.59196 63.7398 9.771C63.7398 9.95361 63.781 10.1201 63.8633 10.2705C63.9457 10.4209 64.0692 10.5409 64.2339 10.6304C64.4022 10.7163 64.6081 10.7593 64.8516 10.7593C65.156 10.7593 65.4245 10.6948 65.6573 10.5659C65.89 10.437 66.0744 10.2795 66.2105 10.0933C66.3501 9.90706 66.4253 9.72624 66.4361 9.55078L66.8604 10.0288C66.8353 10.1792 66.7673 10.3457 66.6563 10.5283C66.5453 10.7109 66.3967 10.8864 66.2105 11.0547C66.0279 11.2194 65.8094 11.3573 65.5552 11.4683C65.3046 11.5757 65.0217 11.6294 64.7066 11.6294C64.3127 11.6294 63.9672 11.5524 63.67 11.3984C63.3763 11.2445 63.1472 11.0386 62.9825 10.7808C62.8213 10.5194 62.7408 10.2275 62.7408 9.90527C62.7408 9.59375 62.8016 9.31982 62.9234 9.0835C63.0451 8.84359 63.2206 8.64486 63.4497 8.4873C63.6789 8.32617 63.9546 8.20443 64.2769 8.12207C64.5992 8.03971 64.959 7.99854 65.3565 7.99854H66.5113ZM72.2798 9.98047C72.2798 9.83724 72.2476 9.70475 72.1831 9.58301C72.1223 9.45768 71.9951 9.34489 71.8018 9.24463C71.612 9.14079 71.3256 9.05127 70.9424 8.97607C70.6201 8.90804 70.3283 8.82747 70.0669 8.73438C69.8091 8.64128 69.5889 8.52848 69.4063 8.396C69.2272 8.26351 69.0894 8.10775 68.9927 7.92871C68.896 7.74967 68.8477 7.5402 68.8477 7.30029C68.8477 7.07113 68.8978 6.85449 68.9981 6.65039C69.1019 6.44629 69.2469 6.26546 69.4331 6.10791C69.6229 5.95036 69.8503 5.82682 70.1153 5.7373C70.3802 5.64779 70.6756 5.60303 71.0015 5.60303C71.467 5.60303 71.8645 5.68538 72.1939 5.8501C72.5233 6.01481 72.7757 6.23503 72.9512 6.51074C73.1267 6.78288 73.2144 7.08545 73.2144 7.41846H72.2207C72.2207 7.25732 72.1724 7.10156 72.0757 6.95117C71.9826 6.7972 71.8448 6.67008 71.6621 6.56982C71.4831 6.46956 71.2629 6.41943 71.0015 6.41943C70.7258 6.41943 70.502 6.4624 70.3301 6.54834C70.1618 6.6307 70.0383 6.73633 69.9595 6.86523C69.8843 6.99414 69.8467 7.13021 69.8467 7.27344C69.8467 7.38086 69.8646 7.47754 69.9004 7.56348C69.9398 7.64583 70.0078 7.72282 70.1045 7.79443C70.2012 7.86247 70.3373 7.92692 70.5127 7.98779C70.6882 8.04867 70.912 8.10954 71.1841 8.17041C71.6603 8.27783 72.0524 8.40674 72.3604 8.55713C72.6683 8.70752 72.8975 8.89193 73.0479 9.11035C73.1983 9.32878 73.2735 9.59375 73.2735 9.90527C73.2735 10.1595 73.2198 10.3923 73.1123 10.6035C73.0085 10.8148 72.8563 10.9974 72.6558 11.1514C72.4589 11.3018 72.2225 11.4199 71.9468 11.5059C71.6747 11.5882 71.3685 11.6294 71.0284 11.6294C70.5163 11.6294 70.083 11.5381 69.7285 11.3555C69.3741 11.1729 69.1055 10.9365 68.9229 10.6465C68.7403 10.3564 68.649 10.0503 68.649 9.72803H69.648C69.6623 10.0002 69.7411 10.2168 69.8843 10.3779C70.0275 10.5355 70.203 10.6483 70.4107 10.7163C70.6184 10.7808 70.8242 10.813 71.0284 10.813C71.3005 10.813 71.5279 10.7772 71.7105 10.7056C71.8967 10.634 72.0381 10.5355 72.1348 10.4102C72.2315 10.2848 72.2798 10.1416 72.2798 9.98047ZM75.6582 5.71045V11.522H74.6592V5.71045H75.6582ZM74.584 4.16895C74.584 4.00781 74.6324 3.87174 74.729 3.76074C74.8293 3.64974 74.9761 3.59424 75.1695 3.59424C75.3592 3.59424 75.5043 3.64974 75.6045 3.76074C75.7084 3.87174 75.7603 4.00781 75.7603 4.16895C75.7603 4.32292 75.7084 4.4554 75.6045 4.56641C75.5043 4.67383 75.3592 4.72754 75.1695 4.72754C74.9761 4.72754 74.8293 4.67383 74.729 4.56641C74.6324 4.4554 74.584 4.32292 74.584 4.16895ZM79.5791 10.813C79.8155 10.813 80.0339 10.7646 80.2344 10.668C80.4349 10.5713 80.5996 10.4388 80.7285 10.2705C80.8575 10.0986 80.9309 9.90348 80.9488 9.68506H81.8941C81.8762 10.0288 81.7598 10.3493 81.545 10.6465C81.3337 10.9401 81.0562 11.1782 80.7124 11.3608C80.3687 11.5399 79.9909 11.6294 79.5791 11.6294C79.1423 11.6294 78.7609 11.5524 78.4351 11.3984C78.1128 11.2445 77.8443 11.0332 77.6294 10.7646C77.4182 10.4961 77.2588 10.1882 77.1514 9.84082C77.0476 9.48991 76.9956 9.1193 76.9956 8.729V8.50342C76.9956 8.11312 77.0476 7.7443 77.1514 7.39697C77.2588 7.04606 77.4182 6.73633 77.6294 6.46777C77.8443 6.19922 78.1128 5.98796 78.4351 5.83398C78.7609 5.68001 79.1423 5.60303 79.5791 5.60303C80.0339 5.60303 80.4313 5.69613 80.7715 5.88232C81.1117 6.06494 81.3784 6.31559 81.5718 6.63428C81.7687 6.94938 81.8762 7.30745 81.8941 7.7085H80.9488C80.9309 7.46859 80.8628 7.25195 80.7447 7.05859C80.6301 6.86523 80.4725 6.71126 80.272 6.59668C80.0751 6.47852 79.8441 6.41943 79.5791 6.41943C79.2748 6.41943 79.0187 6.48031 78.8111 6.60205C78.607 6.72021 78.444 6.88135 78.3223 7.08545C78.2041 7.28597 78.1182 7.50977 78.0645 7.75684C78.0144 8.00033 77.9893 8.24919 77.9893 8.50342V8.729C77.9893 8.98324 78.0144 9.23389 78.0645 9.48096C78.1146 9.72803 78.1988 9.95182 78.3169 10.1523C78.4387 10.3529 78.6016 10.514 78.8057 10.6357C79.0134 10.7539 79.2712 10.813 79.5791 10.813ZM86.3951 9.98047C86.3951 9.83724 86.3628 9.70475 86.2984 9.58301C86.2375 9.45768 86.1104 9.34489 85.917 9.24463C85.7272 9.14079 85.4408 9.05127 85.0576 8.97607C84.7354 8.90804 84.4436 8.82747 84.1822 8.73438C83.9243 8.64128 83.7041 8.52848 83.5215 8.396C83.3425 8.26351 83.2046 8.10775 83.1079 7.92871C83.0113 7.74967 82.9629 7.5402 82.9629 7.30029C82.9629 7.07113 83.0131 6.85449 83.1133 6.65039C83.2172 6.44629 83.3622 6.26546 83.5484 6.10791C83.7381 5.95036 83.9655 5.82682 84.2305 5.7373C84.4955 5.64779 84.7909 5.60303 85.1167 5.60303C85.5822 5.60303 85.9797 5.68538 86.3091 5.8501C86.6385 6.01481 86.891 6.23503 87.0664 6.51074C87.2419 6.78288 87.3296 7.08545 87.3296 7.41846H86.336C86.336 7.25732 86.2876 7.10156 86.1909 6.95117C86.0978 6.7972 85.96 6.67008 85.7774 6.56982C85.5983 6.46956 85.3781 6.41943 85.1167 6.41943C84.841 6.41943 84.6172 6.4624 84.4453 6.54834C84.277 6.6307 84.1535 6.73633 84.0747 6.86523C83.9995 6.99414 83.9619 7.13021 83.9619 7.27344C83.9619 7.38086 83.9798 7.47754 84.0157 7.56348C84.055 7.64583 84.1231 7.72282 84.2198 7.79443C84.3164 7.86247 84.4525 7.92692 84.628 7.98779C84.8034 8.04867 85.0272 8.10954 85.2993 8.17041C85.7756 8.27783 86.1677 8.40674 86.4756 8.55713C86.7836 8.70752 87.0127 8.89193 87.1631 9.11035C87.3135 9.32878 87.3887 9.59375 87.3887 9.90527C87.3887 10.1595 87.335 10.3923 87.2276 10.6035C87.1237 10.8148 86.9715 10.9974 86.771 11.1514C86.5741 11.3018 86.3378 11.4199 86.062 11.5059C85.7899 11.5882 85.4838 11.6294 85.1436 11.6294C84.6315 11.6294 84.1983 11.5381 83.8438 11.3555C83.4893 11.1729 83.2207 10.9365 83.0381 10.6465C82.8555 10.3564 82.7642 10.0503 82.7642 9.72803H83.7632C83.7775 10.0002 83.8563 10.2168 83.9995 10.3779C84.1428 10.5355 84.3182 10.6483 84.5259 10.7163C84.7336 10.7808 84.9395 10.813 85.1436 10.813C85.4157 10.813 85.6431 10.7772 85.8257 10.7056C86.0119 10.634 86.1534 10.5355 86.25 10.4102C86.3467 10.2848 86.3951 10.1416 86.3951 9.98047Z" fill="white"/>
<path d="M183.134 0.521973H160.541C158.651 0.521973 157.118 2.05452 157.118 3.94502V10.7911C157.118 12.6816 158.651 14.2142 160.541 14.2142H183.134C185.024 14.2142 186.557 12.6816 186.557 10.7911V3.94502C186.557 2.05452 185.024 0.521973 183.134 0.521973Z" fill="black" fill-opacity="0.1"/>
<path d="M2.82913 8.78467L1.81741 8.5249L2.31644 3.56885H7.42288V4.73779H3.38968L3.0889 7.44482C3.27119 7.34001 3.50133 7.24202 3.77933 7.15088C4.06188 7.05973 4.38545 7.01416 4.75003 7.01416C5.21032 7.01416 5.62275 7.09391 5.98734 7.25342C6.35192 7.40837 6.66181 7.63167 6.91702 7.92334C7.17679 8.21501 7.37503 8.56592 7.51175 8.97607C7.64847 9.38623 7.71683 9.84424 7.71683 10.3501C7.71683 10.8286 7.65075 11.2684 7.51859 11.6694C7.39098 12.0705 7.1973 12.4214 6.93753 12.7222C6.67776 13.0184 6.34964 13.2485 5.95316 13.4126C5.56123 13.5767 5.09866 13.6587 4.56546 13.6587C4.16442 13.6587 3.78388 13.604 3.42386 13.4946C3.06839 13.3807 2.74938 13.2098 2.46683 12.9819C2.18883 12.7495 1.96097 12.4624 1.78323 12.1206C1.61006 11.7743 1.50068 11.3687 1.45511 10.9038H2.65823C2.71292 11.2775 2.8223 11.592 2.98636 11.8472C3.15042 12.1024 3.36461 12.2961 3.62894 12.4282C3.89782 12.5558 4.20999 12.6196 4.56546 12.6196C4.86624 12.6196 5.13284 12.5672 5.36526 12.4624C5.59769 12.3576 5.79365 12.2072 5.95316 12.0112C6.11266 11.8153 6.23343 11.5783 6.31546 11.3003C6.40205 11.0223 6.44534 10.7101 6.44534 10.3638C6.44534 10.0493 6.40205 9.75765 6.31546 9.48877C6.22887 9.21989 6.09899 8.98519 5.92581 8.78467C5.75719 8.58415 5.54984 8.4292 5.30374 8.31982C5.05765 8.20589 4.7751 8.14893 4.45609 8.14893C4.03226 8.14893 3.71097 8.20589 3.49222 8.31982C3.27803 8.43376 3.057 8.5887 2.82913 8.78467Z" fill="white"/>
<path d="M162.962 3.37354V10.522H162.059V4.50146L160.237 5.16553V4.3501L162.82 3.37354H162.962ZM170.423 8.12939V8.87158H165.286V8.33936L168.47 3.4126H169.207L168.416 4.83838L166.312 8.12939H170.423ZM169.432 3.4126V10.522H168.528V3.4126H169.432ZM171.302 10.0435C171.302 9.89046 171.349 9.76188 171.443 9.65771C171.541 9.55029 171.681 9.49658 171.863 9.49658C172.046 9.49658 172.184 9.55029 172.278 9.65771C172.376 9.76188 172.425 9.89046 172.425 10.0435C172.425 10.1932 172.376 10.3201 172.278 10.4243C172.184 10.5285 172.046 10.5806 171.863 10.5806C171.681 10.5806 171.541 10.5285 171.443 10.4243C171.349 10.3201 171.302 10.1932 171.302 10.0435ZM171.307 5.73193C171.307 5.57894 171.354 5.45036 171.448 5.34619C171.546 5.23877 171.686 5.18506 171.868 5.18506C172.05 5.18506 172.189 5.23877 172.283 5.34619C172.381 5.45036 172.43 5.57894 172.43 5.73193C172.43 5.88167 172.381 6.00863 172.283 6.11279C172.189 6.21696 172.05 6.26904 171.868 6.26904C171.686 6.26904 171.546 6.21696 171.448 6.11279C171.354 6.00863 171.307 5.88167 171.307 5.73193ZM176.634 3.37354V10.522H175.73V4.50146L173.909 5.16553V4.3501L176.492 3.37354H176.634ZM183.753 6.40088V7.48486C183.753 8.06755 183.701 8.55908 183.597 8.95947C183.493 9.35986 183.343 9.68213 183.147 9.92627C182.952 10.1704 182.716 10.3478 182.439 10.4585C182.166 10.5659 181.857 10.6196 181.512 10.6196C181.238 10.6196 180.986 10.5854 180.755 10.5171C180.524 10.4487 180.315 10.3397 180.13 10.1899C179.948 10.0369 179.791 9.83838 179.661 9.59424C179.531 9.3501 179.432 9.05387 179.363 8.70557C179.295 8.35726 179.261 7.95036 179.261 7.48486V6.40088C179.261 5.8182 179.313 5.32992 179.417 4.93604C179.524 4.54215 179.676 4.2264 179.871 3.98877C180.066 3.74788 180.301 3.57536 180.574 3.47119C180.851 3.36702 181.16 3.31494 181.502 3.31494C181.779 3.31494 182.033 3.34912 182.264 3.41748C182.498 3.48258 182.706 3.58838 182.889 3.73486C183.071 3.87809 183.226 4.07015 183.353 4.31104C183.483 4.54867 183.582 4.84001 183.65 5.18506C183.719 5.53011 183.753 5.93538 183.753 6.40088ZM182.845 7.63135V6.24951C182.845 5.9305 182.825 5.65055 182.786 5.40967C182.75 5.16553 182.697 4.95719 182.625 4.78467C182.553 4.61214 182.462 4.47217 182.352 4.36475C182.244 4.25732 182.119 4.1792 181.976 4.13037C181.836 4.07829 181.678 4.05225 181.502 4.05225C181.287 4.05225 181.097 4.09294 180.931 4.17432C180.765 4.25244 180.625 4.37777 180.511 4.55029C180.4 4.72282 180.315 4.94906 180.257 5.229C180.198 5.50895 180.169 5.84912 180.169 6.24951V7.63135C180.169 7.95036 180.187 8.23193 180.223 8.47607C180.262 8.72021 180.319 8.9318 180.394 9.11084C180.468 9.28662 180.56 9.43148 180.667 9.54541C180.774 9.65934 180.898 9.74398 181.038 9.79932C181.181 9.8514 181.339 9.87744 181.512 9.87744C181.733 9.87744 181.927 9.83512 182.093 9.75049C182.259 9.66585 182.397 9.53402 182.508 9.35498C182.622 9.17269 182.706 8.93994 182.762 8.65674C182.817 8.37028 182.845 8.02848 182.845 7.63135Z" fill="white"/>
<path d="M150.614 19.6909H30.8069C29.8616 19.6909 29.0954 20.4572 29.0954 21.4024C29.0954 22.3477 29.8616 23.114 30.8069 23.114H150.614C151.559 23.114 152.325 22.3477 152.325 21.4024C152.325 20.4572 151.559 19.6909 150.614 19.6909Z" fill="black" fill-opacity="0.1"/>
<path d="M58.7774 20.522H30.0274C29.6822 20.522 29.4024 20.9697 29.4024 21.522C29.4024 22.0743 29.6822 22.522 30.0274 22.522H58.7774C59.1226 22.522 59.4024 22.0743 59.4024 21.522C59.4024 20.9697 59.1226 20.522 58.7774 20.522Z" fill="#2F4AFD" stroke="black" stroke-opacity="0.05" stroke-width="0.247119"/>
<path d="M123.666 28.5908H30.4861C29.718 28.5908 29.0954 29.2135 29.0954 29.9816C29.0954 30.7497 29.718 31.3723 30.4861 31.3723H123.666C124.434 31.3723 125.057 30.7497 125.057 29.9816C125.057 29.2135 124.434 28.5908 123.666 28.5908Z" fill="white" fill-opacity="0.3"/>
<path d="M73.6646 36.8486H30.4861C29.718 36.8486 29.0954 37.4713 29.0954 38.2394C29.0954 39.0075 29.718 39.6301 30.4861 39.6301H73.6646C74.4327 39.6301 75.0554 39.0075 75.0554 38.2394C75.0554 37.4713 74.4327 36.8486 73.6646 36.8486Z" fill="white" fill-opacity="0.3"/>
</svg>
