<svg width="187" height="40" viewBox="0 0 187 40" fill="none" xmlns="http://www.w3.org/2000/svg">
<path d="M35.0528 10.6787V11.522H31.1426V10.6787H35.0528ZM31.3467 3.70166V11.522H30.3101V3.70166H31.3467ZM39.5161 10.5283V7.53662C39.5161 7.30745 39.4696 7.10872 39.3765 6.94043C39.287 6.76855 39.1509 6.63607 38.9683 6.54297C38.7857 6.44987 38.5601 6.40332 38.2915 6.40332C38.0409 6.40332 37.8207 6.44629 37.6309 6.53223C37.4447 6.61816 37.2979 6.73096 37.1905 6.87061C37.0866 7.01025 37.0347 7.16064 37.0347 7.32178H36.041C36.041 7.1141 36.0948 6.9082 36.2022 6.7041C36.3096 6.5 36.4636 6.31559 36.6641 6.15088C36.8682 5.98258 37.1117 5.8501 37.3946 5.75342C37.681 5.65316 37.9997 5.60303 38.3506 5.60303C38.7731 5.60303 39.1455 5.67464 39.4678 5.81787C39.7937 5.9611 40.0479 6.17773 40.2305 6.46777C40.4167 6.75423 40.5098 7.1141 40.5098 7.54736V10.2544C40.5098 10.4478 40.5259 10.6536 40.5581 10.8721C40.5939 11.0905 40.6459 11.2785 40.7139 11.436V11.522H39.6773C39.6271 11.4074 39.5878 11.2552 39.5591 11.0654C39.5305 10.8721 39.5161 10.693 39.5161 10.5283ZM39.688 7.99854L39.6988 8.69678H38.6944C38.4115 8.69678 38.159 8.72005 37.937 8.7666C37.715 8.80957 37.5288 8.87581 37.3784 8.96533C37.2281 9.05485 37.1135 9.16764 37.0347 9.30371C36.9559 9.4362 36.9165 9.59196 36.9165 9.771C36.9165 9.95361 36.9577 10.1201 37.0401 10.2705C37.1224 10.4209 37.246 10.5409 37.4107 10.6304C37.579 10.7163 37.7849 10.7593 38.0284 10.7593C38.3327 10.7593 38.6013 10.6948 38.834 10.5659C39.0668 10.437 39.2512 10.2795 39.3872 10.0933C39.5269 9.90706 39.6021 9.72624 39.6128 9.55078L40.0371 10.0288C40.0121 10.1792 39.944 10.3457 39.833 10.5283C39.722 10.7109 39.5734 10.8864 39.3872 11.0547C39.2046 11.2194 38.9862 11.3573 38.732 11.4683C38.4813 11.5757 38.1984 11.6294 37.8833 11.6294C37.4895 11.6294 37.1439 11.5524 36.8467 11.3984C36.5531 11.2445 36.3239 11.0386 36.1592 10.7808C35.9981 10.5194 35.9175 10.2275 35.9175 9.90527C35.9175 9.59375 35.9784 9.31982 36.1001 9.0835C36.2219 8.84359 36.3973 8.64486 36.6265 8.4873C36.8557 8.32617 37.1314 8.20443 37.4536 8.12207C37.7759 8.03971 38.1358 7.99854 38.5332 7.99854H39.688ZM43.6197 10.9204L45.2364 5.71045H46.2998L43.9688 12.4189C43.9151 12.5622 43.8435 12.7161 43.7539 12.8809C43.668 13.0492 43.557 13.2085 43.4209 13.3589C43.2849 13.5093 43.1201 13.631 42.9268 13.7241C42.737 13.8208 42.5096 13.8691 42.2447 13.8691C42.1659 13.8691 42.0656 13.8584 41.9439 13.8369C41.8221 13.8154 41.7362 13.7975 41.6861 13.7832L41.6807 12.9775C41.7093 12.9811 41.7541 12.9847 41.815 12.9883C41.8794 12.9954 41.9242 12.999 41.9492 12.999C42.1748 12.999 42.3664 12.9686 42.524 12.9077C42.6815 12.8504 42.814 12.752 42.9214 12.6123C43.0324 12.4762 43.1273 12.2882 43.2061 12.0483L43.6197 10.9204ZM42.4326 5.71045L43.9419 10.2222L44.1997 11.2695L43.4854 11.6348L41.3477 5.71045H42.4326ZM46.8477 8.68066V8.55713C46.8477 8.13818 46.9086 7.74967 47.0303 7.3916C47.152 7.02995 47.3275 6.71663 47.5567 6.45166C47.7858 6.18311 48.0633 5.97542 48.3892 5.82861C48.715 5.67822 49.0803 5.60303 49.4849 5.60303C49.8931 5.60303 50.2601 5.67822 50.586 5.82861C50.9154 5.97542 51.1947 6.18311 51.4239 6.45166C51.6566 6.71663 51.8339 7.02995 51.9556 7.3916C52.0773 7.74967 52.1382 8.13818 52.1382 8.55713V8.68066C52.1382 9.09961 52.0773 9.48812 51.9556 9.84619C51.8339 10.2043 51.6566 10.5176 51.4239 10.7861C51.1947 11.0511 50.9172 11.2588 50.5913 11.4092C50.2691 11.556 49.9038 11.6294 49.4956 11.6294C49.0874 11.6294 48.7204 11.556 48.3946 11.4092C48.0687 11.2588 47.7894 11.0511 47.5567 10.7861C47.3275 10.5176 47.152 10.2043 47.0303 9.84619C46.9086 9.48812 46.8477 9.09961 46.8477 8.68066ZM47.8413 8.55713V8.68066C47.8413 8.9707 47.8754 9.24463 47.9434 9.50244C48.0114 9.75667 48.1135 9.98226 48.2495 10.1792C48.3892 10.3761 48.5629 10.5319 48.7705 10.6465C48.9782 10.7575 49.2199 10.813 49.4956 10.813C49.7678 10.813 50.0059 10.7575 50.21 10.6465C50.4177 10.5319 50.5895 10.3761 50.7256 10.1792C50.8617 9.98226 50.9637 9.75667 51.0318 9.50244C51.1034 9.24463 51.1392 8.9707 51.1392 8.68066V8.55713C51.1392 8.27067 51.1034 8.00033 51.0318 7.74609C50.9637 7.48828 50.8599 7.2609 50.7202 7.06396C50.5842 6.86344 50.4123 6.70589 50.2046 6.59131C50.0005 6.47673 49.7606 6.41943 49.4849 6.41943C49.2128 6.41943 48.9728 6.47673 48.7652 6.59131C48.5611 6.70589 48.3892 6.86344 48.2495 7.06396C48.1135 7.2609 48.0114 7.48828 47.9434 7.74609C47.8754 8.00033 47.8413 8.27067 47.8413 8.55713ZM56.94 10.1792V5.71045H57.939V11.522H56.9883L56.94 10.1792ZM57.128 8.95459L57.5415 8.94385C57.5415 9.33057 57.5004 9.68864 57.418 10.0181C57.3392 10.3439 57.2103 10.6268 57.0313 10.8667C56.8522 11.1066 56.6177 11.2946 56.3277 11.4307C56.0376 11.5632 55.6849 11.6294 55.2696 11.6294C54.9867 11.6294 54.7271 11.5882 54.4908 11.5059C54.258 11.4235 54.0575 11.2964 53.8892 11.1245C53.7209 10.9526 53.5902 10.7288 53.4971 10.4531C53.4076 10.1774 53.3628 9.84619 53.3628 9.45947V5.71045H54.3565V9.47021C54.3565 9.73161 54.3851 9.94824 54.4424 10.1201C54.5033 10.2884 54.5839 10.4227 54.6841 10.5229C54.788 10.6196 54.9025 10.6877 55.0279 10.7271C55.1568 10.7664 55.2893 10.7861 55.4253 10.7861C55.8478 10.7861 56.1826 10.7056 56.4297 10.5444C56.6768 10.3797 56.854 10.1595 56.9615 9.88379C57.0725 9.60449 57.128 9.29476 57.128 8.95459ZM61.8867 5.71045V6.47314H58.7447V5.71045H61.8867ZM59.8081 4.29785H60.8018V10.0825C60.8018 10.2795 60.8322 10.4281 60.8931 10.5283C60.954 10.6286 61.0327 10.6948 61.1294 10.7271C61.2261 10.7593 61.3299 10.7754 61.4409 10.7754C61.5233 10.7754 61.6092 10.7682 61.6988 10.7539C61.7919 10.736 61.8617 10.7217 61.9082 10.7109L61.9136 11.522C61.8348 11.547 61.731 11.5703 61.6021 11.5918C61.4768 11.6169 61.3246 11.6294 61.1455 11.6294C60.902 11.6294 60.6783 11.5811 60.4742 11.4844C60.2701 11.3877 60.1071 11.2266 59.9854 11.001C59.8672 10.7718 59.8081 10.4639 59.8081 10.0771V4.29785Z" fill="white"/>
<path d="M183.134 0.521973H160.541C158.651 0.521973 157.118 2.05452 157.118 3.94502V10.7911C157.118 12.6816 158.651 14.2142 160.541 14.2142H183.134C185.024 14.2142 186.557 12.6816 186.557 10.7911V3.94502C186.557 2.05452 185.024 0.521973 183.134 0.521973Z" fill="black" fill-opacity="0.1"/>
<path d="M6.08304 3.55518H6.19241V4.62842H6.08304C5.41312 4.62842 4.85257 4.73779 4.4014 4.95654C3.95023 5.17074 3.59248 5.46012 3.32816 5.82471C3.06383 6.18473 2.87243 6.59033 2.75394 7.0415C2.64 7.49268 2.58304 7.95068 2.58304 8.41553V9.87842C2.58304 10.3205 2.63545 10.7124 2.74026 11.0542C2.84508 11.3914 2.98864 11.6763 3.17093 11.9087C3.35322 12.1411 3.5583 12.3166 3.78616 12.4351C4.01859 12.5535 4.26012 12.6128 4.51077 12.6128C4.80244 12.6128 5.0622 12.5581 5.29007 12.4487C5.51793 12.3348 5.70934 12.1776 5.86429 11.9771C6.02379 11.772 6.14456 11.5304 6.22659 11.2524C6.30862 10.9744 6.34964 10.6691 6.34964 10.3364C6.34964 10.0402 6.31318 9.75537 6.24026 9.48193C6.16735 9.20394 6.05569 8.95785 5.9053 8.74365C5.75491 8.5249 5.56579 8.354 5.33792 8.23096C5.11461 8.10335 4.84801 8.03955 4.53812 8.03955C4.1872 8.03955 3.85908 8.12614 3.55374 8.29932C3.25296 8.46794 3.00459 8.69124 2.80862 8.96924C2.61722 9.24268 2.50784 9.54118 2.4805 9.86475L1.81058 9.85791C1.87438 9.34749 1.99287 8.91227 2.16605 8.55225C2.34378 8.18766 2.56253 7.89144 2.8223 7.66357C3.08662 7.43115 3.38056 7.26253 3.70413 7.15771C4.03226 7.04834 4.37861 6.99365 4.74319 6.99365C5.23994 6.99365 5.66832 7.08708 6.02835 7.27393C6.38838 7.46077 6.6846 7.71143 6.91702 8.02588C7.14944 8.33577 7.32034 8.68669 7.42972 9.07861C7.54365 9.46598 7.60062 9.86475 7.60062 10.2749C7.60062 10.7443 7.53454 11.1841 7.40237 11.5942C7.27021 12.0044 7.07197 12.3644 6.80765 12.6743C6.54788 12.9842 6.22659 13.2257 5.84378 13.3989C5.46097 13.5721 5.01663 13.6587 4.51077 13.6587C3.97301 13.6587 3.50361 13.5493 3.10257 13.3306C2.70153 13.1073 2.36885 12.811 2.10452 12.4419C1.8402 12.0728 1.64196 11.6626 1.5098 11.2114C1.37763 10.7603 1.31155 10.3022 1.31155 9.8374V9.24268C1.31155 8.54085 1.38219 7.8527 1.52347 7.17822C1.66474 6.50374 1.90856 5.89307 2.25491 5.34619C2.60582 4.79932 3.09118 4.3641 3.71097 4.04053C4.33076 3.71696 5.12145 3.55518 6.08304 3.55518Z" fill="white"/>
<path d="M167.476 8.59814C167.476 9.03109 167.375 9.39893 167.173 9.70166C166.974 10.0011 166.704 10.229 166.362 10.3853C166.024 10.5415 165.641 10.6196 165.215 10.6196C164.788 10.6196 164.404 10.5415 164.062 10.3853C163.721 10.229 163.451 10.0011 163.252 9.70166C163.053 9.39893 162.954 9.03109 162.954 8.59814C162.954 8.31494 163.008 8.05615 163.115 7.82178C163.226 7.58415 163.381 7.37744 163.579 7.20166C163.781 7.02588 164.019 6.89079 164.292 6.79639C164.569 6.69873 164.873 6.6499 165.205 6.6499C165.641 6.6499 166.03 6.73454 166.372 6.90381C166.714 7.06982 166.982 7.29932 167.178 7.59229C167.376 7.88525 167.476 8.22054 167.476 8.59814ZM166.567 8.57861C166.567 8.31494 166.51 8.08219 166.396 7.88037C166.283 7.67529 166.123 7.51579 165.918 7.40186C165.713 7.28792 165.475 7.23096 165.205 7.23096C164.928 7.23096 164.689 7.28792 164.487 7.40186C164.289 7.51579 164.134 7.67529 164.023 7.88037C163.913 8.08219 163.857 8.31494 163.857 8.57861C163.857 8.85205 163.911 9.08643 164.019 9.28174C164.129 9.4738 164.285 9.62191 164.487 9.72607C164.692 9.82699 164.935 9.87744 165.215 9.87744C165.495 9.87744 165.736 9.82699 165.938 9.72607C166.139 9.62191 166.294 9.4738 166.401 9.28174C166.512 9.08643 166.567 8.85205 166.567 8.57861ZM167.31 5.26318C167.31 5.60824 167.218 5.91911 167.036 6.1958C166.854 6.47249 166.605 6.69059 166.289 6.8501C165.973 7.0096 165.615 7.08936 165.215 7.08936C164.808 7.08936 164.445 7.0096 164.126 6.8501C163.81 6.69059 163.563 6.47249 163.384 6.1958C163.205 5.91911 163.115 5.60824 163.115 5.26318C163.115 4.84977 163.205 4.49821 163.384 4.2085C163.566 3.91878 163.815 3.69743 164.131 3.54443C164.447 3.39144 164.806 3.31494 165.21 3.31494C165.617 3.31494 165.978 3.39144 166.294 3.54443C166.61 3.69743 166.857 3.91878 167.036 4.2085C167.218 4.49821 167.31 4.84977 167.31 5.26318ZM166.406 5.27783C166.406 5.0402 166.356 4.83024 166.255 4.64795C166.154 4.46566 166.014 4.32243 165.835 4.21826C165.656 4.11084 165.448 4.05713 165.21 4.05713C164.972 4.05713 164.764 4.10758 164.585 4.2085C164.409 4.30615 164.271 4.44613 164.17 4.62842C164.072 4.81071 164.023 5.02718 164.023 5.27783C164.023 5.52197 164.072 5.73519 164.17 5.91748C164.271 6.09977 164.411 6.24137 164.59 6.34229C164.769 6.4432 164.977 6.49365 165.215 6.49365C165.452 6.49365 165.659 6.4432 165.835 6.34229C166.014 6.24137 166.154 6.09977 166.255 5.91748C166.356 5.73519 166.406 5.52197 166.406 5.27783ZM168.677 10.0435C168.677 9.89046 168.724 9.76188 168.818 9.65771C168.916 9.55029 169.056 9.49658 169.238 9.49658C169.421 9.49658 169.559 9.55029 169.653 9.65771C169.751 9.76188 169.8 9.89046 169.8 10.0435C169.8 10.1932 169.751 10.3201 169.653 10.4243C169.559 10.5285 169.421 10.5806 169.238 10.5806C169.056 10.5806 168.916 10.5285 168.818 10.4243C168.724 10.3201 168.677 10.1932 168.677 10.0435ZM168.682 5.73193C168.682 5.57894 168.729 5.45036 168.823 5.34619C168.921 5.23877 169.061 5.18506 169.243 5.18506C169.425 5.18506 169.564 5.23877 169.658 5.34619C169.756 5.45036 169.805 5.57894 169.805 5.73193C169.805 5.88167 169.756 6.00863 169.658 6.11279C169.564 6.21696 169.425 6.26904 169.243 6.26904C169.061 6.26904 168.921 6.21696 168.823 6.11279C168.729 6.00863 168.682 5.88167 168.682 5.73193ZM172.358 6.52295H173.003C173.319 6.52295 173.579 6.47087 173.784 6.3667C173.993 6.25928 174.147 6.11442 174.248 5.93213C174.352 5.74658 174.404 5.53825 174.404 5.30713C174.404 5.03369 174.359 4.8042 174.268 4.61865C174.176 4.43311 174.04 4.29313 173.857 4.19873C173.675 4.10433 173.444 4.05713 173.164 4.05713C172.91 4.05713 172.686 4.10758 172.49 4.2085C172.298 4.30615 172.147 4.44613 172.036 4.62842C171.929 4.81071 171.875 5.02555 171.875 5.27295H170.972C170.972 4.91162 171.063 4.58285 171.245 4.28662C171.427 3.9904 171.683 3.75439 172.012 3.57861C172.344 3.40283 172.728 3.31494 173.164 3.31494C173.594 3.31494 173.97 3.39144 174.292 3.54443C174.614 3.69417 174.865 3.91878 175.044 4.21826C175.223 4.51449 175.312 4.88395 175.312 5.32666C175.312 5.5057 175.27 5.69775 175.186 5.90283C175.104 6.10465 174.976 6.29346 174.8 6.46924C174.627 6.64502 174.403 6.78988 174.126 6.90381C173.849 7.01449 173.517 7.06982 173.13 7.06982H172.358V6.52295ZM172.358 7.26514V6.72314H173.13C173.582 6.72314 173.957 6.77686 174.253 6.88428C174.549 6.9917 174.782 7.13493 174.951 7.31396C175.124 7.493 175.244 7.68994 175.312 7.90479C175.384 8.11637 175.42 8.32796 175.42 8.53955C175.42 8.87158 175.363 9.16618 175.249 9.42334C175.138 9.6805 174.98 9.8986 174.775 10.0776C174.574 10.2567 174.336 10.3918 174.062 10.4829C173.789 10.5741 173.491 10.6196 173.169 10.6196C172.86 10.6196 172.568 10.5757 172.295 10.4878C172.025 10.3999 171.785 10.2729 171.577 10.1069C171.369 9.93766 171.206 9.73096 171.089 9.48682C170.972 9.23942 170.913 8.95785 170.913 8.64209H171.816C171.816 8.88949 171.87 9.10596 171.978 9.2915C172.088 9.47705 172.244 9.62191 172.446 9.72607C172.651 9.82699 172.892 9.87744 173.169 9.87744C173.446 9.87744 173.683 9.83024 173.882 9.73584C174.084 9.63818 174.238 9.4917 174.346 9.29639C174.456 9.10107 174.512 8.85531 174.512 8.55908C174.512 8.26286 174.45 8.02035 174.326 7.83154C174.202 7.63949 174.027 7.49788 173.799 7.40674C173.574 7.31234 173.309 7.26514 173.003 7.26514H172.358ZM181.47 8.12939V8.87158H176.333V8.33936L179.517 3.4126H180.254L179.463 4.83838L177.358 8.12939H181.47ZM180.479 3.4126V10.522H179.575V3.4126H180.479Z" fill="white"/>
<path d="M150.614 19.6909H30.8069C29.8616 19.6909 29.0954 20.4572 29.0954 21.4024C29.0954 22.3477 29.8616 23.114 30.8069 23.114H150.614C151.559 23.114 152.325 22.3477 152.325 21.4024C152.325 20.4572 151.559 19.6909 150.614 19.6909Z" fill="black" fill-opacity="0.1"/>
<path d="M95.0065 20.522H30.7982C30.0273 20.522 29.4024 20.9697 29.4024 21.522C29.4024 22.0743 30.0273 22.522 30.7982 22.522H95.0065C95.7774 22.522 96.4024 22.0743 96.4024 21.522C96.4024 20.9697 95.7774 20.522 95.0065 20.522Z" fill="#2F4AFD" stroke="black" stroke-opacity="0.05" stroke-width="0.247119"/>
<path d="M123.666 28.5908H30.4861C29.718 28.5908 29.0954 29.2135 29.0954 29.9816C29.0954 30.7497 29.718 31.3723 30.4861 31.3723H123.666C124.434 31.3723 125.057 30.7497 125.057 29.9816C125.057 29.2135 124.434 28.5908 123.666 28.5908Z" fill="white" fill-opacity="0.3"/>
<path d="M73.6646 36.8486H30.4861C29.718 36.8486 29.0954 37.4713 29.0954 38.2394C29.0954 39.0075 29.718 39.6301 30.4861 39.6301H73.6646C74.4327 39.6301 75.0554 39.0075 75.0554 38.2394C75.0554 37.4713 74.4327 36.8486 73.6646 36.8486Z" fill="white" fill-opacity="0.3"/>
</svg>
