<svg width="188" height="40" viewBox="0 0 188 40" fill="none" xmlns="http://www.w3.org/2000/svg">
<path d="M30.3101 3.70166H32.899C33.4862 3.70166 33.9821 3.79118 34.3867 3.97021C34.795 4.14925 35.1047 4.41423 35.3159 4.76514C35.5308 5.11247 35.6382 5.54036 35.6382 6.04883C35.6382 6.4069 35.5648 6.73454 35.418 7.03174C35.2748 7.32536 35.0671 7.57601 34.795 7.78369C34.5264 7.98779 34.2041 8.13997 33.8282 8.24023L33.5381 8.35303H31.105L31.0943 7.50977H32.9312C33.3036 7.50977 33.6133 7.44531 33.8604 7.31641C34.1075 7.18392 34.2937 7.00667 34.419 6.78467C34.5443 6.56266 34.607 6.31738 34.607 6.04883C34.607 5.74805 34.5479 5.48486 34.4297 5.25928C34.3116 5.03369 34.1254 4.86003 33.8711 4.73828C33.6205 4.61296 33.2964 4.55029 32.899 4.55029H31.3467V11.522H30.3101V3.70166ZM34.8809 11.522L32.9795 7.97705L34.0591 7.97168L35.9873 11.4575V11.522H34.8809ZM39.3496 11.6294C38.945 11.6294 38.578 11.5614 38.2486 11.4253C37.9227 11.2856 37.6416 11.0905 37.4053 10.8398C37.1726 10.5892 36.9935 10.292 36.8682 9.94824C36.7429 9.60449 36.6802 9.22852 36.6802 8.82031V8.59473C36.6802 8.12207 36.75 7.70133 36.8897 7.33252C37.0293 6.96012 37.2191 6.64502 37.459 6.38721C37.6989 6.12939 37.9711 5.93424 38.2754 5.80176C38.5798 5.66927 38.8949 5.60303 39.2207 5.60303C39.6361 5.60303 39.9942 5.67464 40.295 5.81787C40.5993 5.9611 40.8482 6.16162 41.0415 6.41943C41.2349 6.67367 41.3781 6.97445 41.4712 7.32178C41.5643 7.66553 41.6109 8.0415 41.6109 8.44971V8.89551H37.271V8.08447H40.6172V8.00928C40.6029 7.75146 40.5492 7.50081 40.4561 7.25732C40.3666 7.01383 40.2233 6.81331 40.0264 6.65576C39.8295 6.49821 39.5609 6.41943 39.2207 6.41943C38.9951 6.41943 38.7875 6.46777 38.5977 6.56445C38.4079 6.65755 38.245 6.7972 38.1089 6.9834C37.9728 7.1696 37.8672 7.39697 37.792 7.66553C37.7168 7.93408 37.6792 8.24382 37.6792 8.59473V8.82031C37.6792 9.09603 37.7168 9.35563 37.792 9.59912C37.8708 9.83903 37.9836 10.0503 38.1304 10.2329C38.2808 10.4155 38.4616 10.5588 38.6729 10.6626C38.8877 10.7664 39.1312 10.8184 39.4034 10.8184C39.7543 10.8184 40.0515 10.7467 40.295 10.6035C40.5384 10.4603 40.7515 10.2687 40.9341 10.0288L41.5357 10.5068C41.4103 10.6966 41.251 10.8774 41.0576 11.0493C40.8643 11.2212 40.6262 11.3608 40.3433 11.4683C40.064 11.5757 39.7328 11.6294 39.3496 11.6294ZM46.1548 9.98047C46.1548 9.83724 46.1226 9.70475 46.0581 9.58301C45.9973 9.45768 45.8701 9.34489 45.6768 9.24463C45.487 9.14079 45.2006 9.05127 44.8174 8.97607C44.4951 8.90804 44.2033 8.82747 43.9419 8.73438C43.6841 8.64128 43.4639 8.52848 43.2813 8.396C43.1022 8.26351 42.9644 8.10775 42.8677 7.92871C42.771 7.74967 42.7227 7.5402 42.7227 7.30029C42.7227 7.07113 42.7728 6.85449 42.8731 6.65039C42.9769 6.44629 43.1219 6.26546 43.3081 6.10791C43.4979 5.95036 43.7253 5.82682 43.9903 5.7373C44.2552 5.64779 44.5506 5.60303 44.8765 5.60303C45.342 5.60303 45.7395 5.68538 46.0689 5.8501C46.3983 6.01481 46.6507 6.23503 46.8262 6.51074C47.0017 6.78288 47.0894 7.08545 47.0894 7.41846H46.0957C46.0957 7.25732 46.0474 7.10156 45.9507 6.95117C45.8576 6.7972 45.7198 6.67008 45.5371 6.56982C45.3581 6.46956 45.1379 6.41943 44.8765 6.41943C44.6008 6.41943 44.377 6.4624 44.2051 6.54834C44.0368 6.6307 43.9133 6.73633 43.8345 6.86523C43.7593 6.99414 43.7217 7.13021 43.7217 7.27344C43.7217 7.38086 43.7396 7.47754 43.7754 7.56348C43.8148 7.64583 43.8828 7.72282 43.9795 7.79443C44.0762 7.86247 44.2123 7.92692 44.3877 7.98779C44.5632 8.04867 44.787 8.10954 45.0591 8.17041C45.5353 8.27783 45.9274 8.40674 46.2354 8.55713C46.5433 8.70752 46.7725 8.89193 46.9229 9.11035C47.0733 9.32878 47.1485 9.59375 47.1485 9.90527C47.1485 10.1595 47.0948 10.3923 46.9873 10.6035C46.8835 10.8148 46.7313 10.9974 46.5308 11.1514C46.3339 11.3018 46.0975 11.4199 45.8218 11.5059C45.5497 11.5882 45.2435 11.6294 44.9034 11.6294C44.3913 11.6294 43.958 11.5381 43.6035 11.3555C43.2491 11.1729 42.9805 10.9365 42.7979 10.6465C42.6153 10.3564 42.524 10.0503 42.524 9.72803H43.523C43.5373 10.0002 43.6161 10.2168 43.7593 10.3779C43.9025 10.5355 44.078 10.6483 44.2857 10.7163C44.4934 10.7808 44.6992 10.813 44.9034 10.813C45.1755 10.813 45.4029 10.7772 45.5855 10.7056C45.7717 10.634 45.9131 10.5355 46.0098 10.4102C46.1065 10.2848 46.1548 10.1416 46.1548 9.98047ZM49.4473 6.82764V13.7563H48.4483V5.71045H49.3614L49.4473 6.82764ZM53.3628 8.56787V8.68066C53.3628 9.10319 53.3127 9.49528 53.2124 9.85693C53.1122 10.215 52.9654 10.5265 52.772 10.7915C52.5822 11.0565 52.3477 11.2624 52.0684 11.4092C51.7891 11.556 51.4686 11.6294 51.107 11.6294C50.7381 11.6294 50.4123 11.5685 50.1294 11.4468C49.8465 11.325 49.6066 11.1478 49.4097 10.915C49.2128 10.6823 49.0552 10.403 48.937 10.0771C48.8225 9.7513 48.7437 9.38428 48.7007 8.97607V8.37451C48.7437 7.94482 48.8242 7.5599 48.9424 7.21973C49.0606 6.87956 49.2163 6.58952 49.4097 6.34961C49.6066 6.10612 49.8448 5.92171 50.1241 5.79639C50.4034 5.66748 50.7256 5.60303 51.0909 5.60303C51.4561 5.60303 51.7801 5.67464 52.063 5.81787C52.3459 5.95752 52.584 6.15804 52.7774 6.41943C52.9707 6.68083 53.1158 6.99414 53.2124 7.35938C53.3127 7.72103 53.3628 8.12386 53.3628 8.56787ZM52.3638 8.68066V8.56787C52.3638 8.27783 52.3334 8.0057 52.2725 7.75146C52.2116 7.49365 52.1167 7.26807 51.9878 7.07471C51.8625 6.87777 51.7014 6.7238 51.5044 6.61279C51.3075 6.49821 51.0729 6.44092 50.8008 6.44092C50.5502 6.44092 50.3317 6.48389 50.1455 6.56982C49.9629 6.65576 49.8072 6.77214 49.6783 6.91895C49.5493 7.06217 49.4437 7.22689 49.3614 7.41309C49.2826 7.5957 49.2235 7.78548 49.1841 7.98242V9.37354C49.2557 9.62419 49.356 9.86051 49.4849 10.0825C49.6138 10.3009 49.7857 10.4782 50.0005 10.6143C50.2154 10.7467 50.4857 10.813 50.8116 10.813C51.0801 10.813 51.3111 10.7575 51.5044 10.6465C51.7014 10.5319 51.8625 10.3761 51.9878 10.1792C52.1167 9.98226 52.2116 9.75667 52.2725 9.50244C52.3334 9.24463 52.3638 8.9707 52.3638 8.68066ZM54.3672 8.68066V8.55713C54.3672 8.13818 54.4281 7.74967 54.5498 7.3916C54.6716 7.02995 54.847 6.71663 55.0762 6.45166C55.3054 6.18311 55.5829 5.97542 55.9087 5.82861C56.2346 5.67822 56.5998 5.60303 57.0044 5.60303C57.4126 5.60303 57.7797 5.67822 58.1055 5.82861C58.4349 5.97542 58.7142 6.18311 58.9434 6.45166C59.1761 6.71663 59.3534 7.02995 59.4751 7.3916C59.5969 7.74967 59.6577 8.13818 59.6577 8.55713V8.68066C59.6577 9.09961 59.5969 9.48812 59.4751 9.84619C59.3534 10.2043 59.1761 10.5176 58.9434 10.7861C58.7142 11.0511 58.4367 11.2588 58.1109 11.4092C57.7886 11.556 57.4234 11.6294 57.0152 11.6294C56.607 11.6294 56.2399 11.556 55.9141 11.4092C55.5882 11.2588 55.3089 11.0511 55.0762 10.7861C54.847 10.5176 54.6716 10.2043 54.5498 9.84619C54.4281 9.48812 54.3672 9.09961 54.3672 8.68066ZM55.3609 8.55713V8.68066C55.3609 8.9707 55.3949 9.24463 55.4629 9.50244C55.531 9.75667 55.633 9.98226 55.7691 10.1792C55.9087 10.3761 56.0824 10.5319 56.2901 10.6465C56.4978 10.7575 56.7395 10.813 57.0152 10.813C57.2873 10.813 57.5254 10.7575 57.7295 10.6465C57.9372 10.5319 58.1091 10.3761 58.2451 10.1792C58.3812 9.98226 58.4833 9.75667 58.5513 9.50244C58.6229 9.24463 58.6587 8.9707 58.6587 8.68066V8.55713C58.6587 8.27067 58.6229 8.00033 58.5513 7.74609C58.4833 7.48828 58.3794 7.2609 58.2398 7.06396C58.1037 6.86344 57.9318 6.70589 57.7242 6.59131C57.5201 6.47673 57.2801 6.41943 57.0044 6.41943C56.7323 6.41943 56.4924 6.47673 56.2847 6.59131C56.0806 6.70589 55.9087 6.86344 55.7691 7.06396C55.633 7.2609 55.531 7.48828 55.4629 7.74609C55.3949 8.00033 55.3609 8.27067 55.3609 8.55713ZM61.8975 6.95117V11.522H60.9038V5.71045H61.8438L61.8975 6.95117ZM61.6612 8.396L61.2476 8.37988C61.2512 7.98242 61.3103 7.6154 61.4248 7.27881C61.5394 6.93864 61.7006 6.64323 61.9082 6.39258C62.1159 6.14193 62.363 5.94857 62.6494 5.8125C62.9395 5.67285 63.26 5.60303 63.6109 5.60303C63.8973 5.60303 64.1551 5.64242 64.3843 5.72119C64.6135 5.79639 64.8086 5.91813 64.9698 6.08643C65.1345 6.25472 65.2598 6.47314 65.3457 6.7417C65.4317 7.00667 65.4746 7.33073 65.4746 7.71387V11.522H64.4756V7.70312C64.4756 7.39876 64.4309 7.15527 64.3413 6.97266C64.2518 6.78646 64.1211 6.65218 63.9492 6.56982C63.7774 6.48389 63.5661 6.44092 63.3155 6.44092C63.0684 6.44092 62.8428 6.49284 62.6387 6.59668C62.4382 6.70052 62.2645 6.84375 62.1177 7.02637C61.9745 7.20898 61.8617 7.41846 61.7793 7.65479C61.7006 7.88753 61.6612 8.1346 61.6612 8.396ZM70.3677 9.98047C70.3677 9.83724 70.3355 9.70475 70.271 9.58301C70.2102 9.45768 70.083 9.34489 69.8897 9.24463C69.6999 9.14079 69.4134 9.05127 69.0303 8.97607C68.708 8.90804 68.4162 8.82747 68.1548 8.73438C67.897 8.64128 67.6768 8.52848 67.4942 8.396C67.3151 8.26351 67.1773 8.10775 67.0806 7.92871C66.9839 7.74967 66.9356 7.5402 66.9356 7.30029C66.9356 7.07113 66.9857 6.85449 67.086 6.65039C67.1898 6.44629 67.3348 6.26546 67.521 6.10791C67.7108 5.95036 67.9382 5.82682 68.2032 5.7373C68.4681 5.64779 68.7635 5.60303 69.0894 5.60303C69.5549 5.60303 69.9523 5.68538 70.2818 5.8501C70.6112 6.01481 70.8636 6.23503 71.0391 6.51074C71.2145 6.78288 71.3023 7.08545 71.3023 7.41846H70.3086C70.3086 7.25732 70.2603 7.10156 70.1636 6.95117C70.0705 6.7972 69.9326 6.67008 69.75 6.56982C69.571 6.46956 69.3508 6.41943 69.0894 6.41943C68.8137 6.41943 68.5899 6.4624 68.418 6.54834C68.2497 6.6307 68.1262 6.73633 68.0474 6.86523C67.9722 6.99414 67.9346 7.13021 67.9346 7.27344C67.9346 7.38086 67.9525 7.47754 67.9883 7.56348C68.0277 7.64583 68.0957 7.72282 68.1924 7.79443C68.2891 7.86247 68.4252 7.92692 68.6006 7.98779C68.7761 8.04867 68.9999 8.10954 69.272 8.17041C69.7482 8.27783 70.1403 8.40674 70.4483 8.55713C70.7562 8.70752 70.9854 8.89193 71.1358 9.11035C71.2862 9.32878 71.3614 9.59375 71.3614 9.90527C71.3614 10.1595 71.3076 10.3923 71.2002 10.6035C71.0964 10.8148 70.9442 10.9974 70.7437 11.1514C70.5467 11.3018 70.3104 11.4199 70.0347 11.5059C69.7626 11.5882 69.4564 11.6294 69.1162 11.6294C68.6042 11.6294 68.1709 11.5381 67.8164 11.3555C67.4619 11.1729 67.1934 10.9365 67.0108 10.6465C66.8282 10.3564 66.7368 10.0503 66.7368 9.72803H67.7359C67.7502 10.0002 67.829 10.2168 67.9722 10.3779C68.1154 10.5355 68.2909 10.6483 68.4986 10.7163C68.7062 10.7808 68.9121 10.813 69.1162 10.813C69.3884 10.813 69.6158 10.7772 69.7984 10.7056C69.9846 10.634 70.126 10.5355 70.2227 10.4102C70.3194 10.2848 70.3677 10.1416 70.3677 9.98047ZM73.7461 5.71045V11.522H72.7471V5.71045H73.7461ZM72.6719 4.16895C72.6719 4.00781 72.7202 3.87174 72.8169 3.76074C72.9172 3.64974 73.064 3.59424 73.2574 3.59424C73.4471 3.59424 73.5922 3.64974 73.6924 3.76074C73.7963 3.87174 73.8482 4.00781 73.8482 4.16895C73.8482 4.32292 73.7963 4.4554 73.6924 4.56641C73.5922 4.67383 73.4471 4.72754 73.2574 4.72754C73.064 4.72754 72.9172 4.67383 72.8169 4.56641C72.7202 4.4554 72.6719 4.32292 72.6719 4.16895ZM77.1084 10.625L78.6983 5.71045H79.7134L77.6241 11.522H76.958L77.1084 10.625ZM75.7818 5.71045L77.42 10.6519L77.5327 11.522H76.8667L74.7613 5.71045H75.7818ZM83.0059 11.6294C82.6013 11.6294 82.2342 11.5614 81.9048 11.4253C81.579 11.2856 81.2979 11.0905 81.0616 10.8398C80.8288 10.5892 80.6498 10.292 80.5244 9.94824C80.3991 9.60449 80.3365 9.22852 80.3365 8.82031V8.59473C80.3365 8.12207 80.4063 7.70133 80.5459 7.33252C80.6856 6.96012 80.8754 6.64502 81.1153 6.38721C81.3552 6.12939 81.6273 5.93424 81.9317 5.80176C82.236 5.66927 82.5511 5.60303 82.877 5.60303C83.2923 5.60303 83.6504 5.67464 83.9512 5.81787C84.2556 5.9611 84.5044 6.16162 84.6978 6.41943C84.8911 6.67367 85.0344 6.97445 85.1275 7.32178C85.2206 7.66553 85.2671 8.0415 85.2671 8.44971V8.89551H80.9273V8.08447H84.2735V8.00928C84.2591 7.75146 84.2054 7.50081 84.1123 7.25732C84.0228 7.01383 83.8796 6.81331 83.6826 6.65576C83.4857 6.49821 83.2172 6.41943 82.877 6.41943C82.6514 6.41943 82.4437 6.46777 82.2539 6.56445C82.0642 6.65755 81.9012 6.7972 81.7652 6.9834C81.6291 7.1696 81.5235 7.39697 81.4483 7.66553C81.3731 7.93408 81.3355 8.24382 81.3355 8.59473V8.82031C81.3355 9.09603 81.3731 9.35563 81.4483 9.59912C81.527 9.83903 81.6398 10.0503 81.7867 10.2329C81.937 10.4155 82.1179 10.5588 82.3291 10.6626C82.544 10.7664 82.7875 10.8184 83.0596 10.8184C83.4105 10.8184 83.7077 10.7467 83.9512 10.6035C84.1947 10.4603 84.4077 10.2687 84.5904 10.0288L85.1919 10.5068C85.0666 10.6966 84.9073 10.8774 84.7139 11.0493C84.5205 11.2212 84.2824 11.3608 83.9995 11.4683C83.7202 11.5757 83.389 11.6294 83.0059 11.6294ZM92.8189 10.394V3.27197H93.8179V11.522H92.9048L92.8189 10.394ZM88.9087 8.68066V8.56787C88.9087 8.12386 88.9624 7.72103 89.0699 7.35938C89.1809 6.99414 89.3366 6.68083 89.5371 6.41943C89.7412 6.15804 89.9829 5.95752 90.2622 5.81787C90.5451 5.67464 90.8602 5.60303 91.2076 5.60303C91.5728 5.60303 91.8915 5.66748 92.1636 5.79639C92.4393 5.92171 92.6721 6.10612 92.8618 6.34961C93.0552 6.58952 93.2074 6.87956 93.3184 7.21973C93.4294 7.5599 93.5064 7.94482 93.5493 8.37451V8.86865C93.51 9.29476 93.433 9.6779 93.3184 10.0181C93.2074 10.3582 93.0552 10.6483 92.8618 10.8882C92.6721 11.1281 92.4393 11.3125 92.1636 11.4414C91.8879 11.5667 91.5656 11.6294 91.1968 11.6294C90.8566 11.6294 90.5451 11.556 90.2622 11.4092C89.9829 11.2624 89.7412 11.0565 89.5371 10.7915C89.3366 10.5265 89.1809 10.215 89.0699 9.85693C88.9624 9.49528 88.9087 9.10319 88.9087 8.68066ZM89.9077 8.56787V8.68066C89.9077 8.9707 89.9364 9.24284 89.9937 9.49707C90.0546 9.7513 90.1477 9.9751 90.273 10.1685C90.3983 10.3618 90.5576 10.514 90.751 10.625C90.9444 10.7324 91.1753 10.7861 91.4439 10.7861C91.7733 10.7861 92.0437 10.7163 92.2549 10.5767C92.4698 10.437 92.6416 10.2526 92.7705 10.0234C92.8994 9.79427 92.9997 9.54541 93.0713 9.27686V7.98242C93.0284 7.78548 92.9657 7.5957 92.8833 7.41309C92.8046 7.22689 92.7007 7.06217 92.5718 6.91895C92.4465 6.77214 92.2907 6.65576 92.1045 6.56982C91.9219 6.48389 91.7053 6.44092 91.4546 6.44092C91.1825 6.44092 90.9479 6.49821 90.751 6.61279C90.5576 6.7238 90.3983 6.87777 90.273 7.07471C90.1477 7.26807 90.0546 7.49365 89.9937 7.75146C89.9364 8.0057 89.9077 8.27783 89.9077 8.56787ZM97.7764 11.6294C97.3718 11.6294 97.0048 11.5614 96.6753 11.4253C96.3495 11.2856 96.0684 11.0905 95.8321 10.8398C95.5993 10.5892 95.4203 10.292 95.295 9.94824C95.1696 9.60449 95.107 9.22852 95.107 8.82031V8.59473C95.107 8.12207 95.1768 7.70133 95.3164 7.33252C95.4561 6.96012 95.6459 6.64502 95.8858 6.38721C96.1257 6.12939 96.3978 5.93424 96.7022 5.80176C97.0065 5.66927 97.3216 5.60303 97.6475 5.60303C98.0629 5.60303 98.4209 5.67464 98.7217 5.81787C99.0261 5.9611 99.2749 6.16162 99.4683 6.41943C99.6617 6.67367 99.8049 6.97445 99.898 7.32178C99.9911 7.66553 100.038 8.0415 100.038 8.44971V8.89551H95.6978V8.08447H99.044V8.00928C99.0297 7.75146 98.9759 7.50081 98.8828 7.25732C98.7933 7.01383 98.6501 6.81331 98.4532 6.65576C98.2562 6.49821 97.9877 6.41943 97.6475 6.41943C97.4219 6.41943 97.2142 6.46777 97.0244 6.56445C96.8347 6.65755 96.6717 6.7972 96.5357 6.9834C96.3996 7.1696 96.294 7.39697 96.2188 7.66553C96.1436 7.93408 96.106 8.24382 96.106 8.59473V8.82031C96.106 9.09603 96.1436 9.35563 96.2188 9.59912C96.2976 9.83903 96.4103 10.0503 96.5572 10.2329C96.7076 10.4155 96.8884 10.5588 97.0996 10.6626C97.3145 10.7664 97.558 10.8184 97.8301 10.8184C98.181 10.8184 98.4782 10.7467 98.7217 10.6035C98.9652 10.4603 99.1783 10.2687 99.3609 10.0288L99.9624 10.5068C99.8371 10.6966 99.6778 10.8774 99.4844 11.0493C99.291 11.2212 99.0529 11.3608 98.7701 11.4683C98.4908 11.5757 98.1595 11.6294 97.7764 11.6294ZM104.582 9.98047C104.582 9.83724 104.549 9.70475 104.485 9.58301C104.424 9.45768 104.297 9.34489 104.104 9.24463C103.914 9.14079 103.627 9.05127 103.244 8.97607C102.922 8.90804 102.63 8.82747 102.369 8.73438C102.111 8.64128 101.891 8.52848 101.708 8.396C101.529 8.26351 101.391 8.10775 101.294 7.92871C101.198 7.74967 101.149 7.5402 101.149 7.30029C101.149 7.07113 101.2 6.85449 101.3 6.65039C101.404 6.44629 101.549 6.26546 101.735 6.10791C101.925 5.95036 102.152 5.82682 102.417 5.7373C102.682 5.64779 102.977 5.60303 103.303 5.60303C103.769 5.60303 104.166 5.68538 104.496 5.8501C104.825 6.01481 105.078 6.23503 105.253 6.51074C105.428 6.78288 105.516 7.08545 105.516 7.41846H104.522C104.522 7.25732 104.474 7.10156 104.377 6.95117C104.284 6.7972 104.147 6.67008 103.964 6.56982C103.785 6.46956 103.565 6.41943 103.303 6.41943C103.028 6.41943 102.804 6.4624 102.632 6.54834C102.464 6.6307 102.34 6.73633 102.261 6.86523C102.186 6.99414 102.148 7.13021 102.148 7.27344C102.148 7.38086 102.166 7.47754 102.202 7.56348C102.242 7.64583 102.31 7.72282 102.406 7.79443C102.503 7.86247 102.639 7.92692 102.814 7.98779C102.99 8.04867 103.214 8.10954 103.486 8.17041C103.962 8.27783 104.354 8.40674 104.662 8.55713C104.97 8.70752 105.199 8.89193 105.35 9.11035C105.5 9.32878 105.575 9.59375 105.575 9.90527C105.575 10.1595 105.522 10.3923 105.414 10.6035C105.31 10.8148 105.158 10.9974 104.958 11.1514C104.761 11.3018 104.524 11.4199 104.249 11.5059C103.976 11.5882 103.67 11.6294 103.33 11.6294C102.818 11.6294 102.385 11.5381 102.03 11.3555C101.676 11.1729 101.407 10.9365 101.225 10.6465C101.042 10.3564 100.951 10.0503 100.951 9.72803H101.95C101.964 10.0002 102.043 10.2168 102.186 10.3779C102.329 10.5355 102.505 10.6483 102.712 10.7163C102.92 10.7808 103.126 10.813 103.33 10.813C103.602 10.813 103.83 10.7772 104.012 10.7056C104.198 10.634 104.34 10.5355 104.437 10.4102C104.533 10.2848 104.582 10.1416 104.582 9.98047ZM107.96 5.71045V11.522H106.961V5.71045H107.96ZM106.886 4.16895C106.886 4.00781 106.934 3.87174 107.031 3.76074C107.131 3.64974 107.278 3.59424 107.471 3.59424C107.661 3.59424 107.806 3.64974 107.906 3.76074C108.01 3.87174 108.062 4.00781 108.062 4.16895C108.062 4.32292 108.01 4.4554 107.906 4.56641C107.806 4.67383 107.661 4.72754 107.471 4.72754C107.278 4.72754 107.131 4.67383 107.031 4.56641C106.934 4.4554 106.886 4.32292 106.886 4.16895ZM113.32 5.71045H114.223V11.3984C114.223 11.9105 114.119 12.3473 113.911 12.709C113.703 13.0706 113.413 13.3446 113.041 13.5308C112.672 13.7205 112.246 13.8154 111.763 13.8154C111.562 13.8154 111.326 13.7832 111.054 13.7188C110.785 13.6579 110.52 13.5522 110.259 13.4019C110.001 13.255 109.784 13.0563 109.609 12.8057L110.13 12.2148C110.373 12.5085 110.628 12.7126 110.893 12.8271C111.161 12.9417 111.426 12.999 111.688 12.999C112.003 12.999 112.275 12.9399 112.504 12.8218C112.733 12.7036 112.91 12.5282 113.036 12.2954C113.165 12.0662 113.229 11.7834 113.229 11.4468V6.98877L113.32 5.71045ZM109.319 8.68066V8.56787C109.319 8.12386 109.371 7.72103 109.475 7.35938C109.582 6.99414 109.734 6.68083 109.931 6.41943C110.132 6.15804 110.373 5.95752 110.656 5.81787C110.939 5.67464 111.258 5.60303 111.612 5.60303C111.978 5.60303 112.296 5.66748 112.568 5.79639C112.844 5.92171 113.077 6.10612 113.267 6.34961C113.46 6.58952 113.612 6.87956 113.723 7.21973C113.834 7.5599 113.911 7.94482 113.954 8.37451V8.86865C113.915 9.29476 113.838 9.6779 113.723 10.0181C113.612 10.3582 113.46 10.6483 113.267 10.8882C113.077 11.1281 112.844 11.3125 112.568 11.4414C112.293 11.5667 111.97 11.6294 111.602 11.6294C111.254 11.6294 110.939 11.556 110.656 11.4092C110.377 11.2624 110.137 11.0565 109.937 10.7915C109.736 10.5265 109.582 10.215 109.475 9.85693C109.371 9.49528 109.319 9.10319 109.319 8.68066ZM110.313 8.56787V8.68066C110.313 8.9707 110.341 9.24284 110.398 9.49707C110.459 9.7513 110.551 9.9751 110.672 10.1685C110.798 10.3618 110.957 10.514 111.15 10.625C111.344 10.7324 111.575 10.7861 111.843 10.7861C112.173 10.7861 112.445 10.7163 112.66 10.5767C112.875 10.437 113.045 10.2526 113.17 10.0234C113.299 9.79427 113.399 9.54541 113.471 9.27686V7.98242C113.431 7.78548 113.37 7.5957 113.288 7.41309C113.209 7.22689 113.105 7.06217 112.977 6.91895C112.851 6.77214 112.696 6.65576 112.509 6.56982C112.323 6.48389 112.105 6.44092 111.854 6.44092C111.582 6.44092 111.347 6.49821 111.15 6.61279C110.957 6.7238 110.798 6.87777 110.672 7.07471C110.551 7.26807 110.459 7.49365 110.398 7.75146C110.341 8.0057 110.313 8.27783 110.313 8.56787ZM116.726 6.95117V11.522H115.732V5.71045H116.672L116.726 6.95117ZM116.489 8.396L116.076 8.37988C116.079 7.98242 116.138 7.6154 116.253 7.27881C116.368 6.93864 116.529 6.64323 116.736 6.39258C116.944 6.14193 117.191 5.94857 117.478 5.8125C117.768 5.67285 118.088 5.60303 118.439 5.60303C118.725 5.60303 118.983 5.64242 119.212 5.72119C119.442 5.79639 119.637 5.91813 119.798 6.08643C119.963 6.25472 120.088 6.47314 120.174 6.7417C120.26 7.00667 120.303 7.33073 120.303 7.71387V11.522H119.304V7.70312C119.304 7.39876 119.259 7.15527 119.169 6.97266C119.08 6.78646 118.949 6.65218 118.777 6.56982C118.605 6.48389 118.394 6.44092 118.144 6.44092C117.897 6.44092 117.671 6.49284 117.467 6.59668C117.266 6.70052 117.093 6.84375 116.946 7.02637C116.803 7.20898 116.69 7.41846 116.607 7.65479C116.529 7.88753 116.489 8.1346 116.489 8.396Z" fill="white"/>
<path d="M183.914 0.521973H160.891C158.964 0.521973 157.402 2.08898 157.402 4.02197V11.022C157.402 12.955 158.964 14.522 160.891 14.522H183.914C185.841 14.522 187.402 12.955 187.402 11.022V4.02197C187.402 2.08898 185.841 0.521973 183.914 0.521973Z" fill="black" fill-opacity="0.1"/>
<path d="M7.66214 3.56885V4.27979L3.54007 13.522H2.20706L6.3223 4.60791H0.935577V3.56885H7.66214Z" fill="white"/>
<path d="M164.892 10.2651H164.984C165.505 10.2651 165.928 10.1919 166.254 10.0454C166.579 9.89893 166.83 9.70199 167.006 9.45459C167.182 9.20719 167.302 8.92887 167.367 8.61963C167.432 8.30713 167.465 7.98649 167.465 7.65771V6.56885C167.465 6.24658 167.427 5.96012 167.353 5.70947C167.281 5.45882 167.18 5.24886 167.05 5.07959C166.923 4.91032 166.778 4.78174 166.615 4.69385C166.452 4.60596 166.28 4.56201 166.098 4.56201C165.889 4.56201 165.702 4.60433 165.536 4.68896C165.373 4.77035 165.235 4.8859 165.121 5.03564C165.01 5.18538 164.926 5.36117 164.867 5.56299C164.809 5.76481 164.779 5.98454 164.779 6.22217C164.779 6.43376 164.805 6.63883 164.857 6.8374C164.91 7.03597 164.989 7.21501 165.097 7.37451C165.204 7.53402 165.338 7.66097 165.497 7.75537C165.66 7.84652 165.85 7.89209 166.068 7.89209C166.27 7.89209 166.459 7.85303 166.635 7.7749C166.814 7.69352 166.972 7.58447 167.108 7.44775C167.248 7.30778 167.359 7.1499 167.44 6.97412C167.525 6.79834 167.574 6.61442 167.587 6.42236H168.017C168.017 6.69255 167.963 6.95947 167.855 7.22314C167.751 7.48356 167.605 7.72119 167.416 7.93604C167.227 8.15088 167.006 8.3234 166.752 8.45361C166.498 8.58057 166.221 8.64404 165.922 8.64404C165.57 8.64404 165.266 8.57568 165.009 8.43896C164.752 8.30225 164.54 8.11995 164.374 7.89209C164.211 7.66423 164.089 7.41032 164.008 7.13037C163.93 6.84717 163.891 6.56071 163.891 6.271C163.891 5.93245 163.938 5.61507 164.032 5.31885C164.127 5.02262 164.267 4.76221 164.452 4.5376C164.638 4.30973 164.867 4.13232 165.141 4.00537C165.417 3.87842 165.736 3.81494 166.098 3.81494C166.505 3.81494 166.851 3.89632 167.138 4.05908C167.424 4.22184 167.657 4.43994 167.836 4.71338C168.018 4.98682 168.152 5.29443 168.236 5.63623C168.321 5.97803 168.363 6.32959 168.363 6.69092V7.01807C168.363 7.3859 168.339 7.76025 168.29 8.14111C168.244 8.51872 168.155 8.88005 168.021 9.2251C167.891 9.57015 167.701 9.87939 167.45 10.1528C167.2 10.423 166.872 10.6379 166.469 10.7974C166.068 10.9536 165.574 11.0317 164.984 11.0317H164.892V10.2651ZM169.677 10.5435C169.677 10.3905 169.724 10.2619 169.818 10.1577C169.916 10.0503 170.056 9.99658 170.238 9.99658C170.421 9.99658 170.559 10.0503 170.653 10.1577C170.751 10.2619 170.8 10.3905 170.8 10.5435C170.8 10.6932 170.751 10.8201 170.653 10.9243C170.559 11.0285 170.421 11.0806 170.238 11.0806C170.056 11.0806 169.916 11.0285 169.818 10.9243C169.724 10.8201 169.677 10.6932 169.677 10.5435ZM169.682 6.23193C169.682 6.07894 169.729 5.95036 169.823 5.84619C169.921 5.73877 170.061 5.68506 170.243 5.68506C170.425 5.68506 170.564 5.73877 170.658 5.84619C170.756 5.95036 170.805 6.07894 170.805 6.23193C170.805 6.38167 170.756 6.50863 170.658 6.61279C170.564 6.71696 170.425 6.76904 170.243 6.76904C170.061 6.76904 169.921 6.71696 169.823 6.61279C169.729 6.50863 169.682 6.38167 169.682 6.23193ZM176.698 10.2798V11.022H172.045V10.3726L174.374 7.77979C174.66 7.46077 174.882 7.19059 175.038 6.96924C175.198 6.74463 175.308 6.54443 175.37 6.36865C175.435 6.18962 175.468 6.00732 175.468 5.82178C175.468 5.5874 175.419 5.37581 175.321 5.18701C175.227 4.99495 175.087 4.84196 174.901 4.72803C174.716 4.6141 174.491 4.55713 174.228 4.55713C173.912 4.55713 173.648 4.61898 173.437 4.74268C173.228 4.86312 173.072 5.03239 172.968 5.25049C172.864 5.46859 172.812 5.71924 172.812 6.00244H171.908C171.908 5.60205 171.996 5.23584 172.172 4.90381C172.348 4.57178 172.608 4.30811 172.953 4.11279C173.298 3.91423 173.723 3.81494 174.228 3.81494C174.677 3.81494 175.061 3.89469 175.38 4.0542C175.699 4.21045 175.943 4.4318 176.112 4.71826C176.285 5.00146 176.371 5.3335 176.371 5.71436C176.371 5.92269 176.335 6.13428 176.264 6.34912C176.195 6.56071 176.099 6.7723 175.976 6.98389C175.855 7.19548 175.714 7.40381 175.551 7.60889C175.391 7.81396 175.22 8.01579 175.038 8.21436L173.134 10.2798H176.698ZM180.634 3.87354V11.022H179.73V5.00146L177.909 5.66553V4.8501L180.492 3.87354H180.634Z" fill="white"/>
<path d="M150.614 19.6909H30.8069C29.8616 19.6909 29.0954 20.4572 29.0954 21.4024C29.0954 22.3477 29.8616 23.114 30.8069 23.114H150.614C151.559 23.114 152.325 22.3477 152.325 21.4024C152.325 20.4572 151.559 19.6909 150.614 19.6909Z" fill="black" fill-opacity="0.1"/>
<path d="M78.0453 20.376H30.8073C30.2401 20.376 29.7804 20.8357 29.7804 21.4029C29.7804 21.97 30.2401 22.4298 30.8073 22.4298H78.0453C78.6125 22.4298 79.0723 21.97 79.0723 21.4029C79.0723 20.8357 78.6125 20.376 78.0453 20.376Z" fill="#2F4AFD" stroke="black" stroke-opacity="0.05" stroke-width="0.247119"/>
<path d="M123.666 28.5908H30.4861C29.718 28.5908 29.0954 29.2135 29.0954 29.9816C29.0954 30.7497 29.718 31.3723 30.4861 31.3723H123.666C124.434 31.3723 125.057 30.7497 125.057 29.9816C125.057 29.2135 124.434 28.5908 123.666 28.5908Z" fill="white" fill-opacity="0.3"/>
<path d="M73.6646 36.8486H30.4861C29.718 36.8486 29.0954 37.4713 29.0954 38.2394C29.0954 39.0075 29.718 39.6301 30.4861 39.6301H73.6646C74.4327 39.6301 75.0554 39.0075 75.0554 38.2394C75.0554 37.4713 74.4327 36.8486 73.6646 36.8486Z" fill="white" fill-opacity="0.3"/>
</svg>
