<svg width="187" height="40" viewBox="0 0 187 40" fill="none" xmlns="http://www.w3.org/2000/svg">
<path d="M35.0313 9.03516H36.0625C36.0088 9.5293 35.8674 9.97152 35.6382 10.3618C35.409 10.7521 35.085 11.0618 34.666 11.291C34.2471 11.5166 33.7243 11.6294 33.0977 11.6294C32.6394 11.6294 32.2222 11.5435 31.8462 11.3716C31.4738 11.1997 31.1534 10.9562 30.8848 10.6411C30.6162 10.3224 30.4086 9.94108 30.2617 9.49707C30.1185 9.04948 30.0469 8.55176 30.0469 8.00391V7.2251C30.0469 6.67725 30.1185 6.18132 30.2617 5.7373C30.4086 5.28971 30.618 4.90658 30.8902 4.58789C31.1659 4.26921 31.4971 4.02393 31.8838 3.85205C32.2705 3.68018 32.7056 3.59424 33.189 3.59424C33.7798 3.59424 34.2793 3.70524 34.6875 3.92725C35.0957 4.14925 35.4126 4.45719 35.6382 4.85107C35.8674 5.24137 36.0088 5.69434 36.0625 6.20996H35.0313C34.9812 5.84473 34.8881 5.53141 34.752 5.27002C34.6159 5.00505 34.4226 4.80094 34.1719 4.65771C33.9213 4.51449 33.5936 4.44287 33.189 4.44287C32.8417 4.44287 32.5355 4.50911 32.2705 4.6416C32.0091 4.77409 31.7889 4.96208 31.6099 5.20557C31.4344 5.44906 31.302 5.74089 31.2124 6.08105C31.1229 6.42122 31.0782 6.79899 31.0782 7.21436V8.00391C31.0782 8.38704 31.1175 8.74691 31.1963 9.0835C31.2787 9.42008 31.4022 9.71549 31.5669 9.96973C31.7316 10.224 31.9411 10.4245 32.1953 10.5713C32.4496 10.7145 32.7504 10.7861 33.0977 10.7861C33.5381 10.7861 33.889 10.7163 34.1504 10.5767C34.4118 10.437 34.6088 10.2365 34.7412 9.9751C34.8773 9.7137 34.974 9.40039 35.0313 9.03516ZM37.0616 8.68066V8.55713C37.0616 8.13818 37.1224 7.74967 37.2442 7.3916C37.3659 7.02995 37.5414 6.71663 37.7705 6.45166C37.9997 6.18311 38.2772 5.97542 38.6031 5.82861C38.9289 5.67822 39.2941 5.60303 39.6988 5.60303C40.107 5.60303 40.474 5.67822 40.7998 5.82861C41.1293 5.97542 41.4086 6.18311 41.6377 6.45166C41.8705 6.71663 42.0477 7.02995 42.1695 7.3916C42.2912 7.74967 42.3521 8.13818 42.3521 8.55713V8.68066C42.3521 9.09961 42.2912 9.48812 42.1695 9.84619C42.0477 10.2043 41.8705 10.5176 41.6377 10.7861C41.4086 11.0511 41.1311 11.2588 40.8052 11.4092C40.4829 11.556 40.1177 11.6294 39.7095 11.6294C39.3013 11.6294 38.9343 11.556 38.6084 11.4092C38.2826 11.2588 38.0033 11.0511 37.7705 10.7861C37.5414 10.5176 37.3659 10.2043 37.2442 9.84619C37.1224 9.48812 37.0616 9.09961 37.0616 8.68066ZM38.0552 8.55713V8.68066C38.0552 8.9707 38.0892 9.24463 38.1573 9.50244C38.2253 9.75667 38.3273 9.98226 38.4634 10.1792C38.6031 10.3761 38.7767 10.5319 38.9844 10.6465C39.1921 10.7575 39.4338 10.813 39.7095 10.813C39.9816 10.813 40.2198 10.7575 40.4239 10.6465C40.6315 10.5319 40.8034 10.3761 40.9395 10.1792C41.0756 9.98226 41.1776 9.75667 41.2456 9.50244C41.3173 9.24463 41.3531 8.9707 41.3531 8.68066V8.55713C41.3531 8.27067 41.3173 8.00033 41.2456 7.74609C41.1776 7.48828 41.0738 7.2609 40.9341 7.06396C40.798 6.86344 40.6262 6.70589 40.4185 6.59131C40.2144 6.47673 39.9745 6.41943 39.6988 6.41943C39.4266 6.41943 39.1867 6.47673 38.979 6.59131C38.7749 6.70589 38.6031 6.86344 38.4634 7.06396C38.3273 7.2609 38.2253 7.48828 38.1573 7.74609C38.0892 8.00033 38.0552 8.27067 38.0552 8.55713ZM44.5865 6.86523V11.522H43.5874V5.71045H44.5327L44.5865 6.86523ZM44.3824 8.396L43.9204 8.37988C43.924 7.98242 43.9759 7.6154 44.0762 7.27881C44.1765 6.93864 44.3251 6.64323 44.522 6.39258C44.7189 6.14193 44.9642 5.94857 45.2578 5.8125C45.5515 5.67285 45.8916 5.60303 46.2784 5.60303C46.5505 5.60303 46.8011 5.64242 47.0303 5.72119C47.2595 5.79639 47.4582 5.91634 47.6265 6.08105C47.7948 6.24577 47.9255 6.45703 48.0186 6.71484C48.1117 6.97266 48.1582 7.28418 48.1582 7.64941V11.522H47.1646V7.69775C47.1646 7.39339 47.1127 7.1499 47.0088 6.96729C46.9086 6.78467 46.7653 6.65218 46.5791 6.56982C46.3929 6.48389 46.1745 6.44092 45.9239 6.44092C45.6302 6.44092 45.385 6.49284 45.188 6.59668C44.9911 6.70052 44.8335 6.84375 44.7154 7.02637C44.5972 7.20898 44.5113 7.41846 44.4576 7.65479C44.4074 7.88753 44.3824 8.1346 44.3824 8.396ZM48.1475 7.84814L47.4815 8.05225C47.4851 7.73356 47.537 7.42741 47.6372 7.13379C47.7411 6.84017 47.8897 6.57878 48.083 6.34961C48.28 6.12044 48.5217 5.93962 48.8081 5.80713C49.0946 5.67106 49.4222 5.60303 49.791 5.60303C50.1026 5.60303 50.3783 5.64421 50.6182 5.72656C50.8617 5.80892 51.0658 5.93604 51.2305 6.10791C51.3988 6.2762 51.5259 6.49284 51.6118 6.75781C51.6978 7.02279 51.7408 7.33789 51.7408 7.70312V11.522H50.7417V7.69238C50.7417 7.36654 50.6898 7.1141 50.586 6.93506C50.4857 6.75244 50.3425 6.62533 50.1563 6.55371C49.9737 6.47852 49.7552 6.44092 49.501 6.44092C49.2826 6.44092 49.0892 6.47852 48.9209 6.55371C48.7526 6.62891 48.6112 6.73275 48.4966 6.86523C48.382 6.99414 48.2943 7.14274 48.2334 7.31104C48.1761 7.47933 48.1475 7.65837 48.1475 7.84814ZM54.2383 6.82764V13.7563H53.2393V5.71045H54.1524L54.2383 6.82764ZM58.1538 8.56787V8.68066C58.1538 9.10319 58.1037 9.49528 58.0034 9.85693C57.9032 10.215 57.7564 10.5265 57.563 10.7915C57.3732 11.0565 57.1387 11.2624 56.8594 11.4092C56.5801 11.556 56.2596 11.6294 55.898 11.6294C55.5292 11.6294 55.2033 11.5685 54.9204 11.4468C54.6376 11.325 54.3977 11.1478 54.2007 10.915C54.0038 10.6823 53.8462 10.403 53.7281 10.0771C53.6135 9.7513 53.5347 9.38428 53.4917 8.97607V8.37451C53.5347 7.94482 53.6153 7.5599 53.7334 7.21973C53.8516 6.87956 54.0074 6.58952 54.2007 6.34961C54.3977 6.10612 54.6358 5.92171 54.9151 5.79639C55.1944 5.66748 55.5166 5.60303 55.8819 5.60303C56.2471 5.60303 56.5712 5.67464 56.854 5.81787C57.1369 5.95752 57.375 6.15804 57.5684 6.41943C57.7617 6.68083 57.9068 6.99414 58.0034 7.35938C58.1037 7.72103 58.1538 8.12386 58.1538 8.56787ZM57.1548 8.68066V8.56787C57.1548 8.27783 57.1244 8.0057 57.0635 7.75146C57.0026 7.49365 56.9077 7.26807 56.7788 7.07471C56.6535 6.87777 56.4924 6.7238 56.2954 6.61279C56.0985 6.49821 55.864 6.44092 55.5918 6.44092C55.3412 6.44092 55.1228 6.48389 54.9366 6.56982C54.7539 6.65576 54.5982 6.77214 54.4693 6.91895C54.3404 7.06217 54.2347 7.22689 54.1524 7.41309C54.0736 7.5957 54.0145 7.78548 53.9751 7.98242V9.37354C54.0467 9.62419 54.147 9.86051 54.2759 10.0825C54.4048 10.3009 54.5767 10.4782 54.7915 10.6143C55.0064 10.7467 55.2767 10.813 55.6026 10.813C55.8711 10.813 56.1021 10.7575 56.2954 10.6465C56.4924 10.5319 56.6535 10.3761 56.7788 10.1792C56.9077 9.98226 57.0026 9.75667 57.0635 9.50244C57.1244 9.24463 57.1548 8.9707 57.1548 8.68066ZM59.1582 8.68066V8.55713C59.1582 8.13818 59.2191 7.74967 59.3409 7.3916C59.4626 7.02995 59.6381 6.71663 59.8672 6.45166C60.0964 6.18311 60.3739 5.97542 60.6997 5.82861C61.0256 5.67822 61.3908 5.60303 61.7954 5.60303C62.2036 5.60303 62.5707 5.67822 62.8965 5.82861C63.2259 5.97542 63.5052 6.18311 63.7344 6.45166C63.9672 6.71663 64.1444 7.02995 64.2661 7.3916C64.3879 7.74967 64.4488 8.13818 64.4488 8.55713V8.68066C64.4488 9.09961 64.3879 9.48812 64.2661 9.84619C64.1444 10.2043 63.9672 10.5176 63.7344 10.7861C63.5052 11.0511 63.2277 11.2588 62.9019 11.4092C62.5796 11.556 62.2144 11.6294 61.8062 11.6294C61.398 11.6294 61.031 11.556 60.7051 11.4092C60.3793 11.2588 60.1 11.0511 59.8672 10.7861C59.6381 10.5176 59.4626 10.2043 59.3409 9.84619C59.2191 9.48812 59.1582 9.09961 59.1582 8.68066ZM60.1519 8.55713V8.68066C60.1519 8.9707 60.1859 9.24463 60.2539 9.50244C60.322 9.75667 60.424 9.98226 60.5601 10.1792C60.6997 10.3761 60.8734 10.5319 61.0811 10.6465C61.2888 10.7575 61.5305 10.813 61.8062 10.813C62.0783 10.813 62.3164 10.7575 62.5205 10.6465C62.7282 10.5319 62.9001 10.3761 63.0362 10.1792C63.1722 9.98226 63.2743 9.75667 63.3423 9.50244C63.4139 9.24463 63.4497 8.9707 63.4497 8.68066V8.55713C63.4497 8.27067 63.4139 8.00033 63.3423 7.74609C63.2743 7.48828 63.1704 7.2609 63.0308 7.06396C62.8947 6.86344 62.7228 6.70589 62.5152 6.59131C62.3111 6.47673 62.0712 6.41943 61.7954 6.41943C61.5233 6.41943 61.2834 6.47673 61.0757 6.59131C60.8716 6.70589 60.6997 6.86344 60.5601 7.06396C60.424 7.2609 60.322 7.48828 60.2539 7.74609C60.1859 8.00033 60.1519 8.27067 60.1519 8.55713ZM66.6885 6.95117V11.522H65.6949V5.71045H66.6348L66.6885 6.95117ZM66.4522 8.396L66.0386 8.37988C66.0422 7.98242 66.1013 7.6154 66.2159 7.27881C66.3304 6.93864 66.4916 6.64323 66.6992 6.39258C66.9069 6.14193 67.154 5.94857 67.4405 5.8125C67.7305 5.67285 68.051 5.60303 68.4019 5.60303C68.6883 5.60303 68.9462 5.64242 69.1753 5.72119C69.4045 5.79639 69.5996 5.91813 69.7608 6.08643C69.9255 6.25472 70.0508 6.47314 70.1367 6.7417C70.2227 7.00667 70.2657 7.33073 70.2657 7.71387V11.522H69.2666V7.70312C69.2666 7.39876 69.2219 7.15527 69.1324 6.97266C69.0428 6.78646 68.9121 6.65218 68.7403 6.56982C68.5684 6.48389 68.3571 6.44092 68.1065 6.44092C67.8594 6.44092 67.6338 6.49284 67.4297 6.59668C67.2292 6.70052 67.0555 6.84375 66.9087 7.02637C66.7655 7.20898 66.6527 7.41846 66.5703 7.65479C66.4916 7.88753 66.4522 8.1346 66.4522 8.396ZM74.1866 11.6294C73.7819 11.6294 73.4149 11.5614 73.0855 11.4253C72.7596 11.2856 72.4785 11.0905 72.2422 10.8398C72.0095 10.5892 71.8304 10.292 71.7051 9.94824C71.5798 9.60449 71.5171 9.22852 71.5171 8.82031V8.59473C71.5171 8.12207 71.5869 7.70133 71.7266 7.33252C71.8662 6.96012 72.056 6.64502 72.2959 6.38721C72.5358 6.12939 72.808 5.93424 73.1123 5.80176C73.4167 5.66927 73.7318 5.60303 74.0576 5.60303C74.473 5.60303 74.8311 5.67464 75.1319 5.81787C75.4362 5.9611 75.6851 6.16162 75.8784 6.41943C76.0718 6.67367 76.215 6.97445 76.3081 7.32178C76.4012 7.66553 76.4478 8.0415 76.4478 8.44971V8.89551H72.1079V8.08447H75.4541V8.00928C75.4398 7.75146 75.3861 7.50081 75.293 7.25732C75.2035 7.01383 75.0603 6.81331 74.8633 6.65576C74.6664 6.49821 74.3978 6.41943 74.0576 6.41943C73.8321 6.41943 73.6244 6.46777 73.4346 6.56445C73.2448 6.65755 73.0819 6.7972 72.9458 6.9834C72.8098 7.1696 72.7041 7.39697 72.6289 7.66553C72.5537 7.93408 72.5161 8.24382 72.5161 8.59473V8.82031C72.5161 9.09603 72.5537 9.35563 72.6289 9.59912C72.7077 9.83903 72.8205 10.0503 72.9673 10.2329C73.1177 10.4155 73.2985 10.5588 73.5098 10.6626C73.7246 10.7664 73.9681 10.8184 74.2403 10.8184C74.5912 10.8184 74.8884 10.7467 75.1319 10.6035C75.3754 10.4603 75.5884 10.2687 75.771 10.0288L76.3726 10.5068C76.2473 10.6966 76.0879 10.8774 75.8946 11.0493C75.7012 11.2212 75.4631 11.3608 75.1802 11.4683C74.9009 11.5757 74.5697 11.6294 74.1866 11.6294ZM78.6016 6.95117V11.522H77.6079V5.71045H78.5479L78.6016 6.95117ZM78.3653 8.396L77.9517 8.37988C77.9553 7.98242 78.0144 7.6154 78.1289 7.27881C78.2435 6.93864 78.4047 6.64323 78.6123 6.39258C78.82 6.14193 79.0671 5.94857 79.3535 5.8125C79.6436 5.67285 79.9641 5.60303 80.315 5.60303C80.6014 5.60303 80.8592 5.64242 81.0884 5.72119C81.3176 5.79639 81.5127 5.91813 81.6739 6.08643C81.8386 6.25472 81.9639 6.47314 82.0498 6.7417C82.1358 7.00667 82.1787 7.33073 82.1787 7.71387V11.522H81.1797V7.70312C81.1797 7.39876 81.135 7.15527 81.0454 6.97266C80.9559 6.78646 80.8252 6.65218 80.6534 6.56982C80.4815 6.48389 80.2702 6.44092 80.0196 6.44092C79.7725 6.44092 79.5469 6.49284 79.3428 6.59668C79.1423 6.70052 78.9686 6.84375 78.8218 7.02637C78.6786 7.20898 78.5658 7.41846 78.4834 7.65479C78.4047 7.88753 78.3653 8.1346 78.3653 8.396ZM86.1211 5.71045V6.47314H82.979V5.71045H86.1211ZM84.0425 4.29785H85.0362V10.0825C85.0362 10.2795 85.0666 10.4281 85.1275 10.5283C85.1883 10.6286 85.2671 10.6948 85.3638 10.7271C85.4605 10.7593 85.5643 10.7754 85.6753 10.7754C85.7577 10.7754 85.8436 10.7682 85.9331 10.7539C86.0262 10.736 86.0961 10.7217 86.1426 10.7109L86.148 11.522C86.0692 11.547 85.9654 11.5703 85.8365 11.5918C85.7111 11.6169 85.5589 11.6294 85.3799 11.6294C85.1364 11.6294 84.9126 11.5811 84.7085 11.4844C84.5044 11.3877 84.3415 11.2266 84.2198 11.001C84.1016 10.7718 84.0425 10.4639 84.0425 10.0771V4.29785ZM90.6704 9.98047C90.6704 9.83724 90.6382 9.70475 90.5738 9.58301C90.5129 9.45768 90.3858 9.34489 90.1924 9.24463C90.0026 9.14079 89.7162 9.05127 89.333 8.97607C89.0108 8.90804 88.7189 8.82747 88.4576 8.73438C88.1997 8.64128 87.9795 8.52848 87.7969 8.396C87.6179 8.26351 87.48 8.10775 87.3833 7.92871C87.2867 7.74967 87.2383 7.5402 87.2383 7.30029C87.2383 7.07113 87.2884 6.85449 87.3887 6.65039C87.4925 6.44629 87.6376 6.26546 87.8238 6.10791C88.0135 5.95036 88.2409 5.82682 88.5059 5.7373C88.7709 5.64779 89.0663 5.60303 89.3921 5.60303C89.8576 5.60303 90.2551 5.68538 90.5845 5.8501C90.9139 6.01481 91.1664 6.23503 91.3418 6.51074C91.5173 6.78288 91.605 7.08545 91.605 7.41846H90.6114C90.6114 7.25732 90.563 7.10156 90.4663 6.95117C90.3732 6.7972 90.2354 6.67008 90.0528 6.56982C89.8737 6.46956 89.6535 6.41943 89.3921 6.41943C89.1164 6.41943 88.8926 6.4624 88.7207 6.54834C88.5524 6.6307 88.4289 6.73633 88.3501 6.86523C88.2749 6.99414 88.2373 7.13021 88.2373 7.27344C88.2373 7.38086 88.2552 7.47754 88.291 7.56348C88.3304 7.64583 88.3985 7.72282 88.4951 7.79443C88.5918 7.86247 88.7279 7.92692 88.9034 7.98779C89.0788 8.04867 89.3026 8.10954 89.5747 8.17041C90.051 8.27783 90.4431 8.40674 90.751 8.55713C91.0589 8.70752 91.2881 8.89193 91.4385 9.11035C91.5889 9.32878 91.6641 9.59375 91.6641 9.90527C91.6641 10.1595 91.6104 10.3923 91.503 10.6035C91.3991 10.8148 91.2469 10.9974 91.0464 11.1514C90.8495 11.3018 90.6131 11.4199 90.3374 11.5059C90.0653 11.5882 89.7591 11.6294 89.419 11.6294C88.9069 11.6294 88.4737 11.5381 88.1192 11.3555C87.7647 11.1729 87.4961 10.9365 87.3135 10.6465C87.1309 10.3564 87.0396 10.0503 87.0396 9.72803H88.0386C88.0529 10.0002 88.1317 10.2168 88.2749 10.3779C88.4182 10.5355 88.5936 10.6483 88.8013 10.7163C89.009 10.7808 89.2149 10.813 89.419 10.813C89.6911 10.813 89.9185 10.7772 90.1011 10.7056C90.2873 10.634 90.4287 10.5355 90.5254 10.4102C90.6221 10.2848 90.6704 10.1416 90.6704 9.98047Z" fill="white"/>
<path d="M183.134 0.521973H160.541C158.651 0.521973 157.118 2.05452 157.118 3.94502V10.7911C157.118 12.6816 158.651 14.2142 160.541 14.2142H183.134C185.024 14.2142 186.557 12.6816 186.557 10.7911V3.94502C186.557 2.05452 185.024 0.521973 183.134 0.521973Z" fill="black" fill-opacity="0.1"/>
<path d="M7.95609 10.1724V11.2114H0.764679V10.4663L5.22171 3.56885H6.25394L5.14651 5.56494L2.20023 10.1724H7.95609ZM6.56839 3.56885V13.522H5.30374V3.56885H6.56839Z" fill="white"/>
<path d="M162.962 3.37354V10.522H162.059V4.50146L160.237 5.16553V4.3501L162.82 3.37354H162.962ZM170.276 9.77979V10.522H165.623V9.87256L167.952 7.27979C168.239 6.96077 168.46 6.69059 168.616 6.46924C168.776 6.24463 168.886 6.04443 168.948 5.86865C169.013 5.68962 169.046 5.50732 169.046 5.32178C169.046 5.0874 168.997 4.87581 168.899 4.68701C168.805 4.49495 168.665 4.34196 168.48 4.22803C168.294 4.1141 168.069 4.05713 167.806 4.05713C167.49 4.05713 167.226 4.11898 167.015 4.24268C166.806 4.36312 166.65 4.53239 166.546 4.75049C166.442 4.96859 166.39 5.21924 166.39 5.50244H165.486C165.486 5.10205 165.574 4.73584 165.75 4.40381C165.926 4.07178 166.186 3.80811 166.531 3.61279C166.876 3.41423 167.301 3.31494 167.806 3.31494C168.255 3.31494 168.639 3.39469 168.958 3.5542C169.277 3.71045 169.521 3.9318 169.69 4.21826C169.863 4.50146 169.949 4.8335 169.949 5.21436C169.949 5.42269 169.913 5.63428 169.842 5.84912C169.773 6.06071 169.677 6.2723 169.554 6.48389C169.433 6.69548 169.292 6.90381 169.129 7.10889C168.969 7.31396 168.799 7.51579 168.616 7.71436L166.712 9.77979H170.276ZM171.302 10.0435C171.302 9.89046 171.349 9.76188 171.443 9.65771C171.541 9.55029 171.681 9.49658 171.863 9.49658C172.046 9.49658 172.184 9.55029 172.278 9.65771C172.376 9.76188 172.425 9.89046 172.425 10.0435C172.425 10.1932 172.376 10.3201 172.278 10.4243C172.184 10.5285 172.046 10.5806 171.863 10.5806C171.681 10.5806 171.541 10.5285 171.443 10.4243C171.349 10.3201 171.302 10.1932 171.302 10.0435ZM171.307 5.73193C171.307 5.57894 171.354 5.45036 171.448 5.34619C171.546 5.23877 171.686 5.18506 171.868 5.18506C172.05 5.18506 172.189 5.23877 172.283 5.34619C172.381 5.45036 172.43 5.57894 172.43 5.73193C172.43 5.88167 172.381 6.00863 172.283 6.11279C172.189 6.21696 172.05 6.26904 171.868 6.26904C171.686 6.26904 171.546 6.21696 171.448 6.11279C171.354 6.00863 171.307 5.88167 171.307 5.73193ZM178.128 6.40088V7.48486C178.128 8.06755 178.076 8.55908 177.972 8.95947C177.868 9.35986 177.718 9.68213 177.522 9.92627C177.327 10.1704 177.091 10.3478 176.814 10.4585C176.541 10.5659 176.232 10.6196 175.887 10.6196C175.613 10.6196 175.361 10.5854 175.13 10.5171C174.899 10.4487 174.69 10.3397 174.505 10.1899C174.323 10.0369 174.166 9.83838 174.036 9.59424C173.906 9.3501 173.807 9.05387 173.738 8.70557C173.67 8.35726 173.636 7.95036 173.636 7.48486V6.40088C173.636 5.8182 173.688 5.32992 173.792 4.93604C173.899 4.54215 174.051 4.2264 174.246 3.98877C174.441 3.74788 174.676 3.57536 174.949 3.47119C175.226 3.36702 175.535 3.31494 175.877 3.31494C176.154 3.31494 176.408 3.34912 176.639 3.41748C176.873 3.48258 177.081 3.58838 177.264 3.73486C177.446 3.87809 177.601 4.07015 177.728 4.31104C177.858 4.54867 177.957 4.84001 178.025 5.18506C178.094 5.53011 178.128 5.93538 178.128 6.40088ZM177.22 7.63135V6.24951C177.22 5.9305 177.2 5.65055 177.161 5.40967C177.125 5.16553 177.072 4.95719 177 4.78467C176.928 4.61214 176.837 4.47217 176.727 4.36475C176.619 4.25732 176.494 4.1792 176.351 4.13037C176.211 4.07829 176.053 4.05225 175.877 4.05225C175.662 4.05225 175.472 4.09294 175.306 4.17432C175.14 4.25244 175 4.37777 174.886 4.55029C174.775 4.72282 174.69 4.94906 174.632 5.229C174.573 5.50895 174.544 5.84912 174.544 6.24951V7.63135C174.544 7.95036 174.562 8.23193 174.598 8.47607C174.637 8.72021 174.694 8.9318 174.769 9.11084C174.843 9.28662 174.935 9.43148 175.042 9.54541C175.149 9.65934 175.273 9.74398 175.413 9.79932C175.556 9.8514 175.714 9.87744 175.887 9.87744C176.108 9.87744 176.302 9.83512 176.468 9.75049C176.634 9.66585 176.772 9.53402 176.883 9.35498C176.997 9.17269 177.081 8.93994 177.137 8.65674C177.192 8.37028 177.22 8.02848 177.22 7.63135ZM184.095 8.12939V8.87158H178.958V8.33936L182.142 3.4126H182.879L182.088 4.83838L179.983 8.12939H184.095ZM183.104 3.4126V10.522H182.2V3.4126H183.104Z" fill="white"/>
<path d="M150.614 19.6909H30.8069C29.8616 19.6909 29.0954 20.4572 29.0954 21.4024C29.0954 22.3477 29.8616 23.114 30.8069 23.114H150.614C151.559 23.114 152.325 22.3477 152.325 21.4024C152.325 20.4572 151.559 19.6909 150.614 19.6909Z" fill="black" fill-opacity="0.1"/>
<path d="M100.882 20.522H30.9232C30.0833 20.522 29.4024 20.9697 29.4024 21.522C29.4024 22.0743 30.0833 22.522 30.9232 22.522H100.882C101.721 22.522 102.402 22.0743 102.402 21.522C102.402 20.9697 101.721 20.522 100.882 20.522Z" fill="#2F4AFD" stroke="black" stroke-opacity="0.05" stroke-width="0.247119"/>
<path d="M123.666 28.5908H30.4861C29.718 28.5908 29.0954 29.2135 29.0954 29.9816C29.0954 30.7497 29.718 31.3723 30.4861 31.3723H123.666C124.434 31.3723 125.057 30.7497 125.057 29.9816C125.057 29.2135 124.434 28.5908 123.666 28.5908Z" fill="white" fill-opacity="0.3"/>
<path d="M73.6646 36.8486H30.4861C29.718 36.8486 29.0954 37.4713 29.0954 38.2394C29.0954 39.0075 29.718 39.6301 30.4861 39.6301H73.6646C74.4327 39.6301 75.0554 39.0075 75.0554 38.2394C75.0554 37.4713 74.4327 36.8486 73.6646 36.8486Z" fill="white" fill-opacity="0.3"/>
</svg>
