<svg width="100" height="100" viewBox="0 0 100 100" fill="none" xmlns="http://www.w3.org/2000/svg">
<path d="M29.1628 41.6654H83.3294C85.6307 41.6654 87.4961 43.5308 87.4961 45.832V87.4987C87.4961 89.7999 85.6307 91.6654 83.3294 91.6654H16.6628C14.3616 91.6654 12.4961 89.7999 12.4961 87.4987V45.832C12.4961 43.5308 14.3616 41.6654 16.6628 41.6654H20.8294V37.4987C20.8294 21.3904 33.8878 8.33203 49.9961 8.33203C61.4148 8.33203 71.3007 14.8937 76.0894 24.4521L68.634 28.1797C65.2136 21.3523 58.1523 16.6654 49.9961 16.6654C38.4902 16.6654 29.1628 25.9928 29.1628 37.4987V41.6654ZM41.6628 62.4987V70.832H58.3294V62.4987H41.6628Z" fill="white"/>
</svg>
