<svg width="239" height="70" viewBox="0 0 239 70" fill="none" xmlns="http://www.w3.org/2000/svg">
<g clip-path="url(#clip0_203_22)">
<path d="M97.45 9.00002C97.45 6.55002 98.23 4.54002 99.78 2.95002C101.33 1.37002 103.33 0.580017 105.78 0.580017H116.44V9.00002H109.81C108.14 9.00002 107.3 9.90002 107.3 11.69V19.12H118.41V27.54H107.3V63.28H97.45V27.54H85.45V19.12H97.45V9.00002ZM134.44 0.580017V63.27H124.59V0.580017H134.44Z" fill="#343F52"/>
<path d="M176.17 56.38H175.27C172.76 61.46 167.98 63.99 160.94 63.99C157.6 63.99 154.61 63.23 151.98 61.71C149.35 60.19 147.31 58.04 145.84 55.26C144.38 52.48 143.65 49.27 143.65 45.63V19.12H153.5V45.09C153.5 48.67 154.4 51.38 156.19 53.2C157.98 55.02 160.55 55.93 163.89 55.93C167.59 55.93 170.53 54.69 172.71 52.21C174.89 49.73 175.98 46.25 175.98 41.78V19.12H185.74V63.27H176.16V56.37L176.17 56.38Z" fill="#343F52"/>
<path d="M203.22 19.12L214.59 34.97H215.49L226.86 19.12H238.41L222.38 40.97L238.68 63.27H226.95L215.49 46.97H214.59L203.13 63.27H191.4L207.7 40.97L191.67 19.12H203.22Z" fill="#343F52"/>
<path d="M43.42 67.48C42.51 68.86 40.42 69.98 38.77 69.98H18.63C16.98 69.98 16.37 68.85 17.28 67.48L40.11 32.96C41.02 31.58 43.11 30.46 44.76 30.46H64.9C66.55 30.46 67.16 31.59 66.25 32.96L43.42 67.48Z" fill="#4079E0"/>
<path d="M23.9 2.51C24.81 1.13 26.9 0 28.55 0H49.33C50.98 0 51.59 1.13 50.68 2.51L27.2 38.3C26.29 39.68 24.2 40.81 22.55 40.81H1.77001C0.120015 40.81 -0.489985 39.68 0.420015 38.3L23.9 2.51Z" fill="#605EBA"/>
</g>
<defs>
<clipPath id="clip0_203_22">
<rect width="238.68" height="69.98" fill="white"/>
</clipPath>
</defs>
</svg>
