<svg width="110" height="32" viewBox="0 0 110 32" fill="none" xmlns="http://www.w3.org/2000/svg">
<path d="M19.0037 8.45459H21.6386V17.9574C21.6386 18.9991 21.3924 19.9153 20.9 20.706C20.4123 21.4967 19.7258 22.1146 18.8403 22.5597C17.9549 23 16.9204 23.2202 15.7366 23.2202C14.5482 23.2202 13.5113 23 12.6258 22.5597C11.7404 22.1146 11.0539 21.4967 10.5662 20.706C10.0785 19.9153 9.83466 18.9991 9.83466 17.9574V8.45459H12.4696V17.7373C12.4696 18.3433 12.6022 18.8831 12.8673 19.3566C13.1372 19.8301 13.516 20.2017 14.0037 20.4716C14.4914 20.7368 15.069 20.8694 15.7366 20.8694C16.4043 20.8694 16.9819 20.7368 17.4696 20.4716C17.962 20.2017 18.3408 19.8301 18.606 19.3566C18.8711 18.8831 19.0037 18.3433 19.0037 17.7373V8.45459Z" fill="#101828"/>
<path d="M26.96 16.608V23H24.389V12.091H26.8464V13.9446H26.9742C27.2252 13.3339 27.6253 12.8485 28.1745 12.4887C28.7285 12.1288 29.4127 11.9489 30.2271 11.9489C30.9799 11.9489 31.6357 12.1099 32.1944 12.4319C32.7578 12.7538 33.1934 13.2202 33.5012 13.831C33.8137 14.4418 33.9676 15.1828 33.9629 16.054V23H31.3918V16.4517C31.3918 15.7226 31.2024 15.152 30.8236 14.7401C30.4496 14.3282 29.9311 14.1222 29.2682 14.1222C28.8184 14.1222 28.4183 14.2216 28.068 14.4205C27.7223 14.6146 27.4501 14.8964 27.2512 15.2657C27.0571 15.635 26.96 16.0824 26.96 16.608Z" fill="#101828"/>
<path d="M42.0239 12.091V14.0796H35.7526V12.091H42.0239ZM37.3009 9.47732H39.8719V19.7188C39.8719 20.0644 39.924 20.3296 40.0282 20.5142C40.1371 20.6942 40.2791 20.8173 40.4543 20.8836C40.6295 20.9499 40.8236 20.983 41.0367 20.983C41.1977 20.983 41.3445 20.9712 41.4771 20.9475C41.6144 20.9238 41.7185 20.9025 41.7896 20.8836L42.2228 22.8935C42.0855 22.9409 41.889 22.9929 41.6333 23.0498C41.3824 23.1066 41.0746 23.1397 40.71 23.1492C40.0661 23.1681 39.4861 23.0711 38.97 22.858C38.4539 22.6402 38.0443 22.304 37.7413 21.8495C37.443 21.3949 37.2962 20.8267 37.3009 20.1449V9.47732Z" fill="#101828"/>
<path d="M44.1741 23V12.091H46.7452V23H44.1741ZM45.4668 10.5427C45.0596 10.5427 44.7092 10.4077 44.4156 10.1378C44.1221 9.86321 43.9753 9.53413 43.9753 9.15061C43.9753 8.76235 44.1221 8.43328 44.4156 8.1634C44.7092 7.88878 45.0596 7.75146 45.4668 7.75146C45.8787 7.75146 46.2291 7.88878 46.5179 8.1634C46.8115 8.43328 46.9582 8.76235 46.9582 9.15061C46.9582 9.53413 46.8115 9.86321 46.5179 10.1378C46.2291 10.4077 45.8787 10.5427 45.4668 10.5427Z" fill="#101828"/>
<path d="M54.8364 12.091V14.0796H48.5651V12.091H54.8364ZM50.1134 9.47732H52.6844V19.7188C52.6844 20.0644 52.7365 20.3296 52.8407 20.5142C52.9496 20.6942 53.0916 20.8173 53.2668 20.8836C53.442 20.9499 53.6361 20.983 53.8492 20.983C54.0102 20.983 54.157 20.9712 54.2896 20.9475C54.4269 20.9238 54.531 20.9025 54.6021 20.8836L55.0353 22.8935C54.898 22.9409 54.7015 22.9929 54.4458 23.0498C54.1949 23.1066 53.8871 23.1397 53.5225 23.1492C52.8786 23.1681 52.2986 23.0711 51.7825 22.858C51.2664 22.6402 50.8568 22.304 50.5538 21.8495C50.2555 21.3949 50.1087 20.8267 50.1134 20.1449V9.47732Z" fill="#101828"/>
<path d="M59.792 8.45459V23H57.221V8.45459H59.792Z" fill="#101828"/>
<path d="M67.2654 23.2131C66.1717 23.2131 65.2271 22.9858 64.4316 22.5313C63.6409 22.072 63.0325 21.4233 62.6063 20.5853C62.1802 19.7425 61.9671 18.7505 61.9671 17.6094C61.9671 16.4873 62.1802 15.5024 62.6063 14.6549C63.0372 13.8026 63.6385 13.1397 64.4103 12.6662C65.1821 12.188 66.0888 11.9489 67.1305 11.9489C67.8028 11.9489 68.4373 12.0578 69.0339 12.2756C69.6352 12.4887 70.1655 12.8201 70.6248 13.2699C71.0888 13.7197 71.4534 14.2927 71.7185 14.9887C71.9837 15.68 72.1163 16.5038 72.1163 17.4603V18.2486H63.1745V16.5157H69.6518C69.647 16.0232 69.5405 15.5853 69.3322 15.2017C69.1238 14.8135 68.8326 14.5081 68.4586 14.2856C68.0893 14.063 67.6584 13.9517 67.166 13.9517C66.6404 13.9517 66.1788 14.0796 65.781 14.3353C65.3833 14.5862 65.0732 14.9177 64.8506 15.3296C64.6328 15.7368 64.5216 16.1842 64.5168 16.6719V18.1847C64.5168 18.8192 64.6328 19.3637 64.8648 19.8182C65.0968 20.268 65.4212 20.6137 65.8379 20.8552C66.2545 21.0919 66.7422 21.2103 67.3009 21.2103C67.675 21.2103 68.0135 21.1582 68.3165 21.054C68.6196 20.9451 68.8824 20.7865 69.1049 20.5782C69.3274 20.3698 69.4955 20.1118 69.6092 19.804L72.0097 20.0739C71.8582 20.7084 71.5694 21.2624 71.1433 21.7358C70.7219 22.2046 70.1821 22.5692 69.5239 22.8296C68.8658 23.0853 68.1129 23.2131 67.2654 23.2131Z" fill="#101828"/>
<path d="M78.3396 23.1918C77.4826 23.1918 76.7156 22.9716 76.0385 22.5313C75.3614 22.091 74.8264 21.4517 74.4334 20.6137C74.0404 19.7756 73.8439 18.7576 73.8439 17.5597C73.8439 16.3476 74.0427 15.3249 74.4405 14.4915C74.8429 13.6535 75.3851 13.0214 76.0669 12.5952C76.7487 12.1643 77.5087 11.9489 78.3467 11.9489C78.9859 11.9489 79.5115 12.0578 79.9234 12.2756C80.3354 12.4887 80.6621 12.7467 80.9035 13.0498C81.145 13.3481 81.332 13.6298 81.4646 13.8949H81.5712V8.45459H84.1493V23H81.6209V21.2813H81.4646C81.332 21.5464 81.1403 21.8282 80.8893 22.1265C80.6384 22.42 80.307 22.671 79.895 22.8793C79.4831 23.0876 78.9646 23.1918 78.3396 23.1918ZM79.057 21.0824C79.6015 21.0824 80.0655 20.9357 80.449 20.6421C80.8325 20.3438 81.1237 19.9295 81.3226 19.3992C81.5214 18.8689 81.6209 18.251 81.6209 17.5455C81.6209 16.84 81.5214 16.2268 81.3226 15.706C81.1284 15.1852 80.8396 14.7803 80.4561 14.4915C80.0773 14.2027 79.6109 14.0583 79.057 14.0583C78.484 14.0583 78.0058 14.2074 77.6223 14.5057C77.2388 14.804 76.9499 15.216 76.7558 15.7415C76.5617 16.2671 76.4646 16.8684 76.4646 17.5455C76.4646 18.2273 76.5617 18.8357 76.7558 19.3708C76.9547 19.9011 77.2459 20.3201 77.6294 20.6279C78.0177 20.9309 78.4935 21.0824 79.057 21.0824Z" fill="#101828"/>
<path d="M101.133 8.45459H103.768V17.9574C103.768 18.9991 103.521 19.9153 103.029 20.706C102.541 21.4967 101.855 22.1146 100.969 22.5597C100.084 23 99.0493 23.2202 97.8655 23.2202C96.6771 23.2202 95.6402 23 94.7548 22.5597C93.8693 22.1146 93.1828 21.4967 92.6951 20.706C92.2074 19.9153 91.9636 18.9991 91.9636 17.9574V8.45459H94.5985V17.7373C94.5985 18.3433 94.7311 18.8831 94.9962 19.3566C95.2661 19.8301 95.6449 20.2017 96.1326 20.4716C96.6203 20.7368 97.1979 20.8694 97.8655 20.8694C98.5332 20.8694 99.1108 20.7368 99.5985 20.4716C100.091 20.2017 100.47 19.8301 100.735 19.3566C101 18.8831 101.133 18.3433 101.133 17.7373V8.45459Z" fill="#101828"/>
<path d="M109.266 8.45459V23H106.632V8.45459H109.266Z" fill="#101828"/>
</svg>
