<svg width="100" height="100" viewBox="0 0 100 100" fill="none" xmlns="http://www.w3.org/2000/svg">
<path d="M50.0026 16.6654C39.2089 16.6654 29.6112 21.7926 23.514 29.7601L33.3359 39.582H8.33594V14.582L17.5802 23.8263C25.2135 14.382 36.9009 8.33203 50.0026 8.33203C73.0143 8.33203 91.6693 26.9868 91.6693 49.9987H83.3359C83.3359 31.5892 68.4122 16.6654 50.0026 16.6654ZM16.6693 49.9987C16.6693 68.4083 31.5931 83.332 50.0026 83.332C60.7964 83.332 70.3943 78.2049 76.4914 70.2374L66.6693 60.4154H91.6693V85.4154L82.4251 76.1712C74.7918 85.6154 63.1043 91.6654 50.0026 91.6654C26.9907 91.6654 8.33594 73.0104 8.33594 49.9987H16.6693Z" fill="white"/>
</svg>
