<svg width="30" height="27" viewBox="0 0 30 27" fill="none" xmlns="http://www.w3.org/2000/svg">
<path d="M23.3125 23.625C24.2445 23.625 25 24.3805 25 25.3125V25.3125C25 26.2445 24.2445 27 23.3125 27H6.6875C5.75552 27 5 26.2445 5 25.3125V25.3125C5 24.3805 5.75552 23.625 6.6875 23.625H23.3125ZM28.3125 11.8125C29.2445 11.8125 30 12.568 30 13.5V13.5C30 14.432 29.2445 15.1875 28.3125 15.1875H1.6875C0.755519 15.1875 0 14.432 0 13.5V13.5C0 12.568 0.755519 11.8125 1.6875 11.8125H28.3125ZM23.3125 0C24.2445 0 25 0.75552 25 1.6875V1.6875C25 2.61948 24.2445 3.375 23.3125 3.375H6.6875C5.75552 3.375 5 2.61948 5 1.6875V1.6875C5 0.75552 5.75552 0 6.6875 0H23.3125Z" fill="white"/>
</svg>
