<svg width="412" height="275" viewBox="0 0 412 275" fill="none" xmlns="http://www.w3.org/2000/svg">
<path d="M398.312 0H13.6877C6.1282 0 0 6.1337 0 13.7V260.3C0 267.866 6.1282 274 13.6877 274H398.312C405.872 274 412 267.866 412 260.3V13.7C412 6.1337 405.872 0 398.312 0Z" fill="white" fill-opacity="0.15"/>
<path d="M247 23C247 18.5817 250.582 15 255 15H389C393.418 15 397 18.5817 397 23V251C397 255.418 393.418 259 389 259H255C250.582 259 247 255.418 247 251V23Z" fill="#00023A"/>
<rect opacity="0.5" x="259" y="27" width="126" height="94" rx="4" fill="white" fill-opacity="0.5"/>
<rect opacity="0.25" x="259" y="155" width="37" height="18" rx="2" fill="white"/>
<rect x="319" y="213.191" width="18" height="17.9268" rx="1" fill="#531AB0"/>
<rect x="359" y="213.191" width="18" height="17.9268" rx="1" fill="#2FB8FF"/>
<rect x="259" y="213.191" width="18" height="17.9268" rx="1" fill="#535575"/>
<rect x="279" y="213.191" width="18" height="17.9268" rx="1" fill="#EAEAEA"/>
<rect x="299" y="213.191" width="18" height="17.9268" rx="1" fill="#FF367E"/>
<rect x="339" y="213.191" width="18" height="17.9268" rx="1" fill="#FF7A00"/>
<rect opacity="0.25" x="299" y="155" width="20" height="18" rx="2" fill="white"/>
<rect opacity="0.25" x="321" y="155" width="20" height="18" rx="2" fill="white"/>
<rect opacity="0.25" x="343" y="155" width="20" height="18" rx="2" fill="white"/>
<rect opacity="0.25" x="365" y="155" width="20" height="18" rx="2" fill="white"/>
<rect opacity="0.15" x="282" y="128" width="103" height="8" rx="1" fill="white"/>
<rect opacity="0.15" x="282" y="139" width="103" height="8" rx="1" fill="white"/>
<rect opacity="0.15" x="259" y="179" width="126" height="10" rx="1" fill="white"/>
<rect opacity="0.15" x="259" y="127.541" width="19" height="19.9187" rx="1" fill="white"/>
<g opacity="0.8" clip-path="url(#clip0_414_1460)">
<path d="M272.492 134.328L271.42 133.163C271.241 132.969 270.952 132.969 270.773 133.163L269.343 134.716L268.459 133.765L267.813 134.467L268.463 135.175L264.375 139.616V141.982H266.552L270.64 137.54L271.291 138.247L271.938 137.545L271.058 136.589L272.488 135.035C272.671 134.836 272.671 134.522 272.492 134.328ZM266.172 140.986L265.292 140.03L268.986 136.016L269.866 136.972L266.172 140.986Z" fill="white"/>
</g>
<g opacity="0.8" clip-path="url(#clip1_414_1460)">
<path d="M388.292 222.736H385.042V226.221H383.958V222.736H380.708V221.574H383.958V218.088H385.042V221.574H388.292V222.736Z" fill="white"/>
</g>
<defs>
<clipPath id="clip0_414_1460">
<rect width="11" height="11.9512" fill="white" transform="translate(263 131.524)"/>
</clipPath>
<clipPath id="clip1_414_1460">
<rect width="13" height="13.9431" fill="white" transform="translate(378 215.183)"/>
</clipPath>
</defs>
</svg>
