<svg width="96" height="96" viewBox="0 0 96 96" fill="none" xmlns="http://www.w3.org/2000/svg">
<path fill-rule="evenodd" clip-rule="evenodd" d="M17.148 87.6534L6.82991 74.7994C4.34739 71.7068 3 67.9038 3 63.9896V17.445C3 11.5819 7.69076 6.71691 13.7421 6.30376L61.5964 3.03655C65.073 2.79919 68.5284 3.72327 71.3843 5.65411L88.1977 17.0217C91.2074 19.0566 93 22.383 93 25.9328V78.8495C93 84.5873 88.3877 89.3379 82.4629 89.7026L29.35 92.972C24.622 93.263 20.052 91.271 17.148 87.6534Z" fill="white"/>
<path d="M33.7444 40.7366V40.1272C33.7444 38.5826 34.9816 37.3015 36.576 37.195L48.1901 36.4196L64.2513 60.071V39.3129L60.1172 38.7618V38.4724C60.1172 36.9096 61.3826 35.62 62.9974 35.5373L73.5649 34.996V36.5167C73.5649 37.2306 73.0341 37.8413 72.3065 37.9643L69.7635 38.3944V72.0116L66.5719 73.1091C63.9057 74.026 60.9373 73.0445 59.411 70.7413L43.8184 47.212V69.6694L48.6177 70.5879L48.5509 71.033C48.3414 72.4275 47.1375 73.4821 45.6811 73.5469L33.7444 74.0782C33.5867 72.5787 34.7105 71.2372 36.2609 71.0743L37.831 70.9094V40.9662L33.7444 40.7366Z" fill="black"/>
<path fill-rule="evenodd" clip-rule="evenodd" d="M62.0248 8.90084L14.1706 12.168C11.3042 12.3637 9.08221 14.6682 9.08221 17.4455V63.9901C9.08221 66.5996 9.98047 69.1349 11.6355 71.1967L21.9536 84.0506C23.6218 86.1288 26.2471 87.2732 28.9632 87.106L82.0761 83.8366C84.7983 83.669 86.9175 81.4863 86.9175 78.85V25.9333C86.9175 24.3023 86.0938 22.7739 84.711 21.839L67.8976 10.4714C66.1841 9.31287 64.1108 8.75842 62.0248 8.90084ZM16.5436 18.1715C15.878 17.6787 16.1948 16.6521 17.0309 16.5922L62.3467 13.3418C63.7906 13.2383 65.2253 13.6358 66.393 14.4631L75.4852 20.9049C75.8304 21.1494 75.6685 21.6774 75.2412 21.7006L27.2518 24.3106C25.7995 24.3896 24.366 23.9629 23.2112 23.108L16.5436 18.1715ZM25.0009 32.4926C25.0009 30.9336 26.2604 29.6458 27.871 29.5581L78.6093 26.7948C80.179 26.7094 81.5004 27.9165 81.5004 29.4359V75.2563C81.5004 76.8125 80.2453 78.0989 78.6379 78.1904L28.2208 81.0591C26.474 81.1585 25.0009 79.8161 25.0009 78.1249V32.4926Z" fill="black"/>
</svg>
