<svg width="40" height="40" viewBox="0 0 40 40" fill="none" xmlns="http://www.w3.org/2000/svg">
<path d="M20.0002 3.33328C10.7954 3.33328 3.3335 10.7952 3.3335 19.9999C3.3335 29.2047 10.7954 36.6666 20.0002 36.6666C29.2049 36.6666 36.6668 29.2047 36.6668 19.9999C36.6668 15.5797 34.9109 11.3404 31.7853 8.21484C28.6597 5.08923 24.4204 3.33328 20.0002 3.33328Z" fill="white"/>
<path d="M26.6668 21.0666L16.9501 27.1332C16.5648 27.3937 16.0668 27.4188 15.6574 27.1983C15.2479 26.9778 14.9947 26.5483 15.0001 26.0832V13.9166C15.0028 13.4626 15.2514 13.0458 15.6495 12.8277C16.0476 12.6096 16.5327 12.6245 16.9168 12.8666L26.6668 18.9332C27.0303 19.1661 27.2503 19.5681 27.2503 19.9999C27.2503 20.4317 27.0303 20.8337 26.6668 21.0666Z" fill="#161616"/>
</svg>
