<svg width="796" height="252" viewBox="0 0 796 252" fill="none" xmlns="http://www.w3.org/2000/svg">
<g clip-path="url(#clip0_2947_3480)">
<path d="M490.29 90.8901C490.32 90.2901 490.38 89.6601 490.37 89.0301C490.32 86.4401 489.67 85.7601 487.12 85.6601C485.68 85.6101 484.24 85.6301 482.8 85.6201C478.89 85.5901 478.38 85.0801 478.34 81.1801C478.34 81.1001 478.34 81.0201 478.34 80.9401C478.34 71.7401 478.34 62.5401 478.34 53.3401C478.34 52.5401 478.36 51.7401 478.47 50.9501C478.64 49.7101 479.31 48.9001 480.65 48.8001C481.21 48.7601 481.76 48.6701 482.32 48.6701C490.8 48.6201 499.28 48.5701 507.75 48.5301C509.36 48.5301 510.15 49.1701 510.45 50.6801C510.54 51.1501 510.55 51.6301 510.55 52.1101C510.55 62.4301 510.55 72.7501 510.55 83.0701C510.55 83.6001 510.39 84.1201 510.29 84.7301C509.44 84.7701 508.74 84.8301 508.03 84.8401C505.95 84.8701 503.87 84.8201 501.79 84.9201C499.84 85.0201 499.25 85.8001 499.49 87.7201C499.55 88.1901 499.69 88.6601 499.77 89.1301C499.91 90.0601 500.41 90.5601 501.37 90.5501C501.85 90.5501 502.33 90.5601 502.81 90.5601C514.65 90.5601 526.49 90.5601 538.33 90.5601C538.97 90.5601 539.65 90.6501 540.24 90.4701C540.79 90.2901 541.45 89.9101 541.69 89.4301C542.83 87.1801 541.5 84.9901 538.99 84.9601C536.75 84.9401 534.52 85.0401 532.28 85.1101C530.73 85.1501 530.22 84.7901 530.05 83.2801C529.95 82.4101 529.97 81.5201 529.97 80.6401C529.97 58.2401 529.97 35.8401 529.97 13.4401C529.97 12.7201 529.96 12.0001 530.01 11.2801C530.15 9.16011 530.66 8.57011 532.77 8.45011C534.92 8.33011 537.09 8.41011 539.25 8.36011C540.09 8.34011 540.93 8.21011 541.82 8.13011V2.92011H500.38C500.02 4.79011 499.84 6.47011 500.61 8.42011H511.71C512.35 10.9001 512.27 40.2901 511.68 42.1201C511.48 42.1801 511.26 42.3001 511.03 42.3001C501.83 42.3101 492.63 42.3401 483.43 42.3001C481.58 42.3001 481.03 41.6701 480.83 39.8501C480.76 39.2201 480.78 38.5701 480.78 37.9301C480.78 29.6901 480.78 21.4501 480.78 13.2101C480.78 12.4901 480.78 11.7701 480.88 11.0601C481.12 9.27011 481.67 8.70011 483.52 8.61011C485.36 8.52011 487.2 8.58011 489.04 8.55011C490.21 8.53011 491.38 8.46011 492.59 8.41011C492.85 6.45011 493.04 4.74011 492.49 3.08011C489.75 2.65011 450.13 2.62011 448.79 3.04011V8.10011C449.75 8.15011 450.53 8.23011 451.31 8.23011C453.23 8.25011 455.15 8.19011 457.07 8.26011C459.94 8.37011 460.51 9.00011 460.64 11.8901C460.65 12.2101 460.65 12.5301 460.65 12.8501C460.65 35.5701 460.65 58.2901 460.65 81.0101C460.65 85.1201 460.16 85.6001 456.14 85.6201C453.76 85.6301 451.38 85.6201 448.78 85.6201C448.62 87.7501 448.33 89.4701 448.95 91.1201C452.84 91.6001 488.57 91.4101 490.32 90.8901H490.29ZM143.13 91.3901C153.84 89.8901 162.7 85.0001 169.16 76.2801C175.64 67.5301 178.64 57.5401 178.71 46.6601C178.73 40.6901 177.68 34.8801 176.08 29.1601C173.68 20.5901 169.25 13.3301 162.05 7.96011C154.46 2.31011 145.84 -0.189888 136.42 0.0101118C120.25 0.360112 108.26 7.66011 100.92 22.0601C96.1599 31.3901 94.6699 41.4801 95.6799 51.8801C95.9899 55.0501 96.5799 58.2201 97.3299 61.3201C99.8199 71.7201 105.32 80.0901 114.54 85.7301C123.35 91.1201 132.96 92.8001 143.12 91.3801L143.13 91.3901ZM115.95 29.1901C116.61 22.6001 119.69 16.9901 124.05 12.1601C131.09 4.36011 145.25 5.34011 151.53 14.4701C154.3 18.5001 155.97 22.9701 156.86 27.7101C158.28 35.2601 159.24 42.8701 159.11 50.5801C159.01 56.3601 158.34 62.0701 156.84 67.6501C155.18 73.8101 151.76 79.0501 147.44 83.6101C143.15 88.1301 136 88.8501 130.1 85.7501C125.29 83.2301 122.24 79.0501 119.82 74.3701C117.31 69.5201 116.5 64.2101 116.04 58.8601C115.61 53.7701 115.44 48.6601 115.14 43.2801C115.38 38.7501 115.47 33.9501 115.94 29.1901H115.95ZM61.9099 2.56011C57.9899 1.36011 53.9799 0.590112 49.8799 0.570112C33.8899 0.490112 17.8999 0.490112 1.90993 0.480112C1.37993 0.480112 0.849927 0.650112 0.179927 0.760112V6.97011C1.30993 6.97011 2.16993 6.97011 3.02993 6.97011C5.02993 6.97011 7.02993 6.93011 9.02993 7.02011C11.2399 7.12011 11.8199 7.71011 12.0199 9.92011C12.0999 10.7901 12.0799 11.6801 12.0799 12.5601C12.0799 35.6701 12.0799 58.7701 12.0799 81.8801C12.0799 82.0401 12.0799 82.2001 12.0799 82.3601C12.0599 85.0701 12.0599 85.0801 9.45993 85.1001C8.17993 85.1101 6.89993 85.1001 5.61993 85.1001H0.389927C-0.130073 87.1001 -0.130073 88.7901 0.359927 90.7701C14.6799 90.7701 28.9399 90.7701 43.4099 90.7701C43.4799 88.7201 43.8699 87.0301 43.0599 85.1101C42.1799 85.1101 41.3199 85.1101 40.4599 85.1101C38.0599 85.1101 35.6599 85.1101 33.2599 85.1101C32.5299 85.1101 31.7199 85.1001 31.5499 84.1801C31.2299 82.4601 30.7899 80.7301 30.7699 79.0001C30.6899 71.4901 30.7299 63.9701 30.7399 56.4501C30.7399 55.8101 30.7699 55.1701 30.8199 54.5301C30.9399 52.8801 31.8199 51.8201 33.4299 51.5401C34.7599 51.3101 36.1199 51.2001 37.4699 51.1801C44.7499 51.1101 52.0099 51.0201 59.2099 49.6901C69.9999 47.7001 77.2499 40.3601 78.8899 29.5801C80.7099 17.6401 73.4599 6.10011 61.8999 2.57011L61.9099 2.56011ZM58.1699 32.2401C58.1399 33.8301 57.9199 35.4401 57.5599 36.9801C56.4899 41.5401 53.8199 43.8201 49.1099 44.6101C44.5799 45.3701 40.0299 45.2501 35.4799 44.9701C30.2799 44.6501 30.7699 45.7301 30.7599 40.1101C30.7499 29.8801 30.7599 19.6501 30.7599 9.41011C30.7599 8.48011 30.8399 7.54011 30.8999 6.35011C31.8399 6.35011 32.3999 6.31011 32.9399 6.35011C38.0399 6.80011 43.1399 7.16011 48.2199 7.74011C54.5899 8.46011 58.1199 12.4401 58.1899 18.8001C58.2399 23.2801 58.2499 27.7501 58.1699 32.2301V32.2401ZM794.86 2.22011C791.98 1.70011 766.59 1.83011 764.86 2.37011V7.80011C767.57 8.02011 770.1 8.23011 772.63 8.41011C775.41 8.62011 776.28 9.43011 776.6 12.2101C776.69 13.0001 776.69 13.8101 776.69 14.6101C776.69 17.9701 776.69 21.3301 776.69 24.6901C776.69 35.0901 776.69 45.4901 776.69 55.8901C776.69 57.4801 776.58 59.0301 775.56 60.3601C774.21 60.0801 773.6 59.1101 772.95 58.2201C769.65 53.6901 766.36 49.1601 763.07 44.6301C753.95 32.0701 744.77 19.5601 735.78 6.92011C733.81 4.15011 731.53 2.79011 728.2 2.81011C720.28 2.85011 712.36 2.81011 704.44 2.83011C703.84 2.83011 703.24 3.00011 702.64 3.10011V8.51011C705.27 8.51011 707.78 8.82011 710.17 8.43011C713.24 7.93011 714.18 9.40011 714.27 12.1701C714.28 12.4901 714.28 12.8101 714.28 13.1301C714.28 34.8901 714.28 56.6501 714.28 78.4101C714.28 79.2901 714.23 80.1701 714.16 81.0401C714.01 82.9401 713.08 84.2101 711.12 84.5001C709.46 84.7501 707.8 84.9801 706.13 85.0801C701.91 85.3401 701.22 86.4901 703.05 90.3701C703.08 90.4401 703.16 90.4901 703.21 90.5401C706.11 90.9701 731.58 90.8501 733.44 90.3601C733.49 90.0301 733.59 89.6501 733.6 89.2601C733.67 85.8401 733.04 85.1901 729.63 85.1101C728.27 85.0801 726.91 85.1101 725.55 85.0001C723.26 84.8101 722.21 83.9001 721.85 81.6501C721.65 80.4001 721.66 79.1001 721.66 77.8201C721.65 58.0601 721.66 38.3001 721.66 18.5401V16.2401C721.86 16.1801 722.06 16.1201 722.27 16.0601C722.67 16.5301 723.1 16.9901 723.48 17.4801C726.01 20.8801 728.53 24.2801 731.05 27.6901C742.68 43.4601 754.32 59.2301 765.93 75.0101C768.77 78.8701 771.82 82.6301 774.26 86.7401C775.46 88.7701 776.96 89.7201 778.93 90.3501C781.1 91.0501 782.31 90.3501 782.77 88.0901C783 86.9301 783.02 85.7101 783.02 84.5101C783.03 61.7101 783.02 38.9101 783.04 16.1101C783.04 14.8301 783.04 13.5401 783.25 12.2901C783.66 9.75011 784.81 8.75011 787.4 8.44011C789.46 8.20011 791.52 7.92011 793.59 7.70011C794.35 7.62011 795.12 7.51011 795.16 6.59011C795.23 5.11011 795.55 3.59011 794.88 2.20011L794.86 2.22011ZM364.66 162.41C360.01 160.66 355.2 160.11 350.3 160.1C335.98 160.07 321.67 160.09 307.35 160.1C306.47 160.1 305.58 160.13 304.72 160.28C303.07 160.58 302.51 161.46 302.56 163.44C302.6 165.28 303.16 166.1 304.77 166.31C306.03 166.47 307.32 166.46 308.6 166.47C313.77 166.49 314.6 167.29 314.61 172.44C314.62 183.64 314.61 194.83 314.61 206.03C314.61 206.91 314.61 207.79 314.61 208.67C314.61 219.23 314.61 229.78 314.61 240.34C314.61 243.04 314.59 243.05 311.99 243.07C309.75 243.09 307.51 243.03 305.27 243.11C303.17 243.19 302.64 243.8 302.54 245.92C302.4 248.89 302.88 249.39 305.91 249.44C306.15 249.44 306.39 249.44 306.63 249.44C318.07 249.44 329.5 249.44 340.94 249.44C341.74 249.44 342.55 249.45 343.32 249.29C343.82 249.18 344.62 248.82 344.66 248.48C344.85 247.09 345.07 245.62 344.78 244.28C344.49 242.95 343.03 243.1 341.94 243.08C339.78 243.04 337.62 243.08 335.46 243.06C333.31 243.03 333.16 242.9 333.15 240.72C333.13 236.16 333.15 231.6 333.17 227.04C333.19 222.64 333.23 218.24 333.29 213.84C333.34 209.83 333.84 209.35 337.94 209.29C339.3 209.27 340.66 209.31 342.02 209.28C348.5 209.12 354.97 208.87 361.31 207.31C371.28 204.85 378.67 196.43 379.49 186.77C380.26 177.61 374.78 166.24 364.66 162.42V162.41ZM358.96 192.32C358.96 192.48 358.96 192.64 358.96 192.8C358.97 200.45 355.03 202.89 349.28 203.54C344.77 204.05 340.21 204.19 335.67 204.36C333.05 204.46 332.39 203.78 332.37 201.14C332.32 195.63 332.35 190.12 332.35 184.61C332.39 184.61 332.42 184.61 332.46 184.61C332.46 179.82 332.46 175.03 332.46 170.24C332.46 169.68 332.46 169.12 332.49 168.56C332.64 165.38 333.49 164.71 336.68 164.96C339.46 165.17 342.26 165.18 345.05 165.36C346.96 165.48 348.87 165.67 350.75 165.96C355.28 166.68 357.7 169.57 358.59 173.89C358.83 175.05 358.94 176.27 358.95 177.46C358.99 182.41 358.96 187.36 358.96 192.31V192.32ZM523.91 191.06C523.94 190.76 524.02 190.44 524 190.14C523.3 181.21 522.61 172.28 521.88 163.35C521.7 161.16 521.22 160.77 518.72 160.77C495.61 160.76 472.49 160.76 449.38 160.77C446.58 160.77 446.06 161.36 445.87 164.11C445.42 170.81 444.87 177.5 444.47 184.2C444.32 186.74 444.45 189.29 444.45 191.88C444.89 192.04 445.25 192.22 445.63 192.3C446.25 192.43 446.89 192.55 447.52 192.59C449.17 192.69 449.87 192.24 450.29 190.61C450.6 189.38 450.67 188.09 450.9 186.84C451.56 183.23 452.1 179.59 452.95 176.03C453.57 173.44 455.23 171.39 457.75 170.36C462.85 168.29 468.25 167.76 473.7 167.61C473.77 167.61 473.84 167.68 474.17 167.87C474.21 168.56 474.3 169.41 474.31 170.26C474.51 193.69 474.7 217.13 474.88 240.56C474.9 242.98 474.84 243.05 472.28 243.06C468.44 243.07 464.6 243.06 460.76 243.07C459.92 243.07 459.07 243.18 458.18 243.23C458.02 245.21 457.69 246.92 458.41 248.55C462.77 249.1 508.55 248.86 510.35 248.24V243.2C509.28 243.14 508.42 243.06 507.57 243.06C503.97 243.04 500.37 243.06 496.77 243.06C494.57 243.06 493.47 241.967 493.47 239.78C493.47 216.91 493.47 194.03 493.47 171.16C493.47 170.76 493.45 170.36 493.47 169.96C493.56 168.34 493.71 168.11 495.27 168.09C498.07 168.06 500.88 167.99 503.66 168.2C510.19 168.69 514.42 172.44 515.83 178.85C516.53 182.04 517.18 185.25 517.76 188.46C518.48 192.43 519.47 193 523.28 191.49C523.49 191.41 523.67 191.22 523.9 191.06H523.91ZM290.17 242.97C288.65 242.89 287.13 242.94 285.61 242.88C283.18 242.79 281.69 241.61 280.87 239.24C274.86 221.95 268.78 204.69 262.71 187.42C259.77 179.05 256.83 170.68 253.85 162.33C252.78 159.33 251.39 158.35 248.59 158.32C245.62 158.29 244.28 159.26 243.08 162.33C242.93 162.7 242.81 163.08 242.68 163.46C235.97 182.62 229.27 201.78 222.54 220.93C220.47 226.81 218.35 232.67 216.18 238.52C214.72 242.45 213.86 242.98 209.59 243.07C208.15 243.1 206.71 243.1 205.28 243.23C204.69 243.28 203.88 243.48 203.59 243.9C202.7 245.2 203.59 246.51 203.89 247.79C204.13 248.81 205.03 248.76 205.84 248.76C214 248.76 222.16 248.76 230.31 248.76C230.47 248.76 230.63 248.76 230.79 248.75C231.75 248.74 232.28 248.29 232.28 247.29C232.32 242.89 232.77 242.87 228.52 242.42C227.25 242.29 225.98 242.08 224.72 241.86C224.12 241.75 223.55 241.52 222.78 241.29C223.09 240.19 223.31 239.27 223.61 238.38C224.68 235.2 225.77 232.03 226.86 228.85C227.77 226.19 228.94 225.32 231.83 225.31C239.11 225.29 246.39 225.29 253.66 225.31C256.42 225.31 256.95 225.74 257.83 228.32C259.31 232.63 260.82 236.92 262.3 241.23C262.47 241.72 262.51 242.25 262.68 243.12H253.14C252.91 243.59 252.8 243.72 252.78 243.87C252.29 248.49 252.96 249.24 257.6 249.25C267.92 249.25 278.23 249.25 288.55 249.25C289.11 249.25 289.67 249.28 290.23 249.22C291.97 249.04 292.83 247.91 292.84 245.84C292.85 243.84 292.17 243.07 290.15 242.97H290.17ZM231.2 218.55C231.2 218.27 231.11 217.93 231.21 217.66C235.04 207.25 238.89 196.85 242.76 186.46C242.83 186.28 243.11 186.18 243.32 186.03C243.53 186.2 243.8 186.32 243.87 186.5C247.44 197.14 250.99 207.79 254.54 218.44C252.78 219.04 233.6 219.14 231.2 218.54V218.55ZM552.69 90.4701C552.92 90.5501 553.14 90.7001 553.36 90.7001C562 90.7201 570.63 90.7401 579.27 90.7301C579.71 90.7301 580.27 90.5701 580.56 90.2801C581.82 89.0301 581.1 86.0101 579.39 85.4901C578.41 85.1901 577.34 85.1901 576.32 85.0401C574.62 84.7901 572.85 84.8001 571.21 83.7901C572.65 79.4601 574.05 75.2201 575.48 70.9801C576.27 68.6301 576.82 68.1801 579.31 68.1701C586.91 68.1401 594.5 68.1501 602.1 68.1701C604.67 68.1701 604.7 68.2601 605.51 70.6101C606.95 74.7601 608.4 78.9101 609.84 83.0601C610.02 83.5701 610.11 84.1001 610.31 84.9001C609.37 84.9701 608.61 85.0501 607.84 85.0701C606.16 85.1101 604.48 85.0401 602.8 85.1501C600.59 85.3001 600.05 86.0601 600.4 88.2901C600.46 88.6801 600.56 89.0701 600.63 89.4701C600.77 90.3201 601.3 90.7001 602.13 90.7201C602.77 90.7301 603.41 90.7401 604.05 90.7401C614.69 90.7401 625.32 90.7401 635.96 90.7401C636.92 90.7401 637.88 90.7701 638.84 90.7201C639.3 90.6901 640.09 90.5801 640.14 90.3701C640.43 89.1601 640.76 87.8901 640.65 86.6901C640.54 85.4801 639.34 85.5001 638.36 85.5401C636.68 85.6001 635 85.7601 633.33 85.7001C630.07 85.5801 629.03 84.6601 628.08 81.5101C627.14 78.3701 626.22 75.2201 625.15 72.1301C617.38 49.7901 609.57 27.4601 601.77 5.13011C601.51 4.38011 601.24 3.61011 600.86 2.92011C599.84 1.04011 598.14 0.280112 596.07 0.300112C593.99 0.320112 592.64 1.42011 591.88 3.32011C591.7 3.77011 591.5 4.20011 591.34 4.65011C583.34 27.3401 575.35 50.0201 567.35 72.7101C566.47 75.2001 565.65 77.7101 564.68 80.1601C563.48 83.2001 561.21 84.8601 557.89 85.0001C557.33 85.0201 556.77 85.0801 556.21 85.0801C551.97 85.0801 551.83 85.7201 552.37 89.8301C552.4 90.0501 552.57 90.2501 552.68 90.4801L552.69 90.4701ZM591.38 27.6501C591.95 28.1801 592.21 28.3101 592.27 28.5001C595.82 39.0801 599.36 49.6701 602.95 60.4001C602.54 60.5401 602.12 60.8301 601.7 60.8201C595.32 60.6301 588.93 60.4201 582.55 60.1801C581.87 60.1501 581.2 59.9101 580.15 59.6901C584.05 49.0101 587.27 38.3701 591.37 27.6501H591.38ZM608.76 243.84C607.09 243.74 605.4 243.76 603.73 243.88C601.99 244.01 600.79 243.29 599.98 241.84C599.63 241.22 599.38 240.53 599.15 239.86C593.6 224.1 588.07 208.34 582.53 192.59C579.16 183.01 575.81 173.43 572.42 163.87C571.41 161.03 569.82 159.89 567.11 159.87C564.36 159.85 562.82 160.96 561.73 163.76C561.56 164.21 561.38 164.65 561.22 165.11C555.85 180.25 550.49 195.39 545.11 210.53C541.71 220.09 538.31 229.66 534.83 239.19C533.34 243.28 532.41 243.83 528.1 243.9C526.74 243.92 525.38 243.94 524.02 244.02C523.1 244.07 522.29 244.41 521.95 245.38C521.21 247.48 522.67 249.61 524.88 249.62C532.8 249.63 540.72 249.63 548.63 249.62C549.32 249.62 550 249.49 550.89 249.41C550.89 248.08 550.91 246.97 550.89 245.86C550.85 243.99 550.73 243.83 548.93 243.49C548.15 243.34 547.34 243.31 546.55 243.19C544.92 242.92 543.29 242.63 541.71 242.35C541.64 241.87 541.51 241.61 541.58 241.41C543.09 236.86 544.54 232.29 546.19 227.8C546.77 226.23 548.16 225.33 549.98 225.34C557.5 225.35 565.02 225.32 572.53 225.37C574.76 225.39 575.46 226.04 576.18 228.13C577.69 232.51 579.23 236.88 580.73 241.27C580.9 241.75 580.92 242.29 581.08 243.15H571.2V248.66C573.27 248.86 574.71 250.24 576.79 250.21C586.63 250.08 596.46 250.15 606.3 250.15C607.18 250.15 608.07 250.15 608.93 250.04C610.79 249.8 611.41 248.95 611.38 246.88C611.35 244.84 610.71 244.02 608.76 243.9V243.84ZM568.23 218.8C566.24 218.89 564.23 218.82 562.24 218.82C560.25 218.82 558.4 218.87 556.49 218.81C554.54 218.74 552.55 219.1 550.61 218.55C551.19 215.46 560.66 188.56 561.89 186.67C565.96 197.39 569.93 207.88 573.97 218.52C572.18 219.21 570.18 218.72 568.24 218.81L568.23 218.8ZM437.66 59.7201C435.48 58.7001 432.98 59.9601 432.5 62.3501C432.34 63.1301 432.31 63.9401 432.21 64.7301C431.28 72.3101 427.69 78.3201 421.4 82.6201C413.88 87.7601 405.78 87.7901 397.54 84.8001C390.31 82.1801 385.11 77.3401 382.73 69.8601C382 67.5801 381.41 65.2401 380.97 62.8901C378.93 51.9501 378.83 40.9801 380.34 29.9401C381.31 22.8501 384.2 16.9601 390.01 12.6801C405.6 1.19011 423.09 8.86011 428.56 23.3701C429.62 26.1801 430.13 29.2201 430.68 32.1901C431.17 34.8601 432.34 36.0101 435.03 35.8001C437.62 35.6001 437.97 34.2201 437.93 32.0101C437.86 27.6101 437.91 23.2101 437.91 18.8101C437.91 14.4901 437.91 10.1701 437.91 5.85011C437.91 5.13011 437.92 4.40011 437.79 3.70011C437.3 1.22011 436.06 0.510112 433.89 1.82011C431.93 3.00011 430.19 4.57011 428.41 6.04011C426.75 7.41011 425.46 7.58011 423.62 6.48011C423.14 6.19011 422.68 5.88011 422.2 5.58011C416.04 1.80011 409.35 -0.0998882 402.12 0.150112C395.71 0.370112 389.7 2.20011 383.91 4.90011C371.9 10.5001 363.9 19.5601 360.4 32.3901C357.89 41.6201 358.07 50.8901 360.45 60.1301C362.11 66.5801 364.86 72.4801 369.41 77.4101C379.79 88.6301 392.68 93.9301 407.89 92.6501C420.59 91.5801 430.15 85.2301 435.99 73.7201C437.79 70.1801 438.59 66.3501 438.73 62.3801C438.76 61.3401 438.81 60.2501 437.63 59.7001L437.66 59.7201ZM189.29 158.72C188.68 156.52 187.19 156.02 185.27 157.28C184.94 157.5 184.63 157.76 184.33 158.02C182.47 159.65 180.56 161.24 178.77 162.96C177.87 163.82 177.08 164 176.03 163.36C175.35 162.95 174.59 162.66 173.88 162.3C168.23 159.46 162.19 158.03 155.93 157.44C150.37 156.92 144.89 157.51 139.56 159.1C128.19 162.47 119.23 169 113.38 179.48C110.9 183.93 109.5 188.74 108.48 193.71C106.64 202.66 106.72 211.52 109.57 220.25C112.81 230.13 118.35 238.33 127.26 244C133.87 248.21 141.14 250.48 148.92 251.12C153.64 251.51 158.44 251.65 162.98 250.25C174.21 246.8 182.21 239.63 186.22 228.47C187.23 225.66 187.41 222.55 187.87 219.56C188.03 218.51 187.72 217.44 186.68 216.86C184.77 215.79 181.99 217.12 181.6 219.27C181.49 219.9 181.49 220.55 181.42 221.18C179.72 236.2 167.76 245.49 154.33 244.95C142.24 244.46 132.79 237.26 129.49 225.62C127.93 220.13 127.3 214.48 127.06 208.8C126.78 201.91 127.39 195.06 128.14 188.21C128.87 181.53 131.55 175.77 136 170.81C138.89 167.58 142.45 165.37 146.56 163.99C150.97 162.51 155.53 162.39 160.08 162.51C166.01 162.67 170.66 165.47 174.07 170.2C177.37 174.78 179.74 179.83 180.81 185.44C181.08 186.85 181.3 188.3 181.81 189.63C182.78 192.18 184.39 192.36 187.39 192.06C189.11 191.89 189.56 191.05 189.58 188.45C189.6 183.89 189.58 179.33 189.58 174.77C189.58 170.37 189.6 165.97 189.57 161.57C189.57 160.62 189.54 159.63 189.29 158.72ZM323.55 87.2301C323.71 85.2201 323.24 84.6501 321.17 84.5301C319.25 84.4201 317.33 84.5001 315.41 84.4101C312.8 84.2901 312.21 83.6701 312.06 81.0701C312.02 80.3501 312.04 79.6301 312.04 78.9101C312.04 72.8301 312.19 66.7501 311.98 60.6701C311.84 56.6501 312.94 53.1901 314.96 49.7801C321.31 39.0401 327.69 28.3201 333.21 17.1101C334.12 15.2701 335.34 13.5301 336.66 11.9401C338.97 9.16011 342.02 7.71011 345.69 7.68011C346.33 7.68011 346.97 7.69011 347.61 7.66011C348.55 7.61011 349.11 7.09011 349.15 6.16011C349.2 4.90011 349.16 3.64011 349.16 2.46011C346.79 1.87011 323.15 1.90011 321.13 2.46011V7.71011C323.97 8.25011 326.67 8.77011 329.33 9.27011C329.33 9.75011 329.39 9.93011 329.33 10.0501C322.95 21.4201 316.56 32.7801 310.17 44.1401C309.9 44.6201 309.56 45.0701 309.25 45.5201C309.21 45.5801 309.12 45.6201 309.05 45.6401C308.98 45.6601 308.89 45.6401 308.8 45.6401C308.68 45.5801 308.48 45.5501 308.41 45.4401C301.26 33.9701 294.13 22.5001 286.99 11.0201C286.82 10.7501 286.7 10.4601 286.56 10.1701C286.53 10.1001 286.55 10.0101 286.56 9.93011C286.57 9.86011 286.61 9.79011 286.69 9.56011C287.12 9.46011 287.64 9.27011 288.18 9.22011C289.93 9.05011 291.68 8.91011 293.44 8.79011C295.63 8.65011 295.67 8.61011 295.63 5.59011C295.6 3.17011 295.53 3.10011 293.26 3.05011C292.78 3.04011 292.3 3.05011 291.82 3.05011C281.18 3.05011 270.54 3.05011 259.9 3.05011C256.62 3.05011 255.15 4.69344 255.49 7.98011C255.5 8.12011 255.65 8.24011 255.86 8.55011C256.6 8.55011 257.46 8.50011 258.31 8.55011C260.37 8.70011 262.46 8.76011 264.49 9.11011C266.55 9.45011 268.1 10.6601 269.18 12.5201C277.09 26.2401 285.02 39.9501 292.97 53.6401C293.84 55.1501 294.2 56.7101 294.19 58.4401C294.15 64.6001 294.18 70.7601 294.18 76.9201C294.18 78.2801 294.2 79.6401 294.18 81.0001C294.12 83.3901 293.43 84.2001 291.08 84.3501C289.09 84.4801 287.08 84.3901 285.08 84.4201C284.23 84.4301 283.37 84.5001 282.48 84.5501C282.06 86.4801 281.96 88.1701 282.48 89.8201C285.11 90.3001 321.24 90.2001 323.22 89.6901C323.33 88.9001 323.5 88.0501 323.57 87.1901L323.55 87.2301ZM258.03 56.2301C257.09 56.0301 256.4 55.8201 255.7 55.7601C253.45 55.5901 252.62 56.4901 252.87 58.7301C252.94 59.3601 253.16 60.0501 252.99 60.6101C251.82 64.5101 250.76 68.4601 249.28 72.2401C247.63 76.4401 244.75 79.7701 240.69 81.9101C235.65 84.5701 230.19 85.1401 224.61 84.8801C222.86 84.8001 222.1 83.8801 221.9 82.1001C221.85 81.6201 221.85 81.1401 221.85 80.6601C221.85 57.3801 221.85 34.1001 221.85 10.8301C221.85 10.1401 221.97 9.46011 222.05 8.55011C224.71 8.55011 227.18 8.59011 229.64 8.54011C232.08 8.49011 234.54 8.78011 237.01 8.32011V3.19011C234.56 2.61011 193.25 2.69011 191.36 3.27011V8.48011C195.05 8.52011 198.59 8.55011 202.3 8.59011C202.36 9.65011 202.44 10.4201 202.44 11.2001C202.44 34.3201 202.44 57.4401 202.44 80.5501C202.44 84.6801 202.06 85.0501 197.9 85.0801C195.9 85.1001 193.9 85.0901 191.9 85.0901C190.93 85.0901 190.39 85.5301 190.4 86.5301C190.42 87.8501 190.47 89.1701 190.51 90.6101H254.23C255.51 79.0101 256.76 67.6801 258.03 56.2101V56.2301ZM686.41 213.52C684.07 213.07 683.22 213.56 682.55 215.91C682.01 217.83 681.65 219.8 681.14 221.73C680.43 224.43 679.89 227.21 678.88 229.79C674.7 240.48 662.21 246.08 651.27 242.05C651.27 241.14 651.27 240.12 651.27 239.1C651.27 216.07 651.27 193.04 651.27 170.01C651.27 169.45 651.3 168.89 651.27 168.33C651.22 167.09 651.85 166.62 653.03 166.63C654.79 166.66 656.55 166.65 658.31 166.63C660.31 166.6 662.31 166.63 664.3 166.46C666.04 166.32 666.52 165.64 666.36 163.92C666.31 163.37 666.15 162.82 666.06 162.27C665.92 161.44 665.45 161 664.61 160.96C664.05 160.94 663.49 160.93 662.93 160.93C649.97 160.93 637.02 160.93 624.06 160.93C621.28 160.93 621.11 161.08 620.6 163.73C620.21 165.77 620.6 166.38 622.71 166.48C624.78 166.58 626.87 166.57 628.93 166.46C631.27 166.33 632.12 166.95 632.36 169.34C632.42 169.9 632.43 170.46 632.43 171.02C632.43 194.21 632.43 217.4 632.43 240.59C632.43 242.96 632.34 243.03 630.02 243.05C627.7 243.07 625.38 243.02 623.06 243.07C621.36 243.1 621.19 243.29 620.91 244.97C620.83 245.44 620.77 245.92 620.77 246.4C620.77 247.9 621.18 248.43 622.68 248.63C623.71 248.76 624.75 248.75 625.79 248.75C643.62 248.75 661.46 248.75 679.29 248.75C680.17 248.75 681.06 248.73 681.92 248.58C684.28 248.19 684.71 247.78 685 245.38C686.19 235.62 687.34 225.85 688.48 216.09C688.55 215.47 688.48 214.84 688.48 214.06C687.74 213.86 687.07 213.64 686.38 213.51L686.41 213.52ZM431.52 160.77C418.57 160.76 405.61 160.77 392.66 160.77C391.97 160.77 391.29 160.91 390.54 160.99V166.09C390.91 166.24 391.13 166.39 391.35 166.4C393.19 166.44 395.03 166.46 396.86 166.47C402.23 166.48 402.45 166.69 402.45 171.95C402.45 192.58 402.45 213.21 402.45 233.84C402.45 236 402.48 238.16 402.44 240.32C402.4 242.52 401.96 242.99 399.75 243.05C397.43 243.11 395.11 243.05 392.79 243.08C392.04 243.09 391.28 243.23 390.57 243.3V248.6H433.78V243.21C432.77 243.15 431.99 243.08 431.21 243.07C428.81 243.05 426.41 243.08 424.01 243.07C421.39 243.05 421.14 242.81 421.13 240.16C421.13 216.81 421.13 193.46 421.13 170.11C421.13 167.39 421.93 166.58 424.71 166.49C426.95 166.42 429.19 166.49 431.43 166.46C432.2 166.45 432.96 166.33 433.98 166.24C433.98 165.07 433.99 164.13 433.98 163.19C433.94 160.89 433.86 160.78 431.5 160.78L431.52 160.77ZM690.61 2.57011C688.78 2.69011 686.94 2.81011 685.11 2.81011C674.48 2.83011 663.85 2.81011 653.21 2.83011C652.28 2.83011 651.35 2.91011 650.33 2.95011V8.35011C650.89 8.43011 651.28 8.54011 651.66 8.53011C654.21 8.46011 656.77 8.43011 659.32 8.27011C661.58 8.13011 662.4 8.70011 662.69 10.9501C662.8 11.8201 662.81 12.7001 662.81 13.5801C662.81 34.7601 662.81 55.9501 662.81 77.1301C662.81 78.5701 662.78 80.0101 662.64 81.4401C662.41 83.8101 661.55 84.6701 659.13 84.8501C657.38 84.9801 655.62 84.9401 653.86 84.9701C649.5 85.0501 649.02 85.6401 649.84 89.9701C649.87 90.1101 650.02 90.2201 650.23 90.5101H693.17C693.27 90.0701 693.39 89.7701 693.4 89.4601C693.42 88.8201 693.43 88.1801 693.36 87.5401C693.18 85.8101 692.53 85.1101 690.77 85.0301C688.86 84.9401 686.93 84.9001 685.02 85.0601C681.36 85.3701 680.66 84.8101 680.56 81.1001C680.56 80.9401 680.56 80.7801 680.56 80.6201C680.56 57.3601 680.56 34.1001 680.56 10.8301C680.56 10.1401 680.66 9.45011 680.74 8.46011H693.47C693.47 7.12011 693.52 6.09011 693.47 5.07011C693.35 2.92011 692.73 2.41011 690.63 2.55011L690.61 2.57011Z" fill="black"/>
</g>
<defs>
<clipPath id="clip0_2947_3480">
<rect width="795.27" height="251.38" fill="white"/>
</clipPath>
</defs>
</svg>
