<?xml version="1.0" encoding="utf-8"?>
<!-- Generator: Adobe Illustrator 26.4.1, SVG Export Plug-In . SVG Version: 6.00 Build 0)  -->
<svg version="1.1" id="Layer_1" xmlns="http://www.w3.org/2000/svg" xmlns:xlink="http://www.w3.org/1999/xlink" x="0px" y="0px"
	 viewBox="0 0 96 96" style="enable-background:new 0 0 96 96;" xml:space="preserve">
<style type="text/css">
	.st0{fill-rule:evenodd;clip-rule:evenodd;fill:#202723;}
	.st1{fill-rule:evenodd;clip-rule:evenodd;fill:url(#SVGID_1_);}
	.st2{fill:url(#SVGID_00000139284951040303074020000009220234058858279068_);}
	.st3{fill:#EBAE76;}
	.st4{fill:url(#SVGID_00000029736251652527908630000014489969498615865265_);}
	.st5{fill-rule:evenodd;clip-rule:evenodd;fill:url(#SVGID_00000134209156648561147580000017087272440535656597_);}
	.st6{fill:url(#SVGID_00000090982407200890510810000008652513478293229207_);}
	.st7{fill:url(#SVGID_00000065059106336578379780000010953397567961319045_);}
	.st8{fill:url(#SVGID_00000182528708411304589480000016296022505634212253_);}
</style>
<g>
	
		<linearGradient id="SVGID_1_" gradientUnits="userSpaceOnUse" x1="22.3525" y1="267.7993" x2="48.5511" y2="272.5731" gradientTransform="matrix(1 0 0 -1 0 330)">
		<stop  offset="0" style="stop-color:#93B4F3"/>
		<stop  offset="1" style="stop-color:#5C8CE1"/>
	</linearGradient>
	<path class="st1" d="M25.8,57.4c-0.6,0.5-0.6,1.3,0,1.8l17.9,14.3c0.7,0.6,1.8,0.1,1.8-0.9V66v-9V43.7c0-0.9-1.1-1.5-1.8-0.9
		L25.8,57.4z"/>
	
		<linearGradient id="SVGID_00000045578099979959992920000011264046297691181699_" gradientUnits="userSpaceOnUse" x1="23.3166" y1="291.7076" x2="44.3278" y2="285.3626" gradientTransform="matrix(1 0 0 -1 0 330)">
		<stop  offset="0" style="stop-color:#74BA94"/>
		<stop  offset="1" style="stop-color:#97C8AD"/>
	</linearGradient>
	<path style="fill:url(#SVGID_00000045578099979959992920000011264046297691181699_);" d="M27.8,51.8l-2.7-2.1
		c-0.6-0.4-0.6-1.3,0-1.7l18.6-15.1c0.7-0.6,1.8-0.1,1.8,0.9v4.3c0,0.3-0.2,0.7-0.4,0.9l-15.9,13C28.8,52.1,28.2,52.1,27.8,51.8z"/>
	<path class="st3" d="M24.1,39.9l2.9,2.3c0.4,0.3,1,0.3,1.4,0l16.6-13.5c0.3-0.2,0.4-0.5,0.4-0.9v-4.5c0-0.9-1.1-1.5-1.8-0.9
		L24.1,38.1C23.6,38.6,23.6,39.4,24.1,39.9z"/>
	
		<linearGradient id="SVGID_00000031909817986607099760000017766711554485614775_" gradientUnits="userSpaceOnUse" x1="44.8246" y1="282.4828" x2="76.8975" y2="278.6855" gradientTransform="matrix(1 0 0 -1 0 330)">
		<stop  offset="0" style="stop-color:#8F97EF"/>
		<stop  offset="1" style="stop-color:#6166DA"/>
	</linearGradient>
	<path style="fill:url(#SVGID_00000031909817986607099760000017766711554485614775_);" d="M49.7,73.1L74,48.8c0.4-0.4,0.4-1.2,0-1.6
		L49.7,22.9c-0.7-0.7-1.9-0.2-1.9,0.8v48.5C47.8,73.3,49,73.8,49.7,73.1z"/>
</g>
</svg>
