<svg width="100" height="100" viewBox="0 0 100 100" fill="none" xmlns="http://www.w3.org/2000/svg">
<path d="M54.1628 16.8968C72.9128 18.9695 87.4961 34.8657 87.4961 54.168V91.668H12.4961V54.168C12.4961 34.8657 27.0796 18.9695 45.8294 16.8968V4.16797H54.1628V16.8968ZM49.9961 75.0013C61.5019 75.0013 70.8294 65.6738 70.8294 54.168C70.8294 42.6621 61.5019 33.3346 49.9961 33.3346C38.4902 33.3346 29.1628 42.6621 29.1628 54.168C29.1628 65.6738 38.4902 75.0013 49.9961 75.0013ZM49.9961 66.668C43.0923 66.668 37.4961 61.0717 37.4961 54.168C37.4961 47.2642 43.0923 41.668 49.9961 41.668C56.8998 41.668 62.4961 47.2642 62.4961 54.168C62.4961 61.0717 56.8998 66.668 49.9961 66.668ZM49.9961 58.3346C52.2973 58.3346 54.1628 56.4692 54.1628 54.168C54.1628 51.8667 52.2973 50.0013 49.9961 50.0013C47.6948 50.0013 45.8294 51.8667 45.8294 54.168C45.8294 56.4692 47.6948 58.3346 49.9961 58.3346Z" fill="white"/>
</svg>
