<svg width="967" height="728" viewBox="0 0 967 728" fill="none" xmlns="http://www.w3.org/2000/svg">
<path d="M758.465 274.191H807.408C811.767 274.191 815.302 270.657 815.302 266.297V235.51C815.302 231.151 818.837 227.616 823.196 227.616H892.664C897.023 227.616 900.558 224.081 900.558 219.722V186.566" stroke="#3B345E" stroke-width="1.57882" stroke-linecap="round" stroke-linejoin="round" stroke-dasharray="4.74 4.74"/>
<path d="M475.065 254.455V216.564C475.065 212.205 471.531 208.67 467.171 208.67H406.386C402.027 208.67 398.492 205.135 398.492 200.776V169.199" stroke="#3B345E" stroke-width="1.57882" stroke-linecap="round" stroke-linejoin="round" stroke-dasharray="4.74 4.74"/>
<path d="M756.887 464.439H816.882C821.241 464.439 824.776 460.904 824.776 456.545V349.185C824.776 344.826 828.311 341.291 832.67 341.291H881.613" stroke="#3B345E" stroke-width="1.57882" stroke-linecap="round" stroke-linejoin="round" stroke-dasharray="4.74 4.74"/>
<path d="M905.298 530.75H856.354C851.995 530.75 848.46 534.285 848.46 538.644V608.112C848.46 612.471 844.925 616.006 840.566 616.006H796.359" stroke="#3B345E" stroke-width="1.57882" stroke-linecap="round" stroke-linejoin="round" stroke-dasharray="4.74 4.74"/>
<path d="M777.407 597.061V568.642C777.407 564.283 773.872 560.748 769.513 560.748H747.41C743.051 560.748 739.516 557.213 739.516 552.854V511.805" stroke="#3B345E" stroke-width="1.57882" stroke-linecap="round" stroke-linejoin="round" stroke-dasharray="4.74 4.74"/>
<path d="M711.102 402.866V364.974C711.102 362.358 713.222 360.237 715.838 360.237C718.454 360.237 720.574 358.117 720.574 355.501V317.609" stroke="#3B345E" stroke-width="1.57882" stroke-linecap="round" stroke-linejoin="round" stroke-dasharray="4.74 4.74"/>
<path d="M928.977 502.33V443.914C928.977 439.555 925.444 436.02 921.083 436.02H908.453C904.094 436.02 900.559 432.485 900.559 428.126V364.184" stroke="#3B345E" stroke-width="1.57882" stroke-linecap="round" stroke-linejoin="round" stroke-dasharray="4.74 4.74"/>
<path d="M564.27 304.978H623.013C627.372 304.978 630.907 301.443 630.907 297.084V282.875C630.907 278.515 634.44 274.98 638.801 274.98H677.944" stroke="#3B345E" stroke-width="1.57882" stroke-linecap="round" stroke-linejoin="round" stroke-dasharray="4.74 4.74"/>
<path d="M385.863 341.29H326.195C321.834 341.29 318.301 337.755 318.301 333.396V301.82C318.301 297.461 314.766 293.926 310.407 293.926H270.609" stroke="#3B345E" stroke-width="1.57882" stroke-linecap="round" stroke-linejoin="round" stroke-dasharray="4.74 4.74"/>
<path d="M580.058 625.478H539.009C534.65 625.478 531.115 621.943 531.115 617.584V586.007C531.115 581.648 527.58 578.113 523.221 578.113H482.961" stroke="#3B345E" stroke-width="1.57882" stroke-linecap="round" stroke-linejoin="round" stroke-dasharray="4.74 4.74"/>
<path d="M621.109 628.637H674.789C679.148 628.637 682.683 625.102 682.683 620.743V512.594" stroke="#3B345E" stroke-width="1.57882" stroke-linecap="round" stroke-linejoin="round" stroke-dasharray="4.74 4.74"/>
<path d="M673.209 465.228H624.266C619.907 465.228 616.372 461.693 616.372 457.334V416.285C616.372 411.926 612.837 408.391 608.478 408.391H570.586" stroke="#3B345E" stroke-width="1.57882" stroke-linecap="round" stroke-linejoin="round" stroke-dasharray="4.74 4.74"/>
<path d="M445.859 537.854V510.225C445.859 505.866 449.394 502.331 453.753 502.331H466.384C470.743 502.331 474.278 498.796 474.278 494.437V469.176" stroke="#3B345E" stroke-width="1.57882" stroke-linecap="round" stroke-linejoin="round" stroke-dasharray="4.74 4.74"/>
<path d="M213.773 132.887H276.326C280.685 132.887 284.22 129.353 284.22 124.993V121.835C284.22 117.476 287.754 113.941 292.114 113.941H365.34" stroke="#3B345E" stroke-width="1.57882" stroke-linecap="round" stroke-linejoin="round" stroke-dasharray="4.74 4.74"/>
<path d="M57.4688 151.833H98.0066C102.366 151.833 105.901 148.298 105.901 143.938V140.781C105.901 136.421 109.435 132.887 113.795 132.887H161.671" stroke="#3B345E" stroke-width="1.57882" stroke-linecap="round" stroke-linejoin="round" stroke-dasharray="4.74 4.74"/>
<path d="M29.0508 263.929V223.391C29.0508 219.032 32.5851 215.497 36.9449 215.497H40.1025C44.4623 215.497 47.9966 211.962 47.9966 207.603V159.727" stroke="#3B345E" stroke-width="1.57882" stroke-linecap="round" stroke-linejoin="round" stroke-dasharray="4.74 4.74"/>
<path d="M562.69 161.306H520.062C515.703 161.306 512.168 157.772 512.168 153.412V121.835C512.168 117.476 508.633 113.941 504.274 113.941H450.594" stroke="#3B345E" stroke-width="1.57882" stroke-linecap="round" stroke-linejoin="round" stroke-dasharray="4.74 4.74"/>
<path d="M621.109 143.939H665.316C669.675 143.939 673.21 140.404 673.21 136.045V131.308C673.21 126.948 676.745 123.414 681.104 123.414H733.205" stroke="#3B345E" stroke-width="1.57882" stroke-linecap="round" stroke-linejoin="round" stroke-dasharray="4.74 4.74"/>
<path d="M867.401 151.833H823.194C818.835 151.833 815.3 148.298 815.3 143.939V131.308C815.3 126.948 811.765 123.414 807.406 123.414H755.305" stroke="#3B345E" stroke-width="1.57882" stroke-linecap="round" stroke-linejoin="round" stroke-dasharray="4.74 4.74"/>
<path d="M720.573 235.511V188.146C720.573 183.786 717.038 180.252 712.679 180.252H617.16" stroke="#3B345E" stroke-width="1.57882" stroke-linecap="round" stroke-linejoin="round" stroke-dasharray="4.74 4.74"/>
<path d="M237.454 265.508V221.301C237.454 216.942 233.919 213.407 229.56 213.407H197.984C193.625 213.407 190.09 209.872 190.09 205.513V153.412" stroke="#3B345E" stroke-width="1.57882" stroke-linecap="round" stroke-linejoin="round" stroke-dasharray="4.74 4.74"/>
<path d="M122.203 436.02H158.338C162.698 436.02 166.232 432.485 166.232 428.126V424.968C166.232 420.609 169.767 417.074 174.126 417.074H216.932" stroke="#3B345E" stroke-width="1.57882" stroke-linecap="round" stroke-linejoin="round" stroke-dasharray="4.74 4.74"/>
<path d="M47.9961 551.274V515.14C47.9961 510.779 51.5304 507.246 55.8902 507.246H87.4665C91.8263 507.246 95.3606 503.711 95.3606 499.351V456.545" stroke="#3B345E" stroke-width="1.57882" stroke-linecap="round" stroke-linejoin="round" stroke-dasharray="4.74 4.74"/>
<path d="M95.3609 409.18V373.046C95.3609 368.685 91.8265 365.152 87.4668 365.152H46.4175C42.0578 365.152 38.5234 361.617 38.5234 357.258V314.451" stroke="#3B345E" stroke-width="1.57882" stroke-linecap="round" stroke-linejoin="round" stroke-dasharray="4.74 4.74"/>
<path d="M237.457 521.276V473.911C237.457 471.295 235.337 469.175 232.721 469.175C230.105 469.175 227.984 467.054 227.984 464.438V436.02" stroke="#3B345E" stroke-width="1.57882" stroke-linecap="round" stroke-linejoin="round" stroke-dasharray="4.74 4.74"/>
<path d="M70.1016 578.114H117.466C120.082 578.114 122.203 575.993 122.203 573.377C122.203 570.761 124.323 568.641 126.939 568.641H182.198" stroke="#3B345E" stroke-width="1.57882" stroke-linecap="round" stroke-linejoin="round" stroke-dasharray="4.74 4.74"/>
<path d="M270.609 568.641H314.816C319.175 568.641 322.71 565.106 322.71 560.747V406.023C322.71 401.664 326.245 398.129 330.604 398.129H382.705" stroke="#3B345E" stroke-width="1.57882" stroke-linecap="round" stroke-linejoin="round" stroke-dasharray="4.74 4.74"/>
<g filter="url(#filter0_d_3007_13089)">
<rect x="360.805" y="246.898" width="226.628" height="226.628" rx="19.565" fill="#14101E" shape-rendering="crispEdges"/>
<g clip-path="url(#clip0_3007_13089)">
<path d="M549.66 397.795C549.667 390.244 546.24 382.999 540.132 377.651C534.023 372.303 525.733 369.288 517.08 369.269L480.956 369.269C480.729 366.331 480.586 363.327 480.586 360.213C480.586 357.099 480.443 354.11 480.241 351.157L517.08 351.157C525.658 351.037 533.838 347.98 539.855 342.644C545.873 337.308 549.245 330.122 549.245 322.635C549.245 315.149 545.873 307.963 539.855 302.627C533.838 297.291 525.658 294.233 517.08 294.113L430.743 294.113C422.165 294.233 413.985 297.291 407.967 302.627C401.95 307.963 398.577 315.149 398.577 322.635C398.577 330.122 401.95 337.308 407.967 342.644C413.985 347.979 422.165 351.037 430.743 351.157L464.675 351.951C467.035 351.951 467.237 357.099 467.237 360.213C467.237 363.327 467.38 366.316 467.582 369.269L430.743 369.269C422.165 369.389 413.985 372.447 407.967 377.783C401.95 383.118 398.577 390.305 398.577 397.791C398.577 405.277 401.95 412.463 407.967 417.799C413.985 423.135 422.165 426.193 430.743 426.313L517.08 426.313C525.731 426.294 534.021 423.28 540.129 417.933C546.237 412.587 549.665 405.344 549.66 397.795ZM536.312 322.632C536.314 327.088 534.29 331.363 530.685 334.519C527.079 337.675 522.186 339.453 517.08 339.465L478.827 339.465C477.441 331.12 474.801 322.971 470.974 315.229C469.287 311.874 467.127 308.716 464.544 305.828L517.08 305.828C522.181 305.839 527.068 307.614 530.673 310.764C534.277 313.913 536.305 318.181 536.312 322.632ZM430.743 339.465C425.627 339.465 420.72 337.692 417.102 334.535C413.485 331.378 411.452 327.096 411.452 322.632C411.452 318.167 413.485 313.886 417.102 310.729C420.72 307.572 425.627 305.798 430.743 305.798L439.403 305.798C447.054 305.798 454.301 311.086 458.812 319.951C461.9 326.197 464.097 332.751 465.352 339.465L430.743 339.465ZM411.511 397.795C411.509 393.338 413.532 389.063 417.138 385.908C420.743 382.752 425.636 380.973 430.743 380.961L468.996 380.961C470.382 389.306 473.022 397.455 476.849 405.198C478.536 408.552 480.696 411.71 483.279 414.599L430.743 414.599C425.642 414.587 420.754 412.812 417.15 409.663C413.545 406.513 411.518 402.246 411.511 397.795ZM489.061 400.475C485.973 394.229 483.777 387.675 482.521 380.961L517.08 380.961C522.196 380.961 527.103 382.735 530.72 385.892C534.338 389.048 536.37 393.33 536.37 397.795C536.37 402.259 534.338 406.541 530.72 409.698C527.103 412.854 522.196 414.628 517.08 414.628L508.419 414.628C500.802 414.628 493.555 409.34 489.061 400.475Z" fill="white"/>
<path opacity="0.8" d="M549.66 322.631C549.667 330.182 546.24 337.427 540.131 342.775C534.023 348.123 525.732 351.138 517.079 351.157L480.955 351.157C480.727 354.095 480.584 357.099 480.584 360.213C480.584 363.327 480.441 366.316 480.239 369.268L517.079 369.268C525.657 369.388 533.837 372.446 539.855 377.782C545.872 383.118 549.245 390.304 549.245 397.79C549.245 405.277 545.872 412.463 539.855 417.799C533.837 423.135 525.657 426.192 517.079 426.312L430.741 426.312C422.163 426.192 413.982 423.135 407.965 417.799C401.947 412.463 398.575 405.277 398.575 397.79C398.575 390.304 401.947 383.118 407.965 377.782C413.982 372.446 422.163 369.388 430.741 369.268L464.673 368.475C467.034 368.475 467.235 363.327 467.235 360.213C467.235 357.099 467.379 354.109 467.581 351.157L430.741 351.157C422.163 351.037 413.982 347.979 407.965 342.643C401.947 337.307 398.575 330.121 398.575 322.635C398.575 315.149 401.947 307.963 407.965 302.627C413.982 297.291 422.163 294.233 430.741 294.113L517.079 294.113C525.731 294.132 534.02 297.146 540.128 302.492C546.237 307.839 549.665 315.082 549.66 322.631ZM536.311 397.794C536.314 393.338 534.29 389.063 530.684 385.907C527.079 382.751 522.186 380.972 517.079 380.961L478.825 380.961C477.44 389.306 474.799 397.455 470.972 405.197C469.285 408.552 467.125 411.71 464.542 414.598L517.079 414.598C522.18 414.586 527.068 412.812 530.672 409.662C534.277 406.513 536.305 402.245 536.311 397.794ZM430.741 380.961C425.624 380.961 420.718 382.734 417.1 385.891C413.482 389.048 411.45 393.33 411.45 397.794C411.45 402.259 413.482 406.54 417.1 409.697C420.718 412.854 425.624 414.628 430.741 414.628L439.401 414.628C447.052 414.628 454.299 409.34 458.81 400.475C461.899 394.229 464.095 387.675 465.35 380.961L430.741 380.961ZM411.509 322.631C411.506 327.087 413.53 331.362 417.135 334.518C420.741 337.674 425.634 339.453 430.741 339.465L468.995 339.465C470.38 331.12 473.021 322.971 476.847 315.228C478.535 311.873 480.695 308.715 483.278 305.827L430.741 305.827C425.64 305.839 420.752 307.614 417.147 310.763C413.543 313.913 411.515 318.18 411.509 322.631ZM489.06 319.951C485.972 326.197 483.775 332.751 482.52 339.465L517.079 339.465C522.195 339.465 527.102 337.691 530.72 334.534C534.338 331.377 536.37 327.096 536.37 322.631C536.37 318.167 534.338 313.885 530.72 310.728C527.102 307.571 522.195 305.798 517.079 305.798L508.418 305.798C500.801 305.798 493.554 311.086 489.06 319.951Z" fill="white"/>
</g>
</g>
<path d="M769.515 398.918H652.683C648.759 398.918 645.578 402.099 645.578 406.023V522.855C645.578 526.779 648.759 529.96 652.683 529.96H769.515C773.439 529.96 776.62 526.779 776.62 522.855V406.023C776.62 402.099 773.439 398.918 769.515 398.918Z" fill="url(#paint0_linear_3007_13089)" stroke="#3B345E" stroke-width="1.57882"/>
<path d="M726.541 451.475H734.331C735.765 451.475 736.928 452.638 736.928 454.072V485.233C736.928 486.667 735.765 487.83 734.331 487.83H687.589C686.155 487.83 684.992 486.667 684.992 485.233V443.685C684.992 442.251 686.155 441.088 687.589 441.088H726.541V451.475ZM690.186 456.669V482.636H731.734V456.669H690.186ZM690.186 446.281V451.475H721.347V446.281H690.186ZM718.75 467.056H726.541V472.249H718.75V467.056Z" fill="white"/>
<path d="M295.867 503.121H179.034C175.111 503.121 171.93 506.302 171.93 510.226V627.058C171.93 630.982 175.111 634.163 179.034 634.163H295.867C299.791 634.163 302.972 630.982 302.972 627.058V510.226C302.972 506.302 299.791 503.121 295.867 503.121Z" fill="url(#paint1_linear_3007_13089)" stroke="#3B345E" stroke-width="1.57882"/>
<path d="M221.696 584.295H252.857V553.133H221.696V584.295ZM242.47 589.488H232.083V594.682H226.889V589.488H219.099C217.665 589.488 216.502 588.326 216.502 586.891V579.101H211.309V573.907H216.502V563.52H211.309V558.327H216.502V550.536C216.502 549.102 217.665 547.94 219.099 547.94H226.889V542.746H232.083V547.94H242.47V542.746H247.664V547.94H255.454C256.888 547.94 258.051 549.102 258.051 550.536V558.327H263.244V563.52H258.051V573.907H263.244V579.101H258.051V586.891C258.051 588.326 256.888 589.488 255.454 589.488H247.664V594.682H242.47V589.488ZM226.889 558.327H247.664V579.101H226.889V558.327Z" fill="white"/>
<path d="M760.046 228.406H681.105C677.181 228.406 674 231.587 674 235.511V314.452C674 318.376 677.181 321.557 681.105 321.557H760.046C763.969 321.557 767.15 318.376 767.15 314.452V235.511C767.15 231.587 763.969 228.406 760.046 228.406Z" fill="url(#paint2_linear_3007_13089)" stroke="#3B345E" stroke-width="1.57882"/>
<path d="M707.363 273.333H733.803V262.002H707.363V273.333ZM737.58 260.113V290.33C737.58 291.373 736.735 292.219 735.692 292.219H705.475C704.431 292.219 703.586 291.373 703.586 290.33V260.113C703.586 259.07 704.431 258.225 705.475 258.225H735.692C736.735 258.225 737.58 259.07 737.58 260.113ZM733.803 277.11H707.363V288.442H733.803V277.11ZM711.14 280.887H716.806V284.665H711.14V280.887ZM711.14 265.779H716.806V269.556H711.14V265.779Z" fill="white"/>
<path d="M940.03 105.26H861.089C857.165 105.26 853.984 108.441 853.984 112.364V191.305C853.984 195.229 857.165 198.41 861.089 198.41H940.03C943.954 198.41 947.135 195.229 947.135 191.305V112.364C947.135 108.441 943.954 105.26 940.03 105.26Z" fill="url(#paint3_linear_3007_13089)" stroke="#3B345E" stroke-width="1.57882"/>
<g clip-path="url(#clip1_3007_13089)">
<path d="M923.408 151.71L912.724 162.393L910.053 159.722L918.066 151.71L910.053 143.697L912.724 141.027L923.408 151.71ZM883.424 151.71L891.436 159.722L888.765 162.393L878.082 151.71L888.765 141.027L891.436 143.697L883.424 151.71ZM896.568 168.707H892.549L904.922 134.713H908.941L896.568 168.707Z" fill="white"/>
</g>
<path d="M636.897 588.377H576.902C572.978 588.377 569.797 591.558 569.797 595.482V655.477C569.797 659.401 572.978 662.581 576.902 662.581H636.897C640.82 662.581 644.001 659.401 644.001 655.477V595.482C644.001 591.558 640.82 588.377 636.897 588.377Z" fill="url(#paint4_linear_3007_13089)" stroke="#3B345E" stroke-width="1.57882"/>
<path d="M613.468 626.943C616.336 626.943 618.662 629.268 618.662 632.136C618.662 635.005 616.336 637.33 613.468 637.33C610.6 637.33 608.274 635.005 608.274 632.136H605.678C605.678 635.005 603.352 637.33 600.484 637.33C597.616 637.33 595.291 635.005 595.291 632.136C595.291 629.268 597.616 626.943 600.484 626.943C602.406 626.943 604.085 627.987 604.983 629.54H608.969C609.867 627.987 611.546 626.943 613.468 626.943ZM600.484 629.54C599.05 629.54 597.887 630.702 597.887 632.136C597.887 633.571 599.05 634.733 600.484 634.733C601.918 634.733 603.081 633.571 603.081 632.136C603.081 630.702 601.918 629.54 600.484 629.54ZM613.468 629.54C612.034 629.54 610.871 630.702 610.871 632.136C610.871 633.571 612.034 634.733 613.468 634.733C614.902 634.733 616.065 633.571 616.065 632.136C616.065 630.702 614.902 629.54 613.468 629.54ZM612.17 613.959C615.038 613.959 617.363 616.284 617.363 619.153V623.048H619.96V625.644H593.992V623.048H596.589V619.153C596.589 616.284 598.914 613.959 601.783 613.959H612.17ZM612.17 616.556H601.783C600.414 616.556 599.186 617.789 599.186 619.153V623.048H614.766V619.153C614.766 617.784 613.533 616.556 612.17 616.556Z" fill="white"/>
<path d="M486.905 531.539H407.964C404.04 531.539 400.859 534.72 400.859 538.644V617.585C400.859 621.508 404.04 624.689 407.964 624.689H486.905C490.829 624.689 494.01 621.508 494.01 617.585V538.644C494.01 534.72 490.829 531.539 486.905 531.539Z" fill="url(#paint5_linear_3007_13089)" stroke="#3B345E" stroke-width="1.57882"/>
<path d="M447.489 557.562L463.007 561.011C463.872 561.203 464.486 561.969 464.486 562.855V581.715C464.486 585.504 462.593 589.042 459.441 591.143L447.489 599.111L435.538 591.143C432.386 589.042 430.492 585.504 430.492 581.715V562.855C430.492 561.969 431.107 561.203 431.971 561.011L447.489 557.562ZM447.489 561.432L434.269 564.37V581.715C434.269 584.241 435.532 586.6 437.633 588.001L447.489 594.571L457.345 588.001C459.447 586.6 460.709 584.241 460.709 581.715V564.37L447.489 561.432ZM447.489 568.894C449.575 568.894 451.266 570.585 451.266 572.671C451.266 574.068 450.508 575.288 449.38 575.942L449.378 584.002H445.601L445.601 575.943C444.472 575.29 443.712 574.069 443.712 572.671C443.712 570.585 445.403 568.894 447.489 568.894Z" fill="white"/>
<path d="M456.91 48.4219H340.077C336.154 48.4219 332.973 51.6027 332.973 55.5266V172.359C332.973 176.283 336.154 179.464 340.077 179.464H456.91C460.834 179.464 464.015 176.283 464.015 172.359V55.5266C464.015 51.6027 460.834 48.4219 456.91 48.4219Z" fill="url(#paint6_linear_3007_13089)" stroke="#3B345E" stroke-width="1.57882"/>
<path d="M406.544 84.9551L422.133 100.536L422.136 111.6C420.632 110.353 418.87 109.411 416.941 108.865L416.939 103.133H403.955V90.1486H380.584V131.697L393.722 131.699C394.025 133.61 394.768 135.377 395.846 136.892L377.97 136.891C376.648 136.891 375.557 135.896 375.408 134.616L375.391 134.315V87.5306C375.391 86.2369 376.395 85.1251 377.69 84.9728L377.993 84.9551H406.544ZM413.044 113.52C418.063 113.52 422.133 117.589 422.133 122.608L422.129 122.877C425.127 123.721 427.326 126.478 427.326 129.75C427.326 133.547 424.361 136.653 420.62 136.878L420.185 136.891H405.903L405.468 136.878C401.726 136.653 398.762 133.547 398.762 129.75C398.762 126.478 400.962 123.72 403.964 122.875L403.955 122.608C403.955 117.589 408.024 113.52 413.044 113.52ZM413.044 118.713C411.146 118.713 409.565 120.071 409.219 121.868L409.167 122.233L409.149 122.608V126.815L405.399 127.868C404.36 128.147 403.743 129.215 404.022 130.254C404.228 131.023 404.867 131.561 405.607 131.675L405.889 131.698H420.199C421.054 131.692 421.834 131.119 422.066 130.254C422.345 129.215 421.728 128.147 420.689 127.868L418.061 127.135L416.939 126.815V122.608L416.921 122.233C416.732 120.258 415.069 118.713 413.044 118.713Z" fill="white"/>
<path d="M229.561 86.3125H150.62C146.696 86.3125 143.516 89.4934 143.516 93.4172V172.358C143.516 176.282 146.696 179.463 150.62 179.463H229.561C233.485 179.463 236.666 176.282 236.666 172.358V93.4172C236.666 89.4934 233.485 86.3125 229.561 86.3125Z" fill="url(#paint7_linear_3007_13089)" stroke="#3B345E" stroke-width="1.57882"/>
<path d="M201.365 146.794C198.152 148.831 194.342 150.011 190.256 150.011C180.072 150.011 171.6 142.684 169.824 133.014C170.649 128.524 172.917 124.539 176.13 121.558L170.225 115.653L172.895 112.982L210.287 150.374L207.616 153.045L201.365 146.794ZM178.802 124.231C176.293 126.517 174.463 129.552 173.679 133.014C175.412 140.666 182.257 146.234 190.256 146.234C193.277 146.234 196.133 145.44 198.611 144.04L194.78 140.209C193.47 141.035 191.919 141.512 190.256 141.512C185.562 141.512 181.757 137.707 181.757 133.014C181.757 131.351 182.235 129.799 183.061 128.489L178.802 124.231ZM191.981 137.41L185.86 131.288C185.65 131.823 185.534 132.405 185.534 133.014C185.534 135.621 187.648 137.735 190.256 137.735C190.865 137.735 191.447 137.62 191.981 137.41ZM206.888 141.687L204.185 138.984C205.424 137.219 206.337 135.202 206.833 133.014C205.1 125.361 198.255 119.794 190.256 119.794C188.658 119.794 187.107 120.016 185.633 120.432L182.653 117.452C185.008 116.525 187.572 116.017 190.256 116.017C200.439 116.017 208.911 123.344 210.688 133.014C210.098 136.224 208.771 139.175 206.888 141.687ZM189.732 124.531C189.905 124.521 190.08 124.515 190.256 124.515C194.949 124.515 198.755 128.32 198.755 133.014C198.755 133.19 198.749 133.364 198.739 133.537L189.732 124.531Z" fill="white"/>
<path d="M125.361 398.918H65.3664C61.4426 398.918 58.2617 402.099 58.2617 406.023V466.018C58.2617 469.942 61.4426 473.122 65.3664 473.122H125.361C129.285 473.122 132.466 469.942 132.466 466.018V406.023C132.466 402.099 129.285 398.918 125.361 398.918Z" fill="url(#paint8_linear_3007_13089)" stroke="#3B345E" stroke-width="1.57882"/>
<path d="M103.157 443.482V441.037L109.649 444.932L103.157 448.827V446.113C99.1611 445.542 95.693 442.93 94.0721 439.148L94.0683 439.139L94.0646 439.148C92.2232 443.445 87.9985 446.23 83.3239 446.23H82.3828V443.634H83.3239C86.9597 443.634 90.2456 441.467 91.6778 438.125L92.6557 435.843L91.6778 433.561C90.2456 430.22 86.9597 428.053 83.3239 428.053H82.3828V425.456H83.3239C87.9985 425.456 92.2232 428.242 94.0646 432.539L94.0683 432.547L94.0721 432.539C95.693 428.756 99.1611 426.145 103.157 425.574V422.859L109.649 426.755L103.157 430.65V428.205C100.205 428.751 97.6697 430.736 96.4589 433.561L95.481 435.843L96.4589 438.125C97.6697 440.95 100.205 442.936 103.157 443.482Z" fill="white"/>
<path d="M930.557 304.191H870.562C866.638 304.191 863.457 307.372 863.457 311.296V371.291C863.457 375.215 866.638 378.396 870.562 378.396H930.557C934.481 378.396 937.661 375.215 937.661 371.291V311.296C937.661 307.372 934.481 304.191 930.557 304.191Z" fill="url(#paint9_linear_3007_13089)" stroke="#3B345E" stroke-width="1.57882"/>
<path d="M904.362 330.843H891.378V351.617H909.555V336.036H904.362V330.843ZM888.781 329.534C888.781 328.823 889.362 328.246 890.078 328.246H905.66L912.152 334.738L912.152 352.906C912.152 353.628 911.575 354.214 910.862 354.214H890.071C889.359 354.214 888.781 353.623 888.781 352.926V329.534ZM907.812 341.23L903.221 345.82L901.385 343.984L904.139 341.23L901.385 338.476L903.221 336.639L907.812 341.23ZM893.122 341.23L897.712 336.639L899.549 338.476L896.794 341.23L899.549 343.984L897.712 345.82L893.122 341.23Z" fill="white"/>
<path d="M958.975 493.648H898.98C895.056 493.648 891.875 496.829 891.875 500.753V560.748C891.875 564.672 895.056 567.853 898.98 567.853H958.975C962.899 567.853 966.079 564.672 966.079 560.748V500.753C966.079 496.829 962.899 493.648 958.975 493.648Z" fill="url(#paint10_linear_3007_13089)" stroke="#3B345E" stroke-width="1.57882"/>
<path d="M922.303 528.432H939.182C939.899 528.432 940.48 529.013 940.48 529.73V542.714C940.48 543.431 939.899 544.013 939.182 544.013H918.408C917.691 544.013 917.109 543.431 917.109 542.714V529.73C917.109 529.013 917.691 528.432 918.408 528.432H919.706V527.134C919.706 522.114 923.775 518.045 928.795 518.045C932.353 518.045 935.434 520.09 936.926 523.068L934.603 524.23C933.537 522.102 931.336 520.642 928.795 520.642C925.209 520.642 922.303 523.548 922.303 527.134V528.432ZM919.706 531.029V541.416H937.884V531.029H919.706ZM926.198 534.924H931.392V537.521H926.198V534.924Z" fill="white"/>
<path d="M617.951 124.205H557.956C554.032 124.205 550.852 127.386 550.852 131.31V191.305C550.852 195.229 554.032 198.41 557.956 198.41H617.951C621.875 198.41 625.056 195.229 625.056 191.305V131.31C625.056 127.386 621.875 124.205 617.951 124.205Z" fill="url(#paint11_linear_3007_13089)" stroke="#3B345E" stroke-width="1.57882"/>
<path d="M576.025 149.371H599.396C600.113 149.371 600.694 149.952 600.694 150.669V171.444C600.694 172.161 600.113 172.742 599.396 172.742H576.025C575.308 172.742 574.727 172.161 574.727 171.444V150.669C574.727 149.952 575.308 149.371 576.025 149.371ZM577.323 151.968V170.145H598.098V151.968H577.323ZM598.098 161.057L593.507 165.647L591.671 163.811L594.425 161.057L591.671 158.302L593.507 156.466L598.098 161.057ZM580.996 161.057L583.75 163.811L581.914 165.647L577.323 161.057L581.914 156.466L583.75 158.302L580.996 161.057ZM586.729 167.549H583.966L588.692 154.565H591.455L586.729 167.549Z" fill="white"/>
<path d="M68.5216 255.246H8.52656C4.60275 255.246 1.42188 258.427 1.42188 262.351V322.346C1.42188 326.27 4.60275 329.451 8.52656 329.451H68.5216C72.4454 329.451 75.6263 326.27 75.6263 322.346V262.351C75.6263 258.427 72.4454 255.246 68.5216 255.246Z" fill="url(#paint12_linear_3007_13089)" stroke="#3B345E" stroke-width="1.57882"/>
<path d="M25.7188 305.489C25.7188 299.752 30.3692 295.102 36.1059 295.102C41.8425 295.102 46.493 299.752 46.493 305.489H43.8962C43.8962 301.186 40.4083 297.699 36.1059 297.699C31.8034 297.699 28.3155 301.186 28.3155 305.489H25.7188ZM36.1059 293.803C31.8017 293.803 28.3155 290.317 28.3155 286.013C28.3155 281.709 31.8017 278.223 36.1059 278.223C40.41 278.223 43.8962 281.709 43.8962 286.013C43.8962 290.317 40.41 293.803 36.1059 293.803ZM36.1059 291.207C38.9753 291.207 41.2994 288.882 41.2994 286.013C41.2994 283.144 38.9753 280.819 36.1059 280.819C33.2364 280.819 30.9123 283.144 30.9123 286.013C30.9123 288.882 33.2364 291.207 36.1059 291.207ZM46.8613 296.014C50.4718 297.642 52.9849 301.272 52.9849 305.489H50.3882C50.3882 302.326 48.5033 299.603 45.7955 298.383L46.8613 296.014ZM45.9687 281.356C48.5631 282.426 50.3882 284.979 50.3882 287.961C50.3882 291.687 47.5371 294.745 43.8962 295.073V292.459C46.0992 292.144 47.7914 290.251 47.7914 287.961C47.7914 286.168 46.7547 284.619 45.2478 283.879L45.9687 281.356Z" fill="white"/>
<path d="M276.924 247.352H197.984C194.06 247.352 190.879 250.532 190.879 254.456V333.397C190.879 337.321 194.06 340.502 197.984 340.502H276.924C280.848 340.502 284.029 337.321 284.029 333.397V254.456C284.029 250.532 280.848 247.352 276.924 247.352Z" fill="url(#paint13_linear_3007_13089)" stroke="#3B345E" stroke-width="1.57882"/>
<path d="M234.952 293.597L249.775 278.773L252.446 281.444L249.775 284.115L254.449 288.789L251.778 291.46L247.104 286.786L244.433 289.457L248.439 293.463L245.769 296.134L241.762 292.128L237.623 296.267C240.052 299.934 239.651 304.922 236.421 308.153C232.733 311.84 226.754 311.84 223.067 308.153C219.379 304.465 219.379 298.486 223.067 294.798C226.297 291.568 231.285 291.168 234.952 293.597ZM233.75 305.482C235.962 303.269 235.962 299.682 233.75 297.469C231.537 295.257 227.95 295.257 225.737 297.469C223.525 299.682 223.525 303.269 225.737 305.482C227.95 307.694 231.537 307.694 233.75 305.482Z" fill="white"/>
<path d="M769.517 95.7852H728.468C724.544 95.7852 721.363 98.966 721.363 102.89V143.939C721.363 147.863 724.544 151.044 728.468 151.044H769.517C773.441 151.044 776.622 147.863 776.622 143.939V102.89C776.622 98.966 773.441 95.7852 769.517 95.7852Z" fill="url(#paint14_linear_3007_13089)" stroke="#3B345E" stroke-width="1.57882"/>
<path d="M744.369 115.458H747.768V125.656H744.369V129.056H742.103V125.656H738.703V115.458H742.103V112.059H744.369V115.458ZM740.969 117.724V123.39H745.502V117.724H740.969ZM755.7 121.124H759.1V131.322H755.7V134.721H753.434V131.322H750.035V121.124H753.434V117.724H755.7V121.124ZM752.301 123.39V129.056H756.833V123.39H752.301Z" fill="white"/>
<path d="M797.935 588.377H756.886C752.962 588.377 749.781 591.558 749.781 595.482V636.531C749.781 640.455 752.962 643.636 756.886 643.636H797.935C801.859 643.636 805.04 640.455 805.04 636.531V595.482C805.04 591.558 801.859 588.377 797.935 588.377Z" fill="url(#paint15_linear_3007_13089)" stroke="#3B345E" stroke-width="1.57882"/>
<path d="M789.695 615.731L781.682 623.744L780.08 622.141L786.49 615.731L780.08 609.321L781.682 607.719L789.695 615.731ZM767.971 615.731L774.381 622.141L772.778 623.744L764.766 615.731L772.778 607.719L774.381 609.321L767.971 615.731Z" fill="white"/>
<path d="M68.5211 122.625H27.4719C23.5481 122.625 20.3672 125.806 20.3672 129.73V170.779C20.3672 174.703 23.5481 177.884 27.4719 177.884H68.5211C72.4449 177.884 75.6258 174.703 75.6258 170.779V129.73C75.6258 125.806 72.4449 122.625 68.5211 122.625Z" fill="url(#paint16_linear_3007_13089)" stroke="#3B345E" stroke-width="1.57882"/>
<path d="M44.6545 150.583L41.8216 153.416L44.6545 156.249L47.4873 153.416L44.6545 150.583ZM51.4533 139.252C47.5694 139.252 44.3875 142.258 44.1079 146.071C40.2953 146.35 37.2891 149.532 37.2891 153.416C37.2891 157.484 40.5867 160.782 44.6545 160.782C48.5384 160.782 51.7203 157.775 51.9999 153.963C55.8125 153.683 58.8187 150.501 58.8187 146.617C58.8187 142.55 55.5212 139.252 51.4533 139.252ZM51.8198 151.704C51.1785 149.011 49.0594 146.892 46.3671 146.251C46.555 143.606 48.7603 141.518 51.4533 141.518C54.2695 141.518 56.5524 143.801 56.5524 146.617C56.5524 149.31 54.4649 151.516 51.8198 151.704ZM49.7536 153.416C49.7536 156.232 47.4707 158.515 44.6545 158.515C41.8383 158.515 39.5553 156.232 39.5553 153.416C39.5553 150.6 41.8383 148.317 44.6545 148.317C47.4707 148.317 49.7536 150.6 49.7536 153.416ZM37.8556 144.351C37.8556 141.848 39.8849 139.819 42.3882 139.819H44.0879V142.085H42.3882C41.1366 142.085 40.1219 143.099 40.1219 144.351V146.051H37.8556V144.351ZM55.9859 155.682V153.983H58.2522V155.682C58.2522 158.186 56.2228 160.215 53.7196 160.215H52.0199V157.949H53.7196C54.9713 157.949 55.9859 156.934 55.9859 155.682Z" fill="white"/>
<path d="M248.506 389.445H207.456C203.532 389.445 200.352 392.626 200.352 396.55V437.599C200.352 441.523 203.532 444.704 207.456 444.704H248.506C252.429 444.704 255.61 441.523 255.61 437.599V396.55C255.61 392.626 252.429 389.445 248.506 389.445Z" fill="url(#paint17_linear_3007_13089)" stroke="#3B345E" stroke-width="1.57882"/>
<path d="M219.169 421.399H237.299V408.934H219.169V421.399ZM229.367 423.665V425.931H233.899V428.198H222.568V425.931H227.101V423.665H218.026C217.406 423.665 216.902 423.156 216.902 422.523V407.81C216.902 407.179 217.418 406.668 218.026 406.668H238.441C239.062 406.668 239.565 407.177 239.565 407.81V422.523C239.565 423.154 239.049 423.665 238.441 423.665H229.367Z" fill="white"/>
<path d="M77.9943 541.012H17.9992C14.0754 541.012 10.8945 544.193 10.8945 548.116V608.111C10.8945 612.035 14.0754 615.216 17.9992 615.216H77.9943C81.9181 615.216 85.099 612.035 85.099 608.111V548.116C85.099 544.193 81.9181 541.012 77.9943 541.012Z" fill="url(#paint18_linear_3007_13089)" stroke="#3B345E" stroke-width="1.57882"/>
<path d="M33.4961 591.043C33.4961 585.307 38.1466 580.656 43.8832 580.656C49.6199 580.656 54.2703 585.307 54.2703 591.043H51.6736C51.6736 586.741 48.1857 583.253 43.8832 583.253C39.5807 583.253 36.0929 586.741 36.0929 591.043H33.4961ZM43.8832 579.358C39.579 579.358 36.0929 575.872 36.0929 571.567C36.0929 567.263 39.579 563.777 43.8832 563.777C48.1874 563.777 51.6736 567.263 51.6736 571.567C51.6736 575.872 48.1874 579.358 43.8832 579.358ZM43.8832 576.761C46.7527 576.761 49.0768 574.437 49.0768 571.567C49.0768 568.698 46.7527 566.374 43.8832 566.374C41.0138 566.374 38.6897 568.698 38.6897 571.567C38.6897 574.437 41.0138 576.761 43.8832 576.761ZM60.1749 563.496C61.382 565.928 62.0607 568.668 62.0607 571.567C62.0607 574.466 61.382 577.207 60.1749 579.639L58.0392 578.086C58.9538 576.103 59.4639 573.895 59.4639 571.567C59.4639 569.24 58.9538 567.032 58.0392 565.049L60.1749 563.496ZM55.8885 566.613C56.5191 568.14 56.8671 569.813 56.8671 571.567C56.8671 573.322 56.5191 574.995 55.8885 576.521L53.7112 574.938C54.0736 573.881 54.2703 572.747 54.2703 571.567C54.2703 570.388 54.0736 569.254 53.7112 568.197L55.8885 566.613Z" fill="white"/>
<defs>
<filter id="filter0_d_3007_13089" x="110.805" y="0.898438" width="726.629" height="726.629" filterUnits="userSpaceOnUse" color-interpolation-filters="sRGB">
<feFlood flood-opacity="0" result="BackgroundImageFix"/>
<feColorMatrix in="SourceAlpha" type="matrix" values="0 0 0 0 0 0 0 0 0 0 0 0 0 0 0 0 0 0 127 0" result="hardAlpha"/>
<feOffset dy="4"/>
<feGaussianBlur stdDeviation="125"/>
<feComposite in2="hardAlpha" operator="out"/>
<feColorMatrix type="matrix" values="0 0 0 0 0.476863 0 0 0 0 0.458824 0 0 0 0 1 0 0 0 1 0"/>
<feBlend mode="normal" in2="BackgroundImageFix" result="effect1_dropShadow_3007_13089"/>
<feBlend mode="normal" in="SourceGraphic" in2="effect1_dropShadow_3007_13089" result="shape"/>
</filter>
<linearGradient id="paint0_linear_3007_13089" x1="711.099" y1="398.918" x2="711.099" y2="529.96" gradientUnits="userSpaceOnUse">
<stop stop-color="#1B1838"/>
<stop offset="1" stop-color="#0E0C26"/>
</linearGradient>
<linearGradient id="paint1_linear_3007_13089" x1="237.451" y1="503.121" x2="237.451" y2="634.163" gradientUnits="userSpaceOnUse">
<stop stop-color="#1B1838"/>
<stop offset="1" stop-color="#0E0C26"/>
</linearGradient>
<linearGradient id="paint2_linear_3007_13089" x1="720.575" y1="228.406" x2="720.575" y2="321.556" gradientUnits="userSpaceOnUse">
<stop stop-color="#1B1838"/>
<stop offset="1" stop-color="#0E0C26"/>
</linearGradient>
<linearGradient id="paint3_linear_3007_13089" x1="900.559" y1="105.26" x2="900.559" y2="198.41" gradientUnits="userSpaceOnUse">
<stop stop-color="#1B1838"/>
<stop offset="1" stop-color="#0E0C26"/>
</linearGradient>
<linearGradient id="paint4_linear_3007_13089" x1="606.899" y1="588.377" x2="606.899" y2="662.581" gradientUnits="userSpaceOnUse">
<stop stop-color="#1B1838"/>
<stop offset="1" stop-color="#0E0C26"/>
</linearGradient>
<linearGradient id="paint5_linear_3007_13089" x1="447.434" y1="531.539" x2="447.434" y2="624.689" gradientUnits="userSpaceOnUse">
<stop stop-color="#1B1838"/>
<stop offset="1" stop-color="#0E0C26"/>
</linearGradient>
<linearGradient id="paint6_linear_3007_13089" x1="398.494" y1="48.4219" x2="398.494" y2="179.464" gradientUnits="userSpaceOnUse">
<stop stop-color="#1B1838"/>
<stop offset="1" stop-color="#0E0C26"/>
</linearGradient>
<linearGradient id="paint7_linear_3007_13089" x1="190.091" y1="86.3125" x2="190.091" y2="179.463" gradientUnits="userSpaceOnUse">
<stop stop-color="#1B1838"/>
<stop offset="1" stop-color="#0E0C26"/>
</linearGradient>
<linearGradient id="paint8_linear_3007_13089" x1="95.3639" y1="398.918" x2="95.3639" y2="473.122" gradientUnits="userSpaceOnUse">
<stop stop-color="#1B1838"/>
<stop offset="1" stop-color="#0E0C26"/>
</linearGradient>
<linearGradient id="paint9_linear_3007_13089" x1="900.559" y1="304.191" x2="900.559" y2="378.396" gradientUnits="userSpaceOnUse">
<stop stop-color="#1B1838"/>
<stop offset="1" stop-color="#0E0C26"/>
</linearGradient>
<linearGradient id="paint10_linear_3007_13089" x1="928.977" y1="493.648" x2="928.977" y2="567.853" gradientUnits="userSpaceOnUse">
<stop stop-color="#1B1838"/>
<stop offset="1" stop-color="#0E0C26"/>
</linearGradient>
<linearGradient id="paint11_linear_3007_13089" x1="587.954" y1="124.205" x2="587.954" y2="198.41" gradientUnits="userSpaceOnUse">
<stop stop-color="#1B1838"/>
<stop offset="1" stop-color="#0E0C26"/>
</linearGradient>
<linearGradient id="paint12_linear_3007_13089" x1="38.5241" y1="255.246" x2="38.5241" y2="329.451" gradientUnits="userSpaceOnUse">
<stop stop-color="#1B1838"/>
<stop offset="1" stop-color="#0E0C26"/>
</linearGradient>
<linearGradient id="paint13_linear_3007_13089" x1="237.454" y1="247.352" x2="237.454" y2="340.502" gradientUnits="userSpaceOnUse">
<stop stop-color="#1B1838"/>
<stop offset="1" stop-color="#0E0C26"/>
</linearGradient>
<linearGradient id="paint14_linear_3007_13089" x1="748.993" y1="95.7852" x2="748.993" y2="151.044" gradientUnits="userSpaceOnUse">
<stop stop-color="#1B1838"/>
<stop offset="1" stop-color="#0E0C26"/>
</linearGradient>
<linearGradient id="paint15_linear_3007_13089" x1="777.411" y1="588.377" x2="777.411" y2="643.636" gradientUnits="userSpaceOnUse">
<stop stop-color="#1B1838"/>
<stop offset="1" stop-color="#0E0C26"/>
</linearGradient>
<linearGradient id="paint16_linear_3007_13089" x1="47.9965" y1="122.625" x2="47.9965" y2="177.884" gradientUnits="userSpaceOnUse">
<stop stop-color="#1B1838"/>
<stop offset="1" stop-color="#0E0C26"/>
</linearGradient>
<linearGradient id="paint17_linear_3007_13089" x1="227.981" y1="389.445" x2="227.981" y2="444.704" gradientUnits="userSpaceOnUse">
<stop stop-color="#1B1838"/>
<stop offset="1" stop-color="#0E0C26"/>
</linearGradient>
<linearGradient id="paint18_linear_3007_13089" x1="47.9968" y1="541.012" x2="47.9968" y2="615.216" gradientUnits="userSpaceOnUse">
<stop stop-color="#1B1838"/>
<stop offset="1" stop-color="#0E0C26"/>
</linearGradient>
<clipPath id="clip0_3007_13089">
<rect width="132.2" height="151.085" fill="white" transform="translate(549.66 294.113) rotate(90)"/>
</clipPath>
<clipPath id="clip1_3007_13089">
<rect width="45.3256" height="45.3256" fill="white" transform="translate(878.082 129.051)"/>
</clipPath>
</defs>
</svg>
