<svg id="scribble-5" xmlns="http://www.w3.org/2000/svg" width="119.333" height="103.194" viewBox="0 0 119.333 103.194">
  <path id="Fill_351" data-name="Fill 351" d="M11.658,9.367a3.7,3.7,0,0,0-1.287,2.461c-.085.542-.58.616-.953.712a1.6,1.6,0,0,0-.88.36.616.616,0,0,1-.585.048A8.807,8.807,0,0,1,6.6,12.1,19.392,19.392,0,0,1,3.048,7.581,41.324,41.324,0,0,1,.156,2.467C-.089,1.9-.1,1.909.518,1.473c.5.953.968,1.921,1.509,2.845.429.734.948,1.414,1.471,2.181a.711.711,0,0,0-.071-.782A29.373,29.373,0,0,1,.617.921L1.044.642l.245.212V.228L2.435,0c.342.159.5.764,1.067.839-.018.612.517.917.785,1.364A14.339,14.339,0,0,0,5.392,3.649c.361-.048.631-.1.9-.118.957-.067.934-.037,1.53.489.662.584,1.115,1.4,1.97,1.772a.233.233,0,0,1,.119.166c.027.615.371.838.948.987.484.126.622.636.644,1.138.017.385.088.767.152,1.284" transform="translate(96.294 73.047)" fill="#ffc0b1"/>
  <path id="Fill_353" data-name="Fill 353" d="M.611.642C1.3.985,1.3.985,1.665.268,2.133.107,2.7.43,3.123,0A13.809,13.809,0,0,0,4.554.347c.781.107,1.185.712,1.626,1.22.3.345.613.692.887,1.067.32.439.7.832,1.024,1.27.291.4.54.826.8,1.246a.733.733,0,0,1,.153.381.911.911,0,0,0,.317.78c.446.45.411,1.11.566,1.672a4.975,4.975,0,0,1,.015,1.68c-.017.214-.046.67-.516.333-.033-.024-.2.151-.311.217s-.323.2-.365.166c-.5-.436-.617-.124-.844.307-.334.634-.538.587-1.434.427-.546-.1-1.124-.115-1.443-.588A8.653,8.653,0,0,1,3.16,6.339a2.554,2.554,0,0,0-.772-1.811C1.922,4.121,1.613,3.54.977,3.314.785,3.245.645,3.017.5,2.848A1.87,1.87,0,0,1,0,1.583C-.009,1.058.406.94.611.642" transform="translate(21.926 10.379)" fill="#ffc0b1"/>
  <path id="Fill_355" data-name="Fill 355" d="M5.141,10.465C4.582,9.906,4.113,9.358,3.566,8.9,2,7.6,1.251,5.759.313,4.045A4.713,4.713,0,0,1,.03,1.577c0-.145.2-.285.32-.437L.877,2.183V.641A3.867,3.867,0,0,0,1.751.188.839.839,0,0,1,2.587.051a3.328,3.328,0,0,1,.838.506A3.062,3.062,0,0,0,3.966,2.75c.353-.1.77.155,1.124-.208a.455.455,0,0,1,.427-.019c.867.521,1.93.8,2.368,1.868.079.193.166.442.324.528.239.129.024.533.434.548.337.013.122.357.182.544a5.148,5.148,0,0,1,.218.7,4.053,4.053,0,0,1,.008.673A6.89,6.89,0,0,0,7.2,10.13l-2.058.335" transform="translate(90.609 43.336)" fill="#ffc0b1"/>
  <path id="Fill_357" data-name="Fill 357" d="M1.665,1.136c.206-.28.366-.514.544-.734A.881.881,0,0,1,2.468.213c.266-.149.455.272.752.089A1.9,1.9,0,0,1,3.991,0c.22-.021.547.244.666.159.264-.19.422-.247.651.01.043.047.2.012.3-.012.72-.174.719-.176,1.1.524L6.889.164a5.831,5.831,0,0,1,.273.759,5.609,5.609,0,0,1,.085.867,1.879,1.879,0,0,0,.167.885l.109-1.086.116,0a5.663,5.663,0,0,1,.06.577c.006.977-.04,1.956.016,2.929a3.617,3.617,0,0,1-.583,2.346c-.182-.174-.354-.438-.561-.017-.227.46-.589.425-1.058.214-.078.5-.113,1.089-.941.9V7.282l-.166-.033-.4,1.294c-.37-.248-.673-.511-.613-1.032.017-.146-.154-.306-.209-.469-.238-.71-.234-.712-.824-.729-.113,0-.225,0-.338,0H1.716C1.43,6.026,1.172,5.752.9,5.5A3.086,3.086,0,0,1,.029,3.491c-.046-.37.034-.756-.019-1.125a1.411,1.411,0,0,1,.336-.992C.714.8.915.788,1.665,1.136" transform="translate(0.006 0)" fill="#ffc0b1"/>
  <path id="Fill_359" data-name="Fill 359" d="M8.572,5.821c-.482.327-.946.655-1.429.951-.047.029-.215-.142-.4-.268a4.067,4.067,0,0,1-.3.531,6.579,6.579,0,0,1-.473.483c-.318.328-.625.693-1.095.195-.036-.038-.145,0-.22-.008-.528-.057-1.031.075-1.563-.35a12.337,12.337,0,0,1-1.375-1A5.742,5.742,0,0,1,.688,5.09,3.857,3.857,0,0,1,.03,2.66a3.389,3.389,0,0,1,.332-.736l.7.574c.184-.61.146-1.319.712-1.857l.7.525V.342A9.424,9.424,0,0,1,4.638.005,1.642,1.642,0,0,1,5.7.425a6.294,6.294,0,0,1,1.055,1c.256.385.606.707.875,1.1a14.071,14.071,0,0,1,.913,2.109,3.048,3.048,0,0,1,.027,1.187" transform="translate(58.974 4.256)" fill="#ffc0b1"/>
  <path id="Fill_361" data-name="Fill 361" d="M.664.482V2.906A5.655,5.655,0,0,0,.869,1.059C.876.811.759.5,1.059.355A3.387,3.387,0,0,1,2.032,0c.115-.017.334.256.4.434a2.1,2.1,0,0,1,.016.671c.187-.078.3-.169.4-.158.206.023.49.214.6.137C4.028.653,4.671.937,5.278.9a1.05,1.05,0,0,1,.822.391c.323.549.975.717,1.317,1.362a1.574,1.574,0,0,0,.334.984,2.28,2.28,0,0,1,.58,1.782,6.939,6.939,0,0,0-.01,1.069c-.77.457-1.571.9-2.339,1.4A2.035,2.035,0,0,1,3.764,7.7c-.5-.262-1.169-.384-1.337-1.081C1.311,6.116,1.112,4.94.517,4.052a4.654,4.654,0,0,1-.5-1.924C-.079,1.6.29,1,.454.432l.21.05" transform="translate(19.043 31.19)" fill="#ffc0b1"/>
  <path id="Fill_363" data-name="Fill 363" d="M1.56,4.1.013,2.558A9.115,9.115,0,0,1,.033,1.3C.055,1.138.288.975.462.88.527.844.7,1,.82,1.065.984.74,1.08.3,1.635.407a.445.445,0,0,0,.32-.03,1.067,1.067,0,0,1,.93-.354A4.453,4.453,0,0,1,4.718.74a8.163,8.163,0,0,1,2.39,3.052,12.46,12.46,0,0,1,.691,2.3,1.093,1.093,0,0,1-.421,1.084c-.642.449-1.259.935-1.915,1.362a1.365,1.365,0,0,1-.8.223,3.388,3.388,0,0,1-3.3-2.769,2.315,2.315,0,0,1-.2-.8,5.285,5.285,0,0,1,.4-1.08" transform="translate(40.004 39.789)" fill="#ffc0b1"/>
  <path id="Fill_365" data-name="Fill 365" d="M9.049,6.131l-.134-.679c0,.9-.952,1.235-1.159,2a.447.447,0,0,1-.645.243c-.273-.247-.459-.067-.613.034a1,1,0,0,1-1.176,0A7.515,7.515,0,0,1,2.161,5.08C1.3,4.616,1.054,3.675.522,2.959A5.551,5.551,0,0,1,0,1.665c.315-.459.772-.337,1.325-.061A1.844,1.844,0,0,0,1.177.955c-.151-.2.01-.283.1-.319A3.334,3.334,0,0,0,2.385.046c.078-.075.3-.046.437,0,.246.075.456.232.729.01.077-.063.329.063.488.132a6.971,6.971,0,0,1,3.4,2.672,3.281,3.281,0,0,0,.536.539c.524.487.622,1.2,1.028,1.721a.885.885,0,0,1,.051,1.016" transform="translate(35.331 78.574)" fill="#ffc0b1"/>
  <path id="Fill_367" data-name="Fill 367" d="M7.408,1.784c.03-.208.06-.417.093-.647.082.06.155.083.174.129A13.647,13.647,0,0,1,8.5,3.412c.107.476.243.932-.218,1.3-.314.253,0,.978-.7.938-.333.535-.867.481-1.377.445a7.963,7.963,0,0,1-.337,1.018c-.169.35-.711.449-1.291.284-.133-.038-.261-.167-.382-.156-.94.082-.939.089-1.334-.652a11.147,11.147,0,0,1-.589-1.11,1.635,1.635,0,0,0-.953-.971A2.149,2.149,0,0,1,.022,2.863,1.839,1.839,0,0,1,.811,1.119l.993,1.3c0-.546-.006-.913,0-1.28s.047-.29.625-.55C2.843.4,3.441.624,3.678.051L4.9,0c.753-.03,1.42.052,1.771.889a4.049,4.049,0,0,0,.736.891" transform="translate(105.539 30.256)" fill="#ffc0b1"/>
  <path id="Fill_369" data-name="Fill 369" d="M1.581,9.281A1.555,1.555,0,0,1,.3,7.9,9.574,9.574,0,0,1,.009,5.742a19.441,19.441,0,0,0,0-2.93C-.03,2.34.273,1.991.266,1.55c0-.115.158-.337.233-.332.582.033.858-.6,1.468-.6.4,0,.806-.381,1.259-.618.447.447,1.4-.106,1.758.879-.237.692.353,1.3.553,2.008.028.1.132.187.133.281.01,1.116.006,2.232.006,3.444l-.453-.4c.061.262.049.463.139.531s.3-.008.431.037c.061.02.094.182.1.282,0,.046-.1.147-.133.14-.273-.053-.543-.128-.838-.2L4.343,8.25,3.668,8.2c.322.325-.048.442-.182.641a7.085,7.085,0,0,0-.344.631c-.711-.077-.976-.535-1.166-1.142l-.395.951" transform="translate(0 28.248)" fill="#ffc0b1"/>
  <path id="Fill_371" data-name="Fill 371" d="M1.806,4.057c-.584-.017-1.137-.174-1.42.473C-.091,3.9-.147,3.456.338,2.956a7.125,7.125,0,0,1,.984-1.073c.374-.261.512-.838.834-1.205A4.974,4.974,0,0,1,3.093,0l.374.367L2.937.744,3,.879,3.8.753c.077.116.167.412.358.512A7.4,7.4,0,0,1,6.745,3.893,9.332,9.332,0,0,1,7.239,5.04c.456.922.574,1.093.435,1.931a3.076,3.076,0,0,1-.687,1.746,1.284,1.284,0,0,0-.4.725c-.025.63-.371.73-.879.7a1.354,1.354,0,0,0-.431.046c-.887.239-.979.214-1.421-.466A14.19,14.19,0,0,1,2.508,6.442c-.269-.791-.475-1.6-.7-2.385" transform="translate(82.927 85.418)" fill="#ffc0b1"/>
  <path id="Fill_373" data-name="Fill 373" d="M7.091,8.852A7.735,7.735,0,0,1,5.317,7.668C4.364,6.706,3.341,5.8,2.461,4.779A14.566,14.566,0,0,1,0,1.373C.059.874.709,1.4.722.816c0-.168.416-.331.644-.49.567-.4.884-.462,1.3-.022a2.481,2.481,0,0,0,1.414.7,7.976,7.976,0,0,1,2.1,1.2,9.853,9.853,0,0,1,1.907,1.67,10.681,10.681,0,0,1,.985.867,3.01,3.01,0,0,1,.624,1.153,1.181,1.181,0,0,1-.322.855c-.237.276-.35.675-.765.809-.24.077-.206.345-.253.567-.054.254-.125.563-.565.244-.308-.222-.567.093-.7.483" transform="translate(63.277 68.23)" fill="#ffc0b1"/>
  <path id="Fill_375" data-name="Fill 375" d="M4.449,9.252A4.914,4.914,0,0,1,2.058,6.778,20.676,20.676,0,0,1,.774,4.157C.416,3.257-.209,2.4.07,1.27.884,1.838.816,2.923,1.6,3.648A30.24,30.24,0,0,0,.563.406l.742.407c.035-.2.072-.4.109-.608L2.487,0c.105.168.243.417.407.647.64.9.643.892,1.8,1.3a1.912,1.912,0,0,1,.369.2,5.67,5.67,0,0,1,2.213,2.2A3.85,3.85,0,0,1,7.7,5.77a.481.481,0,0,0,.14.275.273.273,0,0,1-.082.462c-.507.286-.727.85-1.178,1.187a.759.759,0,0,0-.261.572,1.1,1.1,0,0,1-.977.674c-.183-.042-.3-.378-.55-.13a4.311,4.311,0,0,0-.346.443" transform="translate(111.396 61.297)" fill="#ffc0b1"/>
  <path id="Fill_377" data-name="Fill 377" d="M6.93,5.858l-.689.114.277.519L4.847,8.161a1.69,1.69,0,0,0-.313,0A2.859,2.859,0,0,1,1.72,6.812,10.247,10.247,0,0,1,.33,4.575a2.348,2.348,0,0,1-.27-1.667l1.069,2.35L1.312,5.2a2.168,2.168,0,0,0-.087-.429C1,4.226.735,3.694.519,3.145c-.1-.243-.3-.546.222-.659C.9,2.451,1,2.1,1.119,1.9c.108-.181.212-.363.3-.509.528-.048.533.413.862.6l-.254-.964.62-.492c.142.142.331.367.507-.049.19-.45.471-.625.926-.33.041.027.127.048.154.025.527-.434.838,0,1.082.331A10.968,10.968,0,0,1,6.52,3.168c.082.213.261.713-.34.737-.034,0-.06.188-.089.288.125.03.317.127.365.079a.266.266,0,0,1,.485.181c-.2.476.267.936-.01,1.4" transform="translate(72.334 38.366)" fill="#ffc0b1"/>
  <path id="Fill_379" data-name="Fill 379" d="M.636.727l.467.467c.037-.319.068-.583.1-.87.465-.1.944-.22,1.431-.292a3.049,3.049,0,0,1,.9,0c.224.035.048.451.465.488.27.024.477.482.669.8.156.259-.077.819.514.786q.03.55.062,1.1a1.045,1.045,0,0,0,.015.106L6.936,4.994A3.564,3.564,0,0,1,7.488,5c.28.045.582.323.439.5-.32.383.253.648.026.961a3.192,3.192,0,0,1-1.86.167l.528,1.142c-.113.109-.263.374-.41.374-.931-.007-1.91.229-2.74-.432A3.972,3.972,0,0,1,2.8,7.167c-.4-.5-.756-1.033-1.12-1.559-.179-.26-.333-.538-.5-.8-.267-.41-.188-1-.677-1.3A2.4,2.4,0,0,0,.111,2.2,1.083,1.083,0,0,1,.636.727" transform="translate(74.538 19.392)" fill="#ffc0b1"/>
  <path id="Fill_381" data-name="Fill 381" d="M3.677.029H4.72c.4,0,.839-.067.932.516A.285.285,0,0,0,5.884.7c.477-.071.6.38.893.579A3.3,3.3,0,0,1,7.884,3.522c.113.468-.038.8-.57,1.122A4.48,4.48,0,0,0,5.559,5.873c-.362.007-.658.573-1.081.12a.438.438,0,0,0-.3-.086A3.536,3.536,0,0,1,1.117,4.025a5.105,5.105,0,0,1-1-1.729A5.954,5.954,0,0,1,0,1.444c-.007-.094.048-.256.113-.28C.688.959,1.1.47,1.661.271A4.486,4.486,0,0,1,3.677.029" transform="translate(36.634 3.345)" fill="#ffc0b1"/>
  <path id="Fill_383" data-name="Fill 383" d="M.494.828l.523.823c.053-.393.073-.528.089-.663.05-.448.049-.447.615-.5.071-.007.18,0,.205-.038a.892.892,0,0,1,1.068-.4A3.7,3.7,0,0,1,4.308.662,10.4,10.4,0,0,1,7.17,5.1a2.907,2.907,0,0,1,.015.972l-.432-.048c.029.405-.063.705-.537.8a.558.558,0,0,0-.35.384c-.048.488-.549.25-.724.5-.279-.444-.76.094-1.074-.224s-.712-.538-.911-.9A12.568,12.568,0,0,1,2.045,4.132,1.465,1.465,0,0,0,1.382,3.2,2.92,2.92,0,0,1,.141,1.894C-.082,1.41-.092,1.414.494.828" transform="translate(38.006 57.34)" fill="#ffc0b1"/>
  <path id="Fill_385" data-name="Fill 385" d="M1.171,3.31A1.557,1.557,0,0,1,1.18,2.9c.024-.094.185-.157.2-.247s-.1-.211-.1-.318.133-.211.106-.281a.851.851,0,0,0-.264-.338,1.059,1.059,0,0,0-.344-.1l.184.64c-.4-.243-.842-.437-.647-1.023l.528.227C.906.754.252,1.121,0,.787.369.831.614.577.985.626c.172.023.4-.343.659-.592L2.9,1.059,3.02.321,4.68,0c.289.369.514.7.789.994.239.25.567.417.8.673A6.336,6.336,0,0,1,7.476,4.21c.1.323.2.835-.418.922,0,.594-.623.683-.906,1.059a1.335,1.335,0,0,1-1.656.28A6.139,6.139,0,0,1,2.172,4.5c-.323-.386-.687-.749-1-1.192" transform="translate(58.501 41.72)" fill="#ffc0b1"/>
  <path id="Fill_387" data-name="Fill 387" d="M1.014,2.744l.56.191C1.615,1.984.633,1.718.5.843a2.355,2.355,0,0,1,.478.218,7.914,7.914,0,0,1,.581.571,1.445,1.445,0,0,0-.4-.912C1.745,0,1.745,0,2.446,0A6.257,6.257,0,0,0,3.655,1.308c.546.333.706.9,1.108,1.311a5.643,5.643,0,0,1,.894,1.422,1.617,1.617,0,0,1,.213.91c-.058.363-.213.9-.47,1-.422.17-.328.469-.461.726a1.257,1.257,0,0,1-.889.768c-.267.044-.585.248-.781.159a4.143,4.143,0,0,1-1.322-.864A22.663,22.663,0,0,1,.119,4.46c-.143-.2-.077-.546-.119-.937l.425.343c-.083-.576.421-.774.589-1.121" transform="translate(77.273 56.935)" fill="#ffc0b1"/>
  <path id="Fill_389" data-name="Fill 389" d="M7.864,5.059l-.6-.331c-.254.917-.317.965-1.067.635l.529,1.231-.6.348L4.982,5.8c-.244.55.428.8.362,1.336-.6.084-.953-.326-1.3-.7-.19-.206-.292-.494-.488-.693A24.962,24.962,0,0,1,1.171,2.894a1.936,1.936,0,0,0-.237-.24A2.254,2.254,0,0,1,0,1.145c.439-.269.672.145.971.4.3-.5-.4-.57-.367-.94C.63.16,1.48.73,1.264,0H2.487c.35.246.7.49,1.053.743a6.578,6.578,0,0,0,1.007.826c.415.2.69.676,1.055,1,.238.21.389.5.77.593.275.068.422.486.841.432.116-.015.326.2.386.345a8.477,8.477,0,0,1,.264,1.122" transform="translate(64.485 96.049)" fill="#ffc0b1"/>
  <path id="Fill_391" data-name="Fill 391" d="M4.915,3.007c.389.026.657-.175,1.012.081l-.454.157c.133.453.282.9.391,1.361.028.118-.034.35-.116.384-.453.191-.59.679-.943.946a1.242,1.242,0,0,1-.594.18c-.1.011-.223-.143-.325-.133a1.154,1.154,0,0,0-.37.2c-.194-.685-.184-.713-.947-.973-.457-.156-.552-.6-.876-.887l-.221.471c-.114-.119-.306-.228-.305-.336.006-1.346,0-1.376-.61-2.182C.21,2.882.874,3.234.91,3.83.745,3.8.5,3.823.471,3.753c-.289-.7-.729-1.364-.278-2.206.14-.261.165-.4.48-.4A1.211,1.211,0,0,0,1.248.917C1.7.634,2.127.326,2.606,0l.186.278c.377.263.771-.445.834.293.018.21.487-.29.487.258,0,.212.39.425.586.62l-.2.528.167.116.32-.608.473.8-.539.721" transform="translate(59.672 22.551)" fill="#ffc0b1"/>
  <path id="Fill_393" data-name="Fill 393" d="M3.8,6.06,3.1,5.183l-.287.587a2.533,2.533,0,0,1-.976-.891C1.289,4.1.863,3.247.306,2.47A2.076,2.076,0,0,1,.078.771c.515-.1.626.5,1.055.654V.325L3.443,0a6.055,6.055,0,0,1,1.6,2.247c.2.48.613.84.739,1.39.05.217-.229.509.114.671a2.763,2.763,0,0,1-.105.266c-.559-.2-.747.609-1.285.479-.035-.009-.13.2-.183.313a3.5,3.5,0,0,1-.159.384A2.1,2.1,0,0,1,3.8,6.06" transform="translate(22.822 53.239)" fill="#ffc0b1"/>
  <path id="Fill_395" data-name="Fill 395" d="M2.618.006,3.066,1.04,3.274.49c.051.031.133.053.144.093A2.272,2.272,0,0,0,3.983,1.6a2.7,2.7,0,0,1,.4.621,1.269,1.269,0,0,0,.947.732l.182-.369.619.464c0,.141.015.2,0,.212-.2.133-.414.258-.6.375.056.309.105.588.18,1.007l-.79-.385-.456.918-.547.062v.5a1.05,1.05,0,0,1-1.524-.081C1.855,5.166,1.25,4.753.7,4.171l.7-.459A3.4,3.4,0,0,0,.73,2.452,7.73,7.73,0,0,1,0,1.09C.331.682.592.984.9,1.111.909,1,.961.876.925.794.7.285.8.033,1.277.011c.451-.021.9,0,1.341,0" transform="translate(49.019 72.954)" fill="#ffc0b1"/>
  <path id="Fill_397" data-name="Fill 397" d="M.505,1.712l.537.794c.05-.156.119-.257.1-.341C1.068,1.758.968,1.354.864.894h.657l.264.549V.52A1.293,1.293,0,0,0,2.1.4c.175-.13.453-.427.481-.4.287.236.642.094.92.2a1.045,1.045,0,0,1,.8.966c0,.158-.211.334-.18.467.026.108.316.132.4.254a.446.446,0,0,1,0,.426c-.293.234-.228.536-.208.819a.569.569,0,0,1-.444.658c-.336.1-.414.31-.484.631a.859.859,0,0,1-.937.733,2.173,2.173,0,0,0-.547.035c-.449.1-1.015-.01-1.155-.339A5.088,5.088,0,0,1,.011,2.344c.036-.369.258-.473.494-.632" transform="translate(18.983 75.715)" fill="#ffc0b1"/>
  <path id="Fill_399" data-name="Fill 399" d="M.124,1.345l.934.274A.855.855,0,0,0,.934.58c.4-.36.659.183,1.048.124.036-.2.075-.4.112-.6.3-.326.578.275.946-.008s.471.336.79.408A1.03,1.03,0,0,1,4.3.883c.424.52.49,1.256,1.062,1.711.137.109.064.482.094.813-.633-.311-.672.694-1.282.456-.188.3-.01.854-.7.92L3.134,4.19l-.273.57c-.384.091-.56-.24-.687-.451A4.685,4.685,0,0,0,.509,2.65a.924.924,0,0,1-.385-1.3" transform="translate(55.589 55.76)" fill="#ffc0b1"/>
  <path id="Fill_401" data-name="Fill 401" d="M4.607,3.626,3.174,4.75H2.225c-.369-.534-.49-1.237-1.034-1.678A3.052,3.052,0,0,0,.172,1.348C.03,1.183.06.869,0,.561.163.516.325.519.409.44c.867-.811,1.684-.355,2.375.2A7.447,7.447,0,0,1,4.289,2.369a3.773,3.773,0,0,1,.318,1.257" transform="translate(45.61 23.467)" fill="#ffc0b1"/>
</svg>
