<svg width="100" height="100" viewBox="0 0 100 100" fill="none" xmlns="http://www.w3.org/2000/svg">
<path d="M49.9961 4.16797L84.2332 11.7762C86.1398 12.1999 87.4961 13.8908 87.4961 15.8437V57.4551C87.4961 65.8138 83.3186 73.6196 76.3636 78.2563L49.9961 95.8346L23.6286 78.2563C16.6736 73.6196 12.4961 65.8138 12.4961 57.4551V15.8437C12.4961 13.8908 13.8525 12.1999 15.7589 11.7762L49.9961 4.16797ZM49.9961 29.168C45.3936 29.168 41.6628 32.8989 41.6628 37.5013C41.6628 40.5857 43.3386 43.2788 45.829 44.7196L45.8294 62.5013H54.1628L54.1673 44.7171C56.6557 43.2755 58.3294 40.584 58.3294 37.5013C58.3294 32.8989 54.5986 29.168 49.9961 29.168Z" fill="white"/>
</svg>
