<svg width="97" height="96" viewBox="0 0 97 96" fill="none" xmlns="http://www.w3.org/2000/svg">
<path d="M79.8339 44.9997C83.9757 44.9997 87.3333 41.6421 87.3333 37.5003V37.5003C87.3333 33.3586 83.9754 30.001 79.8336 30.001V30.001C75.6914 30.001 72.3333 33.3588 72.3333 37.501V44.9997H79.8339ZM58.8333 44.9997C62.9754 44.9997 66.3333 41.6418 66.3333 37.4997V16.501C66.3333 12.3588 62.9754 9.00098 58.8333 9.00098V9.00098C54.6911 9.00098 51.3333 12.3588 51.3333 16.501V37.4997C51.3333 41.6418 54.6911 44.9997 58.8333 44.9997V44.9997Z" fill="#2EB67D"/>
<path d="M16.8326 51.0003C12.6908 51.0003 9.33325 54.3579 9.33325 58.4997V58.4997C9.33325 62.6414 12.6912 65.999 16.8329 65.999V65.999C20.9751 65.999 24.3333 62.6412 24.3333 58.499V51.0003H16.8326ZM37.8333 51.0003C33.6911 51.0003 30.3333 54.3582 30.3333 58.5003V79.499C30.3333 83.6412 33.6911 86.999 37.8333 86.999V86.999C41.9754 86.999 45.3333 83.6412 45.3333 79.499V58.5003C45.3333 54.3582 41.9754 51.0003 37.8333 51.0003V51.0003Z" fill="#E01E5A"/>
<path d="M51.3338 79.5006C51.3338 83.6424 54.6914 87 58.8332 87V87C62.9749 87 66.3325 83.6421 66.3325 79.5003V79.5003C66.3325 75.3582 62.9746 72 58.8325 72L51.3338 72L51.3338 79.5006ZM51.3338 58.5C51.3338 62.6421 54.6917 66 58.8338 66L79.8325 66C83.9747 66 87.3325 62.6421 87.3325 58.5V58.5C87.3325 54.3579 83.9747 51 79.8325 51L58.8338 51C54.6917 51 51.3338 54.3579 51.3338 58.5V58.5Z" fill="#ECB22E"/>
<path d="M45.3325 16.4994C45.3325 12.3576 41.9749 9 37.8332 9V9C33.6914 9 30.3338 12.3579 30.3338 16.4997V16.4997C30.3338 20.6418 33.6917 24 37.8338 24L45.3325 24L45.3325 16.4994ZM45.3325 37.5C45.3325 33.3579 41.9747 30 37.8325 30L16.8338 30C12.6917 30 9.3338 33.3579 9.3338 37.5V37.5C9.3338 41.6421 12.6917 45 16.8338 45L37.8325 45C41.9746 45 45.3325 41.6421 45.3325 37.5V37.5Z" fill="#36C5F0"/>
</svg>
