<svg width="72" height="72" viewBox="0 0 72 72" fill="none" xmlns="http://www.w3.org/2000/svg">
<rect width="72" height="72" fill="#F2F1FF"/>
<path opacity="0.35" d="M47.6843 53.5261H24.3162C21.0894 53.5261 18.4741 50.9108 18.4741 47.6841V24.3159H47.6843C50.911 24.3159 53.5263 26.9312 53.5263 30.158V47.6841C53.5263 50.9108 50.911 53.5261 47.6843 53.5261Z" fill="#4A3AFF"/>
<path d="M46.7106 41.842C48.3238 41.842 49.6316 40.5342 49.6316 38.921C49.6316 37.3078 48.3238 36 46.7106 36C45.0973 36 43.7896 37.3078 43.7896 38.921C43.7896 40.5342 45.0973 41.842 46.7106 41.842Z" fill="#4A3AFF"/>
<path d="M18.4741 24.3159C18.4741 21.0892 21.0894 18.4739 24.3162 18.4739H41.8422C45.069 18.4739 47.6843 21.0892 47.6843 24.3159H18.4741Z" fill="#4A3AFF"/>
</svg>
