<svg width="100" height="100" viewBox="0 0 100 100" fill="none" xmlns="http://www.w3.org/2000/svg">
<path d="M83.6767 43.7482L88.6854 46.7536C89.6717 47.3457 89.9917 48.6253 89.4 49.6119C89.2238 49.9049 88.9783 50.1503 88.6854 50.3265L49.9958 73.5399L11.3067 50.3265C10.3201 49.7344 10.0001 48.4549 10.5921 47.4682C10.7681 47.1749 11.0135 46.9294 11.3067 46.7536L16.3154 43.7482L49.9958 63.9565L83.6767 43.7482ZM83.6767 63.3315L88.6854 66.3369C89.6717 66.929 89.9917 68.2086 89.4 69.1953C89.2238 69.4882 88.9783 69.7336 88.6854 69.9099L52.1396 91.837C50.82 92.6286 49.1717 92.6286 47.8521 91.837L11.3067 69.9099C10.3201 69.3178 10.0001 68.0382 10.5921 67.0515C10.7681 66.7582 11.0135 66.5128 11.3067 66.3369L16.3154 63.3315L49.9958 83.5399L83.6767 63.3315ZM52.1396 5.4512L88.6854 27.3785C89.6717 27.9705 89.9917 29.2502 89.4 30.2368C89.2238 30.5301 88.9783 30.7755 88.6854 30.9514L49.9958 54.1649L11.3067 30.9514C10.3201 30.3595 10.0001 29.0797 10.5921 28.0931C10.7681 27.7999 11.0135 27.5545 11.3067 27.3785L47.8521 5.4512C49.1717 4.65949 50.82 4.65949 52.1396 5.4512Z" fill="white"/>
</svg>
