<svg width="97" height="96" viewBox="0 0 97 96" fill="none" xmlns="http://www.w3.org/2000/svg">
<path d="M9.28259 19.1042C6.66675 24.2381 6.66675 30.9587 6.66675 44.4V51.6C6.66675 65.0413 6.66675 71.7619 9.28259 76.8958C11.5836 81.4117 15.2551 85.0832 19.771 87.3842C24.9049 90 31.6255 90 45.0668 90H52.2667C65.708 90 72.4286 90 77.5625 87.3842C82.0784 85.0832 85.7499 81.4117 88.0509 76.8958C90.6667 71.7619 90.6667 65.0413 90.6667 51.6V44.4C90.6667 30.9587 90.6667 24.2381 88.0509 19.1042C85.7499 14.5883 82.0784 10.9168 77.5625 8.61584C72.4286 6 65.708 6 52.2667 6H45.0667C31.6255 6 24.9049 6 19.771 8.61584C15.2551 10.9168 11.5836 14.5883 9.28259 19.1042Z" fill="url(#paint0_linear_16_8048)"/>
<path d="M7.46242 24.8391C6.66675 29.3609 6.66675 35.3608 6.66675 44.4004V51.6004C6.66675 65.0416 6.66675 71.7622 9.28259 76.8961C11.5836 81.412 15.2551 85.0836 19.771 87.3845C24.9049 90.0004 31.6255 90.0004 45.0668 90.0004H52.2667C65.708 90.0004 72.4286 90.0004 77.5625 87.3845C82.0784 85.0836 85.7499 81.412 88.0509 76.8961C90.6667 71.7622 90.6667 65.0416 90.6667 51.6004V44.4004C90.6667 30.9591 90.6667 24.2385 88.0509 19.1046C85.83 14.7458 82.3322 11.1737 78.0308 8.86133L7.46242 24.8391Z" fill="url(#paint1_linear_16_8048)"/>
<path d="M89.7977 71.5625C89.412 73.5897 88.8551 75.3179 88.0509 76.8961C85.75 81.412 82.0785 85.0835 77.5626 87.3845C72.5823 89.922 66.1089 89.998 53.4555 90.0002H48.8425V80.5107L89.7977 71.5625Z" fill="url(#paint2_linear_16_8048)"/>
<path d="M52.2668 6H45.0668C42.4518 6 40.0912 6 37.9471 6.01926V17.9116L78.023 8.85676C77.8705 8.77486 77.717 8.69455 77.5625 8.61584C74.7124 7.16365 71.3733 6.51764 66.6668 6.23027C62.8954 6 58.2461 6 52.2668 6Z" fill="url(#paint3_linear_16_8048)"/>
<path d="M90.6667 52.1198C90.6664 61.1366 90.6505 67.0801 89.7977 71.5618L75.5538 74.6739V53.4473L90.6667 49.9326V52.1198Z" fill="url(#paint4_linear_16_8048)"/>
<path fill-rule="evenodd" clip-rule="evenodd" d="M45.4895 40.1337C45.4895 38.2057 47.0658 37.4641 49.6766 37.4641C53.4204 37.4641 58.1494 38.6011 61.8932 40.6281V29.0104C57.8046 27.379 53.7652 26.7363 49.6766 26.7363C39.6768 26.7363 33.0266 31.9766 33.0266 40.7269C33.0266 54.3715 51.7456 52.1963 51.7456 58.0792C51.7456 60.3533 49.7751 61.0949 47.0166 61.0949C42.9279 61.0949 37.7063 59.414 33.5685 57.1399V68.9059C38.1497 70.8833 42.7802 71.7238 47.0166 71.7238C57.2627 71.7238 64.3069 66.6318 64.3069 57.7826C64.2577 43.0505 45.4895 45.6706 45.4895 40.1337Z" fill="white"/>
<defs>
<linearGradient id="paint0_linear_16_8048" x1="6.66675" y1="6" x2="34.2567" y2="25.5063" gradientUnits="userSpaceOnUse">
<stop stop-color="#392993"/>
<stop offset="1" stop-color="#4B47B9"/>
</linearGradient>
<linearGradient id="paint1_linear_16_8048" x1="9.82993" y1="25.7238" x2="70.7366" y2="75.9633" gradientUnits="userSpaceOnUse">
<stop stop-color="#594BB9"/>
<stop offset="1" stop-color="#60A8F2"/>
</linearGradient>
<linearGradient id="paint2_linear_16_8048" x1="48.8425" y1="80.8623" x2="90.6668" y2="90.0004" gradientUnits="userSpaceOnUse">
<stop stop-color="#61A2EF"/>
<stop offset="1" stop-color="#58E6FD"/>
</linearGradient>
<linearGradient id="paint3_linear_16_8048" x1="37.9471" y1="11.9749" x2="90.6668" y2="6" gradientUnits="userSpaceOnUse">
<stop stop-color="#534EBE"/>
<stop offset="1" stop-color="#6875E2"/>
</linearGradient>
<linearGradient id="paint4_linear_16_8048" x1="75.5538" y1="53.623" x2="90.6667" y2="71.7234" gradientUnits="userSpaceOnUse">
<stop stop-color="#71A5F3"/>
<stop offset="1" stop-color="#6CC3FA"/>
</linearGradient>
</defs>
</svg>
