<svg width="48" height="48" viewBox="0 0 48 48" fill="none" xmlns="http://www.w3.org/2000/svg">
<path d="M24 48C37.3001 48 48 37.3001 48 24C48 10.6999 37.3001 0 24 0C10.6999 0 0 10.6999 0 24C0 37.3001 10.6999 48 24 48Z" fill="#2775CA"/>
<path d="M30.6001 27.8C30.6001 24.3 28.5001 23.1 24.3001 22.6001C21.3001 22.2 20.7001 21.4001 20.7001 20C20.7001 18.5998 21.7002 17.7 23.7001 17.7C25.5001 17.7 26.5002 18.3 27.0001 19.8C27.1002 20.1 27.4002 20.3 27.7002 20.3H29.3C29.7001 20.3 30.0001 20 30.0001 19.6001V19.5C29.6 17.3 27.8 15.6 25.5001 15.4001V13.0001C25.5001 12.6 25.2001 12.3 24.7002 12.2H23.2002C22.8001 12.2 22.5001 12.5 22.4 13.0001V15.3C19.4 15.7001 17.5002 17.7 17.5002 20.2001C17.5002 23.5001 19.5001 24.8 23.7001 25.3001C26.5002 25.8 27.4002 26.4 27.4002 28.0001C27.4002 29.6002 26 30.7001 24.1002 30.7001C21.5 30.7001 20.6 29.6 20.3 28.1C20.2002 27.7001 19.9002 27.5 19.6002 27.5H17.9C17.5002 27.5 17.2002 27.7999 17.2002 28.2V28.3001C17.6 30.8 19.2001 32.6 22.5001 33.1001V35.5001C22.5001 35.8999 22.8001 36.1999 23.3 36.3H24.8C25.2001 36.3 25.5001 36 25.6002 35.5001V33.1001C28.6002 32.6 30.6001 30.5 30.6001 27.8V27.8Z" fill="white"/>
<path fill-rule="evenodd" clip-rule="evenodd" d="M10.0001 19.0998C7.09992 26.8 11.1 35.5 18.9 38.2998C19.2 38.5 19.5 38.8998 19.5 39.1998V40.6C19.5 40.7999 19.5 40.9 19.3999 40.9998C19.3001 41.3999 18.9 41.5998 18.4999 41.3999C12.9 39.5999 8.59992 35.2998 6.79992 29.6999C3.79992 20.2 9 10.0998 18.4999 7.09984C18.6 7 18.7999 7 18.9 7C19.3001 7.09984 19.5 7.39984 19.5 7.79992V9.19984C19.5 9.7 19.3001 10 18.9 10.1999C14.8001 11.6999 11.5001 14.8998 10.0001 19.0998ZM28.6001 7.49992C28.6999 7.09984 29.1 6.89992 29.5001 7.09984C34.9999 8.89984 39.4001 13.1999 41.2001 18.8999C44.2001 28.3998 39 38.5 29.5001 41.5C29.4 41.5998 29.2001 41.5998 29.1 41.5998C28.6999 41.5 28.5 41.2 28.5 40.7999V39.4C28.5 38.8998 28.6999 38.5998 29.1 38.3999C33.1999 36.8999 36.4999 33.7 37.9999 29.5C40.9001 21.7998 36.9 13.0998 29.1 10.3C28.8 10.0998 28.5 9.7 28.5 9.29992V7.9C28.5 7.69984 28.5 7.6 28.6001 7.49992Z" fill="white"/>
</svg>
