<svg width="48" height="48" viewBox="0 0 48 48" fill="none" xmlns="http://www.w3.org/2000/svg">
<path d="M40.9062 41.0857C38.6723 43.3239 36.0116 45.0891 33.0824 46.2762C30.1532 47.4633 27.0154 48.0481 23.8558 47.9957C20.7144 48.0564 17.5937 47.4749 14.6844 46.2868C11.7751 45.0987 9.13839 43.329 6.93536 41.0857C4.68091 38.8877 2.90226 36.2486 1.71004 33.3327C0.517822 30.4168 -0.0624506 27.2864 0.00532072 24.1362C0.00532072 17.2381 2.31533 11.4917 6.93536 6.89685C9.13989 4.65681 11.7773 2.89033 14.6865 1.70531C17.5958 0.520294 20.7157 -0.0583766 23.8558 0.00464649C27.0141 -0.0500447 30.1512 0.531939 33.0803 1.71597C36.0095 2.90001 38.6709 4.66191 40.9062 6.89685C45.6326 11.4917 47.9957 17.2381 47.9957 24.1362C48.057 27.2999 47.458 30.4416 46.2373 33.3602C45.0165 36.2788 43.2007 38.9101 40.9062 41.0857V41.0857Z" fill="#627EEA"/>
<path d="M23.9999 7.54272L14.3999 23.9021L23.9999 19.4189V7.54272Z" fill="white"/>
<path d="M23.9999 19.4194L14.3999 23.9026L23.9999 29.727V19.4194Z" fill="#C0CCF7"/>
<path d="M24 7.54297V19.4192L33.5908 23.9024L24 7.54297Z" fill="#C0CCF7"/>
<path d="M24 19.4194V29.727L33.5908 23.9026L24 19.4194Z" fill="#8198EE"/>
<path d="M14.3999 25.77L23.9999 39.6651V31.5991L14.3999 25.77Z" fill="white"/>
<path d="M33.6 25.77L24 31.5991V39.6651L33.6 25.77Z" fill="#C0CCF7"/>
</svg>
