<svg width="48" height="48" viewBox="0 0 48 48" fill="none" xmlns="http://www.w3.org/2000/svg">
<rect width="48" height="48" rx="24" fill="#F2F3FF"/>
<g clip-path="url(#clip0_8480_109183)">
<path d="M40 31.9598C40.0014 30.3605 39.2756 28.8261 37.9818 27.6934C36.6881 26.5606 34.9321 25.9221 33.0994 25.918L25.4484 25.918C25.4003 25.2958 25.3699 24.6596 25.3699 24C25.3699 23.3404 25.3396 22.7073 25.2969 22.082L33.0994 22.082C34.9162 22.0566 36.6488 21.4089 37.9233 20.2788C39.1978 19.1486 39.9121 17.6266 39.9121 16.041C39.9121 14.4554 39.1978 12.9334 37.9233 11.8032C36.6488 10.6731 34.9162 10.0254 33.0994 10L14.8132 10C12.9964 10.0254 11.2639 10.6731 9.98936 11.8032C8.71486 12.9334 8.00057 14.4554 8.00057 16.041C8.00057 17.6266 8.71486 19.1486 9.98936 20.2788C11.2639 21.4089 12.9964 22.0566 14.8132 22.082L22 22.25C22.5 22.25 22.5427 23.3404 22.5427 24C22.5427 24.6596 22.573 25.2927 22.6158 25.918L14.8132 25.918C12.9964 25.9434 11.2639 26.5911 9.98936 27.7212C8.71486 28.8514 8.00057 30.3734 8.00057 31.959C8.00057 33.5446 8.71486 35.0666 9.98936 36.1968C11.2639 37.3269 12.9964 37.9746 14.8132 38L33.0994 38C34.9318 37.9959 36.6875 37.3576 37.9812 36.2252C39.2749 35.0928 40.0009 33.5588 40 31.9598ZM37.1727 16.0402C37.1732 16.9841 36.7446 17.8895 35.981 18.5579C35.2173 19.2263 34.181 19.6031 33.0994 19.6056L24.9974 19.6056C24.7039 17.8381 24.1447 16.1121 23.3342 14.4722C22.9768 13.7617 22.5193 13.0928 21.9723 12.4811L33.0994 12.4811C34.1798 12.4836 35.215 12.8595 35.9785 13.5266C36.7419 14.1936 37.1713 15.0975 37.1727 16.0402ZM14.8132 19.6056C13.7296 19.6056 12.6904 19.2299 11.9241 18.5613C11.1579 17.8927 10.7274 16.9858 10.7274 16.0402C10.7274 15.0946 11.1579 14.1878 11.9241 13.5192C12.6904 12.8505 13.7296 12.4749 14.8132 12.4749L16.6475 12.4749C18.268 12.4749 19.8028 13.5949 20.7583 15.4724C21.4124 16.7954 21.8776 18.1835 22.1434 19.6056L14.8132 19.6056ZM10.7399 31.9598C10.7394 31.0159 11.168 30.1105 11.9317 29.4421C12.6953 28.7737 13.7316 28.3969 14.8132 28.3944L22.9153 28.3944C23.2088 30.1619 23.768 31.8879 24.5785 33.5278C24.9358 34.2383 25.3933 34.9072 25.9404 35.5189L14.8132 35.5189C13.7328 35.5164 12.6976 35.1405 11.9342 34.4734C11.1707 33.8064 10.7413 32.9025 10.7399 31.9598ZM27.1651 32.5276C26.511 31.2046 26.0458 29.8165 25.78 28.3944L33.0994 28.3944C34.1831 28.3944 35.2223 28.7701 35.9885 29.4387C36.7548 30.1073 37.1852 31.0142 37.1852 31.9598C37.1852 32.9054 36.7548 33.8122 35.9885 34.4809C35.2223 35.1495 34.1831 35.5251 33.0994 35.5251L31.2651 35.5251C29.6518 35.5251 28.117 34.4051 27.1651 32.5276Z" fill="url(#paint0_linear_8480_109183)"/>
<path opacity="0.8" d="M40 16.0402C40.0014 17.6395 39.2756 19.1739 37.9818 20.3066C36.688 21.4394 34.9321 22.0779 33.0993 22.082L25.4481 22.082C25.4 22.7042 25.3697 23.3404 25.3697 24C25.3697 24.6596 25.3394 25.2927 25.2966 25.918L33.0993 25.918C34.9162 25.9434 36.6487 26.5911 37.9232 27.7212C39.1978 28.8514 39.9121 30.3734 39.9121 31.959C39.9121 33.5446 39.1978 35.0666 37.9232 36.1968C36.6487 37.3269 34.9162 37.9746 33.0993 38L14.8128 38C12.9959 37.9746 11.2633 37.3269 9.98883 36.1968C8.71431 35.0666 8 33.5446 8 31.959C8 30.3734 8.71431 28.8514 9.98883 27.7212C11.2633 26.5911 12.9959 25.9434 14.8128 25.918L21.9997 25.75C22.4997 25.75 22.5424 24.6596 22.5424 24C22.5424 23.3404 22.5727 22.7073 22.6155 22.082L14.8128 22.082C12.9959 22.0566 11.2633 21.4089 9.98883 20.2788C8.71431 19.1486 8 17.6266 8 16.041C8 14.4554 8.71431 12.9334 9.98883 11.8032C11.2633 10.6731 12.9959 10.0254 14.8128 10L33.0993 10C34.9317 10.0041 36.6875 10.6424 37.9812 11.7748C39.2749 12.9072 40.0009 14.4412 40 16.0402ZM37.1727 31.9598C37.1732 31.016 36.7446 30.1105 35.9809 29.4421C35.2173 28.7737 34.1809 28.3969 33.0993 28.3944L24.9971 28.3944C24.7036 30.1619 24.1444 31.8879 23.3339 33.5278C22.9765 34.2383 22.519 34.9072 21.9719 35.5189L33.0993 35.5189C34.1797 35.5164 35.2149 35.1405 35.9784 34.4734C36.7418 33.8064 37.1713 32.9025 37.1727 31.9598ZM14.8128 28.3944C13.7291 28.3944 12.6899 28.7701 11.9236 29.4387C11.1574 30.1073 10.7269 31.0142 10.7269 31.9598C10.7269 32.9054 11.1574 33.8122 11.9236 34.4808C12.6899 35.1495 13.7291 35.5251 14.8128 35.5251L16.6471 35.5251C18.2676 35.5251 19.8024 34.4051 20.7579 32.5276C21.412 31.2046 21.8772 29.8165 22.1431 28.3944L14.8128 28.3944ZM10.7394 16.0402C10.7389 16.9841 11.1675 17.8895 11.9312 18.5579C12.6948 19.2263 13.7311 19.6031 14.8128 19.6056L22.915 19.6056C23.2085 17.8381 23.7677 16.1121 24.5782 14.4722C24.9356 13.7617 25.3931 13.0928 25.9401 12.4811L14.8128 12.4811C13.7324 12.4836 12.6971 12.8595 11.9337 13.5266C11.1702 14.1936 10.7408 15.0975 10.7394 16.0402ZM27.1648 15.4724C26.5107 16.7954 26.0455 18.1835 25.7797 19.6056L33.0993 19.6056C34.183 19.6056 35.2222 19.2299 35.9885 18.5613C36.7547 17.8927 37.1852 16.9858 37.1852 16.0402C37.1852 15.0946 36.7547 14.1878 35.9885 13.5192C35.2222 12.8505 34.183 12.4749 33.0993 12.4749L31.265 12.4749C29.6516 12.4749 28.1168 13.5949 27.1648 15.4724Z" fill="url(#paint1_linear_8480_109183)"/>
</g>
<defs>
<linearGradient id="paint0_linear_8480_109183" x1="10.3846" y1="11.7733" x2="34.529" y2="39.367" gradientUnits="userSpaceOnUse">
<stop stop-color="#8E59FF"/>
<stop offset="1" stop-color="#6888F9"/>
</linearGradient>
<linearGradient id="paint1_linear_8480_109183" x1="10.3841" y1="36.2267" x2="34.5285" y2="8.63261" gradientUnits="userSpaceOnUse">
<stop stop-color="#8E59FF"/>
<stop offset="1" stop-color="#6888F9"/>
</linearGradient>
<clipPath id="clip0_8480_109183">
<rect width="28" height="32" fill="white" transform="translate(40 10) rotate(90)"/>
</clipPath>
</defs>
</svg>
