<svg xmlns="http://www.w3.org/2000/svg" width="402" height="403" fill="none"><path stroke="url(#a)" stroke-linecap="round" stroke-linejoin="round" stroke-opacity=".5" stroke-width="1.5" d="m225.041 368.916-.492 3.932-.424 3.059-.419 2.727-.43 2.499-.455 2.35-.502 2.301-.584 2.383-.855 3.047m4.161-22.298 6.779.69 5.535.408 5.19.238 5.039.078 5.049-.084 5.292-.258 5.873-.464 8.19-.935m-46.947.327 4.673-3.674 3.831-3.188 3.602-3.162 3.506-3.253 3.524-3.455 3.701-3.826 4.122-4.467 5.772-6.592m-32.731 31.617-3.934-3.117-3.269-2.729-3.114-2.732-3.077-2.832-3.135-3.032-3.345-3.382-3.776-3.972-5.372-5.9m29.022 27.696-7.109 1.593-5.86 1.15-5.542.938-5.433.76-5.499.603-5.819.466-6.52.344-9.191.194m46.812 16.25 8.278.56 6.076.104 5.528-.125 5.283-.336 5.25-.554 5.44-.807 5.942-1.136 8.089-1.973m-49.886 4.267-.94 2.744-.718 1.775-.673 1.416-.664 1.15-.681.931-.73.747-.821.582-1.155.411m6.382-9.756-8.097-1.235-5.832-1.259-5.252-1.408-4.984-1.597-4.927-1.834-5.058-2.165-5.44-2.654-7.222-4.098m46.812 16.25 8.971-2.361 6.437-2.066 5.777-2.131 5.455-2.279 5.365-2.505 5.479-2.847 5.869-3.382 7.755-5.054m-51.108 22.625-9.209 1.716-6.795.956-6.224.654-5.991.409-6.004.19-6.277-.034-6.916-.287-9.522-.818m108.046-25.411-1.133-4.372-1.15-3.383-1.269-3.227-1.412-3.24-1.59-3.381-1.855-3.662-2.274-4.152-3.533-5.873m14.216 31.29.503 4.038.143 2.746-.002 2.329-.112 2.053-.21 1.858-.315 1.731-.448 1.678-.781 1.925m1.222-18.358 8.42-1.371 6.125-1.233 5.513-1.301 5.198-1.427 5.095-1.608 5.21-1.868 5.615-2.254 7.501-3.411m-48.677 14.473 7.348-5.644 5.212-4.398 4.65-4.207 4.369-4.234 4.281-4.435 4.377-4.841 4.721-5.561 6.327-8.038m-55.501 10.068-4.146-6.109-3.249-4.622-6.158-8.671-3.161-4.483-3.391-4.853-3.828-5.534-5.424-7.939m29.357 42.211-9.865.952-7.325.652-6.745.544-6.524.455-6.561.376-6.865.32-7.547.293-10.321.329m61.753-3.921 9.634-1.008 6.923-.829 6.22-.859 5.878-.946 5.79-1.087 5.947-1.287 6.438-1.586 8.671-2.466m-55.501 10.068 5.961-7.29 4.357-5.604 3.934-5.289 3.72-5.239 3.655-5.399 3.747-5.803 4.049-6.565 5.428-9.285M36.978 317.084l3.569 4.402 3.091 3.524 3.063 3.236 3.149 3.068 3.34 2.996 3.697 3.056 4.313 3.308 6.365 4.476m-30.587-28.066-.916-2.203-.607-1.927-.437-1.924-.282-1.991-.13-2.128.026-2.37.198-2.782.556-4.133m1.592 19.458-3.984-5.852-3.123-4.913-2.81-4.731-2.6-4.726-2.469-4.877-2.445-5.258-2.565-5.993-3.337-8.619m23.333 44.969-1.402-1.515-.998-1.343m2.4 2.858 3.252 4.804 2.811 3.831 2.782 3.506m21.742 15.925.806-2.537.679-2.155.721-2.168.815-2.27.957-2.457 1.154-2.76 1.446-3.251 2.29-4.833m-8.868 22.431 7.04 4.403 5.413 3.091 5.112 2.686 5.066 2.433 5.224 2.274 5.619 2.208 6.363 2.253 9.014 2.798m-48.85-22.146-.756 1.814-.511.956-.42.608-.342.342-.27.116-.218-.127m2.516-3.709 5.882 6.255.153.162 4.52 4.457 4.22 3.887 4.163 3.555 4.287 3.378 4.61 3.339 5.218 3.472 7.425 4.433M67.565 345.15l-5.867-6.898-4.19-5.292-3.724-5.001L50.315 323l-3.35-5.106-3.366-5.47-3.561-6.151-4.651-8.647m0 0-4.95-4.355-3.293-3.134-2.757-2.829-2.412-2.704-2.182-2.698-2.024-2.79-1.942-3.009-2.182-3.992m21.741 25.511 5.563 4.464 4.347 3.247 4.167 2.912 4.2 2.722 4.404 2.634 4.814 2.649 5.536 2.804.206.094 7.81 3.567m-41.047-25.093.976-4.607.946-3.564 1.047-3.381 1.19-3.369 1.384-3.489 1.647-3.767 2.032-4.287 3.143-6.102m-12.364 32.566-4.352-8.947-2.998-6.677-2.574-6.188-2.3-6.038-2.115-6.142-2.011-6.523-1.996-7.297-2.376-10.237M196.019 341.22l4.985-6.706 3.79-5.078 3.525-4.775 3.427-4.736 3.456-4.902 3.631-5.295 4.021-6.024 5.561-8.616m-32.396 46.132-4.518 6.405-3.067 4.508-2.632 3.965-2.385 3.651-2.259 3.491-2.199 3.465-2.219 3.618-2.672 4.641m21.951-33.744-5.671-6.578-4.214-5.085-3.862-4.821-3.713-4.799-3.71-4.967-3.869-5.362-4.257-6.088-5.826-8.654m35.122 46.354-10.297.255-7.502.084-6.817-.034-6.519-.164-6.495-.312-6.756-.49-7.403-.718-10.128-1.294m39.966 36.417-6.876-4.747-4.914-3.766-4.419-3.647-4.195-3.711-4.157-3.923-4.302-4.322-4.7-5.004-6.403-7.297m39.966 36.417-2.144 4.231-2.564 5.279-1.055 2.125-.999 1.92-.99 1.784-1.036 1.725-1.338 1.972m10.126-19.036-9.588-.204-7.057-.38-6.416-.532-6.119-.7-6.067-.894-6.277-1.137-6.847-1.465-9.281-2.356m-102.77-95.181-1.077-5.036-.493-3.699-.235-3.416-.012-3.34.204-3.419.444-3.655.74-4.125 1.448-5.848m-1.02 32.538-1.525-3.796m1.525 3.796 1.722 5.133m-1.722-5.133-3.086-9.231-2.048-6.932-1.68-6.415-1.414-6.234-1.207-6.301-1.042-6.646-.915-7.391-.875-10.251m213.12 188.256.145-.015 9.263-.954 6.857-1.026 6.226-1.171 5.949-1.359 5.921-1.593 6.138-1.905 6.696-2.352 9.073-3.648m-56.268 14.023 8.192-.819 5.097-.588 5.795-.901 3.536-.59 4.781-.931 2.787-.596 3.883-.901 4.344-1.161 4.801-1.43 5.092-1.659 5.202-1.823m-53.51 11.399-8.277.207-6.07-.166-5.539-.391-5.324-.612-5.331-.85-5.564-1.134-6.109-1.513-8.342-2.511m50.556 6.97-9.416.352-3.96.014-5.809-.071-3.674-.17-4.793-.24-4.993-.44-1.864-.172-4.42-.551-4.925-.765-5.259-.96-5.411-1.113m108.034-7.283 5.13-1.913 4.878-1.945 4.435-1.907 2.024-.927 4.362-2.062 2.865-1.466 4.47-2.339 3.198-1.764m-31.362 14.323.863-.468.864-.749 1.031-1.407m28.604-11.699 4.787-2.767 2.776-1.664 5.051-3.18 5.387-3.646m-18.001 11.257-4.734 2.478-4.861 2.291-5.182 2.184-5.789 2.171-8.038 2.575m46.605-22.956 5.52-3.969 5.142-3.937 4.665-3.826 4.305-3.803 1.281-1.166 4.258-4.046m-25.171 20.747.927-.689.716-.828.559-.99.429-1.188.322-1.452.231-1.83.11-2.898m21.877-10.872 1.076-1.093 4.129-4.202 4.229-4.575 4.148-4.74m-13.582 14.61 4.285-4.376 4.547-4.97 5.984-7.084m-1.234 1.82 3.546-4.282 2.024-2.618m-5.57 6.9 1.234-1.82m4.336-5.08 2.863-3.705 2.424-3.418 2.069-2.928 2.172-3.277 1.64-2.584 1.667-2.69 1.167-2.015 1.377-2.435 1.812-3.396 1.873-3.743 1.817-3.851 1.013-2.161m-21.894 36.203-4.336 5.08m26.23-41.283 1.709-3.853 1.437-3.507 1.068-2.734 1.132-3.135 1.156-3.331 1.221-3.775m-7.723 20.335.903-2.383.835-2.773.892-4.081m5.093-11.098 1.272-4.145 1.252-4.33.623-2.18.958-3.609.635-2.647.567-2.573.687-3.597.482-2.562.749-4.531.624-4.474.439-3.586m-8.288 38.234-1.102 3.009-1.486 3.363-2.505 4.726m13.381-49.332.501-4.449.289-3.845.31-4.343.192-4.974m-1.292 17.611.236-4.017-.094-5.649m1.15-7.945.078-5.614.031-2.424-.044-5.111-.17-4.978-.289-4.74-.412-4.61-.553-4.662-.352-2.593-.813-5.574-.88-5.079-.884-4.471m4.288 49.856-.301 3.339-.849 4.606m-3.138-57.801-.924-4.469-1.344-5.51m2.268 9.979-1.649-6.099m-.619-3.88-.738-2.705-1.481-5.316-1.682-5.417-1.804-5.247-1.914-5.036-2.025-4.842-2.134-4.674-.985-2.138-2.713-5.489-2.61-4.914-3.261-5.716m21.347 51.494.619 3.88m-21.966-55.374-1.356-2.273-3.409-5.366-3.572-5.183-.56-.806m8.897 13.628-3.927-5.756-3.168-4.17-3.099-3.74-3.18-3.512-3.388-3.418-3.757-3.462-4.377-3.696-6.428-4.882m31.324 32.636 1.048 2.646.562 2.11.339 2.049.143 2.088-.046 2.213-.251 2.439-.491 2.826-1.031 4.108m-.273-20.48 4.621 8.403 3.165 6.313 2.713 5.877 2.424 5.756 2.236 5.873 2.132 6.254 2.126 7.019 2.549 9.88m-21.966-55.374-5.02-8-3.877-5.628m0 0-3.686-4.962-1.075-1.37-3.541-4.415-.973-1.134-3.399-3.937-3.677-3.979-3.94-4.016-4.085-3.952m0 0-4.1-3.776-4.032-3.513-1.722-1.44-4.165-3.383-2.349-1.774-4.16-3.115m20.528 17 .689.814.544.963.408 1.144.276 1.383.136 1.729-.104 2.725m-22.477-25.758-2.423-1.7-4.225-2.899-1.963-1.246-4.305-2.705-4.719-2.76-5.04-2.77m22.675 14.08-4.319-2.961-4.675-2.93-5.325-3.053-7.598-3.904m-.758-1.231-5.234-2.716-5.246-2.554-5.098-2.295-1.601-.697-5.405-2.204-2.208-.84m24.792 11.306.382.344.376.887m-25.55-12.536-5.64-2.054-2.051-.688-5.836-1.877-6.309-1.791-6.666-1.665m26.502 8.075 5.556 2.272 5.693 2.592 6.127 3.078 8.174 4.594M245.218 6.17l-6.438-1.398-5.908-1.07-2.792-.439-5.468-.772m20.606 3.678.57.197.457.399.375.597.308.808.235 1.05.143 1.366-.068 2.196M224.612 2.49l-3.273-.382-4.953-.482-2.901-.237-4.694-.257-1.971-.057L202.169 1l-5.05.06-5.264.188m32.757 1.243-5.244-.516-5.246-.296-5.459-.084-5.968.143-8.078.582m-2.762-1.072-5.303.303-5.158.413-4.828.517-4.328.594-3.82.665-2.808.495-4.676.99-3.482.786-5.654 1.417-3.716 1.047m43.773-7.227.761.054.844.284 1.157.734m-46.535 6.155 1.289-.328.009-.003 5.385-1.37 6.094-1.314 5.858-1.036 5.873-.814 6.131-.623 6.727-.448 9.169-.22m-46.535 6.156-9.146 2.764m0 0-7.72 2.928-5.535 2.436-4.955 2.44-4.66 2.559-4.561 2.771-4.637 3.107-4.95 3.636-6.533 5.346m43.551-25.223 1.434-.163 1.143.171 1.115.37 1.145.565 1.228.769 1.379 1.003 1.642 1.3 2.525 2.084m-11.611-6.099-9.153 3.39-3.614 1.43-5.643 2.38-3.282 1.5-4.619 2.134-4.714 2.38-1.54.794-4.048 2.218-4.384 2.567-4.553 2.821-4.542 2.952m0 0-4.365 2.963-1.105.786-4.323 3.087-3.907 2.983-1.983 1.637-3.77 3.118-2.306 2.038-3.687 3.325m25.446-19.937.877-.354 1.005-.156 1.166.054 1.394.3 2.099.813m-31.987 19.28-2.14 2.006-3.669 3.582-1.464 1.514-3.475 3.606-3.48 3.785m14.228-14.493-3.706 3.64-3.936 4.184-5.201 6.063m-1.385.606-3.382 3.828-3.173 3.758-2.88 3.612-.792 1.06-2.824 3.806-2.583 3.772-1.245 1.852M49.17 70.235l.535-.46.85-.146M32.29 91.923l-2.59 4.099-1.11 1.821-2.554 4.362-2.577 4.708m8.831-14.99 2.694-3.93 2.889-3.887 3.23-4.016 3.798-4.405 5.653-6.056M23.46 106.913l-2.549 4.955-2.364 4.914-2.142 4.805-1.944 4.775-1.783 4.848-1.676 5.079-.407 1.296-1.823 6.175-2.277 8.848m16.965-45.695-.431.915-.26.948-.098 1.014.067 1.118.244 1.281.457 1.537.943 2.335M6.495 152.608l-.565 3.457-.12 2.494.105 2.284.32 2.223.542 2.269.805 2.426 1.148 2.735 2.026 3.881m-4.26-21.769 1.589-5.745 1.494-4.309 1.607-3.988 1.777-3.862 2.002-3.877 2.326-4.063 2.812-4.491 4.279-6.212M6.495 152.608l-1.96 9.436-1.205 7.065-.905 6.521m0 0-.72 6.835-.434 6.127-.235 6.377L1 201.706l.19 6.684.188 4.324m1.047-37.084-.664 6.317-.451 6.368-.246 6.698-.032 7.428.346 10.273m0 0 .425 5.987.581 6.262.826 6.534.988 6.24.196 1.184 1.027 5.35 1.22 5.366 1.411 5.404 2.096 7.157 1.972 6.121M1.378 212.714l.19-6.067.455-4.519.651-4.179.862-4.049 1.102-4.075 1.4-4.27 1.804-4.708 2.914-6.47m-9.378 38.337.809 4.324.914 3.209 1.078 2.958 1.275 2.853 1.517 2.853 1.833 2.97 2.285 3.255 3.576 4.441m-2.545 28.742 1.801 4.982 1.446 3.947m0 0 2.08 5.138 1.159 2.73 1.87 4.287 1.986 4.22 2.111 4.142.298.565 1.888 3.411.081.142 2.439 4.128 2.603 4.145 2.696 4.07m0 0 2.708 3.887 1.23 1.683 2.824 3.824 2.776 3.5 1.707 2.105m0 0 2.856 3.315 1.705 1.967 2.986 3.192 1.353 1.442 3.11 3.09 3.459 3.247 3.757 3.381m0 0 3.979 3.464 4.058 3.396 4.004 3.175 3.905 2.892 1.807 1.323 4.358 2.981 2.171 1.456 4.971 3.123m0 0 1.772 1.067 5.43 3.143 5.948 3.176m-13.15-7.386 5.653 3.254 8.088 4.165m-.591-.033 6.027 2.962 5.712 2.567 2.539 1.132m-14.278-6.661.591.033m13.687 6.628 5.443 2.209 3.074 1.211 5.028 1.811 2.747.977 4.805 1.525 1.836.552 4.758 1.331 5.17 1.298 5.383 1.224m-38.244-12.138-5.87-2.649-7.817-3.979m51.931 18.766.594.002.634-.22.705-.46.823-.75 1.212-1.426m222.276-117.706.524-4.501.151-3.455-.054-3.257-.251-3.224-.459-3.32-.698-3.566-1.005-4.033-1.765-5.712m3.557 31.068-3.159 4.913-2.613 3.613-2.603 3.274-2.716 3.099-2.939 3.04-3.303 3.105-3.897 3.34-5.8 4.459m27.03-28.843 3.337-9.251 2.2-6.866 1.815-6.336 1.547-6.153 1.339-6.231 1.179-6.586 1.058-7.336 1.048-10.239m-13.523 58.998-3.79 9.007-3.011 6.447-2.922 5.764-2.975 5.413-3.14 5.287-3.438 5.367-3.939 5.718-5.645 7.517M107.523 189.276l6.775-.773 5.67-.623 5.444-.579 5.417-.555 5.568-.548 5.981-.567 6.795-.62 9.735-.852m-51.385 5.117 1.678-7.402 1.47-6.069 1.47-5.715 1.526-5.57 1.632-5.604 1.819-5.898 2.134-6.571 3.161-9.205m-14.89 52.034-5.634-3.787-4.527-3.091-4.175-2.898-3.981-2.813-3.912-2.818-4.02-2.952-4.373-3.275-5.96-4.563m36.582 26.197-5.072 5.063-4.07 4.164-3.747 3.932-3.564 3.845-3.495 3.883-3.583 4.101-3.89 4.581-5.285 6.441m32.706-36.01 2.592 6.94 2.223 5.72 2.184 5.411 2.224 5.301 2.338 5.364 2.565 5.673 2.971 6.353 4.342 8.953m29.946-54.832-5.777-8.539-4.328-6.054-3.998-5.381-3.863-5.032-3.87-4.906-4.045-4.958-4.461-5.243-6.153-6.804m36.495 46.917 4.315-9.665 3.09-7.094 2.806-6.466 2.703-6.187 2.731-6.163 2.882-6.4 3.211-7.005 4.484-9.561m-26.222 58.541 10.367-.856 7.753-.611 7.147-.54 6.911-.5 6.953-.477 7.296-.477 8.07-.501 11.122-.646m-65.619 4.608-4.596 9.492-3.488 6.845-3.25 6.167-3.162 5.846-3.184 5.772-3.351 5.917-3.723 6.359-5.192 8.434m29.946-54.832 5.537 8.895 3.997 6.612 7.148 11.951 3.537 5.897 3.728 6.174 4.144 6.815 5.769 9.396m-70.355-102.657-6.244-6.271-4.529-4.374-4.067-3.855-3.822-3.584-3.725-3.476-13.162-12.244m35.549 33.804 3.513-9.519 2.708-6.957 2.56-6.286 2.543-5.951 2.625-5.855 2.828-6.01 3.202-6.502 4.533-8.729m-24.512 55.809-9.375 3.195-6.66 2.632-5.918 2.6-5.528 2.665-5.37 2.812-5.419 3.095-5.734 3.589-7.467 5.249m51.471-25.837 9.726-2.594 7.259-1.679 6.719-1.404 6.543-1.24 6.64-1.144 7.029-1.099 7.842-1.108 10.959-1.356m-160.748-9.557 4.87-6.313 3.838-4.603 3.704-4.154 3.76-3.925 3.971-3.848 4.369-3.93 5.054-4.23 7.368-5.65M24.382 116.06l1.408 2.676 1.283 2.109 1.367 2.031 1.512 2.054 1.717 2.159 2.01 2.363 2.446 2.72 3.739 3.926m-15.482-20.038 3.575-8.585 2.792-6.07 2.68-5.372 2.707-4.996 2.84-4.835 3.09-4.855 3.51-5.113 4.979-6.606M24.382 116.06l-3.242 8.965-2.173 6.711-1.813 6.225-1.56 6.077-1.366 6.178-1.219 6.555-1.112 7.33-1.141 10.275M50.555 69.629l6.176-5.965.14-.135 4.892-4.368 4.647-3.872 4.633-3.586 4.805-3.444 5.197-3.444 5.914-3.633 8.426-4.72M50.555 69.63l.986.554.847.689.896.814 1.005.956 1.167 1.123 3.131 3.02 2.73 2.623m271.606 97.332 4.151-4.282 3.273-3.482 2.962-3.254 2.76-3.145 2.647-3.138 2.647-3.276 2.806-3.618 3.697-5.019m-24.943 29.214-2.345-7.095-2.055-5.811-2.057-5.46-2.133-5.313-2.283-5.334-2.545-5.603-2.986-6.232-4.426-8.714m20.83 49.562-5.741-.071-4.862-.036-4.717-.011-4.745.012-4.933.038-5.355.064-6.143.101-.313.006-8.585.177m45.394-.28-1.319 7.079-1.214 5.849-1.262 5.546-1.359 5.448-1.504 5.523-1.725 5.86-2.071 6.578-3.147 9.297m13.601-51.18 4.786 4.459 3.795 3.678 3.454 3.481 3.243 3.416 3.131 3.46 3.16 3.667 3.378 4.109 4.499 5.794m-4.503-61.278-6.501-4.426-5.022-2.966-4.771-2.511-4.759-2.239-4.929-2.077-5.308-1.975-5.999-1.934-8.484-2.22m45.773 20.348 3.497-5.123 2.369-3.704 1.99-3.316 1.73-3.11 1.543-3.03 1.412-3.077 1.347-3.297 1.507-4.368m-15.395 29.025 5.993 4.96 4.128 3.8 3.569 3.556 3.233 3.488 3.035 3.549 2.959 3.762 3.029 4.201 3.784 5.869m-29.73-33.185-2.969-9.725-2.468-7.02-2.454-6.329-2.545-6-2.733-5.927-3.048-6.104-3.565-6.63-5.252-8.965m25.034 56.7 2.248 9.885 1.27 7.307.887 6.708.598 6.474.356 6.499.107 6.787-.186 7.449-.777 10.169m-50.276-81.626 3.975-6.747 5.327-8.87 2.283-3.861 2.156-3.742 2.112-3.783 2.169-4.03 2.717-5.319m-20.739 36.352-.396-.07-8.451-1.52-6.644-.933-6.19-.714-6.074-.567-6.21-.461-6.628-.374-7.454-.299-10.518-.222m58.565 5.16-3.966 7.278-2.905 5.59-2.665 5.275-2.584 5.213-2.62 5.344-2.749 5.706-3.009 6.413-4.066 9.023m24.564-49.842-4.924-8.986-3.797-6.556-3.593-5.912-3.569-5.586-3.689-5.485-3.974-5.616-4.503-6.065-6.381-8.118m-40.782-39.906 2.77-4.634 1.742-3.17 1.393-2.72 1.169-2.433 1.016-2.252.882-2.158.751-2.166.634-2.633m-10.357 22.166-6.479-4.726-4.589-3.118-4.094-2.606-3.867-2.282-3.822-2.077-3.9-1.943-4.121-1.882-4.997-2.068m35.869 20.702 6.766 5.391 4.987 4.235 4.539 4.068 4.331 4.1 4.293 4.297 4.443 4.69 4.848 5.385 6.575 7.74m-40.782-39.906-3.335 5.019-2.631 3.885-2.504 3.72-2.485 3.757-2.553 3.957-2.731 4.345-3.075 5.02-4.341 7.31m23.655-37.013 9.616.359 6.929.42 6.245.531 5.924.67 5.858.85 6.045 1.08 6.576 1.398.593.151 8.319 2.128m-56.105-7.587-9.824-.137-7.281.03-6.693.135-6.461.248-6.484.375-6.771.513-7.433.68-10.147 1.102m71.451-25.112-8.189-.709-5.844-.28-5.242-.078-4.978.104-4.945.28-5.07.464-5.388.662-6.57 1.02m46.226-1.463.095.043 7.796 3.598 5.653 2.946 5.085 2.9 4.819 2.997 4.764 3.22 4.916 3.595 5.354 4.217 7.266 6.237m-45.748-29.753 8.482 1.176 6.206 1.114 5.613 1.215 5.324 1.363 5.251 1.567 5.403 1.849 5.861 2.257 7.892 3.457m-50.032-13.998-8.049-2.99-.156-.058-6.148-1.913-5.698-1.507-5.541-1.217-5.596-.991-5.89-.792-6.522-.606-9.021-.388m6.395 11.926-.918-2.523-.75-1.888-.705-1.613-.685-1.4-.688-1.227-.723-1.105-.804-1.036-1.122-1.134m6.395 11.926-7.143-.376-5.865-.133-5.525.036-5.394.205-5.436.386-5.73.595-6.395.858-8.977 1.521m50.465-3.092-3.505 2.47-2.894 2.214-2.74 2.26-2.686 2.388-2.721 2.6-2.88 2.945-3.233 3.5-4.566 5.27m101.876 36.96 3.265-6.298 2.199-4.39 1.863-3.839 1.66-3.512 1.541-3.33 1.484-3.278 1.495-3.388 1.816-4.283m-15.323 32.319-3.537 6.755-2.682 5.2-2.513 4.933-15.403 30.276m24.135-47.164 9.792 1.675 7.014 1.47 6.276 1.521 5.897 1.627 5.764 1.779 5.863 2.013 6.271 2.372 8.292 3.515m-55.169-15.972-10.078-1.267-7.52-.757-6.961-.561-6.771-.398-6.85-.247-7.219-.097-7.997.065-11.041.369m79.76-29.426 1.454-3.78.889-2.479.679-2.046.528-1.753.4-1.543.276-1.398.139-1.316-.081-1.44m-4.284 15.755 7.157 6.896 5.139 5.345 4.593 5.074 4.301 5.053 4.183 5.224 4.22 5.6 4.465 6.295 5.788 8.804m-39.846-48.291 8.78 2.79 6.294 2.29 5.617 2.267 5.252 2.35 5.102 2.519 5.144 2.79 5.437 3.218 7.052 4.627m-8.832 25.44 2.375-5.035 1.536-3.505 1.238-3.05 1.021-2.78.849-2.626.709-2.569.593-2.626.511-3.249m-8.832 25.44 7.839 3.898 5.462 3.013 4.767 2.863 4.367 2.858 4.158 2.967 4.113 3.212 4.276 3.654 5.447 5.21m-75.991-91.72 7.907 5.155 5.664 4.065 5.068 3.924 4.757 3.973 4.64 4.178 4.706 4.565 5.025 5.232 6.627 7.513m0 0 6.233 7.967 4.326 6.027 3.761 5.637 3.425 5.543 3.238 5.674 3.181 6.045 3.286 6.764 4.147 9.458m0 0 4.871 5.439 3.255 4.046 2.735 3.738 2.399 3.641 2.172 3.704 2.026 3.92 1.969 4.362 2.266 6.045m-21.693-34.895 3.611 9.739 2.346 7.258 1.915 6.712 1.618 6.528 1.401 6.609 1.233 6.967 1.108 7.724 1.103 10.673m7.358-27.315.049 4.118-.262 3.122-.463 2.922-.666 2.874-.888 2.936-1.155 3.114-1.512 3.461-2.461 4.768m7.358-27.315 2.034 10.265 1.205 7.639.879 7.03.623 6.787.397 6.81.18 7.095-.052 7.763-.479 10.511M194.617 2.32l-7.815 1.171-5.583 1.17-4.995 1.302-4.708 1.475-4.623 1.696-4.711 2-5.028 2.445-6.607 3.76m0 0-6.191 4.328-4.38 3.44-3.909 3.348-3.679 3.425-3.617 3.645-3.712 4.04-4.02 4.705-.12.154-5.3 6.756m34.928-33.842 3.1 2.47 2.557 2.02 2.529 2.005 2.594 2.09 2.743 2.257 6.547 5.448 5.17 4.266m-25.24-20.556-9.311 2.026-6.822 1.738-6.18 1.782-5.868 1.906-5.793 2.106-5.967 2.407-6.481 2.87-8.74 4.29m80.402 1.43-4.775 5.97-3.524 4.665-3.209 4.464-3.064 4.484-3.039 4.68-3.147 5.094-3.438 5.829-4.666 8.354m28.862-43.54 5.678 4.597 4.322 3.557 4.032 3.41 3.939 3.449 3.994 3.64 4.221 4.008 4.701 4.638 6.552 6.769m-37.439-34.067-10.107 1.313-7.346 1.114-6.659 1.158-6.35 1.27-6.307 1.445-6.535 1.699-7.14 2.078-9.724 3.209M95.385 36.462l-6.234 5.895-4.435 4.602-3.945 4.41-3.675 4.435-3.55 4.634-3.565 5.034-3.766 5.74-4.899 8.196m34.069-42.946 2.45 1.342 2.017 1.225 2.005 1.302 2.077 1.439 2.217 1.636 2.457 1.913 2.852 2.322 4.159 3.539M61.316 79.408l3.224 3.107 2.606 2.502 2.557 2.438 2.63 2.486 2.8 2.622 3.087 2.87 8.644 8.005m-25.548-24.03 8.001-5.447 6.133-3.839 5.776-3.368 5.704-3.085 5.85-2.927 6.231-2.877 6.955-2.965 9.653-3.72M61.316 79.408 56.8 88.034l-3.076 6.495-2.63 6.051-2.345 5.927-2.167 6.046-2.078 6.416-2.093 7.157-2.547 9.973m75.755-84.92 4.518 4.011 3.462 3.173 3.267 3.072 3.239 3.119 3.343 3.29 3.6 3.596 4.081 4.107 5.796 5.886M115.619 51.18l-5.28 7.572-3.765 5.837-3.345 5.522-3.114 5.48-3.01 5.642-3.017 6.03-3.166 6.758-4.058 9.417m60.061-22.005.089.094 5.919 6.221 4.459 4.868 4.11 4.622 3.994 4.6 4.048 4.753 4.275 5.11 4.746 5.769 6.565 8.148m-38.205-44.185-10.445 2.71-7.525 2.22-6.769 2.196-6.397 2.267-6.292 2.413-6.443 2.663-6.94 3.076-9.25 4.46m60.061-22.005 10.637-2.319 7.868-1.535 7.229-1.277 6.985-1.09 7.025-.943 7.356-.828 8.101-.742 11.1-.738M86.864 103.438l-8.845 4.81-6.22 3.662-5.476 3.437-5.061 3.391-4.864 3.486-4.86 3.732-5.097 4.209-6.578 5.934m47-32.661-3.603 9.538-2.404 7.029-2.02 6.453-1.774 6.244-1.61 6.305-1.5 6.629-1.438 7.331-1.572 10.112m-31.078-26.98 4.214 4.137 3.3 3.103 3.17 2.882 3.208 2.823 3.377 2.884 3.683 3.061 4.197 3.405 5.929 4.685m-31.078-26.98-6.025 6.112-4.123 4.514-3.543 4.143-3.184 4.009-2.963 4.05-2.858 4.261-2.885 4.708-3.527 6.481m29.108-38.278-2.034 10.207-1.195 7.575-.869 6.98-.622 6.766-.415 6.825-.218 7.172-.006 7.923.38 10.905m36.057-37.373-6.94 5.741-4.826 4.35-4.222 4.044-3.876 3.937-3.702 3.982-3.681 4.197-3.851 4.658-4.96 6.464m36.058-37.373-.838 10.199-.237 7.498.054 6.855.295 6.587.525 6.585.799 6.849 1.169 7.482 2.108 10.152m110.313-99.668 4.592-9.52 3.392-6.869 3.107-6.158 2.99-5.782 2.992-5.64 3.108-5.708 3.38-6.063 4.535-7.917m-28.096 53.657 11.268-1.111 8.322-.689 7.609-.536 7.298-.426 7.268-.34 7.52-.26 8.163-.179 10.95-.059m-68.398 3.6 6.583 8.463 4.812 6.307 4.377 5.825 4.189 5.658 4.171 5.722 4.311 6.029 4.672 6.685 6.282 9.244m-11.301-107.59 6.72 7.349 4.952 5.638 4.514 5.314 4.31 5.258 4.272 5.399 4.402 5.755 4.762 6.427 6.37 8.917m0 0-17.277 34.11-3.255 6.434-3.577 7.131-4.892 9.858m29.001-57.533 6.102 8.967 4.312 6.575 3.825 6.012 3.576 5.795 3.494 5.82 3.571 6.083 9.121 15.75m0 0-9.611.255-7.265.223-6.758.232-6.598.25-6.701.279-7.1.322-7.926.388-11.043.582m63.002-2.531-3.955 9.367-2.908 6.961-2.698 6.404-2.657 6.19-2.742 6.224-2.958 6.53-3.362 7.219-4.806 9.975m26.086-58.87 5.334 8.877 3.921 6.383 3.566 5.736 6.737 10.785 3.44 5.48 3.736 5.874 5.059 7.765m-94.795-48.369-4.977 9.946-3.727 7.284-3.459 6.643-3.361 6.372-3.387 6.368-3.55 6.626-3.917 7.25-5.381 9.859m31.759-60.348 14.871 22.342 3.938 5.948 3.897 5.941 4.015 6.177 4.349 6.755 5.846 9.176m100.926-27.086 4.33 6.049 2.977 4.453 2.541 4.049 2.252 3.864 2.057 3.833 1.94 3.969 1.919 4.332 2.276 5.873m-20.292-36.422 5.317-4.396 3.609-3.331 3.084-3.083 2.756-2.985 2.554-2.995 2.45-3.13 2.462-3.444 2.995-4.729m-25.227 28.093-5.9 3.968-4.623 2.688-4.434 2.304-4.458 2.083-4.651 1.97-5.045 1.912-5.742 1.915-8.194 2.276m43.047-19.116-1.517 10.124-1.419 7.377-1.506 6.707-1.645 6.418-1.843 6.401-2.13 6.662-2.566 7.311-3.902 10.015m41.755-89.108 3.269 6.053 2.105 4.467 1.694 4.079 1.401 3.904 1.173 3.88.983 4.01.822 4.35.698 5.842m-12.145-36.585.493 10.742.053 7.85-.184 7.14-.403 6.829-.629 6.801-.896 7.052-1.242 7.686-2.127 10.415m-63.339-17.306-.227.046-8.414 1.711-6.525 1.116-6.099.929-5.999.826-6.15.776-6.576.763-7.411.791-10.478 1.012m57.879-7.97.179.262 8.394 12.328 3.145 4.676 2.894 4.412 2.755 4.347 2.723 4.472 2.829 4.851 3.6 6.551m-26.519-41.899-3.599 9.73-2.831 7.179-2.72 6.54-2.745 6.249-2.878 6.206-3.142 6.431-3.606 7.027-5.178 9.543m90.038-41.599 4.149-4.555 2.718-3.334 2.242-3.038 1.917-2.926 1.682-2.942 1.509-3.085 1.393-3.397 1.47-4.653m-17.08 27.93-4.759 4.448-3.793 3.154-3.693 2.797-3.77 2.615-3.995 2.552-4.396 2.595-5.073 2.774-7.341 3.658m36.82-24.593-2.704 10.273-2.252 7.436-2.257 6.715-2.369 6.371-2.575 6.289-2.897 6.465-3.404 6.991-5.015 9.371M10.756 174.377l2.678 4.053 2.285 3.043 2.318 2.824 2.452 2.755 2.673 2.794 3.009 2.94 3.53 3.242 5.183 4.424m-24.128-26.075-.598 10.611-.148 7.866.087 7.213.303 6.94.527 6.936.777 7.203 1.09 7.849 1.87 10.582m0 0 2.074-6.117 1.83-4.587 1.897-4.253 2.04-4.139 2.254-4.187 2.568-4.398 3.042-4.842 4.515-6.602m-20.22 39.125 4.19 4.412 3.372 3.183 3.297 2.861 3.383 2.7 3.6 2.653 3.976 2.726 4.597 2.958 6.672 3.99m-12.867-64.608 5.618 4.327 4.329 3.119 4.113 2.81 4.115 2.664 4.287 2.631 4.644 2.69 5.283 2.872 7.544 3.721m-39.933-24.834.948 10.909.972 7.939 1.092 7.193 1.25 6.853 1.452 6.801 1.726 7.021 2.13 7.621 3.297 10.271m27.066-39.774-5.235 6.692-3.694 4.909-3.23 4.448-2.95 4.23-2.787 4.18-2.741 4.309-2.836 4.684-3.593 6.322m27.066-39.774 8.017 3.22 6.108 2.103 5.74 1.744 5.662 1.522 5.804 1.385 6.187 1.28 6.93 1.197 9.697 1.254m-54.144-13.705 2.832 10.018 2.357 7.263 2.332 6.575 2.407 6.267 2.566 6.227 2.844 6.455 3.305 7.054 4.838 9.615m-50.548-19.7 7.21 3.807 5.55 2.646 5.26 2.303 5.243 2.113 5.43 2.022 5.852 2.012 6.624 2.104 9.38 2.693m-50.549-19.7 3.791 10.056 2.99 7.243 2.89 6.511 2.935 6.149 3.104 6.04 3.408 6.175 3.92 6.643 5.644 8.842m0 0 2.725-5.381 2.212-4.185 2.177-3.982 2.248-3.97 2.401-4.105 2.653-4.409 3.057-4.963 4.393-6.964m-21.866 37.959 8.634 3.411 6.584 2.334 6.172 1.993 6.072 1.765 6.201 1.609 6.578 1.51 7.317 1.481 10.111 1.725m-57.669-15.828 5.988 8.437 4.537 5.924 4.248 5.206 4.185 4.803 4.288 4.606 4.564 4.593 5.088 4.812 7.085 6.196m12.546-128.305 4.746 9.332 3.616 6.863 3.387 6.236 3.33 5.937 3.408 5.879 3.636 6.073 4.084 6.611 5.728 8.944m-31.935-55.875 9.977.685 7.419.309 6.85.18 6.66.091 6.745.026 7.13-.034 7.943-.103 11.082-.246m-63.806-.908-5.349 8.041-3.902 5.723-3.513 5.12-3.305 4.83-3.222 4.753-3.268 4.883-3.49 5.289-4.614 7.13m94.469-44.861-5.403 9.681-3.924 6.954-3.546 6.233-3.368 5.873-3.334 5.76-3.445 5.872-3.758 6.281-5.093 8.313m31.871-54.967 5.89 9.491 4.338 6.918 3.962 6.253 3.801 5.924 3.791 5.828 3.923 5.953 4.254 6.384 5.688 8.438m-35.647-55.189 11.365-.411 8.382-.372 7.654-.385 7.331-.41 7.294-.444 7.537-.502 8.171-.595 10.941-.89m-100.546 58.976 10.918.581 8.058.312 7.389.201 7.125.095 7.148-.012 7.467-.131 8.203-.264 11.21-.56m-67.518-.222-10.767-.888-7.787-.852-7.026-.928-6.66-1.024-6.571-1.146-6.747-1.317-7.288-1.578-9.752-2.373m62.598 10.106-4.938 7.967-3.478 5.665-3.07 5.038-2.855 4.698-2.772 4.55-2.804 4.58-2.978 4.852-3.9 6.331m94.313-43.459 5.649-9.129 4.13-6.886 3.741-6.409 3.546-6.258 3.488-6.348 3.566-6.684 3.83-7.381 5.078-10.103m-33.028 59.198 11.108-.807 8.02-.729 7.222-.769 6.834-.841 6.735-.942 6.905-1.073 7.443-1.256 9.941-1.846m-31.18-50.935 5.685 8.996 4.035 6.455 3.577 5.783 3.329 5.446 3.227 5.338 11.327 18.917m0 0 4.261 7.351 2.902 5.232 2.485 4.659 2.236 4.346 2.094 4.211 2.036 4.243 2.075 4.495 2.561 5.869m-20.65-40.406 9.603-2.12 6.842-1.734 6.092-1.714 5.701-1.763 5.545-1.866 5.613-2.05 5.976-2.357 7.846-3.402m-32.568 57.412 2.134 5.464 1.345 3.751 1.066 3.232.868 2.916.712 2.73.571 2.66.43 2.726.266 3.406m-7.392-26.885 6.121-8.64 4.334-6.577 3.828-6.158 3.539-6.05 3.396-6.171 3.375-6.537 3.515-7.261 4.46-10.018m-32.568 57.412 8.471-2.875 6.031-2.301 5.349-2.24 4.972-2.287 4.795-2.421 4.799-2.649 5.034-3.025 6.464-4.296M98.299 284.76l5.291 9.546 4.059 6.882 3.82 6.168 3.768 5.796 3.857 5.653 4.099 5.727 4.571 6.081 6.338 7.934m0 0-3.598 5.877-2.477 4.032-2.139 3.467-1.939 3.123-1.823 2.921-1.765 2.837-1.779 2.894-2.166 3.598m0 0-1.881 3.043-1.271 1.916-1.082 1.516-.95 1.234-.847 1.019-.777.84-.739.684-.826.54m8.373-10.792 7.322 5.643 5.498 3.838 5.114 3.278 4.994 2.928 5.068 2.707 5.354 2.591 5.944 2.593 8.028 3.048.204.078m181.899-124.181 3.229 6.42 2.138 4.586 1.768 4.082 1.513 3.813 1.319 3.699 1.176 3.723 1.078 3.926 1.126 5.069m0 0 .64 4.583.219 3.102.017 2.648-.155 2.373-.317 2.207-.481 2.122-.667 2.124-1.086 2.518m1.83-21.677-5.478 9.031-4.227 6.391-4.011 5.657-4.003 5.257-4.154 5.085-4.474 5.113-5.048 5.404-7.128 7.041m36.693-27.302-4.947 5.095-3.886 3.635-3.734 3.211-3.767 2.961-3.949 2.83-4.315 2.815-4.957 2.951-7.138 3.804m0 0-7.482 6.54-5.666 4.524-5.306 3.925-5.219 3.569-5.335 3.366-5.679 3.293-6.349 3.382-8.863 4.232M163.942 394l-9.605-1.423-6.995-1.341-6.323-1.441-5.994-1.592-5.899-1.798-6.033-2.082-6.477-2.494-8.573-3.741"/><g filter="url(#b)"><circle cx="277.5" cy="75" r="7" fill="#8566FF"/></g><circle cx="277.5" cy="75" r="4.5" fill="#fff" fill-opacity=".32"/><circle cx="277.5" cy="75" r="3" fill="#fff" fill-opacity=".4"/><g filter="url(#c)"><circle cx="122.5" cy="137.5" r="7" fill="#8566FF"/></g><circle cx="122.5" cy="137.5" r="4.5" fill="#fff" fill-opacity=".32"/><circle cx="122.5" cy="137.5" r="3" fill="#fff" fill-opacity=".4"/><path stroke="url(#d)" stroke-width="1.5" d="M390.5 138C360 99 327.5 83.5 277 74.5"/><path stroke="url(#e)" stroke-width="1.5" d="M4 252.5c16.5-48 68-103 118.5-115"/><g filter="url(#f)"><circle cx="287.5" cy="177" r="7" fill="#8566FF"/></g><circle cx="287.5" cy="177" r="4.5" fill="#fff" fill-opacity=".32"/><circle cx="287.5" cy="177" r="3" fill="#fff" fill-opacity=".4"/><g filter="url(#g)"><circle cx="175" cy="38" r="7" fill="#8566FF"/></g><circle cx="175" cy="38" r="4.5" fill="#fff" fill-opacity=".32"/><circle cx="175" cy="38" r="3" fill="#fff" fill-opacity=".4"/><path stroke="url(#h)" stroke-width="1.5" d="M287.5 177C257 122 221 72.5 175 37.5"/><defs><filter id="b" width="26" height="26" x="264.5" y="62" color-interpolation-filters="sRGB" filterUnits="userSpaceOnUse"><feFlood flood-opacity="0" result="BackgroundImageFix"/><feBlend in="SourceGraphic" in2="BackgroundImageFix" result="shape"/><feGaussianBlur result="effect1_foregroundBlur_8397_6620" stdDeviation="3"/></filter><filter id="c" width="26" height="26" x="109.5" y="124.5" color-interpolation-filters="sRGB" filterUnits="userSpaceOnUse"><feFlood flood-opacity="0" result="BackgroundImageFix"/><feBlend in="SourceGraphic" in2="BackgroundImageFix" result="shape"/><feGaussianBlur result="effect1_foregroundBlur_8397_6620" stdDeviation="3"/></filter><filter id="f" width="26" height="26" x="274.5" y="164" color-interpolation-filters="sRGB" filterUnits="userSpaceOnUse"><feFlood flood-opacity="0" result="BackgroundImageFix"/><feBlend in="SourceGraphic" in2="BackgroundImageFix" result="shape"/><feGaussianBlur result="effect1_foregroundBlur_8397_6620" stdDeviation="3"/></filter><filter id="g" width="26" height="26" x="162" y="25" color-interpolation-filters="sRGB" filterUnits="userSpaceOnUse"><feFlood flood-opacity="0" result="BackgroundImageFix"/><feBlend in="SourceGraphic" in2="BackgroundImageFix" result="shape"/><feGaussianBlur result="effect1_foregroundBlur_8397_6620" stdDeviation="3"/></filter><linearGradient id="d" x1="492.5" x2="279" y1="270" y2="75.965" gradientUnits="userSpaceOnUse"><stop offset=".305" stop-color="#BAB3FF" stop-opacity="0"/><stop offset=".639" stop-color="#BAB3FF" stop-opacity="0"/><stop offset=".97" stop-color="#BAB3FF"/><stop offset="1" stop-color="#BAB3FF" stop-opacity="0"/></linearGradient><linearGradient id="e" x1="-89.001" x2="124.499" y1="332.5" y2="138.464" gradientUnits="userSpaceOnUse"><stop offset=".305" stop-color="#BAB3FF" stop-opacity="0"/><stop offset=".639" stop-color="#BAB3FF" stop-opacity="0"/><stop offset=".97" stop-color="#BAB3FF"/><stop offset="1" stop-color="#BAB3FF" stop-opacity="0"/></linearGradient><linearGradient id="h" x1="288" x2="175" y1="177" y2="38" gradientUnits="userSpaceOnUse"><stop offset=".022" stop-color="#BAB3FF" stop-opacity="0"/><stop offset=".502" stop-color="#BAB3FF"/><stop offset="1" stop-color="#BAB3FF" stop-opacity="0"/></linearGradient><radialGradient id="a" cx="0" cy="0" r="1" gradientTransform="matrix(0 329.5 -329.224 0 201 28)" gradientUnits="userSpaceOnUse"><stop stop-color="#CB8FFF"/><stop offset=".772" stop-color="#7096FF" stop-opacity="0"/></radialGradient></defs></svg>