<?xml version="1.0" encoding="UTF-8"?>
<svg xmlns="http://www.w3.org/2000/svg" xmlns:xlink="http://www.w3.org/1999/xlink" width="38px" height="38px" viewBox="0 0 38 38" version="1.1">
<defs>
<clipPath id="clip1">
  <path d="M 19 0 C 29.492188 0 38 8.507812 38 19 C 38 29.492188 29.492188 38 19 38 C 8.507812 38 0 29.492188 0 19 C 0 8.507812 8.507812 0 19 0 Z M 19 0 "/>
</clipPath>
<filter id="alpha" filterUnits="objectBoundingBox" x="0%" y="0%" width="100%" height="100%">
  <feColorMatrix type="matrix" in="SourceGraphic" values="0 0 0 0 1 0 0 0 0 1 0 0 0 0 1 0 0 0 1 0"/>
</filter>
<mask id="mask0">
  <g filter="url(#alpha)">
<rect x="0" y="0" width="38" height="38" style="fill:rgb(0%,0%,0%);fill-opacity:0.6;stroke:none;"/>
  </g>
</mask>
<clipPath id="clip2">
  <rect x="0" y="0" width="38" height="38"/>
</clipPath>
<g id="surface5" clip-path="url(#clip2)">
<path style=" stroke:none;fill-rule:nonzero;fill:rgb(100%,100%,100%);fill-opacity:1;" d="M 26.015625 17.074219 L 26.207031 17.367188 C 28.363281 20.679688 27.882812 25.015625 25.046875 27.796875 C 23.378906 29.429688 21.191406 30.25 19.003906 30.25 C 19.003906 30.25 19.003906 30.25 26.015625 17.074219 Z M 26.015625 17.074219 "/>
</g>
<mask id="mask1">
  <g filter="url(#alpha)">
<rect x="0" y="0" width="38" height="38" style="fill:rgb(0%,0%,0%);fill-opacity:0.2;stroke:none;"/>
  </g>
</mask>
<clipPath id="clip3">
  <rect x="0" y="0" width="38" height="38"/>
</clipPath>
<g id="surface8" clip-path="url(#clip3)">
<path style=" stroke:none;fill-rule:nonzero;fill:rgb(100%,100%,100%);fill-opacity:1;" d="M 19.003906 21.078125 L 26.011719 17.074219 C 19.003906 30.25 19.003906 30.25 19.003906 30.25 C 19.003906 27.378906 19.003906 24.089844 19.003906 21.078125 Z M 19.003906 21.078125 "/>
</g>
<clipPath id="clip4">
  <path d="M 10 17 L 19 17 L 19 31 L 10 31 Z M 10 17 "/>
</clipPath>
<clipPath id="clip5">
  <path d="M 19 0 C 29.492188 0 38 8.507812 38 19 C 38 29.492188 29.492188 38 19 38 C 8.507812 38 0 29.492188 0 19 C 0 8.507812 8.507812 0 19 0 Z M 19 0 "/>
</clipPath>
<clipPath id="clip6">
  <path d="M 19 0 C 29.492188 0 38 8.507812 38 19 C 38 29.492188 29.492188 38 19 38 C 8.507812 38 0 29.492188 0 19 C 0 8.507812 8.507812 0 19 0 Z M 19 0 "/>
</clipPath>
<mask id="mask2">
  <g filter="url(#alpha)">
<rect x="0" y="0" width="38" height="38" style="fill:rgb(0%,0%,0%);fill-opacity:0.6;stroke:none;"/>
  </g>
</mask>
<clipPath id="clip7">
  <rect x="0" y="0" width="38" height="38"/>
</clipPath>
<g id="surface11" clip-path="url(#clip7)">
<path style=" stroke:none;fill-rule:nonzero;fill:rgb(100%,100%,100%);fill-opacity:1;" d="M 18.992188 21.078125 L 11.984375 17.074219 C 18.996094 30.25 18.992188 30.25 18.992188 30.25 C 18.992188 27.378906 18.992188 24.089844 18.992188 21.078125 Z M 18.992188 21.078125 "/>
</g>
<mask id="mask3">
  <g filter="url(#alpha)">
<rect x="0" y="0" width="38" height="38" style="fill:rgb(0%,0%,0%);fill-opacity:0.2;stroke:none;"/>
  </g>
</mask>
<clipPath id="clip8">
  <rect x="0" y="0" width="38" height="38"/>
</clipPath>
<g id="surface14" clip-path="url(#clip8)">
<path style=" stroke:none;fill-rule:nonzero;fill:rgb(100%,100%,100%);fill-opacity:1;" d="M 19.003906 12.132812 L 19.003906 19.039062 L 25.042969 15.585938 Z M 19.003906 12.132812 "/>
</g>
<mask id="mask4">
  <g filter="url(#alpha)">
<rect x="0" y="0" width="38" height="38" style="fill:rgb(0%,0%,0%);fill-opacity:0.6;stroke:none;"/>
  </g>
</mask>
<clipPath id="clip9">
  <rect x="0" y="0" width="38" height="38"/>
</clipPath>
<g id="surface17" clip-path="url(#clip9)">
<path style=" stroke:none;fill-rule:nonzero;fill:rgb(100%,100%,100%);fill-opacity:1;" d="M 19.003906 12.132812 L 12.960938 15.585938 L 19.003906 19.039062 Z M 19.003906 12.132812 "/>
</g>
<clipPath id="clip10">
  <path d="M 12 6 L 20 6 L 20 16 L 12 16 Z M 12 6 "/>
</clipPath>
<clipPath id="clip11">
  <path d="M 19 0 C 29.492188 0 38 8.507812 38 19 C 38 29.492188 29.492188 38 19 38 C 8.507812 38 0 29.492188 0 19 C 0 8.507812 8.507812 0 19 0 Z M 19 0 "/>
</clipPath>
<clipPath id="clip12">
  <path d="M 19 0 C 29.492188 0 38 8.507812 38 19 C 38 29.492188 29.492188 38 19 38 C 8.507812 38 0 29.492188 0 19 C 0 8.507812 8.507812 0 19 0 Z M 19 0 "/>
</clipPath>
<mask id="mask5">
  <g filter="url(#alpha)">
<rect x="0" y="0" width="38" height="38" style="fill:rgb(0%,0%,0%);fill-opacity:0.6;stroke:none;"/>
  </g>
</mask>
<clipPath id="clip13">
  <rect x="0" y="0" width="38" height="38"/>
</clipPath>
<g id="surface20" clip-path="url(#clip13)">
<path style=" stroke:none;fill-rule:nonzero;fill:rgb(100%,100%,100%);fill-opacity:1;" d="M 19.003906 12.125 L 25.050781 15.589844 L 19.003906 6.316406 Z M 19.003906 12.125 "/>
</g>
</defs>
<g id="surface1">
<g clip-path="url(#clip1)" clip-rule="nonzero">
<path style=" stroke:none;fill-rule:nonzero;fill:rgb(0%,63.921569%,100%);fill-opacity:1;" d="M 19 0 C 29.492188 0 38 8.507812 38 19 C 38 29.492188 29.492188 38 19 38 C 8.507812 38 0 29.492188 0 19 C 0 8.507812 8.507812 0 19 0 Z M 19 0 "/>
<use xlink:href="#surface5" mask="url(#mask0)"/>
<use xlink:href="#surface8" mask="url(#mask1)"/>
</g>
<g clip-path="url(#clip4)" clip-rule="nonzero">
<g clip-path="url(#clip5)" clip-rule="nonzero">
<path style=" stroke:none;fill-rule:nonzero;fill:rgb(100%,100%,100%);fill-opacity:1;" d="M 11.984375 17.074219 L 11.792969 17.367188 C 9.636719 20.679688 10.117188 25.015625 12.953125 27.796875 C 14.621094 29.429688 16.808594 30.25 18.996094 30.25 C 18.996094 30.25 18.996094 30.25 11.984375 17.074219 Z M 11.984375 17.074219 "/>
</g>
</g>
<g clip-path="url(#clip6)" clip-rule="nonzero">
<use xlink:href="#surface11" mask="url(#mask2)"/>
<use xlink:href="#surface14" mask="url(#mask3)"/>
<use xlink:href="#surface17" mask="url(#mask4)"/>
</g>
<g clip-path="url(#clip10)" clip-rule="nonzero">
<g clip-path="url(#clip11)" clip-rule="nonzero">
<path style=" stroke:none;fill-rule:nonzero;fill:rgb(100%,100%,100%);fill-opacity:1;" d="M 19.003906 6.324219 L 12.960938 15.589844 L 19.003906 12.125 Z M 19.003906 6.324219 "/>
</g>
</g>
<g clip-path="url(#clip12)" clip-rule="nonzero">
<use xlink:href="#surface20" mask="url(#mask5)"/>
</g>
</g>
</svg>
