<svg width="96" height="96" viewBox="0 0 96 96" fill="none" xmlns="http://www.w3.org/2000/svg">
<path d="M56.8653 56.8862C51.1665 59.0307 44.7803 59.0346 39.0812 56.8875C36.9341 51.1947 36.9335 44.8099 39.078 39.1162C44.7755 36.9681 51.168 36.9677 56.8657 39.1159C59.012 44.8078 59.0111 51.1942 56.8653 56.8862ZM89.4161 41.0006H64.884L82.2298 23.6648C79.5076 19.8433 76.1467 16.4862 72.3228 13.7656L54.9758 31.1014V6.58525C50.346 5.80693 45.5979 5.80811 40.9682 6.58525V31.1014L23.6211 13.7656C19.7982 16.4844 16.4363 19.846 13.7139 23.6648L31.0623 41.0006H6.53049C5.92494 45.7661 5.7282 50.2448 6.53049 55.0004H31.0626L13.7142 72.3363C16.4432 76.1635 19.7914 79.5095 23.6211 82.2368L40.9682 64.8996V89.4171C45.5985 90.1925 50.3452 90.193 54.9754 89.4171V64.8996L72.3241 82.2368C76.1497 79.5135 79.5046 76.1592 82.2298 72.3363L64.8814 55.0004H89.4161C90.1946 50.3777 90.1946 45.6234 89.4161 41.0006Z" fill="#FF4A00"/>
</svg>
