<?xml version="1.0" encoding="UTF-8"?>
<svg width="1600" height="900" viewBox="0 0 1600 900" fill="none" xmlns="http://www.w3.org/2000/svg" role="img" aria-labelledby="title desc">
  <title id="title">Trusted Execution on Tangle: How TEE Works in the Blueprint SDK</title>
  <desc id="desc">Branded Tangle blog cover artwork</desc>
  <defs>
    <linearGradient id="bg" x1="110" y1="72" x2="1502" y2="868" gradientUnits="userSpaceOnUse">
      <stop offset="0" stop-color="#090d1f"/>
      <stop offset="0.46" stop-color="#1a2f53"/>
      <stop offset="0.76" stop-color="#365b96"/>
      <stop offset="1" stop-color="#6a9cf8"/>
    </linearGradient>
    <radialGradient id="orbA" cx="0" cy="0" r="1" gradientUnits="userSpaceOnUse" gradientTransform="translate(1256 180) rotate(90) scale(280 420)">
      <stop stop-color="#8e59ff" stop-opacity="0.46"/>
      <stop offset="1" stop-color="#8e59ff" stop-opacity="0"/>
    </radialGradient>
    <radialGradient id="orbB" cx="0" cy="0" r="1" gradientUnits="userSpaceOnUse" gradientTransform="translate(192 740) rotate(90) scale(320 520)">
      <stop stop-color="#6EA3FF" stop-opacity="0.28"/>
      <stop offset="1" stop-color="#6EA3FF" stop-opacity="0"/>
    </radialGradient>
    <pattern id="grid" width="48" height="48" patternUnits="userSpaceOnUse">
      <path d="M48 0H0V48" fill="none" stroke="#C6D8FF" stroke-opacity="0.12"/>
    </pattern>
    <linearGradient id="panel" x1="0" y1="0" x2="0" y2="1">
      <stop offset="0" stop-color="#061020" stop-opacity="0.08"/>
      <stop offset="1" stop-color="#061020" stop-opacity="0.62"/>
    </linearGradient>
  </defs>

  <rect width="1600" height="900" fill="url(#bg)"/>
  <rect width="1600" height="900" fill="url(#grid)"/>
  <rect width="1600" height="900" fill="url(#orbA)"/>
  <rect width="1600" height="900" fill="url(#orbB)"/>

  <rect x="78" y="84" width="1444" height="732" rx="36" fill="url(#panel)" stroke="#D5E5FF" stroke-opacity="0.2"/>
  <path d="M78 724C258 664 386 794 604 744C874 682 1014 540 1244 584C1348 604 1476 670 1522 704V816H78V724Z" fill="#050D1A" fill-opacity="0.44"/>

  <g>
    <rect x="120" y="126" width="248" height="44" rx="22" fill="#EDF3FF" fill-opacity="0.14" stroke="#E1EBFF" stroke-opacity="0.32"/>
    <text x="148" y="155" fill="#E9F1FF" font-family="'Space Grotesk', 'Segoe UI', sans-serif" font-size="20" font-weight="700" letter-spacing="2.6">TANGLE.TOOLS / POST</text>
  </g>

  <g>
    <rect x="120" y="194" width="170" height="38" rx="19" fill="#0E1830" fill-opacity="0.52" stroke="#BFD3FF" stroke-opacity="0.34"/>
    <text x="147" y="219" fill="#BFD2FF" font-family="'Space Grotesk', 'Segoe UI', sans-serif" font-size="16" font-weight="600" letter-spacing="1.4">TEE</text>
  </g>

  <text x="120" y="372" fill="#F2F7FF" font-family="'Space Grotesk', 'Segoe UI', sans-serif" font-size="70" font-weight="700" letter-spacing="0.1">
    <tspan x="120" dy="0">Trusted Execution on Tangle: How</tspan><tspan x="120" dy="74">TEE Works in the Blueprint SDK</tspan>
  </text>

  <g opacity="0.94">
    <circle cx="1288" cy="212" r="94" fill="#F4F7FF" fill-opacity="0.14" stroke="#DBE8FF" stroke-opacity="0.38" stroke-width="2"/>
    <circle cx="1288" cy="212" r="68" fill="#F4F7FF" fill-opacity="0.08" stroke="#DBE8FF" stroke-opacity="0.46" stroke-width="2"/>
    <image href="/brand/tangle-icon-filled.svg" x="1248" y="172" width="80" height="80"/>
  </g>

  <g opacity="0.9">
    <circle cx="120" cy="785" r="9" fill="#C4DBFF"/>
    <circle cx="158" cy="785" r="9" fill="#C4DBFF" fill-opacity="0.82"/>
    <circle cx="196" cy="785" r="9" fill="#C4DBFF" fill-opacity="0.58"/>
    <path d="M226 785H446" stroke="#C4DBFF" stroke-opacity="0.62" stroke-width="3" stroke-linecap="round"/>
  </g>

  <text x="120" y="842" fill="#A9C1E8" font-family="'Space Mono', 'SF Mono', monospace" font-size="21" letter-spacing="0.6">trusted-execution-on-tangle</text>
</svg>
